# WaveFront *.obj file (generated by Autodesk ATF)

mtllib Hackpad Case 2.mtl

g Body1

v 0.677034 0.640400 0.150000
v 0.702590 0.834514 0.150000
v 0.777515 1.015400 0.150000
v 0.896704 1.170730 0.150000
v 1.052034 1.289919 0.150000
v 1.232920 1.364844 0.150000
v 1.427034 1.390400 0.150000
v 1.427034 1.390400 0.000000
v 1.232920 1.364844 0.000000
v 1.052034 1.289919 0.000000
v 0.896704 1.170730 0.000000
v 0.777515 1.015400 0.000000
v 0.702590 0.834514 0.000000
v 0.677034 0.640400 0.000000
v 0.677034 -8.059600 0.000000
v 0.677034 -8.059600 0.150000
v 1.947034 -5.646600 0.000000
v 3.802034 -5.646600 0.000000
v 3.802034 -7.551600 0.000000
v 5.707034 -7.551600 0.000000
v 5.707034 -1.836600 0.000000
v 1.947034 -1.836600 0.000000
v 6.307034 -8.309600 0.000000
v 6.312827 -8.353599 0.000000
v 6.329810 -8.394600 0.000000
v 6.356826 -8.429808 0.000000
v 6.392034 -8.456824 0.000000
v 6.433035 -8.473807 0.000000
v 6.477034 -8.479600 0.000000
v 6.521033 -8.473807 0.000000
v 6.562034 -8.456824 0.000000
v 6.597242 -8.429808 0.000000
v 6.624258 -8.394600 0.000000
v 6.641241 -8.353599 0.000000
v 6.647034 -8.309600 0.000000
v 6.641241 -8.265601 0.000000
v 6.624258 -8.224600 0.000000
v 6.597242 -8.189392 0.000000
v 6.562034 -8.162376 0.000000
v 6.521033 -8.145393 0.000000
v 6.477034 -8.139600 0.000000
v 6.433035 -8.145393 0.000000
v 6.392034 -8.162376 0.000000
v 6.356826 -8.189392 0.000000
v 6.329810 -8.224600 0.000000
v 6.312827 -8.265601 0.000000
v 1.007034 0.890400 0.000000
v 1.012827 0.846401 0.000000
v 1.029810 0.805400 0.000000
v 1.056826 0.770192 0.000000
v 1.092034 0.743176 0.000000
v 1.133035 0.726193 0.000000
v 1.177034 0.720400 0.000000
v 1.221033 0.726193 0.000000
v 1.262034 0.743176 0.000000
v 1.297242 0.770192 0.000000
v 1.324258 0.805400 0.000000
v 1.341241 0.846401 0.000000
v 1.347034 0.890400 0.000000
v 1.341241 0.934399 0.000000
v 1.324258 0.975400 0.000000
v 1.297242 1.010608 0.000000
v 1.262034 1.037624 0.000000
v 1.221033 1.054607 0.000000
v 1.177034 1.060400 0.000000
v 1.133035 1.054607 0.000000
v 1.092034 1.037624 0.000000
v 1.056826 1.010608 0.000000
v 1.029810 0.975400 0.000000
v 1.012827 0.934399 0.000000
v 6.307034 0.890400 0.000000
v 6.312827 0.846401 0.000000
v 6.329810 0.805400 0.000000
v 6.356826 0.770192 0.000000
v 6.392034 0.743176 0.000000
v 6.433035 0.726193 0.000000
v 6.477034 0.720400 0.000000
v 6.521033 0.726193 0.000000
v 6.562034 0.743176 0.000000
v 6.597242 0.770192 0.000000
v 6.624258 0.805400 0.000000
v 6.641241 0.846401 0.000000
v 6.647034 0.890400 0.000000
v 6.641241 0.934399 0.000000
v 6.624258 0.975400 0.000000
v 6.597242 1.010608 0.000000
v 6.562034 1.037624 0.000000
v 6.521033 1.054607 0.000000
v 6.477034 1.060400 0.000000
v 6.433035 1.054607 0.000000
v 6.392034 1.037624 0.000000
v 6.356826 1.010608 0.000000
v 6.329810 0.975400 0.000000
v 6.312827 0.934399 0.000000
v 1.007034 -8.309600 0.000000
v 1.012827 -8.353599 0.000000
v 1.029810 -8.394600 0.000000
v 1.056826 -8.429808 0.000000
v 1.092034 -8.456824 0.000000
v 1.133035 -8.473807 0.000000
v 1.177034 -8.479600 0.000000
v 1.221033 -8.473807 0.000000
v 1.262034 -8.456824 0.000000
v 1.297242 -8.429808 0.000000
v 1.324258 -8.394600 0.000000
v 1.341241 -8.353599 0.000000
v 1.347034 -8.309600 0.000000
v 1.341241 -8.265601 0.000000
v 1.324258 -8.224600 0.000000
v 1.297242 -8.189392 0.000000
v 1.262034 -8.162376 0.000000
v 1.221033 -8.145393 0.000000
v 1.177034 -8.139600 0.000000
v 1.133035 -8.145393 0.000000
v 1.092034 -8.162376 0.000000
v 1.056826 -8.189392 0.000000
v 1.029810 -8.224600 0.000000
v 1.012827 -8.265601 0.000000
v 2.946034 1.390400 0.000000
v 2.946034 -1.709600 0.000000
v 4.796034 -1.709600 0.000000
v 4.796034 1.390400 0.000000
v 6.227034 1.390400 0.000000
v 6.421148 1.364844 0.000000
v 6.602034 1.289919 0.000000
v 6.757364 1.170730 0.000000
v 6.876553 1.015400 0.000000
v 6.951478 0.834514 0.000000
v 6.977034 0.640400 0.000000
v 6.977034 -8.059600 0.000000
v 6.951478 -8.253714 0.000000
v 6.876553 -8.434600 0.000000
v 6.757364 -8.589930 0.000000
v 6.602034 -8.709119 0.000000
v 6.421148 -8.784044 0.000000
v 6.227034 -8.809600 0.000000
v 1.427034 -8.809600 0.000000
v 1.232920 -8.784044 0.000000
v 1.052034 -8.709119 0.000000
v 0.896704 -8.589930 0.000000
v 0.777515 -8.434600 0.000000
v 0.702590 -8.253714 0.000000
v 6.227034 1.390400 0.150000
v 6.421148 1.364844 0.150000
v 6.602034 1.289919 0.150000
v 6.757364 1.170730 0.150000
v 6.876553 1.015400 0.150000
v 6.951478 0.834514 0.150000
v 6.977034 0.640400 0.150000
v 6.977034 -8.059600 0.150000
v 6.951478 -8.253714 0.150000
v 6.876553 -8.434600 0.150000
v 6.757364 -8.589930 0.150000
v 6.602034 -8.709119 0.150000
v 6.421148 -8.784044 0.150000
v 6.227034 -8.809600 0.150000
v 1.427034 -8.809600 0.150000
v 1.232920 -8.784044 0.150000
v 1.052034 -8.709119 0.150000
v 0.896704 -8.589930 0.150000
v 0.777515 -8.434600 0.150000
v 0.702590 -8.253714 0.150000
v 1.007034 -8.309600 0.150000
v 1.012827 -8.353599 0.150000
v 1.029810 -8.394600 0.150000
v 1.056826 -8.429808 0.150000
v 1.092034 -8.456824 0.150000
v 1.133035 -8.473807 0.150000
v 1.177034 -8.479600 0.150000
v 1.221033 -8.473807 0.150000
v 1.262034 -8.456824 0.150000
v 1.297242 -8.429808 0.150000
v 1.324258 -8.394600 0.150000
v 1.341241 -8.353599 0.150000
v 1.347034 -8.309600 0.150000
v 1.341241 -8.265601 0.150000
v 1.324258 -8.224600 0.150000
v 1.297242 -8.189392 0.150000
v 1.262034 -8.162376 0.150000
v 1.221033 -8.145393 0.150000
v 1.177034 -8.139600 0.150000
v 1.133035 -8.145393 0.150000
v 1.092034 -8.162376 0.150000
v 1.056826 -8.189392 0.150000
v 1.029810 -8.224600 0.150000
v 1.012827 -8.265601 0.150000
v 6.307034 0.890400 0.150000
v 6.312827 0.846401 0.150000
v 6.329810 0.805400 0.150000
v 6.356826 0.770192 0.150000
v 6.392034 0.743176 0.150000
v 6.433035 0.726193 0.150000
v 6.477034 0.720400 0.150000
v 6.521033 0.726193 0.150000
v 6.562034 0.743176 0.150000
v 6.597242 0.770192 0.150000
v 6.624258 0.805400 0.150000
v 6.641241 0.846401 0.150000
v 6.647034 0.890400 0.150000
v 6.641241 0.934399 0.150000
v 6.624258 0.975400 0.150000
v 6.597242 1.010608 0.150000
v 6.562034 1.037624 0.150000
v 6.521033 1.054607 0.150000
v 6.477034 1.060400 0.150000
v 6.433035 1.054607 0.150000
v 6.392034 1.037624 0.150000
v 6.356826 1.010608 0.150000
v 6.329810 0.975400 0.150000
v 6.312827 0.934399 0.150000
v 1.007034 0.890400 0.150000
v 1.012827 0.846401 0.150000
v 1.029810 0.805400 0.150000
v 1.056826 0.770192 0.150000
v 1.092034 0.743176 0.150000
v 1.133035 0.726193 0.150000
v 1.177034 0.720400 0.150000
v 1.221033 0.726193 0.150000
v 1.262034 0.743176 0.150000
v 1.297242 0.770192 0.150000
v 1.324258 0.805400 0.150000
v 1.341241 0.846401 0.150000
v 1.347034 0.890400 0.150000
v 1.341241 0.934399 0.150000
v 1.324258 0.975400 0.150000
v 1.297242 1.010608 0.150000
v 1.262034 1.037624 0.150000
v 1.221033 1.054607 0.150000
v 1.177034 1.060400 0.150000
v 1.133035 1.054607 0.150000
v 1.092034 1.037624 0.150000
v 1.056826 1.010608 0.150000
v 1.029810 0.975400 0.150000
v 1.012827 0.934399 0.150000
v 6.307034 -8.309600 0.150000
v 6.312827 -8.353599 0.150000
v 6.329810 -8.394600 0.150000
v 6.356826 -8.429808 0.150000
v 6.392034 -8.456824 0.150000
v 6.433035 -8.473807 0.150000
v 6.477034 -8.479600 0.150000
v 6.521033 -8.473807 0.150000
v 6.562034 -8.456824 0.150000
v 6.597242 -8.429808 0.150000
v 6.624258 -8.394600 0.150000
v 6.641241 -8.353599 0.150000
v 6.647034 -8.309600 0.150000
v 6.641241 -8.265601 0.150000
v 6.624258 -8.224600 0.150000
v 6.597242 -8.189392 0.150000
v 6.562034 -8.162376 0.150000
v 6.521033 -8.145393 0.150000
v 6.477034 -8.139600 0.150000
v 6.433035 -8.145393 0.150000
v 6.392034 -8.162376 0.150000
v 6.356826 -8.189392 0.150000
v 6.329810 -8.224600 0.150000
v 6.312827 -8.265601 0.150000
v 3.802034 -5.646600 0.150000
v 3.802034 -7.551600 0.150000
v 5.707034 -7.551600 0.150000
v 5.707034 -1.836600 0.150000
v 1.947034 -1.836600 0.150000
v 1.947034 -5.646600 0.150000
v 4.796034 1.390400 0.150000
v 2.946034 1.390400 0.150000
v 2.946034 -1.709600 0.150000
v 4.796034 -1.709600 0.150000
vt -0.000000 0.589049 0.000000
vt -0.150000 0.589049 0.000000
vt -0.000000 0.392699 0.000000
vt -0.150000 0.392699 0.000000
vt -0.000000 0.196350 0.000000
vt -0.150000 0.196350 0.000000
vt -0.000000 -0.000000 0.000000
vt -0.150000 -0.000000 0.000000
vt -0.000000 -0.196350 0.000000
vt -0.150000 -0.196350 0.000000
vt -0.000000 -0.392699 0.000000
vt -0.150000 -0.392699 0.000000
vt -0.000000 -0.589049 0.000000
vt -0.150000 -0.589049 0.000000
vt 0.750000 0.000000 0.000000
vt 9.450000 0.000000 0.000000
vt 0.750000 0.150000 0.000000
vt 9.450000 0.150000 0.000000
vt 0.025000 -1.937000 0.000000
vt 0.025000 -3.842000 0.000000
vt 1.880000 -1.937000 0.000000
vt 2.485793 -4.556001 0.000000
vt 2.502776 -4.515000 0.000000
vt -1.880000 -3.842000 0.000000
vt -2.400000 -5.100000 0.000000
vt 2.400000 -5.100000 0.000000
vt 2.480000 -4.600000 0.000000
vt 2.485793 -4.643999 0.000000
vt 2.502776 -4.685000 0.000000
vt 2.529792 -4.720208 0.000000
vt 2.565000 -4.747224 0.000000
vt 2.594114 -5.074444 0.000000
vt 2.606001 -4.764207 0.000000
vt 2.650000 -4.770000 0.000000
vt 2.775000 -4.999519 0.000000
vt 2.693999 -4.764207 0.000000
vt 2.735000 -4.747224 0.000000
vt 2.770208 -4.720208 0.000000
vt 2.930330 -4.880330 0.000000
vt 2.797224 -4.685000 0.000000
vt 2.814207 -4.643999 0.000000
vt 3.049519 -4.725000 0.000000
vt 2.820000 -4.600000 0.000000
vt 2.814207 -4.556001 0.000000
vt 3.124444 -4.544114 0.000000
vt 3.150000 -4.350000 0.000000
vt -1.880000 1.873000 0.000000
vt -3.150000 -4.350000 0.000000
vt -2.693999 -4.435793 0.000000
vt -2.650000 -4.430000 0.000000
vt 1.880000 1.873000 0.000000
vt 0.881000 2.000000 0.000000
vt -0.969000 2.000000 0.000000
vt -0.969000 5.100000 0.000000
vt 3.150000 4.350000 0.000000
vt 2.693999 4.435793 0.000000
vt 2.735000 4.452776 0.000000
vt 2.770208 4.479792 0.000000
vt 2.797224 4.515000 0.000000
vt 2.814207 4.556001 0.000000
vt 3.124444 4.544114 0.000000
vt 3.049519 4.725000 0.000000
vt -2.485793 -4.643999 0.000000
vt -2.480000 -4.600000 0.000000
vt -2.485793 -4.556001 0.000000
vt -2.502776 -4.515000 0.000000
vt -2.529792 -4.479792 0.000000
vt -2.565000 -4.452776 0.000000
vt -2.606001 -4.435793 0.000000
vt -2.502776 -4.685000 0.000000
vt -2.529792 -4.720208 0.000000
vt -2.565000 -4.747224 0.000000
vt -2.594114 -5.074444 0.000000
vt -2.606001 -4.764207 0.000000
vt -2.650000 -4.770000 0.000000
vt -2.775000 -4.999519 0.000000
vt -2.693999 -4.764207 0.000000
vt -2.735000 -4.747224 0.000000
vt -2.770208 -4.720208 0.000000
vt -2.930330 -4.880330 0.000000
vt -2.797224 -4.685000 0.000000
vt -2.814207 -4.643999 0.000000
vt -3.049519 -4.725000 0.000000
vt -2.820000 -4.600000 0.000000
vt -2.814207 -4.556001 0.000000
vt -2.797224 -4.515000 0.000000
vt -3.124444 -4.544114 0.000000
vt -2.770208 -4.479792 0.000000
vt -2.735000 -4.452776 0.000000
vt 2.814207 4.643999 0.000000
vt 2.820000 4.600000 0.000000
vt 2.650000 4.430000 0.000000
vt 2.606001 4.435793 0.000000
vt 2.565000 4.452776 0.000000
vt 2.529792 4.479792 0.000000
vt 2.502776 4.515000 0.000000
vt 2.485793 4.556001 0.000000
vt 0.881000 5.100000 0.000000
vt 2.480000 4.600000 0.000000
vt 2.400000 5.100000 0.000000
vt 2.485793 4.643999 0.000000
vt 2.502776 4.685000 0.000000
vt 2.529792 4.720208 0.000000
vt 2.565000 4.747224 0.000000
vt 2.594114 5.074444 0.000000
vt 2.606001 4.764207 0.000000
vt 2.650000 4.770000 0.000000
vt 2.775000 4.999519 0.000000
vt 2.693999 4.764207 0.000000
vt 2.735000 4.747224 0.000000
vt 2.770208 4.720208 0.000000
vt 2.930330 4.880330 0.000000
vt 2.797224 4.685000 0.000000
vt -2.485793 4.556001 0.000000
vt -2.480000 4.600000 0.000000
vt -2.400000 5.100000 0.000000
vt -2.485793 4.643999 0.000000
vt -2.502776 4.685000 0.000000
vt -2.529792 4.720208 0.000000
vt -2.565000 4.747224 0.000000
vt -2.594114 5.074444 0.000000
vt -2.606001 4.764207 0.000000
vt -2.650000 4.770000 0.000000
vt -2.775000 4.999519 0.000000
vt -2.693999 4.764207 0.000000
vt -2.735000 4.747224 0.000000
vt -2.770208 4.720208 0.000000
vt -2.930330 4.880330 0.000000
vt -2.797224 4.685000 0.000000
vt -2.814207 4.643999 0.000000
vt -3.049519 4.725000 0.000000
vt -2.820000 4.600000 0.000000
vt -2.814207 4.556001 0.000000
vt -3.124444 4.544114 0.000000
vt -3.150000 4.350000 0.000000
vt -2.502776 4.515000 0.000000
vt -2.529792 4.479792 0.000000
vt -2.565000 4.452776 0.000000
vt -2.606001 4.435793 0.000000
vt -2.650000 4.430000 0.000000
vt -2.693999 4.435793 0.000000
vt -2.735000 4.452776 0.000000
vt -2.770208 4.479792 0.000000
vt -2.797224 4.515000 0.000000
vt 2.529792 -4.479792 0.000000
vt 2.565000 -4.452776 0.000000
vt 2.606001 -4.435793 0.000000
vt 2.650000 -4.430000 0.000000
vt 2.693999 -4.435793 0.000000
vt 2.735000 -4.452776 0.000000
vt 2.770208 -4.479792 0.000000
vt 2.797224 -4.515000 0.000000
vt -0.000000 0.589049 0.000000
vt -0.150000 0.589049 0.000000
vt -0.000000 0.392699 0.000000
vt -0.150000 0.392699 0.000000
vt -0.000000 0.196350 0.000000
vt -0.150000 0.196350 0.000000
vt -0.000000 0.000000 0.000000
vt -0.150000 0.000000 0.000000
vt -0.000000 -0.196350 0.000000
vt -0.150000 -0.196350 0.000000
vt -0.000000 -0.392699 0.000000
vt -0.150000 -0.392699 0.000000
vt -0.000000 -0.589049 0.000000
vt -0.150000 -0.589049 0.000000
vt 9.450000 0.150000 0.000000
vt 0.750000 0.150000 0.000000
vt 9.450000 0.000000 0.000000
vt 0.750000 0.000000 0.000000
vt -0.000000 0.589049 0.000000
vt -0.150000 0.589049 0.000000
vt -0.000000 0.392699 0.000000
vt -0.150000 0.392699 0.000000
vt -0.000000 0.196350 0.000000
vt -0.150000 0.196350 0.000000
vt -0.000000 -0.000000 0.000000
vt -0.150000 -0.000000 0.000000
vt -0.000000 -0.196350 0.000000
vt -0.150000 -0.196350 0.000000
vt -0.000000 -0.392699 0.000000
vt -0.150000 -0.392699 0.000000
vt -0.000000 -0.589049 0.000000
vt -0.150000 -0.589049 0.000000
vt -0.000000 0.589049 0.000000
vt -0.150000 0.589049 0.000000
vt -0.000000 0.392699 0.000000
vt -0.150000 0.392699 0.000000
vt -0.000000 0.196350 0.000000
vt -0.150000 0.196350 0.000000
vt -0.000000 0.000000 0.000000
vt -0.150000 0.000000 0.000000
vt -0.000000 -0.196350 0.000000
vt -0.150000 -0.196350 0.000000
vt -0.000000 -0.392699 0.000000
vt -0.150000 -0.392699 0.000000
vt -0.000000 -0.589049 0.000000
vt -0.150000 -0.589049 0.000000
vt 0.150000 -0.489565 0.000000
vt 0.000000 -0.489565 0.000000
vt 0.150000 -0.534071 0.000000
vt 0.000000 -0.534071 0.000000
vt 0.150000 0.534071 0.000000
vt 0.000000 0.534071 0.000000
vt 0.150000 0.489565 0.000000
vt 0.000000 0.489565 0.000000
vt 0.150000 0.445059 0.000000
vt 0.000000 0.445059 0.000000
vt 0.150000 0.400553 0.000000
vt 0.000000 0.400553 0.000000
vt 0.150000 0.356047 0.000000
vt -0.000000 0.356047 0.000000
vt 0.150000 0.311541 0.000000
vt 0.000000 0.311541 0.000000
vt 0.150000 0.267035 0.000000
vt -0.000000 0.267035 0.000000
vt 0.150000 0.222529 0.000000
vt 0.000000 0.222529 0.000000
vt 0.150000 0.178024 0.000000
vt -0.000000 0.178024 0.000000
vt 0.150000 0.133518 0.000000
vt 0.000000 0.133518 0.000000
vt 0.150000 0.089012 0.000000
vt 0.000000 0.089012 0.000000
vt 0.150000 0.044506 0.000000
vt 0.000000 0.044506 0.000000
vt 0.150000 0.000000 0.000000
vt 0.000000 0.000000 0.000000
vt 0.150000 -0.044506 0.000000
vt -0.000000 -0.044506 0.000000
vt 0.150000 -0.089012 0.000000
vt 0.000000 -0.089012 0.000000
vt 0.150000 -0.133518 0.000000
vt 0.000000 -0.133518 0.000000
vt 0.150000 -0.178024 0.000000
vt -0.000000 -0.178024 0.000000
vt 0.150000 -0.222529 0.000000
vt 0.000000 -0.222529 0.000000
vt 0.150000 -0.267035 0.000000
vt -0.000000 -0.267035 0.000000
vt 0.150000 -0.311541 0.000000
vt 0.000000 -0.311541 0.000000
vt 0.150000 -0.356047 0.000000
vt -0.000000 -0.356047 0.000000
vt 0.150000 -0.400553 0.000000
vt 0.000000 -0.400553 0.000000
vt 0.150000 -0.445059 0.000000
vt 0.000000 -0.445059 0.000000
vt 0.150000 -0.489565 0.000000
vt -0.000000 -0.489565 0.000000
vt 0.150000 -0.534071 0.000000
vt 0.000000 -0.534071 0.000000
vt 0.150000 0.534071 0.000000
vt 0.000000 0.534071 0.000000
vt 0.150000 0.489565 0.000000
vt -0.000000 0.489565 0.000000
vt 0.150000 0.445059 0.000000
vt -0.000000 0.445059 0.000000
vt 0.150000 0.400553 0.000000
vt -0.000000 0.400553 0.000000
vt 0.150000 0.356047 0.000000
vt -0.000000 0.356047 0.000000
vt 0.150000 0.311541 0.000000
vt 0.000000 0.311541 0.000000
vt 0.150000 0.267035 0.000000
vt 0.000000 0.267035 0.000000
vt 0.150000 0.222529 0.000000
vt 0.000000 0.222529 0.000000
vt 0.150000 0.178024 0.000000
vt -0.000000 0.178024 0.000000
vt 0.150000 0.133518 0.000000
vt -0.000000 0.133518 0.000000
vt 0.150000 0.089012 0.000000
vt -0.000000 0.089012 0.000000
vt 0.150000 0.044506 0.000000
vt -0.000000 0.044506 0.000000
vt 0.150000 0.000000 0.000000
vt 0.000000 0.000000 0.000000
vt 0.150000 -0.044506 0.000000
vt -0.000000 -0.044506 0.000000
vt 0.150000 -0.089012 0.000000
vt -0.000000 -0.089012 0.000000
vt 0.150000 -0.133518 0.000000
vt -0.000000 -0.133518 0.000000
vt 0.150000 -0.178024 0.000000
vt 0.000000 -0.178024 0.000000
vt 0.150000 -0.222529 0.000000
vt 0.000000 -0.222529 0.000000
vt 0.150000 -0.267035 0.000000
vt 0.000000 -0.267035 0.000000
vt 0.150000 -0.311541 0.000000
vt 0.000000 -0.311541 0.000000
vt 0.150000 -0.356047 0.000000
vt -0.000000 -0.356047 0.000000
vt 0.150000 -0.400553 0.000000
vt -0.000000 -0.400553 0.000000
vt 0.150000 -0.445059 0.000000
vt -0.000000 -0.445059 0.000000
vt 0.150000 -0.489565 0.000000
vt 0.000000 -0.489565 0.000000
vt 0.150000 -0.534071 0.000000
vt 0.000000 -0.534071 0.000000
vt 0.150000 0.534071 0.000000
vt 0.000000 0.534071 0.000000
vt 0.150000 0.489565 0.000000
vt 0.000000 0.489565 0.000000
vt 0.150000 0.445059 0.000000
vt -0.000000 0.445059 0.000000
vt 0.150000 0.400553 0.000000
vt -0.000000 0.400553 0.000000
vt 0.150000 0.356047 0.000000
vt -0.000000 0.356047 0.000000
vt 0.150000 0.311541 0.000000
vt 0.000000 0.311541 0.000000
vt 0.150000 0.267035 0.000000
vt 0.000000 0.267035 0.000000
vt 0.150000 0.222529 0.000000
vt 0.000000 0.222529 0.000000
vt 0.150000 0.178024 0.000000
vt -0.000000 0.178024 0.000000
vt 0.150000 0.133518 0.000000
vt -0.000000 0.133518 0.000000
vt 0.150000 0.089012 0.000000
vt 0.000000 0.089012 0.000000
vt 0.150000 0.044506 0.000000
vt 0.000000 0.044506 0.000000
vt 0.150000 0.000000 0.000000
vt 0.000000 0.000000 0.000000
vt 0.150000 -0.044506 0.000000
vt 0.000000 -0.044506 0.000000
vt 0.150000 -0.089012 0.000000
vt -0.000000 -0.089012 0.000000
vt 0.150000 -0.133518 0.000000
vt -0.000000 -0.133518 0.000000
vt 0.150000 -0.178024 0.000000
vt 0.000000 -0.178024 0.000000
vt 0.150000 -0.222529 0.000000
vt 0.000000 -0.222529 0.000000
vt 0.150000 -0.267035 0.000000
vt 0.000000 -0.267035 0.000000
vt 0.150000 -0.311541 0.000000
vt -0.000000 -0.311541 0.000000
vt 0.150000 -0.356047 0.000000
vt -0.000000 -0.356047 0.000000
vt 0.150000 -0.400553 0.000000
vt 0.000000 -0.400553 0.000000
vt 0.150000 -0.445059 0.000000
vt 0.000000 -0.445059 0.000000
vt 0.150000 -0.489565 0.000000
vt -0.000000 -0.489565 0.000000
vt 0.150000 -0.534071 0.000000
vt 0.000000 -0.534071 0.000000
vt 0.150000 0.534071 0.000000
vt 0.000000 0.534071 0.000000
vt 0.150000 0.489565 0.000000
vt -0.000000 0.489565 0.000000
vt 0.150000 0.445059 0.000000
vt 0.000000 0.445059 0.000000
vt 0.150000 0.400553 0.000000
vt 0.000000 0.400553 0.000000
vt 0.150000 0.356047 0.000000
vt -0.000000 0.356047 0.000000
vt 0.150000 0.311541 0.000000
vt 0.000000 0.311541 0.000000
vt 0.150000 0.267035 0.000000
vt 0.000000 0.267035 0.000000
vt 0.150000 0.222529 0.000000
vt 0.000000 0.222529 0.000000
vt 0.150000 0.178024 0.000000
vt -0.000000 0.178024 0.000000
vt 0.150000 0.133518 0.000000
vt 0.000000 0.133518 0.000000
vt 0.150000 0.089012 0.000000
vt -0.000000 0.089012 0.000000
vt 0.150000 0.044506 0.000000
vt -0.000000 0.044506 0.000000
vt 0.150000 0.000000 0.000000
vt 0.000000 0.000000 0.000000
vt 0.150000 -0.044506 0.000000
vt -0.000000 -0.044506 0.000000
vt 0.150000 -0.089012 0.000000
vt 0.000000 -0.089012 0.000000
vt 0.150000 -0.133518 0.000000
vt 0.000000 -0.133518 0.000000
vt 0.150000 -0.178024 0.000000
vt -0.000000 -0.178024 0.000000
vt 0.150000 -0.222529 0.000000
vt 0.000000 -0.222529 0.000000
vt 0.150000 -0.267035 0.000000
vt 0.000000 -0.267035 0.000000
vt 0.150000 -0.311541 0.000000
vt 0.000000 -0.311541 0.000000
vt 0.150000 -0.356047 0.000000
vt -0.000000 -0.356047 0.000000
vt 0.150000 -0.400553 0.000000
vt 0.000000 -0.400553 0.000000
vt 0.150000 -0.445059 0.000000
vt -0.000000 -0.445059 0.000000
vt 0.000000 0.000000 0.000000
vt 1.905000 0.000000 0.000000
vt 0.000000 0.150000 0.000000
vt 1.905000 0.150000 0.000000
vt 0.000000 0.000000 0.000000
vt 1.905000 0.000000 0.000000
vt 0.000000 0.150000 0.000000
vt 1.905000 0.150000 0.000000
vt 0.000000 0.000000 0.000000
vt 5.715000 0.000000 0.000000
vt 0.000000 0.150000 0.000000
vt 5.715000 0.150000 0.000000
vt 0.000000 0.000000 0.000000
vt 3.760000 0.000000 0.000000
vt 0.000000 0.150000 0.000000
vt 3.760000 0.150000 0.000000
vt 0.000000 0.000000 0.000000
vt 3.810000 0.000000 0.000000
vt 0.000000 0.150000 0.000000
vt 3.810000 0.150000 0.000000
vt 0.000000 0.000000 0.000000
vt 1.855000 0.000000 0.000000
vt 0.000000 0.150000 0.000000
vt 1.855000 0.150000 0.000000
vt 0.750000 0.000000 0.000000
vt 2.181000 0.000000 0.000000
vt 0.750000 0.150000 0.000000
vt 2.181000 0.150000 0.000000
vt 5.550000 0.150000 0.000000
vt 0.750000 0.150000 0.000000
vt 5.550000 0.000000 0.000000
vt 0.750000 0.000000 0.000000
vt 1.519000 0.150000 0.000000
vt 0.000000 0.150000 0.000000
vt 1.519000 0.000000 0.000000
vt -0.000000 0.000000 0.000000
vt 0.000000 0.000000 0.000000
vt 3.100000 0.000000 0.000000
vt 0.000000 0.150000 0.000000
vt 3.100000 0.150000 0.000000
vt 0.000000 0.000000 0.000000
vt 1.850000 0.000000 0.000000
vt 0.000000 0.150000 0.000000
vt 1.850000 0.150000 0.000000
vt 0.000000 0.000000 0.000000
vt 3.100000 0.000000 0.000000
vt 0.000000 0.150000 0.000000
vt 3.100000 0.150000 0.000000
vt -2.594114 5.074444 0.000000
vt -2.565000 4.747224 0.000000
vt -2.400000 5.100000 0.000000
vt -2.529792 4.720208 0.000000
vt -2.502776 4.685000 0.000000
vt -2.775000 4.999519 0.000000
vt -2.650000 4.770000 0.000000
vt -2.606001 4.764207 0.000000
vt -2.930330 4.880330 0.000000
vt -2.770208 4.720208 0.000000
vt -2.735000 4.747224 0.000000
vt -2.693999 4.764207 0.000000
vt -3.049519 4.725000 0.000000
vt -2.814207 4.643999 0.000000
vt -2.797224 4.685000 0.000000
vt -3.124444 4.544114 0.000000
vt -2.814207 4.556001 0.000000
vt -2.820000 4.600000 0.000000
vt -3.150000 4.350000 0.000000
vt -2.797224 4.515000 0.000000
vt -2.770208 4.479792 0.000000
vt -2.735000 4.452776 0.000000
vt -2.693999 4.435793 0.000000
vt -1.880000 1.873000 0.000000
vt -2.650000 4.430000 0.000000
vt -2.606001 4.435793 0.000000
vt -2.565000 4.452776 0.000000
vt -2.529792 4.479792 0.000000
vt -2.502776 4.515000 0.000000
vt -2.485793 4.556001 0.000000
vt -0.881000 5.100000 0.000000
vt -2.480000 4.600000 0.000000
vt -2.485793 4.643999 0.000000
vt -3.150000 -4.350000 0.000000
vt -1.880000 -1.937000 0.000000
vt -2.693999 -4.435793 0.000000
vt -2.650000 -4.430000 0.000000
vt -3.124444 -4.544114 0.000000
vt -2.814207 -4.556001 0.000000
vt -2.797224 -4.515000 0.000000
vt -2.770208 -4.479792 0.000000
vt -3.049519 -4.725000 0.000000
vt -2.820000 -4.600000 0.000000
vt -2.814207 -4.643999 0.000000
vt -2.930330 -4.880330 0.000000
vt -2.797224 -4.685000 0.000000
vt -2.770208 -4.720208 0.000000
vt -2.775000 -4.999519 0.000000
vt -2.735000 -4.747224 0.000000
vt -2.693999 -4.764207 0.000000
vt -2.650000 -4.770000 0.000000
vt -2.594114 -5.074444 0.000000
vt -2.606001 -4.764207 0.000000
vt -2.565000 -4.747224 0.000000
vt -2.400000 -5.100000 0.000000
vt -2.529792 -4.720208 0.000000
vt -2.502776 -4.685000 0.000000
vt -2.485793 -4.643999 0.000000
vt -2.480000 -4.600000 0.000000
vt -0.025000 -3.842000 0.000000
vt -2.485793 -4.556001 0.000000
vt -2.502776 -4.515000 0.000000
vt -2.529792 -4.479792 0.000000
vt -2.565000 -4.452776 0.000000
vt -2.606001 -4.435793 0.000000
vt 2.400000 -5.100000 0.000000
vt 1.880000 -3.842000 0.000000
vt 2.480000 -4.600000 0.000000
vt 2.485793 -4.556001 0.000000
vt 2.594114 -5.074444 0.000000
vt 2.565000 -4.747224 0.000000
vt 2.529792 -4.720208 0.000000
vt 2.502776 -4.685000 0.000000
vt 2.775000 -4.999519 0.000000
vt 2.650000 -4.770000 0.000000
vt 2.606001 -4.764207 0.000000
vt 2.930330 -4.880330 0.000000
vt 2.770208 -4.720208 0.000000
vt 2.735000 -4.747224 0.000000
vt 2.693999 -4.764207 0.000000
vt 3.049519 -4.725000 0.000000
vt 2.814207 -4.643999 0.000000
vt 2.797224 -4.685000 0.000000
vt 3.124444 -4.544114 0.000000
vt 2.814207 -4.556001 0.000000
vt 2.820000 -4.600000 0.000000
vt 3.150000 -4.350000 0.000000
vt 2.797224 -4.515000 0.000000
vt 2.770208 -4.479792 0.000000
vt 2.735000 -4.452776 0.000000
vt 2.693999 -4.435793 0.000000
vt 2.650000 -4.430000 0.000000
vt 2.606001 -4.435793 0.000000
vt 2.565000 -4.452776 0.000000
vt 2.529792 -4.479792 0.000000
vt 2.502776 -4.515000 0.000000
vt 1.880000 1.873000 0.000000
vt 3.150000 4.350000 0.000000
vt 2.693999 4.435793 0.000000
vt 2.735000 4.452776 0.000000
vt 2.770208 4.479792 0.000000
vt 2.797224 4.515000 0.000000
vt 2.814207 4.556001 0.000000
vt 3.124444 4.544114 0.000000
vt 3.049519 4.725000 0.000000
vt 2.930330 4.880330 0.000000
vt 2.814207 4.643999 0.000000
vt 2.820000 4.600000 0.000000
vt 2.775000 4.999519 0.000000
vt 2.770208 4.720208 0.000000
vt 2.797224 4.685000 0.000000
vt 2.594114 5.074444 0.000000
vt 2.650000 4.770000 0.000000
vt 2.693999 4.764207 0.000000
vt 2.735000 4.747224 0.000000
vt 2.400000 5.100000 0.000000
vt 2.565000 4.747224 0.000000
vt 2.606001 4.764207 0.000000
vt 0.969000 5.100000 0.000000
vt 2.480000 4.600000 0.000000
vt 2.485793 4.643999 0.000000
vt 2.502776 4.685000 0.000000
vt 0.969000 2.000000 0.000000
vt 2.485793 4.556001 0.000000
vt -0.881000 2.000000 0.000000
vt -0.025000 -1.937000 0.000000
vt 2.485793 -4.643999 0.000000
vt 2.529792 4.720208 0.000000
vt 2.650000 4.430000 0.000000
vt 2.606001 4.435793 0.000000
vt 2.565000 4.452776 0.000000
vt 2.529792 4.479792 0.000000
vt 2.502776 4.515000 0.000000
vt -2.735000 -4.452776 0.000000
vn -1.000000 0.000000 -0.000000
vn -1.000000 0.000000 -0.000000
vn -0.965926 0.258819 -0.000000
vn -0.965926 0.258819 -0.000000
vn -0.866025 0.500000 -0.000000
vn -0.866025 0.500000 -0.000000
vn -0.707107 0.707107 -0.000000
vn -0.707107 0.707107 -0.000000
vn -0.500000 0.866025 -0.000000
vn -0.500000 0.866025 -0.000000
vn -0.258819 0.965926 -0.000000
vn -0.258819 0.965926 -0.000000
vn 0.000000 1.000000 -0.000000
vn 0.000000 1.000000 -0.000000
vn -1.000000 0.000000 0.000000
vn -1.000000 0.000000 0.000000
vn -0.000000 0.000000 -1.000000
vn -0.000000 0.000000 -1.000000
vn -0.000000 0.000000 -1.000000
vn -0.000000 0.000000 -1.000000
vn -0.000000 0.000000 -1.000000
vn -0.000000 0.000000 -1.000000
vn -0.000000 0.000000 -1.000000
vn -0.000000 0.000000 -1.000000
vn -0.000000 0.000000 -1.000000
vn -0.000000 0.000000 -1.000000
vn -0.000000 0.000000 -1.000000
vn -0.000000 0.000000 -1.000000
vn -0.000000 0.000000 -1.000000
vn -0.000000 0.000000 -1.000000
vn -0.000000 0.000000 -1.000000
vn -0.000000 0.000000 -1.000000
vn -0.000000 0.000000 -1.000000
vn -0.000000 0.000000 -1.000000
vn -0.000000 0.000000 -1.000000
vn -0.000000 0.000000 -1.000000
vn -0.000000 0.000000 -1.000000
vn -0.000000 0.000000 -1.000000
vn -0.000000 0.000000 -1.000000
vn -0.000000 0.000000 -1.000000
vn -0.000000 0.000000 -1.000000
vn -0.000000 0.000000 -1.000000
vn -0.000000 0.000000 -1.000000
vn -0.000000 0.000000 -1.000000
vn -0.000000 0.000000 -1.000000
vn -0.000000 0.000000 -1.000000
vn -0.000000 0.000000 -1.000000
vn -0.000000 0.000000 -1.000000
vn -0.000000 0.000000 -1.000000
vn -0.000000 0.000000 -1.000000
vn -0.000000 0.000000 -1.000000
vn -0.000000 0.000000 -1.000000
vn -0.000000 0.000000 -1.000000
vn -0.000000 0.000000 -1.000000
vn -0.000000 0.000000 -1.000000
vn -0.000000 0.000000 -1.000000
vn -0.000000 0.000000 -1.000000
vn -0.000000 0.000000 -1.000000
vn -0.000000 0.000000 -1.000000
vn -0.000000 0.000000 -1.000000
vn -0.000000 0.000000 -1.000000
vn -0.000000 0.000000 -1.000000
vn -0.000000 0.000000 -1.000000
vn -0.000000 0.000000 -1.000000
vn -0.000000 0.000000 -1.000000
vn -0.000000 0.000000 -1.000000
vn -0.000000 0.000000 -1.000000
vn -0.000000 0.000000 -1.000000
vn -0.000000 0.000000 -1.000000
vn -0.000000 0.000000 -1.000000
vn -0.000000 0.000000 -1.000000
vn -0.000000 0.000000 -1.000000
vn -0.000000 0.000000 -1.000000
vn -0.000000 0.000000 -1.000000
vn -0.000000 0.000000 -1.000000
vn -0.000000 0.000000 -1.000000
vn -0.000000 0.000000 -1.000000
vn -0.000000 0.000000 -1.000000
vn -0.000000 0.000000 -1.000000
vn -0.000000 0.000000 -1.000000
vn -0.000000 0.000000 -1.000000
vn -0.000000 0.000000 -1.000000
vn -0.000000 0.000000 -1.000000
vn -0.000000 0.000000 -1.000000
vn -0.000000 0.000000 -1.000000
vn -0.000000 0.000000 -1.000000
vn -0.000000 0.000000 -1.000000
vn -0.000000 0.000000 -1.000000
vn -0.000000 0.000000 -1.000000
vn -0.000000 0.000000 -1.000000
vn -0.000000 0.000000 -1.000000
vn -0.000000 0.000000 -1.000000
vn -0.000000 0.000000 -1.000000
vn -0.000000 0.000000 -1.000000
vn -0.000000 0.000000 -1.000000
vn -0.000000 0.000000 -1.000000
vn -0.000000 0.000000 -1.000000
vn -0.000000 0.000000 -1.000000
vn -0.000000 0.000000 -1.000000
vn -0.000000 0.000000 -1.000000
vn -0.000000 0.000000 -1.000000
vn -0.000000 0.000000 -1.000000
vn -0.000000 0.000000 -1.000000
vn -0.000000 0.000000 -1.000000
vn -0.000000 0.000000 -1.000000
vn -0.000000 0.000000 -1.000000
vn -0.000000 0.000000 -1.000000
vn -0.000000 0.000000 -1.000000
vn -0.000000 0.000000 -1.000000
vn -0.000000 0.000000 -1.000000
vn -0.000000 0.000000 -1.000000
vn -0.000000 0.000000 -1.000000
vn -0.000000 0.000000 -1.000000
vn -0.000000 0.000000 -1.000000
vn -0.000000 0.000000 -1.000000
vn -0.000000 0.000000 -1.000000
vn -0.000000 0.000000 -1.000000
vn -0.000000 0.000000 -1.000000
vn -0.000000 0.000000 -1.000000
vn -0.000000 0.000000 -1.000000
vn -0.000000 0.000000 -1.000000
vn -0.000000 0.000000 -1.000000
vn -0.000000 0.000000 -1.000000
vn -0.000000 0.000000 -1.000000
vn -0.000000 0.000000 -1.000000
vn -0.000000 0.000000 -1.000000
vn -0.000000 0.000000 -1.000000
vn -0.000000 0.000000 -1.000000
vn -0.000000 0.000000 -1.000000
vn -0.000000 0.000000 -1.000000
vn -0.000000 0.000000 -1.000000
vn -0.000000 0.000000 -1.000000
vn -0.000000 0.000000 -1.000000
vn -0.000000 0.000000 -1.000000
vn -0.000000 0.000000 -1.000000
vn -0.000000 0.000000 -1.000000
vn -0.000000 0.000000 -1.000000
vn -0.000000 0.000000 -1.000000
vn -0.000000 0.000000 -1.000000
vn -0.000000 0.000000 -1.000000
vn -0.000000 0.000000 -1.000000
vn -0.000000 0.000000 -1.000000
vn -0.000000 0.000000 -1.000000
vn -0.000000 0.000000 -1.000000
vn -0.000000 0.000000 -1.000000
vn -0.000000 0.000000 -1.000000
vn -0.000000 0.000000 -1.000000
vn -0.000000 0.000000 -1.000000
vn -0.000000 0.000000 -1.000000
vn -0.000000 0.000000 -1.000000
vn -0.000000 1.000000 -0.000000
vn -0.000000 1.000000 -0.000000
vn 0.258819 0.965926 -0.000000
vn 0.258819 0.965926 -0.000000
vn 0.500000 0.866025 -0.000000
vn 0.500000 0.866025 -0.000000
vn 0.707107 0.707107 -0.000000
vn 0.707107 0.707107 -0.000000
vn 0.866025 0.500000 -0.000000
vn 0.866025 0.500000 -0.000000
vn 0.965926 0.258819 -0.000000
vn 0.965926 0.258819 -0.000000
vn 1.000000 -0.000000 -0.000000
vn 1.000000 -0.000000 -0.000000
vn 1.000000 0.000000 -0.000000
vn 1.000000 0.000000 -0.000000
vn 0.965926 -0.258819 -0.000000
vn 0.965926 -0.258819 -0.000000
vn 0.866025 -0.500000 -0.000000
vn 0.866025 -0.500000 -0.000000
vn 0.707107 -0.707107 -0.000000
vn 0.707107 -0.707107 -0.000000
vn 0.500000 -0.866025 -0.000000
vn 0.500000 -0.866025 -0.000000
vn 0.258819 -0.965926 -0.000000
vn 0.258819 -0.965926 -0.000000
vn -0.000000 -1.000000 -0.000000
vn -0.000000 -1.000000 -0.000000
vn -0.000000 -1.000000 -0.000000
vn -0.000000 -1.000000 -0.000000
vn -0.258819 -0.965926 0.000000
vn -0.258819 -0.965926 0.000000
vn -0.500000 -0.866025 0.000000
vn -0.500000 -0.866025 0.000000
vn -0.707107 -0.707107 0.000000
vn -0.707107 -0.707107 0.000000
vn -0.866025 -0.500000 0.000000
vn -0.866025 -0.500000 0.000000
vn -0.965926 -0.258819 0.000000
vn -0.965926 -0.258819 0.000000
vn 0.965926 0.258819 -0.000000
vn 0.965926 0.258819 -0.000000
vn 1.000000 0.000000 -0.000000
vn 1.000000 0.000000 -0.000000
vn 0.965926 -0.258819 0.000000
vn 0.965926 -0.258819 0.000000
vn 0.866025 -0.500000 0.000000
vn 0.866025 -0.500000 0.000000
vn 0.707107 -0.707107 0.000000
vn 0.707107 -0.707107 0.000000
vn 0.500000 -0.866025 0.000000
vn 0.500000 -0.866025 0.000000
vn 0.258819 -0.965926 0.000000
vn 0.258819 -0.965926 0.000000
vn -0.000000 -1.000000 0.000000
vn -0.000000 -1.000000 0.000000
vn -0.258819 -0.965926 0.000000
vn -0.258819 -0.965926 0.000000
vn -0.500000 -0.866025 0.000000
vn -0.500000 -0.866025 0.000000
vn -0.707107 -0.707107 0.000000
vn -0.707107 -0.707107 0.000000
vn -0.866025 -0.500000 0.000000
vn -0.866025 -0.500000 0.000000
vn -0.965926 -0.258819 0.000000
vn -0.965926 -0.258819 0.000000
vn -1.000000 0.000000 0.000000
vn -1.000000 0.000000 0.000000
vn -0.965926 0.258819 0.000000
vn -0.965926 0.258819 0.000000
vn -0.866025 0.500000 0.000000
vn -0.866025 0.500000 0.000000
vn -0.707107 0.707107 0.000000
vn -0.707107 0.707107 0.000000
vn -0.500000 0.866025 0.000000
vn -0.500000 0.866025 0.000000
vn -0.258819 0.965926 0.000000
vn -0.258819 0.965926 0.000000
vn -0.000000 1.000000 0.000000
vn -0.000000 1.000000 0.000000
vn 0.258819 0.965926 -0.000000
vn 0.258819 0.965926 -0.000000
vn 0.500000 0.866025 -0.000000
vn 0.500000 0.866025 -0.000000
vn 0.707107 0.707107 -0.000000
vn 0.707107 0.707107 -0.000000
vn 0.866025 0.500000 -0.000000
vn 0.866025 0.500000 -0.000000
vn 0.965926 0.258819 -0.000000
vn 0.965926 0.258819 -0.000000
vn 1.000000 0.000000 -0.000000
vn 1.000000 0.000000 -0.000000
vn 0.965926 -0.258819 0.000000
vn 0.965926 -0.258819 0.000000
vn 0.866025 -0.500000 0.000000
vn 0.866025 -0.500000 0.000000
vn 0.707107 -0.707107 0.000000
vn 0.707107 -0.707107 0.000000
vn 0.500000 -0.866025 0.000000
vn 0.500000 -0.866025 0.000000
vn 0.258819 -0.965926 0.000000
vn 0.258819 -0.965926 0.000000
vn -0.000000 -1.000000 0.000000
vn -0.000000 -1.000000 0.000000
vn -0.258819 -0.965926 0.000000
vn -0.258819 -0.965926 0.000000
vn -0.500000 -0.866025 0.000000
vn -0.500000 -0.866025 0.000000
vn -0.707107 -0.707107 0.000000
vn -0.707107 -0.707107 0.000000
vn -0.866025 -0.500000 0.000000
vn -0.866025 -0.500000 0.000000
vn -0.965926 -0.258819 0.000000
vn -0.965926 -0.258819 0.000000
vn -1.000000 0.000000 0.000000
vn -1.000000 0.000000 0.000000
vn -0.965926 0.258819 0.000000
vn -0.965926 0.258819 0.000000
vn -0.866025 0.500000 0.000000
vn -0.866025 0.500000 0.000000
vn -0.707107 0.707107 0.000000
vn -0.707107 0.707107 0.000000
vn -0.500000 0.866025 0.000000
vn -0.500000 0.866025 0.000000
vn -0.258819 0.965926 0.000000
vn -0.258819 0.965926 0.000000
vn -0.000000 1.000000 0.000000
vn -0.000000 1.000000 0.000000
vn 0.258819 0.965926 -0.000000
vn 0.258819 0.965926 -0.000000
vn 0.500000 0.866025 -0.000000
vn 0.500000 0.866025 -0.000000
vn 0.707107 0.707107 -0.000000
vn 0.707107 0.707107 -0.000000
vn 0.866025 0.500000 -0.000000
vn 0.866025 0.500000 -0.000000
vn 0.965926 0.258819 -0.000000
vn 0.965926 0.258819 -0.000000
vn 1.000000 0.000000 -0.000000
vn 1.000000 0.000000 -0.000000
vn 0.965926 -0.258819 0.000000
vn 0.965926 -0.258819 0.000000
vn 0.866025 -0.500000 0.000000
vn 0.866025 -0.500000 0.000000
vn 0.707107 -0.707107 0.000000
vn 0.707107 -0.707107 0.000000
vn 0.500000 -0.866025 0.000000
vn 0.500000 -0.866025 0.000000
vn 0.258819 -0.965926 0.000000
vn 0.258819 -0.965926 0.000000
vn -0.000000 -1.000000 0.000000
vn -0.000000 -1.000000 0.000000
vn -0.258819 -0.965926 0.000000
vn -0.258819 -0.965926 0.000000
vn -0.500000 -0.866025 0.000000
vn -0.500000 -0.866025 0.000000
vn -0.707107 -0.707107 0.000000
vn -0.707107 -0.707107 0.000000
vn -0.866025 -0.500000 0.000000
vn -0.866025 -0.500000 0.000000
vn -0.965926 -0.258819 0.000000
vn -0.965926 -0.258819 0.000000
vn -1.000000 0.000000 0.000000
vn -1.000000 0.000000 0.000000
vn -0.965926 0.258819 0.000000
vn -0.965926 0.258819 0.000000
vn -0.866025 0.500000 0.000000
vn -0.866025 0.500000 0.000000
vn -0.707107 0.707107 0.000000
vn -0.707107 0.707107 0.000000
vn -0.500000 0.866025 0.000000
vn -0.500000 0.866025 0.000000
vn -0.258819 0.965926 0.000000
vn -0.258819 0.965926 0.000000
vn -0.000000 1.000000 0.000000
vn -0.000000 1.000000 0.000000
vn 0.258819 0.965926 -0.000000
vn 0.258819 0.965926 -0.000000
vn 0.500000 0.866025 -0.000000
vn 0.500000 0.866025 -0.000000
vn 0.707107 0.707107 -0.000000
vn 0.707107 0.707107 -0.000000
vn 0.866025 0.500000 -0.000000
vn 0.866025 0.500000 -0.000000
vn 0.965926 0.258819 -0.000000
vn 0.965926 0.258819 -0.000000
vn 1.000000 0.000000 -0.000000
vn 1.000000 0.000000 -0.000000
vn 0.965926 -0.258819 0.000000
vn 0.965926 -0.258819 0.000000
vn 0.866025 -0.500000 0.000000
vn 0.866025 -0.500000 0.000000
vn 0.707107 -0.707107 0.000000
vn 0.707107 -0.707107 0.000000
vn 0.500000 -0.866025 0.000000
vn 0.500000 -0.866025 0.000000
vn 0.258819 -0.965926 0.000000
vn 0.258819 -0.965926 0.000000
vn -0.000000 -1.000000 0.000000
vn -0.000000 -1.000000 0.000000
vn -0.258819 -0.965926 0.000000
vn -0.258819 -0.965926 0.000000
vn -0.500000 -0.866025 0.000000
vn -0.500000 -0.866025 0.000000
vn -0.707107 -0.707107 0.000000
vn -0.707107 -0.707107 0.000000
vn -0.866025 -0.500000 0.000000
vn -0.866025 -0.500000 0.000000
vn -0.965926 -0.258819 0.000000
vn -0.965926 -0.258819 0.000000
vn -1.000000 0.000000 0.000000
vn -1.000000 0.000000 0.000000
vn -0.965926 0.258819 0.000000
vn -0.965926 0.258819 0.000000
vn -0.866025 0.500000 0.000000
vn -0.866025 0.500000 0.000000
vn -0.707107 0.707107 0.000000
vn -0.707107 0.707107 0.000000
vn -0.500000 0.866025 0.000000
vn -0.500000 0.866025 0.000000
vn -0.258819 0.965926 0.000000
vn -0.258819 0.965926 0.000000
vn -0.000000 1.000000 0.000000
vn -0.000000 1.000000 0.000000
vn 0.258819 0.965926 -0.000000
vn 0.258819 0.965926 -0.000000
vn 0.500000 0.866025 -0.000000
vn 0.500000 0.866025 -0.000000
vn 0.707107 0.707107 -0.000000
vn 0.707107 0.707107 -0.000000
vn 0.866025 0.500000 -0.000000
vn 0.866025 0.500000 -0.000000
vn 1.000000 -0.000000 0.000000
vn 1.000000 -0.000000 0.000000
vn 1.000000 -0.000000 0.000000
vn 1.000000 -0.000000 0.000000
vn 0.000000 1.000000 -0.000000
vn 0.000000 1.000000 -0.000000
vn 0.000000 1.000000 -0.000000
vn 0.000000 1.000000 -0.000000
vn -1.000000 0.000000 0.000000
vn -1.000000 0.000000 0.000000
vn -1.000000 0.000000 0.000000
vn -1.000000 0.000000 0.000000
vn 0.000000 -1.000000 0.000000
vn 0.000000 -1.000000 0.000000
vn 0.000000 -1.000000 0.000000
vn 0.000000 -1.000000 0.000000
vn 1.000000 0.000000 0.000000
vn 1.000000 0.000000 0.000000
vn 1.000000 0.000000 0.000000
vn 1.000000 0.000000 0.000000
vn 0.000000 1.000000 -0.000000
vn 0.000000 1.000000 -0.000000
vn 0.000000 1.000000 -0.000000
vn 0.000000 1.000000 -0.000000
vn 0.000000 1.000000 0.000000
vn 0.000000 1.000000 0.000000
vn 0.000000 1.000000 0.000000
vn 0.000000 1.000000 0.000000
vn 1.000000 0.000000 0.000000
vn 1.000000 0.000000 0.000000
vn 1.000000 0.000000 0.000000
vn 1.000000 0.000000 0.000000
vn 0.000000 1.000000 -0.000000
vn 0.000000 1.000000 -0.000000
vn 0.000000 1.000000 -0.000000
vn 0.000000 1.000000 -0.000000
vn -1.000000 0.000000 0.000000
vn -1.000000 0.000000 0.000000
vn -1.000000 0.000000 0.000000
vn -1.000000 0.000000 0.000000
vn 0.000000 0.000000 1.000000
vn 0.000000 0.000000 1.000000
vn 0.000000 0.000000 1.000000
vn 0.000000 0.000000 1.000000
vn 0.000000 0.000000 1.000000
vn 0.000000 0.000000 1.000000
vn 0.000000 0.000000 1.000000
vn 0.000000 0.000000 1.000000
vn 0.000000 0.000000 1.000000
vn 0.000000 0.000000 1.000000
vn 0.000000 0.000000 1.000000
vn 0.000000 0.000000 1.000000
vn 0.000000 0.000000 1.000000
vn 0.000000 0.000000 1.000000
vn 0.000000 0.000000 1.000000
vn 0.000000 0.000000 1.000000
vn 0.000000 0.000000 1.000000
vn 0.000000 0.000000 1.000000
vn 0.000000 0.000000 1.000000
vn 0.000000 0.000000 1.000000
vn 0.000000 0.000000 1.000000
vn 0.000000 0.000000 1.000000
vn 0.000000 0.000000 1.000000
vn 0.000000 0.000000 1.000000
vn 0.000000 0.000000 1.000000
vn 0.000000 0.000000 1.000000
vn 0.000000 0.000000 1.000000
vn 0.000000 0.000000 1.000000
vn 0.000000 0.000000 1.000000
vn 0.000000 0.000000 1.000000
vn 0.000000 0.000000 1.000000
vn 0.000000 0.000000 1.000000
vn 0.000000 0.000000 1.000000
vn 0.000000 0.000000 1.000000
vn 0.000000 0.000000 1.000000
vn 0.000000 0.000000 1.000000
vn 0.000000 0.000000 1.000000
vn 0.000000 0.000000 1.000000
vn 0.000000 0.000000 1.000000
vn 0.000000 0.000000 1.000000
vn 0.000000 0.000000 1.000000
vn 0.000000 0.000000 1.000000
vn 0.000000 0.000000 1.000000
vn 0.000000 0.000000 1.000000
vn 0.000000 0.000000 1.000000
vn 0.000000 0.000000 1.000000
vn 0.000000 0.000000 1.000000
vn 0.000000 0.000000 1.000000
vn 0.000000 0.000000 1.000000
vn 0.000000 0.000000 1.000000
vn 0.000000 0.000000 1.000000
vn 0.000000 0.000000 1.000000
vn 0.000000 0.000000 1.000000
vn 0.000000 0.000000 1.000000
vn 0.000000 0.000000 1.000000
vn 0.000000 0.000000 1.000000
vn 0.000000 0.000000 1.000000
vn 0.000000 0.000000 1.000000
vn 0.000000 0.000000 1.000000
vn 0.000000 0.000000 1.000000
vn 0.000000 0.000000 1.000000
vn 0.000000 0.000000 1.000000
vn 0.000000 0.000000 1.000000
vn 0.000000 0.000000 1.000000
vn 0.000000 0.000000 1.000000
vn 0.000000 0.000000 1.000000
vn 0.000000 0.000000 1.000000
vn 0.000000 0.000000 1.000000
vn 0.000000 0.000000 1.000000
vn 0.000000 0.000000 1.000000
vn 0.000000 0.000000 1.000000
vn 0.000000 0.000000 1.000000
vn 0.000000 0.000000 1.000000
vn 0.000000 0.000000 1.000000
vn 0.000000 0.000000 1.000000
vn 0.000000 0.000000 1.000000
vn 0.000000 0.000000 1.000000
vn 0.000000 0.000000 1.000000
vn 0.000000 0.000000 1.000000
vn 0.000000 0.000000 1.000000
vn 0.000000 0.000000 1.000000
vn 0.000000 0.000000 1.000000
vn 0.000000 0.000000 1.000000
vn 0.000000 0.000000 1.000000
vn 0.000000 0.000000 1.000000
vn 0.000000 0.000000 1.000000
vn 0.000000 0.000000 1.000000
vn 0.000000 0.000000 1.000000
vn 0.000000 0.000000 1.000000
vn 0.000000 0.000000 1.000000
vn 0.000000 0.000000 1.000000
vn 0.000000 0.000000 1.000000
vn 0.000000 0.000000 1.000000
vn 0.000000 0.000000 1.000000
vn 0.000000 0.000000 1.000000
vn 0.000000 0.000000 1.000000
vn 0.000000 0.000000 1.000000
vn 0.000000 0.000000 1.000000
vn 0.000000 0.000000 1.000000
vn 0.000000 0.000000 1.000000
vn 0.000000 0.000000 1.000000
vn 0.000000 0.000000 1.000000
vn 0.000000 0.000000 1.000000
vn 0.000000 0.000000 1.000000
vn 0.000000 0.000000 1.000000
vn 0.000000 0.000000 1.000000
vn 0.000000 0.000000 1.000000
vn 0.000000 0.000000 1.000000
vn 0.000000 0.000000 1.000000
vn 0.000000 0.000000 1.000000
vn 0.000000 0.000000 1.000000
vn 0.000000 0.000000 1.000000
vn 0.000000 0.000000 1.000000
vn 0.000000 0.000000 1.000000
vn 0.000000 0.000000 1.000000
vn 0.000000 0.000000 1.000000
vn 0.000000 0.000000 1.000000
vn 0.000000 0.000000 1.000000
vn 0.000000 0.000000 1.000000
vn 0.000000 0.000000 1.000000
vn 0.000000 0.000000 1.000000
vn 0.000000 0.000000 1.000000
vn 0.000000 0.000000 1.000000
vn 0.000000 0.000000 1.000000
vn 0.000000 0.000000 1.000000
vn 0.000000 0.000000 1.000000
vn 0.000000 0.000000 1.000000
vn 0.000000 0.000000 1.000000
vn 0.000000 0.000000 1.000000
vn 0.000000 0.000000 1.000000
vn 0.000000 0.000000 1.000000
vn 0.000000 0.000000 1.000000
vn 0.000000 0.000000 1.000000
vn 0.000000 0.000000 1.000000
usemtl Steel_-_Satin
f 14/1/1 1/2/2 13/3/3
f 13/3/3 1/2/2 2/4/4
f 13/3/3 2/4/4 12/5/5
f 12/5/5 2/4/4 3/6/6
f 12/5/5 3/6/6 11/7/7
f 11/7/7 3/6/6 4/8/8
f 11/7/7 4/8/8 10/9/9
f 10/9/9 4/8/8 5/10/10
f 10/9/9 5/10/10 9/11/11
f 9/11/11 5/10/10 6/12/12
f 9/11/11 6/12/12 8/13/13
f 8/13/13 6/12/12 7/14/14
f 14/15/1 15/16/15 1/17/2
f 1/17/2 15/16/15 16/18/16
f 18/19/17 19/20/18 17/21/19
f 17/21/19 19/20/18 108/22/20
f 17/21/19 108/22/20 109/23/21
f 20/24/22 136/25/23 19/20/18
f 19/20/18 136/25/23 137/26/24
f 19/20/18 137/26/24 107/27/25
f 107/27/25 137/26/24 106/28/26
f 106/28/26 137/26/24 105/29/27
f 105/29/27 137/26/24 104/30/28
f 104/30/28 137/26/24 103/31/29
f 103/31/29 137/26/24 138/32/30
f 103/31/29 138/32/30 102/33/31
f 102/33/31 138/32/30 101/34/32
f 101/34/32 138/32/30 139/35/33
f 101/34/32 139/35/33 100/36/34
f 100/36/34 139/35/33 99/37/35
f 99/37/35 139/35/33 98/38/36
f 98/38/36 139/35/33 140/39/37
f 98/38/36 140/39/37 97/40/38
f 97/40/38 140/39/37 96/41/39
f 96/41/39 140/39/37 141/42/40
f 96/41/39 141/42/40 95/43/41
f 95/43/41 141/42/40 118/44/42
f 118/44/42 141/42/40 142/45/43
f 118/44/42 142/45/43 15/46/44
f 21/47/45 130/48/46 20/24/22
f 20/24/22 130/48/46 40/49/47
f 20/24/22 40/49/47 41/50/48
f 22/51/49 120/52/50 21/47/45
f 21/47/45 120/52/50 121/53/51
f 21/47/45 121/53/51 122/54/52
f 17/21/19 15/46/44 22/51/49
f 22/51/49 15/46/44 14/55/53
f 22/51/49 14/55/53 52/56/54
f 52/56/54 14/55/53 51/57/55
f 51/57/55 14/55/53 50/58/56
f 50/58/56 14/55/53 49/59/57
f 49/59/57 14/55/53 48/60/58
f 48/60/58 14/55/53 13/61/59
f 48/60/58 13/61/59 12/62/60
f 24/63/61 136/25/23 23/64/62
f 23/64/62 136/25/23 20/24/22
f 23/64/62 20/24/22 46/65/63
f 46/65/63 20/24/22 45/66/64
f 45/66/64 20/24/22 44/67/65
f 44/67/65 20/24/22 43/68/66
f 43/68/66 20/24/22 42/69/67
f 42/69/67 20/24/22 41/50/48
f 24/63/61 25/70/68 136/25/23
f 136/25/23 25/70/68 26/71/69
f 136/25/23 26/71/69 27/72/70
f 136/25/23 27/72/70 135/73/71
f 135/73/71 27/72/70 28/74/72
f 135/73/71 28/74/72 29/75/73
f 135/73/71 29/75/73 134/76/74
f 134/76/74 29/75/73 30/77/75
f 134/76/74 30/77/75 31/78/76
f 31/78/76 32/79/77 134/76/74
f 134/76/74 32/79/77 133/80/78
f 133/80/78 32/79/77 33/81/79
f 133/80/78 33/81/79 34/82/80
f 133/80/78 34/82/80 132/83/81
f 132/83/81 34/82/80 35/84/82
f 132/83/81 35/84/82 36/85/83
f 37/86/84 130/48/46 36/85/83
f 36/85/83 130/48/46 131/87/85
f 36/85/83 131/87/85 132/83/81
f 37/86/84 38/88/86 130/48/46
f 130/48/46 38/88/86 39/89/87
f 130/48/46 39/89/87 40/49/47
f 70/90/88 47/91/89 12/62/60
f 12/62/60 47/91/89 48/60/58
f 52/56/54 53/92/90 22/51/49
f 22/51/49 53/92/90 54/93/91
f 22/51/49 54/93/91 55/94/92
f 55/94/92 56/95/93 22/51/49
f 22/51/49 56/95/93 57/96/94
f 22/51/49 57/96/94 58/97/95
f 22/51/49 58/97/95 119/98/96
f 119/98/96 58/97/95 59/99/97
f 119/98/96 59/99/97 8/100/98
f 8/100/98 59/99/97 60/101/99
f 8/100/98 60/101/99 61/102/100
f 61/102/100 62/103/101 8/100/98
f 8/100/98 62/103/101 63/104/102
f 8/100/98 63/104/102 9/105/103
f 9/105/103 63/104/102 64/106/104
f 9/105/103 64/106/104 65/107/105
f 9/105/103 65/107/105 10/108/106
f 10/108/106 65/107/105 66/109/107
f 10/108/106 66/109/107 67/110/108
f 67/110/108 68/111/109 10/108/106
f 10/108/106 68/111/109 11/112/110
f 11/112/110 68/111/109 69/113/111
f 11/112/110 69/113/111 70/90/88
f 11/112/110 70/90/88 12/62/60
f 72/114/112 122/54/52 71/115/113
f 71/115/113 122/54/52 123/116/114
f 71/115/113 123/116/114 94/117/115
f 94/117/115 123/116/114 93/118/116
f 93/118/116 123/116/114 92/119/117
f 92/119/117 123/116/114 91/120/118
f 91/120/118 123/116/114 124/121/119
f 91/120/118 124/121/119 90/122/120
f 90/122/120 124/121/119 89/123/121
f 89/123/121 124/121/119 125/124/122
f 89/123/121 125/124/122 88/125/123
f 88/125/123 125/124/122 87/126/124
f 87/126/124 125/124/122 86/127/125
f 86/127/125 125/124/122 126/128/126
f 86/127/125 126/128/126 85/129/127
f 85/129/127 126/128/126 84/130/128
f 84/130/128 126/128/126 127/131/129
f 84/130/128 127/131/129 83/132/130
f 83/132/130 127/131/129 82/133/131
f 82/133/131 127/131/129 128/134/132
f 82/133/131 128/134/132 129/135/133
f 122/54/52 72/114/112 21/47/45
f 21/47/45 72/114/112 73/136/134
f 21/47/45 73/136/134 74/137/135
f 74/137/135 75/138/136 21/47/45
f 21/47/45 75/138/136 76/139/137
f 21/47/45 76/139/137 77/140/138
f 77/140/138 78/141/139 21/47/45
f 21/47/45 78/141/139 129/135/133
f 21/47/45 129/135/133 130/48/46
f 78/141/139 79/142/140 129/135/133
f 129/135/133 79/142/140 80/143/141
f 129/135/133 80/143/141 81/144/142
f 81/144/142 82/133/131 129/135/133
f 107/27/25 108/22/20 19/20/18
f 109/23/21 110/145/143 17/21/19
f 17/21/19 110/145/143 111/146/144
f 17/21/19 111/146/144 112/147/145
f 112/147/145 113/148/146 17/21/19
f 17/21/19 113/148/146 114/149/147
f 17/21/19 114/149/147 15/46/44
f 15/46/44 114/149/147 115/150/148
f 15/46/44 115/150/148 116/151/149
f 116/151/149 117/152/150 15/46/44
f 15/46/44 117/152/150 118/44/42
f 119/98/96 120/52/50 22/51/49
f 123/153/151 143/154/152 124/155/153
f 124/155/153 143/154/152 144/156/154
f 124/155/153 144/156/154 125/157/155
f 125/157/155 144/156/154 145/158/156
f 125/157/155 145/158/156 126/159/157
f 126/159/157 145/158/156 146/160/158
f 126/159/157 146/160/158 127/161/159
f 127/161/159 146/160/158 147/162/160
f 127/161/159 147/162/160 128/163/161
f 128/163/161 147/162/160 148/164/162
f 128/163/161 148/164/162 129/165/163
f 129/165/163 148/164/162 149/166/164
f 149/167/164 150/168/165 129/169/163
f 129/169/163 150/168/165 130/170/166
f 130/171/166 150/172/165 131/173/167
f 131/173/167 150/172/165 151/174/168
f 131/173/167 151/174/168 132/175/169
f 132/175/169 151/174/168 152/176/170
f 132/175/169 152/176/170 133/177/171
f 133/177/171 152/176/170 153/178/172
f 133/177/171 153/178/172 134/179/173
f 134/179/173 153/178/172 154/180/174
f 134/179/173 154/180/174 135/181/175
f 135/181/175 154/180/174 155/182/176
f 135/181/175 155/182/176 136/183/177
f 136/183/177 155/182/176 156/184/178
f 137/185/179 157/186/180 138/187/181
f 138/187/181 157/186/180 158/188/182
f 138/187/181 158/188/182 139/189/183
f 139/189/183 158/188/182 159/190/184
f 139/189/183 159/190/184 140/191/185
f 140/191/185 159/190/184 160/192/186
f 140/191/185 160/192/186 141/193/187
f 141/193/187 160/192/186 161/194/188
f 141/193/187 161/194/188 142/195/189
f 142/195/189 161/194/188 162/196/190
f 142/195/189 162/196/190 15/197/15
f 15/197/15 162/196/190 16/198/16
f 164/199/191 96/200/192 163/201/193
f 163/201/193 96/200/192 95/202/194
f 163/203/193 95/204/194 186/205/195
f 186/205/195 95/204/194 118/206/196
f 186/205/195 118/206/196 185/207/197
f 185/207/197 118/206/196 117/208/198
f 185/207/197 117/208/198 184/209/199
f 184/209/199 117/208/198 116/210/200
f 184/209/199 116/210/200 183/211/201
f 183/211/201 116/210/200 115/212/202
f 183/211/201 115/212/202 182/213/203
f 182/213/203 115/212/202 114/214/204
f 182/213/203 114/214/204 181/215/205
f 181/215/205 114/214/204 113/216/206
f 181/215/205 113/216/206 180/217/207
f 180/217/207 113/216/206 112/218/208
f 180/217/207 112/218/208 179/219/209
f 179/219/209 112/218/208 111/220/210
f 179/219/209 111/220/210 178/221/211
f 178/221/211 111/220/210 110/222/212
f 178/221/211 110/222/212 177/223/213
f 177/223/213 110/222/212 109/224/214
f 177/223/213 109/224/214 176/225/215
f 176/225/215 109/224/214 108/226/216
f 176/225/215 108/226/216 175/227/217
f 175/227/217 108/226/216 107/228/218
f 175/227/217 107/228/218 174/229/219
f 174/229/219 107/228/218 106/230/220
f 174/229/219 106/230/220 173/231/221
f 173/231/221 106/230/220 105/232/222
f 173/231/221 105/232/222 172/233/223
f 172/233/223 105/232/222 104/234/224
f 172/233/223 104/234/224 171/235/225
f 171/235/225 104/234/224 103/236/226
f 171/235/225 103/236/226 170/237/227
f 170/237/227 103/236/226 102/238/228
f 170/237/227 102/238/228 169/239/229
f 169/239/229 102/238/228 101/240/230
f 169/239/229 101/240/230 168/241/231
f 168/241/231 101/240/230 100/242/232
f 168/241/231 100/242/232 167/243/233
f 167/243/233 100/242/232 99/244/234
f 167/243/233 99/244/234 166/245/235
f 166/245/235 99/244/234 98/246/236
f 166/245/235 98/246/236 165/247/237
f 165/247/237 98/246/236 97/248/238
f 165/247/237 97/248/238 164/199/191
f 164/199/191 97/248/238 96/200/192
f 188/249/239 72/250/240 187/251/241
f 187/251/241 72/250/240 71/252/242
f 187/253/241 71/254/242 210/255/243
f 210/255/243 71/254/242 94/256/244
f 210/255/243 94/256/244 209/257/245
f 209/257/245 94/256/244 93/258/246
f 209/257/245 93/258/246 208/259/247
f 208/259/247 93/258/246 92/260/248
f 208/259/247 92/260/248 207/261/249
f 207/261/249 92/260/248 91/262/250
f 207/261/249 91/262/250 206/263/251
f 206/263/251 91/262/250 90/264/252
f 206/263/251 90/264/252 205/265/253
f 205/265/253 90/264/252 89/266/254
f 205/265/253 89/266/254 204/267/255
f 204/267/255 89/266/254 88/268/256
f 204/267/255 88/268/256 203/269/257
f 203/269/257 88/268/256 87/270/258
f 203/269/257 87/270/258 202/271/259
f 202/271/259 87/270/258 86/272/260
f 202/271/259 86/272/260 201/273/261
f 201/273/261 86/272/260 85/274/262
f 201/273/261 85/274/262 200/275/263
f 200/275/263 85/274/262 84/276/264
f 200/275/263 84/276/264 199/277/265
f 199/277/265 84/276/264 83/278/266
f 199/277/265 83/278/266 198/279/267
f 198/279/267 83/278/266 82/280/268
f 198/279/267 82/280/268 197/281/269
f 197/281/269 82/280/268 81/282/270
f 197/281/269 81/282/270 196/283/271
f 196/283/271 81/282/270 80/284/272
f 196/283/271 80/284/272 195/285/273
f 195/285/273 80/284/272 79/286/274
f 195/285/273 79/286/274 194/287/275
f 194/287/275 79/286/274 78/288/276
f 194/287/275 78/288/276 193/289/277
f 193/289/277 78/288/276 77/290/278
f 193/289/277 77/290/278 192/291/279
f 192/291/279 77/290/278 76/292/280
f 192/291/279 76/292/280 191/293/281
f 191/293/281 76/292/280 75/294/282
f 191/293/281 75/294/282 190/295/283
f 190/295/283 75/294/282 74/296/284
f 190/295/283 74/296/284 189/297/285
f 189/297/285 74/296/284 73/298/286
f 189/297/285 73/298/286 188/249/239
f 188/249/239 73/298/286 72/250/240
f 212/299/287 48/300/288 211/301/289
f 211/301/289 48/300/288 47/302/290
f 211/303/289 47/304/290 234/305/291
f 234/305/291 47/304/290 70/306/292
f 234/305/291 70/306/292 233/307/293
f 233/307/293 70/306/292 69/308/294
f 233/307/293 69/308/294 232/309/295
f 232/309/295 69/308/294 68/310/296
f 232/309/295 68/310/296 231/311/297
f 231/311/297 68/310/296 67/312/298
f 231/311/297 67/312/298 230/313/299
f 230/313/299 67/312/298 66/314/300
f 230/313/299 66/314/300 229/315/301
f 229/315/301 66/314/300 65/316/302
f 229/315/301 65/316/302 228/317/303
f 228/317/303 65/316/302 64/318/304
f 228/317/303 64/318/304 227/319/305
f 227/319/305 64/318/304 63/320/306
f 227/319/305 63/320/306 226/321/307
f 226/321/307 63/320/306 62/322/308
f 226/321/307 62/322/308 225/323/309
f 225/323/309 62/322/308 61/324/310
f 225/323/309 61/324/310 224/325/311
f 224/325/311 61/324/310 60/326/312
f 224/325/311 60/326/312 223/327/313
f 223/327/313 60/326/312 59/328/314
f 223/327/313 59/328/314 222/329/315
f 222/329/315 59/328/314 58/330/316
f 222/329/315 58/330/316 221/331/317
f 221/331/317 58/330/316 57/332/318
f 221/331/317 57/332/318 220/333/319
f 220/333/319 57/332/318 56/334/320
f 220/333/319 56/334/320 219/335/321
f 219/335/321 56/334/320 55/336/322
f 219/335/321 55/336/322 218/337/323
f 218/337/323 55/336/322 54/338/324
f 218/337/323 54/338/324 217/339/325
f 217/339/325 54/338/324 53/340/326
f 217/339/325 53/340/326 216/341/327
f 216/341/327 53/340/326 52/342/328
f 216/341/327 52/342/328 215/343/329
f 215/343/329 52/342/328 51/344/330
f 215/343/329 51/344/330 214/345/331
f 214/345/331 51/344/330 50/346/332
f 214/345/331 50/346/332 213/347/333
f 213/347/333 50/346/332 49/348/334
f 213/347/333 49/348/334 212/299/287
f 212/299/287 49/348/334 48/300/288
f 236/349/335 24/350/336 235/351/337
f 235/351/337 24/350/336 23/352/338
f 235/353/337 23/354/338 258/355/339
f 258/355/339 23/354/338 46/356/340
f 258/355/339 46/356/340 257/357/341
f 257/357/341 46/356/340 45/358/342
f 257/357/341 45/358/342 256/359/343
f 256/359/343 45/358/342 44/360/344
f 256/359/343 44/360/344 255/361/345
f 255/361/345 44/360/344 43/362/346
f 255/361/345 43/362/346 254/363/347
f 254/363/347 43/362/346 42/364/348
f 254/363/347 42/364/348 253/365/349
f 253/365/349 42/364/348 41/366/350
f 253/365/349 41/366/350 252/367/351
f 252/367/351 41/366/350 40/368/352
f 252/367/351 40/368/352 251/369/353
f 251/369/353 40/368/352 39/370/354
f 251/369/353 39/370/354 250/371/355
f 250/371/355 39/370/354 38/372/356
f 250/371/355 38/372/356 249/373/357
f 249/373/357 38/372/356 37/374/358
f 249/373/357 37/374/358 248/375/359
f 248/375/359 37/374/358 36/376/360
f 248/375/359 36/376/360 247/377/361
f 247/377/361 36/376/360 35/378/362
f 247/377/361 35/378/362 246/379/363
f 246/379/363 35/378/362 34/380/364
f 246/379/363 34/380/364 245/381/365
f 245/381/365 34/380/364 33/382/366
f 245/381/365 33/382/366 244/383/367
f 244/383/367 33/382/366 32/384/368
f 244/383/367 32/384/368 243/385/369
f 243/385/369 32/384/368 31/386/370
f 243/385/369 31/386/370 242/387/371
f 242/387/371 31/386/370 30/388/372
f 242/387/371 30/388/372 241/389/373
f 241/389/373 30/388/372 29/390/374
f 241/389/373 29/390/374 240/391/375
f 240/391/375 29/390/374 28/392/376
f 240/391/375 28/392/376 239/393/377
f 239/393/377 28/392/376 27/394/378
f 239/393/377 27/394/378 238/395/379
f 238/395/379 27/394/378 26/396/380
f 238/395/379 26/396/380 237/397/381
f 237/397/381 26/396/380 25/398/382
f 237/397/381 25/398/382 236/349/335
f 236/349/335 25/398/382 24/350/336
f 19/399/383 18/400/384 260/401/385
f 260/401/385 18/400/384 259/402/386
f 20/403/387 19/404/388 261/405/389
f 261/405/389 19/404/388 260/406/390
f 21/407/391 20/408/392 262/409/393
f 262/409/393 20/408/392 261/410/394
f 22/411/395 21/412/396 263/413/397
f 263/413/397 21/412/396 262/414/398
f 17/415/399 22/416/400 264/417/401
f 264/417/401 22/416/400 263/418/402
f 18/419/403 17/420/404 259/421/405
f 259/421/405 17/420/404 264/422/406
f 123/423/151 122/424/407 143/425/152
f 143/425/152 122/424/407 265/426/408
f 156/427/178 157/428/180 136/429/177
f 136/429/177 157/428/180 137/430/179
f 7/431/14 266/432/409 8/433/13
f 8/433/13 266/432/409 119/434/410
f 120/435/411 119/436/412 267/437/413
f 267/437/413 119/436/412 266/438/414
f 121/439/415 120/440/416 268/441/417
f 268/441/417 120/440/416 267/442/418
f 122/443/419 121/444/420 265/445/421
f 265/445/421 121/444/420 268/446/422
f 6/447/423 227/448/424 7/449/425
f 7/449/425 227/448/424 226/450/426
f 7/449/425 226/450/426 225/451/427
f 5/452/428 229/453/429 6/447/423
f 6/447/423 229/453/429 228/454/430
f 6/447/423 228/454/430 227/448/424
f 4/455/431 232/456/432 5/452/428
f 5/452/428 232/456/432 231/457/433
f 5/452/428 231/457/433 230/458/434
f 3/459/435 234/460/436 4/455/431
f 4/455/431 234/460/436 233/461/437
f 4/455/431 233/461/437 232/456/432
f 2/462/438 212/463/439 3/459/435
f 3/459/435 212/463/439 211/464/440
f 3/459/435 211/464/440 234/460/436
f 2/462/438 1/465/441 212/463/439
f 212/463/439 1/465/441 213/466/442
f 213/466/442 1/465/441 214/467/443
f 214/467/443 1/465/441 215/468/444
f 215/468/444 1/465/441 216/469/445
f 216/469/445 1/465/441 263/470/446
f 216/469/445 263/470/446 217/471/447
f 217/471/447 263/470/446 218/472/448
f 218/472/448 263/470/446 219/473/449
f 219/473/449 263/470/446 220/474/450
f 220/474/450 263/470/446 221/475/451
f 221/475/451 263/470/446 222/476/452
f 222/476/452 263/470/446 266/477/453
f 222/476/452 266/477/453 223/478/454
f 223/478/454 266/477/453 7/449/425
f 223/478/454 7/449/425 224/479/455
f 224/479/455 7/449/425 225/451/427
f 1/465/441 16/480/456 263/470/446
f 263/470/446 16/480/456 264/481/457
f 264/481/457 16/480/456 182/482/458
f 264/481/457 182/482/458 181/483/459
f 162/484/460 186/485/461 16/480/456
f 16/480/456 186/485/461 185/486/462
f 16/480/456 185/486/462 184/487/463
f 162/484/460 161/488/464 186/485/461
f 186/485/461 161/488/464 163/489/465
f 163/489/465 161/488/464 164/490/466
f 164/490/466 161/488/464 160/491/467
f 164/490/466 160/491/467 165/492/468
f 165/492/468 160/491/467 166/493/469
f 166/493/469 160/491/467 159/494/470
f 166/493/469 159/494/470 167/495/471
f 167/495/471 159/494/470 168/496/472
f 168/496/472 159/494/470 169/497/473
f 169/497/473 159/494/470 158/498/474
f 169/497/473 158/498/474 170/499/475
f 170/499/475 158/498/474 171/500/476
f 171/500/476 158/498/474 157/501/477
f 171/500/476 157/501/477 172/502/478
f 172/502/478 157/501/477 173/503/479
f 173/503/479 157/501/477 174/504/480
f 174/504/480 157/501/477 175/505/481
f 175/505/481 157/501/477 260/506/482
f 175/505/481 260/506/482 176/507/483
f 176/507/483 260/506/482 264/481/457
f 176/507/483 264/481/457 177/508/484
f 177/508/484 264/481/457 178/509/485
f 178/509/485 264/481/457 179/510/486
f 179/510/486 264/481/457 180/511/487
f 180/511/487 264/481/457 181/483/459
f 157/501/477 156/512/488 260/506/482
f 260/506/482 156/512/488 261/513/489
f 261/513/489 156/512/488 235/514/490
f 261/513/489 235/514/490 258/515/491
f 155/516/492 239/517/493 156/512/488
f 156/512/488 239/517/493 238/518/494
f 156/512/488 238/518/494 237/519/495
f 154/520/496 241/521/497 155/516/492
f 155/516/492 241/521/497 240/522/498
f 155/516/492 240/522/498 239/517/493
f 153/523/499 244/524/500 154/520/496
f 154/520/496 244/524/500 243/525/501
f 154/520/496 243/525/501 242/526/502
f 152/527/503 246/528/504 153/523/499
f 153/523/499 246/528/504 245/529/505
f 153/523/499 245/529/505 244/524/500
f 151/530/506 248/531/507 152/527/503
f 152/527/503 248/531/507 247/532/508
f 152/527/503 247/532/508 246/528/504
f 151/530/506 150/533/509 248/531/507
f 248/531/507 150/533/509 249/534/510
f 249/534/510 150/533/509 250/535/511
f 250/535/511 150/533/509 251/536/512
f 251/536/512 150/533/509 252/537/513
f 252/537/513 150/533/509 261/513/489
f 252/537/513 261/513/489 253/538/514
f 253/538/514 261/513/489 254/539/515
f 254/539/515 261/513/489 255/540/516
f 255/540/516 261/513/489 256/541/517
f 256/541/517 261/513/489 257/542/518
f 257/542/518 261/513/489 258/515/491
f 261/513/489 150/533/509 262/543/519
f 262/543/519 150/533/509 149/544/520
f 262/543/519 149/544/520 194/545/521
f 194/545/521 149/544/520 195/546/522
f 195/546/522 149/544/520 196/547/523
f 196/547/523 149/544/520 197/548/524
f 197/548/524 149/544/520 198/549/525
f 198/549/525 149/544/520 148/550/526
f 198/549/525 148/550/526 147/551/527
f 146/552/528 200/553/529 147/551/527
f 147/551/527 200/553/529 199/554/530
f 147/551/527 199/554/530 198/549/525
f 145/555/531 202/556/532 146/552/528
f 146/552/528 202/556/532 201/557/533
f 146/552/528 201/557/533 200/553/529
f 144/558/534 205/559/535 145/555/531
f 145/555/531 205/559/535 204/560/536
f 145/555/531 204/560/536 203/561/537
f 143/562/538 207/563/539 144/558/534
f 144/558/534 207/563/539 206/564/540
f 144/558/534 206/564/540 205/559/535
f 265/565/541 187/566/542 143/562/538
f 143/562/538 187/566/542 210/567/543
f 143/562/538 210/567/543 209/568/544
f 268/569/545 262/543/519 265/565/541
f 265/565/541 262/543/519 188/570/546
f 265/565/541 188/570/546 187/566/542
f 268/569/545 267/571/547 262/543/519
f 262/543/519 267/571/547 263/470/446
f 263/470/446 267/571/547 266/477/453
f 259/572/548 264/481/457 260/506/482
f 242/526/502 241/521/497 154/520/496
f 237/519/495 236/573/549 156/512/488
f 156/512/488 236/573/549 235/514/490
f 230/458/434 229/453/429 5/452/428
f 209/568/544 208/574/550 143/562/538
f 143/562/538 208/574/550 207/563/539
f 203/561/537 202/556/532 145/555/531
f 194/545/521 193/575/551 262/543/519
f 262/543/519 193/575/551 192/576/552
f 262/543/519 192/576/552 191/577/553
f 191/577/553 190/578/554 262/543/519
f 262/543/519 190/578/554 189/579/555
f 262/543/519 189/579/555 188/570/546
f 184/487/463 183/580/556 16/480/456
f 16/480/456 183/580/556 182/482/458
# 268 vertices
# 580 texture params
# 556 normals
# 552 facets

# 1 groups
