%TF.GenerationSoftware,KiCad,Pcbnew,9.0.6*%
%TF.CreationDate,2026-02-03T18:20:43-05:00*%
%TF.ProjectId,hackpad,6861636b-7061-4642-9e6b-696361645f70,rev?*%
%TF.SameCoordinates,Original*%
%TF.FileFunction,Legend,Top*%
%TF.FilePolarity,Positive*%
%FSLAX46Y46*%
G04 Gerber Fmt 4.6, Leading zero omitted, Abs format (unit mm)*
G04 Created by KiCad (PCBNEW 9.0.6) date 2026-02-03 18:20:43*
%MOMM*%
%LPD*%
G01*
G04 APERTURE LIST*
%ADD10C,0.158750*%
%ADD11C,0.317500*%
%ADD12C,0.150000*%
%ADD13C,0.120000*%
%ADD14C,0.000000*%
%ADD15C,0.127000*%
%ADD16C,0.100000*%
%ADD17C,0.504000*%
G04 APERTURE END LIST*
D10*
X134143868Y-93223654D02*
X134446249Y-94070321D01*
X134446249Y-94070321D02*
X134748630Y-93223654D01*
X135171963Y-92921273D02*
X135232439Y-92860797D01*
X135232439Y-92860797D02*
X135353392Y-92800321D01*
X135353392Y-92800321D02*
X135655773Y-92800321D01*
X135655773Y-92800321D02*
X135776725Y-92860797D01*
X135776725Y-92860797D02*
X135837201Y-92921273D01*
X135837201Y-92921273D02*
X135897678Y-93042225D01*
X135897678Y-93042225D02*
X135897678Y-93163178D01*
X135897678Y-93163178D02*
X135837201Y-93344606D01*
X135837201Y-93344606D02*
X135111487Y-94070321D01*
X135111487Y-94070321D02*
X135897678Y-94070321D01*
D11*
X134290642Y-97462642D02*
X134290642Y-94922642D01*
X134290642Y-96132166D02*
X135742071Y-96132166D01*
X135742071Y-97462642D02*
X135742071Y-94922642D01*
X136830642Y-96736928D02*
X138040166Y-96736928D01*
X136588737Y-97462642D02*
X137435404Y-94922642D01*
X137435404Y-94922642D02*
X138282071Y-97462642D01*
X140580166Y-97220737D02*
X140459214Y-97341690D01*
X140459214Y-97341690D02*
X140096356Y-97462642D01*
X140096356Y-97462642D02*
X139854452Y-97462642D01*
X139854452Y-97462642D02*
X139491595Y-97341690D01*
X139491595Y-97341690D02*
X139249690Y-97099785D01*
X139249690Y-97099785D02*
X139128737Y-96857880D01*
X139128737Y-96857880D02*
X139007785Y-96374070D01*
X139007785Y-96374070D02*
X139007785Y-96011213D01*
X139007785Y-96011213D02*
X139128737Y-95527404D01*
X139128737Y-95527404D02*
X139249690Y-95285499D01*
X139249690Y-95285499D02*
X139491595Y-95043594D01*
X139491595Y-95043594D02*
X139854452Y-94922642D01*
X139854452Y-94922642D02*
X140096356Y-94922642D01*
X140096356Y-94922642D02*
X140459214Y-95043594D01*
X140459214Y-95043594D02*
X140580166Y-95164547D01*
X141668737Y-97462642D02*
X141668737Y-94922642D01*
X143120166Y-97462642D02*
X142031595Y-96011213D01*
X143120166Y-94922642D02*
X141668737Y-96374070D01*
X144208737Y-97462642D02*
X144208737Y-94922642D01*
X144208737Y-94922642D02*
X145176356Y-94922642D01*
X145176356Y-94922642D02*
X145418261Y-95043594D01*
X145418261Y-95043594D02*
X145539214Y-95164547D01*
X145539214Y-95164547D02*
X145660166Y-95406451D01*
X145660166Y-95406451D02*
X145660166Y-95769309D01*
X145660166Y-95769309D02*
X145539214Y-96011213D01*
X145539214Y-96011213D02*
X145418261Y-96132166D01*
X145418261Y-96132166D02*
X145176356Y-96253118D01*
X145176356Y-96253118D02*
X144208737Y-96253118D01*
X146627785Y-96736928D02*
X147837309Y-96736928D01*
X146385880Y-97462642D02*
X147232547Y-94922642D01*
X147232547Y-94922642D02*
X148079214Y-97462642D01*
X148925880Y-97462642D02*
X148925880Y-94922642D01*
X148925880Y-94922642D02*
X149530642Y-94922642D01*
X149530642Y-94922642D02*
X149893499Y-95043594D01*
X149893499Y-95043594D02*
X150135404Y-95285499D01*
X150135404Y-95285499D02*
X150256357Y-95527404D01*
X150256357Y-95527404D02*
X150377309Y-96011213D01*
X150377309Y-96011213D02*
X150377309Y-96374070D01*
X150377309Y-96374070D02*
X150256357Y-96857880D01*
X150256357Y-96857880D02*
X150135404Y-97099785D01*
X150135404Y-97099785D02*
X149893499Y-97341690D01*
X149893499Y-97341690D02*
X149530642Y-97462642D01*
X149530642Y-97462642D02*
X148925880Y-97462642D01*
D12*
X145819905Y-87322819D02*
X145819905Y-86322819D01*
X145819905Y-86322819D02*
X146058000Y-86322819D01*
X146058000Y-86322819D02*
X146200857Y-86370438D01*
X146200857Y-86370438D02*
X146296095Y-86465676D01*
X146296095Y-86465676D02*
X146343714Y-86560914D01*
X146343714Y-86560914D02*
X146391333Y-86751390D01*
X146391333Y-86751390D02*
X146391333Y-86894247D01*
X146391333Y-86894247D02*
X146343714Y-87084723D01*
X146343714Y-87084723D02*
X146296095Y-87179961D01*
X146296095Y-87179961D02*
X146200857Y-87275200D01*
X146200857Y-87275200D02*
X146058000Y-87322819D01*
X146058000Y-87322819D02*
X145819905Y-87322819D01*
X146772286Y-86418057D02*
X146819905Y-86370438D01*
X146819905Y-86370438D02*
X146915143Y-86322819D01*
X146915143Y-86322819D02*
X147153238Y-86322819D01*
X147153238Y-86322819D02*
X147248476Y-86370438D01*
X147248476Y-86370438D02*
X147296095Y-86418057D01*
X147296095Y-86418057D02*
X147343714Y-86513295D01*
X147343714Y-86513295D02*
X147343714Y-86608533D01*
X147343714Y-86608533D02*
X147296095Y-86751390D01*
X147296095Y-86751390D02*
X146724667Y-87322819D01*
X146724667Y-87322819D02*
X147343714Y-87322819D01*
X148158571Y-86242295D02*
X147701428Y-86242295D01*
X147930000Y-86242295D02*
X147930000Y-85442295D01*
X147930000Y-85442295D02*
X147853809Y-85556580D01*
X147853809Y-85556580D02*
X147777619Y-85632771D01*
X147777619Y-85632771D02*
X147701428Y-85670866D01*
X98742667Y-114453200D02*
X98885524Y-114500819D01*
X98885524Y-114500819D02*
X99123619Y-114500819D01*
X99123619Y-114500819D02*
X99218857Y-114453200D01*
X99218857Y-114453200D02*
X99266476Y-114405580D01*
X99266476Y-114405580D02*
X99314095Y-114310342D01*
X99314095Y-114310342D02*
X99314095Y-114215104D01*
X99314095Y-114215104D02*
X99266476Y-114119866D01*
X99266476Y-114119866D02*
X99218857Y-114072247D01*
X99218857Y-114072247D02*
X99123619Y-114024628D01*
X99123619Y-114024628D02*
X98933143Y-113977009D01*
X98933143Y-113977009D02*
X98837905Y-113929390D01*
X98837905Y-113929390D02*
X98790286Y-113881771D01*
X98790286Y-113881771D02*
X98742667Y-113786533D01*
X98742667Y-113786533D02*
X98742667Y-113691295D01*
X98742667Y-113691295D02*
X98790286Y-113596057D01*
X98790286Y-113596057D02*
X98837905Y-113548438D01*
X98837905Y-113548438D02*
X98933143Y-113500819D01*
X98933143Y-113500819D02*
X99171238Y-113500819D01*
X99171238Y-113500819D02*
X99314095Y-113548438D01*
X99647429Y-113500819D02*
X99885524Y-114500819D01*
X99885524Y-114500819D02*
X100076000Y-113786533D01*
X100076000Y-113786533D02*
X100266476Y-114500819D01*
X100266476Y-114500819D02*
X100504572Y-113500819D01*
X100933143Y-114500819D02*
X101123619Y-114500819D01*
X101123619Y-114500819D02*
X101218857Y-114453200D01*
X101218857Y-114453200D02*
X101266476Y-114405580D01*
X101266476Y-114405580D02*
X101361714Y-114262723D01*
X101361714Y-114262723D02*
X101409333Y-114072247D01*
X101409333Y-114072247D02*
X101409333Y-113691295D01*
X101409333Y-113691295D02*
X101361714Y-113596057D01*
X101361714Y-113596057D02*
X101314095Y-113548438D01*
X101314095Y-113548438D02*
X101218857Y-113500819D01*
X101218857Y-113500819D02*
X101028381Y-113500819D01*
X101028381Y-113500819D02*
X100933143Y-113548438D01*
X100933143Y-113548438D02*
X100885524Y-113596057D01*
X100885524Y-113596057D02*
X100837905Y-113691295D01*
X100837905Y-113691295D02*
X100837905Y-113929390D01*
X100837905Y-113929390D02*
X100885524Y-114024628D01*
X100885524Y-114024628D02*
X100933143Y-114072247D01*
X100933143Y-114072247D02*
X101028381Y-114119866D01*
X101028381Y-114119866D02*
X101218857Y-114119866D01*
X101218857Y-114119866D02*
X101314095Y-114072247D01*
X101314095Y-114072247D02*
X101361714Y-114024628D01*
X101361714Y-114024628D02*
X101409333Y-113929390D01*
X131884819Y-63666666D02*
X131408628Y-63999999D01*
X131884819Y-64238094D02*
X130884819Y-64238094D01*
X130884819Y-64238094D02*
X130884819Y-63857142D01*
X130884819Y-63857142D02*
X130932438Y-63761904D01*
X130932438Y-63761904D02*
X130980057Y-63714285D01*
X130980057Y-63714285D02*
X131075295Y-63666666D01*
X131075295Y-63666666D02*
X131218152Y-63666666D01*
X131218152Y-63666666D02*
X131313390Y-63714285D01*
X131313390Y-63714285D02*
X131361009Y-63761904D01*
X131361009Y-63761904D02*
X131408628Y-63857142D01*
X131408628Y-63857142D02*
X131408628Y-64238094D01*
X131884819Y-62714285D02*
X131884819Y-63285713D01*
X131884819Y-62999999D02*
X130884819Y-62999999D01*
X130884819Y-62999999D02*
X131027676Y-63095237D01*
X131027676Y-63095237D02*
X131122914Y-63190475D01*
X131122914Y-63190475D02*
X131170533Y-63285713D01*
X79692667Y-96038200D02*
X79835524Y-96085819D01*
X79835524Y-96085819D02*
X80073619Y-96085819D01*
X80073619Y-96085819D02*
X80168857Y-96038200D01*
X80168857Y-96038200D02*
X80216476Y-95990580D01*
X80216476Y-95990580D02*
X80264095Y-95895342D01*
X80264095Y-95895342D02*
X80264095Y-95800104D01*
X80264095Y-95800104D02*
X80216476Y-95704866D01*
X80216476Y-95704866D02*
X80168857Y-95657247D01*
X80168857Y-95657247D02*
X80073619Y-95609628D01*
X80073619Y-95609628D02*
X79883143Y-95562009D01*
X79883143Y-95562009D02*
X79787905Y-95514390D01*
X79787905Y-95514390D02*
X79740286Y-95466771D01*
X79740286Y-95466771D02*
X79692667Y-95371533D01*
X79692667Y-95371533D02*
X79692667Y-95276295D01*
X79692667Y-95276295D02*
X79740286Y-95181057D01*
X79740286Y-95181057D02*
X79787905Y-95133438D01*
X79787905Y-95133438D02*
X79883143Y-95085819D01*
X79883143Y-95085819D02*
X80121238Y-95085819D01*
X80121238Y-95085819D02*
X80264095Y-95133438D01*
X80597429Y-95085819D02*
X80835524Y-96085819D01*
X80835524Y-96085819D02*
X81026000Y-95371533D01*
X81026000Y-95371533D02*
X81216476Y-96085819D01*
X81216476Y-96085819D02*
X81454572Y-95085819D01*
X82264095Y-95419152D02*
X82264095Y-96085819D01*
X82026000Y-95038200D02*
X81787905Y-95752485D01*
X81787905Y-95752485D02*
X82406952Y-95752485D01*
X89471667Y-133503200D02*
X89614524Y-133550819D01*
X89614524Y-133550819D02*
X89852619Y-133550819D01*
X89852619Y-133550819D02*
X89947857Y-133503200D01*
X89947857Y-133503200D02*
X89995476Y-133455580D01*
X89995476Y-133455580D02*
X90043095Y-133360342D01*
X90043095Y-133360342D02*
X90043095Y-133265104D01*
X90043095Y-133265104D02*
X89995476Y-133169866D01*
X89995476Y-133169866D02*
X89947857Y-133122247D01*
X89947857Y-133122247D02*
X89852619Y-133074628D01*
X89852619Y-133074628D02*
X89662143Y-133027009D01*
X89662143Y-133027009D02*
X89566905Y-132979390D01*
X89566905Y-132979390D02*
X89519286Y-132931771D01*
X89519286Y-132931771D02*
X89471667Y-132836533D01*
X89471667Y-132836533D02*
X89471667Y-132741295D01*
X89471667Y-132741295D02*
X89519286Y-132646057D01*
X89519286Y-132646057D02*
X89566905Y-132598438D01*
X89566905Y-132598438D02*
X89662143Y-132550819D01*
X89662143Y-132550819D02*
X89900238Y-132550819D01*
X89900238Y-132550819D02*
X90043095Y-132598438D01*
X90376429Y-132550819D02*
X90614524Y-133550819D01*
X90614524Y-133550819D02*
X90805000Y-132836533D01*
X90805000Y-132836533D02*
X90995476Y-133550819D01*
X90995476Y-133550819D02*
X91233572Y-132550819D01*
X92138333Y-133550819D02*
X91566905Y-133550819D01*
X91852619Y-133550819D02*
X91852619Y-132550819D01*
X91852619Y-132550819D02*
X91757381Y-132693676D01*
X91757381Y-132693676D02*
X91662143Y-132788914D01*
X91662143Y-132788914D02*
X91566905Y-132836533D01*
X118046667Y-114580200D02*
X118189524Y-114627819D01*
X118189524Y-114627819D02*
X118427619Y-114627819D01*
X118427619Y-114627819D02*
X118522857Y-114580200D01*
X118522857Y-114580200D02*
X118570476Y-114532580D01*
X118570476Y-114532580D02*
X118618095Y-114437342D01*
X118618095Y-114437342D02*
X118618095Y-114342104D01*
X118618095Y-114342104D02*
X118570476Y-114246866D01*
X118570476Y-114246866D02*
X118522857Y-114199247D01*
X118522857Y-114199247D02*
X118427619Y-114151628D01*
X118427619Y-114151628D02*
X118237143Y-114104009D01*
X118237143Y-114104009D02*
X118141905Y-114056390D01*
X118141905Y-114056390D02*
X118094286Y-114008771D01*
X118094286Y-114008771D02*
X118046667Y-113913533D01*
X118046667Y-113913533D02*
X118046667Y-113818295D01*
X118046667Y-113818295D02*
X118094286Y-113723057D01*
X118094286Y-113723057D02*
X118141905Y-113675438D01*
X118141905Y-113675438D02*
X118237143Y-113627819D01*
X118237143Y-113627819D02*
X118475238Y-113627819D01*
X118475238Y-113627819D02*
X118618095Y-113675438D01*
X118951429Y-113627819D02*
X119189524Y-114627819D01*
X119189524Y-114627819D02*
X119380000Y-113913533D01*
X119380000Y-113913533D02*
X119570476Y-114627819D01*
X119570476Y-114627819D02*
X119808572Y-113627819D01*
X120332381Y-114056390D02*
X120237143Y-114008771D01*
X120237143Y-114008771D02*
X120189524Y-113961152D01*
X120189524Y-113961152D02*
X120141905Y-113865914D01*
X120141905Y-113865914D02*
X120141905Y-113818295D01*
X120141905Y-113818295D02*
X120189524Y-113723057D01*
X120189524Y-113723057D02*
X120237143Y-113675438D01*
X120237143Y-113675438D02*
X120332381Y-113627819D01*
X120332381Y-113627819D02*
X120522857Y-113627819D01*
X120522857Y-113627819D02*
X120618095Y-113675438D01*
X120618095Y-113675438D02*
X120665714Y-113723057D01*
X120665714Y-113723057D02*
X120713333Y-113818295D01*
X120713333Y-113818295D02*
X120713333Y-113865914D01*
X120713333Y-113865914D02*
X120665714Y-113961152D01*
X120665714Y-113961152D02*
X120618095Y-114008771D01*
X120618095Y-114008771D02*
X120522857Y-114056390D01*
X120522857Y-114056390D02*
X120332381Y-114056390D01*
X120332381Y-114056390D02*
X120237143Y-114104009D01*
X120237143Y-114104009D02*
X120189524Y-114151628D01*
X120189524Y-114151628D02*
X120141905Y-114246866D01*
X120141905Y-114246866D02*
X120141905Y-114437342D01*
X120141905Y-114437342D02*
X120189524Y-114532580D01*
X120189524Y-114532580D02*
X120237143Y-114580200D01*
X120237143Y-114580200D02*
X120332381Y-114627819D01*
X120332381Y-114627819D02*
X120522857Y-114627819D01*
X120522857Y-114627819D02*
X120618095Y-114580200D01*
X120618095Y-114580200D02*
X120665714Y-114532580D01*
X120665714Y-114532580D02*
X120713333Y-114437342D01*
X120713333Y-114437342D02*
X120713333Y-114246866D01*
X120713333Y-114246866D02*
X120665714Y-114151628D01*
X120665714Y-114151628D02*
X120618095Y-114104009D01*
X120618095Y-114104009D02*
X120522857Y-114056390D01*
X133373905Y-87195819D02*
X133373905Y-86195819D01*
X133373905Y-86195819D02*
X133612000Y-86195819D01*
X133612000Y-86195819D02*
X133754857Y-86243438D01*
X133754857Y-86243438D02*
X133850095Y-86338676D01*
X133850095Y-86338676D02*
X133897714Y-86433914D01*
X133897714Y-86433914D02*
X133945333Y-86624390D01*
X133945333Y-86624390D02*
X133945333Y-86767247D01*
X133945333Y-86767247D02*
X133897714Y-86957723D01*
X133897714Y-86957723D02*
X133850095Y-87052961D01*
X133850095Y-87052961D02*
X133754857Y-87148200D01*
X133754857Y-87148200D02*
X133612000Y-87195819D01*
X133612000Y-87195819D02*
X133373905Y-87195819D01*
X134897714Y-87195819D02*
X134326286Y-87195819D01*
X134612000Y-87195819D02*
X134612000Y-86195819D01*
X134612000Y-86195819D02*
X134516762Y-86338676D01*
X134516762Y-86338676D02*
X134421524Y-86433914D01*
X134421524Y-86433914D02*
X134326286Y-86481533D01*
X135458571Y-86242295D02*
X135001428Y-86242295D01*
X135230000Y-86242295D02*
X135230000Y-85442295D01*
X135230000Y-85442295D02*
X135153809Y-85556580D01*
X135153809Y-85556580D02*
X135077619Y-85632771D01*
X135077619Y-85632771D02*
X135001428Y-85670866D01*
X136993333Y-102467580D02*
X136945714Y-102515200D01*
X136945714Y-102515200D02*
X136802857Y-102562819D01*
X136802857Y-102562819D02*
X136707619Y-102562819D01*
X136707619Y-102562819D02*
X136564762Y-102515200D01*
X136564762Y-102515200D02*
X136469524Y-102419961D01*
X136469524Y-102419961D02*
X136421905Y-102324723D01*
X136421905Y-102324723D02*
X136374286Y-102134247D01*
X136374286Y-102134247D02*
X136374286Y-101991390D01*
X136374286Y-101991390D02*
X136421905Y-101800914D01*
X136421905Y-101800914D02*
X136469524Y-101705676D01*
X136469524Y-101705676D02*
X136564762Y-101610438D01*
X136564762Y-101610438D02*
X136707619Y-101562819D01*
X136707619Y-101562819D02*
X136802857Y-101562819D01*
X136802857Y-101562819D02*
X136945714Y-101610438D01*
X136945714Y-101610438D02*
X136993333Y-101658057D01*
X137945714Y-102562819D02*
X137374286Y-102562819D01*
X137660000Y-102562819D02*
X137660000Y-101562819D01*
X137660000Y-101562819D02*
X137564762Y-101705676D01*
X137564762Y-101705676D02*
X137469524Y-101800914D01*
X137469524Y-101800914D02*
X137374286Y-101848533D01*
X108267667Y-133503200D02*
X108410524Y-133550819D01*
X108410524Y-133550819D02*
X108648619Y-133550819D01*
X108648619Y-133550819D02*
X108743857Y-133503200D01*
X108743857Y-133503200D02*
X108791476Y-133455580D01*
X108791476Y-133455580D02*
X108839095Y-133360342D01*
X108839095Y-133360342D02*
X108839095Y-133265104D01*
X108839095Y-133265104D02*
X108791476Y-133169866D01*
X108791476Y-133169866D02*
X108743857Y-133122247D01*
X108743857Y-133122247D02*
X108648619Y-133074628D01*
X108648619Y-133074628D02*
X108458143Y-133027009D01*
X108458143Y-133027009D02*
X108362905Y-132979390D01*
X108362905Y-132979390D02*
X108315286Y-132931771D01*
X108315286Y-132931771D02*
X108267667Y-132836533D01*
X108267667Y-132836533D02*
X108267667Y-132741295D01*
X108267667Y-132741295D02*
X108315286Y-132646057D01*
X108315286Y-132646057D02*
X108362905Y-132598438D01*
X108362905Y-132598438D02*
X108458143Y-132550819D01*
X108458143Y-132550819D02*
X108696238Y-132550819D01*
X108696238Y-132550819D02*
X108839095Y-132598438D01*
X109172429Y-132550819D02*
X109410524Y-133550819D01*
X109410524Y-133550819D02*
X109601000Y-132836533D01*
X109601000Y-132836533D02*
X109791476Y-133550819D01*
X109791476Y-133550819D02*
X110029572Y-132550819D01*
X110315286Y-132550819D02*
X110934333Y-132550819D01*
X110934333Y-132550819D02*
X110601000Y-132931771D01*
X110601000Y-132931771D02*
X110743857Y-132931771D01*
X110743857Y-132931771D02*
X110839095Y-132979390D01*
X110839095Y-132979390D02*
X110886714Y-133027009D01*
X110886714Y-133027009D02*
X110934333Y-133122247D01*
X110934333Y-133122247D02*
X110934333Y-133360342D01*
X110934333Y-133360342D02*
X110886714Y-133455580D01*
X110886714Y-133455580D02*
X110839095Y-133503200D01*
X110839095Y-133503200D02*
X110743857Y-133550819D01*
X110743857Y-133550819D02*
X110458143Y-133550819D01*
X110458143Y-133550819D02*
X110362905Y-133503200D01*
X110362905Y-133503200D02*
X110315286Y-133455580D01*
X129883819Y-133175333D02*
X130598104Y-133175333D01*
X130598104Y-133175333D02*
X130740961Y-133222952D01*
X130740961Y-133222952D02*
X130836200Y-133318190D01*
X130836200Y-133318190D02*
X130883819Y-133461047D01*
X130883819Y-133461047D02*
X130883819Y-133556285D01*
X130883819Y-132175333D02*
X130883819Y-132746761D01*
X130883819Y-132461047D02*
X129883819Y-132461047D01*
X129883819Y-132461047D02*
X130026676Y-132556285D01*
X130026676Y-132556285D02*
X130121914Y-132651523D01*
X130121914Y-132651523D02*
X130169533Y-132746761D01*
X150709333Y-108658819D02*
X150376000Y-108182628D01*
X150137905Y-108658819D02*
X150137905Y-107658819D01*
X150137905Y-107658819D02*
X150518857Y-107658819D01*
X150518857Y-107658819D02*
X150614095Y-107706438D01*
X150614095Y-107706438D02*
X150661714Y-107754057D01*
X150661714Y-107754057D02*
X150709333Y-107849295D01*
X150709333Y-107849295D02*
X150709333Y-107992152D01*
X150709333Y-107992152D02*
X150661714Y-108087390D01*
X150661714Y-108087390D02*
X150614095Y-108135009D01*
X150614095Y-108135009D02*
X150518857Y-108182628D01*
X150518857Y-108182628D02*
X150137905Y-108182628D01*
X151566476Y-107992152D02*
X151566476Y-108658819D01*
X151328381Y-107611200D02*
X151090286Y-108325485D01*
X151090286Y-108325485D02*
X151709333Y-108325485D01*
X136993333Y-112119580D02*
X136945714Y-112167200D01*
X136945714Y-112167200D02*
X136802857Y-112214819D01*
X136802857Y-112214819D02*
X136707619Y-112214819D01*
X136707619Y-112214819D02*
X136564762Y-112167200D01*
X136564762Y-112167200D02*
X136469524Y-112071961D01*
X136469524Y-112071961D02*
X136421905Y-111976723D01*
X136421905Y-111976723D02*
X136374286Y-111786247D01*
X136374286Y-111786247D02*
X136374286Y-111643390D01*
X136374286Y-111643390D02*
X136421905Y-111452914D01*
X136421905Y-111452914D02*
X136469524Y-111357676D01*
X136469524Y-111357676D02*
X136564762Y-111262438D01*
X136564762Y-111262438D02*
X136707619Y-111214819D01*
X136707619Y-111214819D02*
X136802857Y-111214819D01*
X136802857Y-111214819D02*
X136945714Y-111262438D01*
X136945714Y-111262438D02*
X136993333Y-111310057D01*
X137850476Y-111548152D02*
X137850476Y-112214819D01*
X137612381Y-111167200D02*
X137374286Y-111881485D01*
X137374286Y-111881485D02*
X137993333Y-111881485D01*
X117919667Y-96038200D02*
X118062524Y-96085819D01*
X118062524Y-96085819D02*
X118300619Y-96085819D01*
X118300619Y-96085819D02*
X118395857Y-96038200D01*
X118395857Y-96038200D02*
X118443476Y-95990580D01*
X118443476Y-95990580D02*
X118491095Y-95895342D01*
X118491095Y-95895342D02*
X118491095Y-95800104D01*
X118491095Y-95800104D02*
X118443476Y-95704866D01*
X118443476Y-95704866D02*
X118395857Y-95657247D01*
X118395857Y-95657247D02*
X118300619Y-95609628D01*
X118300619Y-95609628D02*
X118110143Y-95562009D01*
X118110143Y-95562009D02*
X118014905Y-95514390D01*
X118014905Y-95514390D02*
X117967286Y-95466771D01*
X117967286Y-95466771D02*
X117919667Y-95371533D01*
X117919667Y-95371533D02*
X117919667Y-95276295D01*
X117919667Y-95276295D02*
X117967286Y-95181057D01*
X117967286Y-95181057D02*
X118014905Y-95133438D01*
X118014905Y-95133438D02*
X118110143Y-95085819D01*
X118110143Y-95085819D02*
X118348238Y-95085819D01*
X118348238Y-95085819D02*
X118491095Y-95133438D01*
X118824429Y-95085819D02*
X119062524Y-96085819D01*
X119062524Y-96085819D02*
X119253000Y-95371533D01*
X119253000Y-95371533D02*
X119443476Y-96085819D01*
X119443476Y-96085819D02*
X119681572Y-95085819D01*
X120491095Y-95085819D02*
X120300619Y-95085819D01*
X120300619Y-95085819D02*
X120205381Y-95133438D01*
X120205381Y-95133438D02*
X120157762Y-95181057D01*
X120157762Y-95181057D02*
X120062524Y-95323914D01*
X120062524Y-95323914D02*
X120014905Y-95514390D01*
X120014905Y-95514390D02*
X120014905Y-95895342D01*
X120014905Y-95895342D02*
X120062524Y-95990580D01*
X120062524Y-95990580D02*
X120110143Y-96038200D01*
X120110143Y-96038200D02*
X120205381Y-96085819D01*
X120205381Y-96085819D02*
X120395857Y-96085819D01*
X120395857Y-96085819D02*
X120491095Y-96038200D01*
X120491095Y-96038200D02*
X120538714Y-95990580D01*
X120538714Y-95990580D02*
X120586333Y-95895342D01*
X120586333Y-95895342D02*
X120586333Y-95657247D01*
X120586333Y-95657247D02*
X120538714Y-95562009D01*
X120538714Y-95562009D02*
X120491095Y-95514390D01*
X120491095Y-95514390D02*
X120395857Y-95466771D01*
X120395857Y-95466771D02*
X120205381Y-95466771D01*
X120205381Y-95466771D02*
X120110143Y-95514390D01*
X120110143Y-95514390D02*
X120062524Y-95562009D01*
X120062524Y-95562009D02*
X120014905Y-95657247D01*
X79692667Y-114453200D02*
X79835524Y-114500819D01*
X79835524Y-114500819D02*
X80073619Y-114500819D01*
X80073619Y-114500819D02*
X80168857Y-114453200D01*
X80168857Y-114453200D02*
X80216476Y-114405580D01*
X80216476Y-114405580D02*
X80264095Y-114310342D01*
X80264095Y-114310342D02*
X80264095Y-114215104D01*
X80264095Y-114215104D02*
X80216476Y-114119866D01*
X80216476Y-114119866D02*
X80168857Y-114072247D01*
X80168857Y-114072247D02*
X80073619Y-114024628D01*
X80073619Y-114024628D02*
X79883143Y-113977009D01*
X79883143Y-113977009D02*
X79787905Y-113929390D01*
X79787905Y-113929390D02*
X79740286Y-113881771D01*
X79740286Y-113881771D02*
X79692667Y-113786533D01*
X79692667Y-113786533D02*
X79692667Y-113691295D01*
X79692667Y-113691295D02*
X79740286Y-113596057D01*
X79740286Y-113596057D02*
X79787905Y-113548438D01*
X79787905Y-113548438D02*
X79883143Y-113500819D01*
X79883143Y-113500819D02*
X80121238Y-113500819D01*
X80121238Y-113500819D02*
X80264095Y-113548438D01*
X80597429Y-113500819D02*
X80835524Y-114500819D01*
X80835524Y-114500819D02*
X81026000Y-113786533D01*
X81026000Y-113786533D02*
X81216476Y-114500819D01*
X81216476Y-114500819D02*
X81454572Y-113500819D01*
X81740286Y-113500819D02*
X82406952Y-113500819D01*
X82406952Y-113500819D02*
X81978381Y-114500819D01*
X150709333Y-102562819D02*
X150376000Y-102086628D01*
X150137905Y-102562819D02*
X150137905Y-101562819D01*
X150137905Y-101562819D02*
X150518857Y-101562819D01*
X150518857Y-101562819D02*
X150614095Y-101610438D01*
X150614095Y-101610438D02*
X150661714Y-101658057D01*
X150661714Y-101658057D02*
X150709333Y-101753295D01*
X150709333Y-101753295D02*
X150709333Y-101896152D01*
X150709333Y-101896152D02*
X150661714Y-101991390D01*
X150661714Y-101991390D02*
X150614095Y-102039009D01*
X150614095Y-102039009D02*
X150518857Y-102086628D01*
X150518857Y-102086628D02*
X150137905Y-102086628D01*
X151090286Y-101658057D02*
X151137905Y-101610438D01*
X151137905Y-101610438D02*
X151233143Y-101562819D01*
X151233143Y-101562819D02*
X151471238Y-101562819D01*
X151471238Y-101562819D02*
X151566476Y-101610438D01*
X151566476Y-101610438D02*
X151614095Y-101658057D01*
X151614095Y-101658057D02*
X151661714Y-101753295D01*
X151661714Y-101753295D02*
X151661714Y-101848533D01*
X151661714Y-101848533D02*
X151614095Y-101991390D01*
X151614095Y-101991390D02*
X151042667Y-102562819D01*
X151042667Y-102562819D02*
X151661714Y-102562819D01*
X98742667Y-76226200D02*
X98885524Y-76273819D01*
X98885524Y-76273819D02*
X99123619Y-76273819D01*
X99123619Y-76273819D02*
X99218857Y-76226200D01*
X99218857Y-76226200D02*
X99266476Y-76178580D01*
X99266476Y-76178580D02*
X99314095Y-76083342D01*
X99314095Y-76083342D02*
X99314095Y-75988104D01*
X99314095Y-75988104D02*
X99266476Y-75892866D01*
X99266476Y-75892866D02*
X99218857Y-75845247D01*
X99218857Y-75845247D02*
X99123619Y-75797628D01*
X99123619Y-75797628D02*
X98933143Y-75750009D01*
X98933143Y-75750009D02*
X98837905Y-75702390D01*
X98837905Y-75702390D02*
X98790286Y-75654771D01*
X98790286Y-75654771D02*
X98742667Y-75559533D01*
X98742667Y-75559533D02*
X98742667Y-75464295D01*
X98742667Y-75464295D02*
X98790286Y-75369057D01*
X98790286Y-75369057D02*
X98837905Y-75321438D01*
X98837905Y-75321438D02*
X98933143Y-75273819D01*
X98933143Y-75273819D02*
X99171238Y-75273819D01*
X99171238Y-75273819D02*
X99314095Y-75321438D01*
X99647429Y-75273819D02*
X99885524Y-76273819D01*
X99885524Y-76273819D02*
X100076000Y-75559533D01*
X100076000Y-75559533D02*
X100266476Y-76273819D01*
X100266476Y-76273819D02*
X100504572Y-75273819D01*
X100837905Y-75369057D02*
X100885524Y-75321438D01*
X100885524Y-75321438D02*
X100980762Y-75273819D01*
X100980762Y-75273819D02*
X101218857Y-75273819D01*
X101218857Y-75273819D02*
X101314095Y-75321438D01*
X101314095Y-75321438D02*
X101361714Y-75369057D01*
X101361714Y-75369057D02*
X101409333Y-75464295D01*
X101409333Y-75464295D02*
X101409333Y-75559533D01*
X101409333Y-75559533D02*
X101361714Y-75702390D01*
X101361714Y-75702390D02*
X100790286Y-76273819D01*
X100790286Y-76273819D02*
X101409333Y-76273819D01*
X84608200Y-76866523D02*
X84655819Y-76723666D01*
X84655819Y-76723666D02*
X84655819Y-76485571D01*
X84655819Y-76485571D02*
X84608200Y-76390333D01*
X84608200Y-76390333D02*
X84560580Y-76342714D01*
X84560580Y-76342714D02*
X84465342Y-76295095D01*
X84465342Y-76295095D02*
X84370104Y-76295095D01*
X84370104Y-76295095D02*
X84274866Y-76342714D01*
X84274866Y-76342714D02*
X84227247Y-76390333D01*
X84227247Y-76390333D02*
X84179628Y-76485571D01*
X84179628Y-76485571D02*
X84132009Y-76676047D01*
X84132009Y-76676047D02*
X84084390Y-76771285D01*
X84084390Y-76771285D02*
X84036771Y-76818904D01*
X84036771Y-76818904D02*
X83941533Y-76866523D01*
X83941533Y-76866523D02*
X83846295Y-76866523D01*
X83846295Y-76866523D02*
X83751057Y-76818904D01*
X83751057Y-76818904D02*
X83703438Y-76771285D01*
X83703438Y-76771285D02*
X83655819Y-76676047D01*
X83655819Y-76676047D02*
X83655819Y-76437952D01*
X83655819Y-76437952D02*
X83703438Y-76295095D01*
X83655819Y-75961761D02*
X84655819Y-75723666D01*
X84655819Y-75723666D02*
X83941533Y-75533190D01*
X83941533Y-75533190D02*
X84655819Y-75342714D01*
X84655819Y-75342714D02*
X83655819Y-75104619D01*
X84655819Y-74199857D02*
X84655819Y-74771285D01*
X84655819Y-74485571D02*
X83655819Y-74485571D01*
X83655819Y-74485571D02*
X83798676Y-74580809D01*
X83798676Y-74580809D02*
X83893914Y-74676047D01*
X83893914Y-74676047D02*
X83941533Y-74771285D01*
X83655819Y-73580809D02*
X83655819Y-73485571D01*
X83655819Y-73485571D02*
X83703438Y-73390333D01*
X83703438Y-73390333D02*
X83751057Y-73342714D01*
X83751057Y-73342714D02*
X83846295Y-73295095D01*
X83846295Y-73295095D02*
X84036771Y-73247476D01*
X84036771Y-73247476D02*
X84274866Y-73247476D01*
X84274866Y-73247476D02*
X84465342Y-73295095D01*
X84465342Y-73295095D02*
X84560580Y-73342714D01*
X84560580Y-73342714D02*
X84608200Y-73390333D01*
X84608200Y-73390333D02*
X84655819Y-73485571D01*
X84655819Y-73485571D02*
X84655819Y-73580809D01*
X84655819Y-73580809D02*
X84608200Y-73676047D01*
X84608200Y-73676047D02*
X84560580Y-73723666D01*
X84560580Y-73723666D02*
X84465342Y-73771285D01*
X84465342Y-73771285D02*
X84274866Y-73818904D01*
X84274866Y-73818904D02*
X84036771Y-73818904D01*
X84036771Y-73818904D02*
X83846295Y-73771285D01*
X83846295Y-73771285D02*
X83751057Y-73723666D01*
X83751057Y-73723666D02*
X83703438Y-73676047D01*
X83703438Y-73676047D02*
X83655819Y-73580809D01*
X136993333Y-105769580D02*
X136945714Y-105817200D01*
X136945714Y-105817200D02*
X136802857Y-105864819D01*
X136802857Y-105864819D02*
X136707619Y-105864819D01*
X136707619Y-105864819D02*
X136564762Y-105817200D01*
X136564762Y-105817200D02*
X136469524Y-105721961D01*
X136469524Y-105721961D02*
X136421905Y-105626723D01*
X136421905Y-105626723D02*
X136374286Y-105436247D01*
X136374286Y-105436247D02*
X136374286Y-105293390D01*
X136374286Y-105293390D02*
X136421905Y-105102914D01*
X136421905Y-105102914D02*
X136469524Y-105007676D01*
X136469524Y-105007676D02*
X136564762Y-104912438D01*
X136564762Y-104912438D02*
X136707619Y-104864819D01*
X136707619Y-104864819D02*
X136802857Y-104864819D01*
X136802857Y-104864819D02*
X136945714Y-104912438D01*
X136945714Y-104912438D02*
X136993333Y-104960057D01*
X137374286Y-104960057D02*
X137421905Y-104912438D01*
X137421905Y-104912438D02*
X137517143Y-104864819D01*
X137517143Y-104864819D02*
X137755238Y-104864819D01*
X137755238Y-104864819D02*
X137850476Y-104912438D01*
X137850476Y-104912438D02*
X137898095Y-104960057D01*
X137898095Y-104960057D02*
X137945714Y-105055295D01*
X137945714Y-105055295D02*
X137945714Y-105150533D01*
X137945714Y-105150533D02*
X137898095Y-105293390D01*
X137898095Y-105293390D02*
X137326667Y-105864819D01*
X137326667Y-105864819D02*
X137945714Y-105864819D01*
X150709333Y-105610819D02*
X150376000Y-105134628D01*
X150137905Y-105610819D02*
X150137905Y-104610819D01*
X150137905Y-104610819D02*
X150518857Y-104610819D01*
X150518857Y-104610819D02*
X150614095Y-104658438D01*
X150614095Y-104658438D02*
X150661714Y-104706057D01*
X150661714Y-104706057D02*
X150709333Y-104801295D01*
X150709333Y-104801295D02*
X150709333Y-104944152D01*
X150709333Y-104944152D02*
X150661714Y-105039390D01*
X150661714Y-105039390D02*
X150614095Y-105087009D01*
X150614095Y-105087009D02*
X150518857Y-105134628D01*
X150518857Y-105134628D02*
X150137905Y-105134628D01*
X151042667Y-104610819D02*
X151661714Y-104610819D01*
X151661714Y-104610819D02*
X151328381Y-104991771D01*
X151328381Y-104991771D02*
X151471238Y-104991771D01*
X151471238Y-104991771D02*
X151566476Y-105039390D01*
X151566476Y-105039390D02*
X151614095Y-105087009D01*
X151614095Y-105087009D02*
X151661714Y-105182247D01*
X151661714Y-105182247D02*
X151661714Y-105420342D01*
X151661714Y-105420342D02*
X151614095Y-105515580D01*
X151614095Y-105515580D02*
X151566476Y-105563200D01*
X151566476Y-105563200D02*
X151471238Y-105610819D01*
X151471238Y-105610819D02*
X151185524Y-105610819D01*
X151185524Y-105610819D02*
X151090286Y-105563200D01*
X151090286Y-105563200D02*
X151042667Y-105515580D01*
X98742667Y-96038200D02*
X98885524Y-96085819D01*
X98885524Y-96085819D02*
X99123619Y-96085819D01*
X99123619Y-96085819D02*
X99218857Y-96038200D01*
X99218857Y-96038200D02*
X99266476Y-95990580D01*
X99266476Y-95990580D02*
X99314095Y-95895342D01*
X99314095Y-95895342D02*
X99314095Y-95800104D01*
X99314095Y-95800104D02*
X99266476Y-95704866D01*
X99266476Y-95704866D02*
X99218857Y-95657247D01*
X99218857Y-95657247D02*
X99123619Y-95609628D01*
X99123619Y-95609628D02*
X98933143Y-95562009D01*
X98933143Y-95562009D02*
X98837905Y-95514390D01*
X98837905Y-95514390D02*
X98790286Y-95466771D01*
X98790286Y-95466771D02*
X98742667Y-95371533D01*
X98742667Y-95371533D02*
X98742667Y-95276295D01*
X98742667Y-95276295D02*
X98790286Y-95181057D01*
X98790286Y-95181057D02*
X98837905Y-95133438D01*
X98837905Y-95133438D02*
X98933143Y-95085819D01*
X98933143Y-95085819D02*
X99171238Y-95085819D01*
X99171238Y-95085819D02*
X99314095Y-95133438D01*
X99647429Y-95085819D02*
X99885524Y-96085819D01*
X99885524Y-96085819D02*
X100076000Y-95371533D01*
X100076000Y-95371533D02*
X100266476Y-96085819D01*
X100266476Y-96085819D02*
X100504572Y-95085819D01*
X101361714Y-95085819D02*
X100885524Y-95085819D01*
X100885524Y-95085819D02*
X100837905Y-95562009D01*
X100837905Y-95562009D02*
X100885524Y-95514390D01*
X100885524Y-95514390D02*
X100980762Y-95466771D01*
X100980762Y-95466771D02*
X101218857Y-95466771D01*
X101218857Y-95466771D02*
X101314095Y-95514390D01*
X101314095Y-95514390D02*
X101361714Y-95562009D01*
X101361714Y-95562009D02*
X101409333Y-95657247D01*
X101409333Y-95657247D02*
X101409333Y-95895342D01*
X101409333Y-95895342D02*
X101361714Y-95990580D01*
X101361714Y-95990580D02*
X101314095Y-96038200D01*
X101314095Y-96038200D02*
X101218857Y-96085819D01*
X101218857Y-96085819D02*
X100980762Y-96085819D01*
X100980762Y-96085819D02*
X100885524Y-96038200D01*
X100885524Y-96038200D02*
X100837905Y-95990580D01*
X136993333Y-109071580D02*
X136945714Y-109119200D01*
X136945714Y-109119200D02*
X136802857Y-109166819D01*
X136802857Y-109166819D02*
X136707619Y-109166819D01*
X136707619Y-109166819D02*
X136564762Y-109119200D01*
X136564762Y-109119200D02*
X136469524Y-109023961D01*
X136469524Y-109023961D02*
X136421905Y-108928723D01*
X136421905Y-108928723D02*
X136374286Y-108738247D01*
X136374286Y-108738247D02*
X136374286Y-108595390D01*
X136374286Y-108595390D02*
X136421905Y-108404914D01*
X136421905Y-108404914D02*
X136469524Y-108309676D01*
X136469524Y-108309676D02*
X136564762Y-108214438D01*
X136564762Y-108214438D02*
X136707619Y-108166819D01*
X136707619Y-108166819D02*
X136802857Y-108166819D01*
X136802857Y-108166819D02*
X136945714Y-108214438D01*
X136945714Y-108214438D02*
X136993333Y-108262057D01*
X137326667Y-108166819D02*
X137945714Y-108166819D01*
X137945714Y-108166819D02*
X137612381Y-108547771D01*
X137612381Y-108547771D02*
X137755238Y-108547771D01*
X137755238Y-108547771D02*
X137850476Y-108595390D01*
X137850476Y-108595390D02*
X137898095Y-108643009D01*
X137898095Y-108643009D02*
X137945714Y-108738247D01*
X137945714Y-108738247D02*
X137945714Y-108976342D01*
X137945714Y-108976342D02*
X137898095Y-109071580D01*
X137898095Y-109071580D02*
X137850476Y-109119200D01*
X137850476Y-109119200D02*
X137755238Y-109166819D01*
X137755238Y-109166819D02*
X137469524Y-109166819D01*
X137469524Y-109166819D02*
X137374286Y-109119200D01*
X137374286Y-109119200D02*
X137326667Y-109071580D01*
X150709333Y-112214819D02*
X150376000Y-111738628D01*
X150137905Y-112214819D02*
X150137905Y-111214819D01*
X150137905Y-111214819D02*
X150518857Y-111214819D01*
X150518857Y-111214819D02*
X150614095Y-111262438D01*
X150614095Y-111262438D02*
X150661714Y-111310057D01*
X150661714Y-111310057D02*
X150709333Y-111405295D01*
X150709333Y-111405295D02*
X150709333Y-111548152D01*
X150709333Y-111548152D02*
X150661714Y-111643390D01*
X150661714Y-111643390D02*
X150614095Y-111691009D01*
X150614095Y-111691009D02*
X150518857Y-111738628D01*
X150518857Y-111738628D02*
X150137905Y-111738628D01*
X151614095Y-111214819D02*
X151137905Y-111214819D01*
X151137905Y-111214819D02*
X151090286Y-111691009D01*
X151090286Y-111691009D02*
X151137905Y-111643390D01*
X151137905Y-111643390D02*
X151233143Y-111595771D01*
X151233143Y-111595771D02*
X151471238Y-111595771D01*
X151471238Y-111595771D02*
X151566476Y-111643390D01*
X151566476Y-111643390D02*
X151614095Y-111691009D01*
X151614095Y-111691009D02*
X151661714Y-111786247D01*
X151661714Y-111786247D02*
X151661714Y-112024342D01*
X151661714Y-112024342D02*
X151614095Y-112119580D01*
X151614095Y-112119580D02*
X151566476Y-112167200D01*
X151566476Y-112167200D02*
X151471238Y-112214819D01*
X151471238Y-112214819D02*
X151233143Y-112214819D01*
X151233143Y-112214819D02*
X151137905Y-112167200D01*
X151137905Y-112167200D02*
X151090286Y-112119580D01*
X125375200Y-77120523D02*
X125422819Y-76977666D01*
X125422819Y-76977666D02*
X125422819Y-76739571D01*
X125422819Y-76739571D02*
X125375200Y-76644333D01*
X125375200Y-76644333D02*
X125327580Y-76596714D01*
X125327580Y-76596714D02*
X125232342Y-76549095D01*
X125232342Y-76549095D02*
X125137104Y-76549095D01*
X125137104Y-76549095D02*
X125041866Y-76596714D01*
X125041866Y-76596714D02*
X124994247Y-76644333D01*
X124994247Y-76644333D02*
X124946628Y-76739571D01*
X124946628Y-76739571D02*
X124899009Y-76930047D01*
X124899009Y-76930047D02*
X124851390Y-77025285D01*
X124851390Y-77025285D02*
X124803771Y-77072904D01*
X124803771Y-77072904D02*
X124708533Y-77120523D01*
X124708533Y-77120523D02*
X124613295Y-77120523D01*
X124613295Y-77120523D02*
X124518057Y-77072904D01*
X124518057Y-77072904D02*
X124470438Y-77025285D01*
X124470438Y-77025285D02*
X124422819Y-76930047D01*
X124422819Y-76930047D02*
X124422819Y-76691952D01*
X124422819Y-76691952D02*
X124470438Y-76549095D01*
X124422819Y-76215761D02*
X125422819Y-75977666D01*
X125422819Y-75977666D02*
X124708533Y-75787190D01*
X124708533Y-75787190D02*
X125422819Y-75596714D01*
X125422819Y-75596714D02*
X124422819Y-75358619D01*
X125422819Y-74453857D02*
X125422819Y-75025285D01*
X125422819Y-74739571D02*
X124422819Y-74739571D01*
X124422819Y-74739571D02*
X124565676Y-74834809D01*
X124565676Y-74834809D02*
X124660914Y-74930047D01*
X124660914Y-74930047D02*
X124708533Y-75025285D01*
X125422819Y-73501476D02*
X125422819Y-74072904D01*
X125422819Y-73787190D02*
X124422819Y-73787190D01*
X124422819Y-73787190D02*
X124565676Y-73882428D01*
X124565676Y-73882428D02*
X124660914Y-73977666D01*
X124660914Y-73977666D02*
X124708533Y-74072904D01*
X163068095Y-71082819D02*
X163068095Y-71892342D01*
X163068095Y-71892342D02*
X163115714Y-71987580D01*
X163115714Y-71987580D02*
X163163333Y-72035200D01*
X163163333Y-72035200D02*
X163258571Y-72082819D01*
X163258571Y-72082819D02*
X163449047Y-72082819D01*
X163449047Y-72082819D02*
X163544285Y-72035200D01*
X163544285Y-72035200D02*
X163591904Y-71987580D01*
X163591904Y-71987580D02*
X163639523Y-71892342D01*
X163639523Y-71892342D02*
X163639523Y-71082819D01*
X164068095Y-71178057D02*
X164115714Y-71130438D01*
X164115714Y-71130438D02*
X164210952Y-71082819D01*
X164210952Y-71082819D02*
X164449047Y-71082819D01*
X164449047Y-71082819D02*
X164544285Y-71130438D01*
X164544285Y-71130438D02*
X164591904Y-71178057D01*
X164591904Y-71178057D02*
X164639523Y-71273295D01*
X164639523Y-71273295D02*
X164639523Y-71368533D01*
X164639523Y-71368533D02*
X164591904Y-71511390D01*
X164591904Y-71511390D02*
X164020476Y-72082819D01*
X164020476Y-72082819D02*
X164639523Y-72082819D01*
D13*
%TO.C,D2*%
X148330000Y-84755000D02*
X148330000Y-88755000D01*
X148330000Y-84755000D02*
X153930000Y-84755000D01*
X148330000Y-88755000D02*
X153330000Y-88755000D01*
X153930000Y-88155000D02*
X153330000Y-88755000D01*
X153930000Y-88155000D02*
X153930000Y-84755000D01*
%TO.C,SW9*%
X93091000Y-103251000D02*
X107061000Y-103251000D01*
X93091000Y-117221000D02*
X93091000Y-103251000D01*
X107061000Y-103251000D02*
X107061000Y-117221000D01*
X107061000Y-117221000D02*
X93091000Y-117221000D01*
D14*
%TO.C,G\u002A\u002A\u002A*%
G36*
X163704056Y-118390178D02*
G01*
X163704056Y-119192284D01*
X162904056Y-119192284D01*
X162104056Y-119192284D01*
X162104056Y-118390178D01*
X162104056Y-117588073D01*
X162904056Y-117588073D01*
X163704056Y-117588073D01*
X163704056Y-118390178D01*
G37*
G36*
X161128691Y-115188283D02*
G01*
X161145815Y-115340490D01*
X161159577Y-115589098D01*
X161168362Y-115896835D01*
X161170723Y-116159323D01*
X161170723Y-116919652D01*
X160235297Y-116919652D01*
X159838522Y-116916405D01*
X159559002Y-116905708D01*
X159380797Y-116886129D01*
X159287964Y-116856233D01*
X159266540Y-116832564D01*
X159255377Y-116735718D01*
X159248780Y-116533548D01*
X159247180Y-116254353D01*
X159251011Y-115926430D01*
X159251966Y-115880064D01*
X159270723Y-115014652D01*
X160178691Y-114996112D01*
X161086659Y-114977572D01*
X161128691Y-115188283D01*
G37*
G36*
X167206055Y-115605949D02*
G01*
X167336437Y-115662463D01*
X167406532Y-115767699D01*
X167434587Y-115934836D01*
X167438850Y-116177053D01*
X167437389Y-116439603D01*
X167437389Y-117227007D01*
X167215989Y-117307277D01*
X167062332Y-117339290D01*
X166821732Y-117363285D01*
X166527941Y-117378807D01*
X166214712Y-117385398D01*
X165915795Y-117382603D01*
X165664943Y-117369966D01*
X165495906Y-117347030D01*
X165451912Y-117331119D01*
X165414223Y-117268324D01*
X165391080Y-117126449D01*
X165381211Y-116888636D01*
X165383346Y-116538027D01*
X165385246Y-116446484D01*
X165404056Y-115616231D01*
X166270723Y-115596948D01*
X166691445Y-115586371D01*
X166997140Y-115584978D01*
X167206055Y-115605949D01*
G37*
G36*
X157704056Y-117172366D02*
G01*
X157704056Y-117959817D01*
X157504056Y-118035507D01*
X157347835Y-118149329D01*
X157305032Y-118330370D01*
X157375649Y-118579742D01*
X157504056Y-118813887D01*
X157590604Y-118957463D01*
X157647742Y-119083589D01*
X157681560Y-119225231D01*
X157698149Y-119415354D01*
X157703599Y-119686926D01*
X157704056Y-119896447D01*
X157704056Y-120662810D01*
X156905002Y-120662810D01*
X156105948Y-120662810D01*
X155929641Y-120395691D01*
X155811899Y-120172047D01*
X155706061Y-119896159D01*
X155663070Y-119743981D01*
X155628246Y-119520309D01*
X155601656Y-119200841D01*
X155583499Y-118816001D01*
X155573973Y-118396214D01*
X155573277Y-117971905D01*
X155581611Y-117573499D01*
X155599173Y-117231419D01*
X155626161Y-116976092D01*
X155644387Y-116886231D01*
X155701808Y-116695976D01*
X155768270Y-116561158D01*
X155866022Y-116472245D01*
X156017312Y-116419705D01*
X156244388Y-116394004D01*
X156569498Y-116385610D01*
X156814388Y-116384915D01*
X157704056Y-116384915D01*
X157704056Y-117172366D01*
G37*
G36*
X170086887Y-119340553D02*
G01*
X170061887Y-119832891D01*
X170025113Y-120210552D01*
X169974351Y-120492200D01*
X169933961Y-120629389D01*
X169753298Y-121037962D01*
X169524989Y-121402637D01*
X169271197Y-121692800D01*
X169039633Y-121864764D01*
X168932020Y-121888739D01*
X168727464Y-121907894D01*
X168456575Y-121921848D01*
X168149963Y-121930221D01*
X167838241Y-121932632D01*
X167552018Y-121928703D01*
X167321906Y-121918051D01*
X167178517Y-121900299D01*
X167148500Y-121888249D01*
X167131131Y-121807567D01*
X167116941Y-121621213D01*
X167107421Y-121357188D01*
X167104056Y-121052722D01*
X167104056Y-120261757D01*
X167320723Y-120259645D01*
X167550459Y-120204299D01*
X167775280Y-120036711D01*
X168006950Y-119747648D01*
X168043515Y-119692477D01*
X168194363Y-119409208D01*
X168329946Y-119067082D01*
X168425461Y-118733255D01*
X168450411Y-118590705D01*
X168462555Y-118521119D01*
X168493931Y-118473599D01*
X168566951Y-118443214D01*
X168704027Y-118425036D01*
X168927570Y-118414135D01*
X169259993Y-118405583D01*
X169295850Y-118404764D01*
X170120977Y-118385928D01*
X170086887Y-119340553D01*
G37*
G36*
X159881019Y-99810391D02*
G01*
X160184852Y-99818357D01*
X160444919Y-99833257D01*
X160631735Y-99855081D01*
X160705326Y-99875597D01*
X160834559Y-99990121D01*
X160994727Y-100198363D01*
X161166636Y-100470166D01*
X161331092Y-100775374D01*
X161459848Y-101061079D01*
X161549535Y-101300840D01*
X161627599Y-101551177D01*
X161694803Y-101822627D01*
X161751910Y-102125729D01*
X161799680Y-102471021D01*
X161838878Y-102869042D01*
X161870265Y-103330328D01*
X161894604Y-103865419D01*
X161912656Y-104484852D01*
X161925185Y-105199166D01*
X161932953Y-106018898D01*
X161936722Y-106954587D01*
X161937389Y-107662021D01*
X161937389Y-111472021D01*
X161757724Y-111856363D01*
X161578060Y-112240705D01*
X160741250Y-112240705D01*
X159904440Y-112240705D01*
X159642273Y-112003229D01*
X159314695Y-111655241D01*
X159092635Y-111286208D01*
X158955906Y-110856697D01*
X158908408Y-110569652D01*
X158855750Y-110109097D01*
X158799159Y-109545123D01*
X158739894Y-108895945D01*
X158679212Y-108179776D01*
X158618373Y-107414831D01*
X158558633Y-106619325D01*
X158501251Y-105811472D01*
X158447485Y-105009486D01*
X158398593Y-104231581D01*
X158355834Y-103495973D01*
X158320465Y-102820875D01*
X158293744Y-102224502D01*
X158276930Y-101725068D01*
X158271277Y-101345442D01*
X158274276Y-100872920D01*
X158284710Y-100517913D01*
X158305602Y-100264321D01*
X158339973Y-100096048D01*
X158390844Y-99996997D01*
X158461236Y-99951069D01*
X158534725Y-99941757D01*
X158675382Y-99916926D01*
X158737389Y-99874915D01*
X158817758Y-99848062D01*
X159001791Y-99828193D01*
X159260003Y-99815298D01*
X159562908Y-99809368D01*
X159881019Y-99810391D01*
G37*
G36*
X170247046Y-100825301D02*
G01*
X171070723Y-100844126D01*
X171067276Y-101947021D01*
X171065424Y-102252342D01*
X171060177Y-102518252D01*
X171048898Y-102763066D01*
X171028946Y-103005101D01*
X170997684Y-103262672D01*
X170952473Y-103554096D01*
X170890673Y-103897690D01*
X170809646Y-104311768D01*
X170706753Y-104814649D01*
X170579356Y-105424647D01*
X170537631Y-105623336D01*
X170475229Y-105923583D01*
X170403534Y-106273281D01*
X170345648Y-106559126D01*
X170218100Y-107178658D01*
X170102145Y-107702384D01*
X169988368Y-108166511D01*
X169867353Y-108607248D01*
X169729685Y-109060801D01*
X169565949Y-109563378D01*
X169559015Y-109584141D01*
X169427460Y-109972443D01*
X169303690Y-110327914D01*
X169196298Y-110626627D01*
X169113874Y-110844654D01*
X169066968Y-110954404D01*
X168999400Y-111097825D01*
X168971133Y-111184659D01*
X168943897Y-111260926D01*
X168870627Y-111430178D01*
X168763434Y-111665099D01*
X168669391Y-111865164D01*
X168509966Y-112188469D01*
X168368449Y-112424535D01*
X168219998Y-112587051D01*
X168039773Y-112689709D01*
X167802934Y-112746197D01*
X167484641Y-112770206D01*
X167060052Y-112775426D01*
X167017692Y-112775442D01*
X166654879Y-112774662D01*
X166401257Y-112769604D01*
X166232687Y-112756188D01*
X166125027Y-112730334D01*
X166054137Y-112687962D01*
X165995875Y-112624992D01*
X165975561Y-112599322D01*
X165924931Y-112525570D01*
X165888429Y-112438824D01*
X165863801Y-112317355D01*
X165848793Y-112139434D01*
X165841150Y-111883331D01*
X165838618Y-111527318D01*
X165838589Y-111279190D01*
X165841503Y-110828226D01*
X165851291Y-110476739D01*
X165871128Y-110190576D01*
X165904193Y-109935582D01*
X165953661Y-109677601D01*
X166010280Y-109433336D01*
X166066397Y-109201135D01*
X166120281Y-108974992D01*
X166176155Y-108736400D01*
X166238241Y-108466850D01*
X166310762Y-108147834D01*
X166397941Y-107760845D01*
X166504001Y-107287374D01*
X166633165Y-106708912D01*
X166688928Y-106458863D01*
X166851543Y-105816511D01*
X167064784Y-105104957D01*
X167312834Y-104370902D01*
X167579875Y-103661046D01*
X167850090Y-103022091D01*
X167861136Y-102997803D01*
X167952485Y-102792372D01*
X168016185Y-102639168D01*
X168037389Y-102575757D01*
X168074770Y-102438632D01*
X168173746Y-102229256D01*
X168314565Y-101981298D01*
X168477474Y-101728428D01*
X168642722Y-101504315D01*
X168717576Y-101416288D01*
X168939790Y-101176937D01*
X169120277Y-101010299D01*
X169291291Y-100903909D01*
X169485084Y-100845306D01*
X169733911Y-100822028D01*
X170070024Y-100821610D01*
X170247046Y-100825301D01*
G37*
D13*
%TO.C,R1*%
X133350000Y-63850000D02*
X133350000Y-63230000D01*
X134270000Y-64770000D02*
G75*
G02*
X132430000Y-64770000I-920000J0D01*
G01*
X132430000Y-64770000D02*
G75*
G02*
X134270000Y-64770000I920000J0D01*
G01*
%TO.C,SW4*%
X74041000Y-84074000D02*
X88011000Y-84074000D01*
X74041000Y-98044000D02*
X74041000Y-84074000D01*
X88011000Y-84074000D02*
X88011000Y-98044000D01*
X88011000Y-98044000D02*
X74041000Y-98044000D01*
%TO.C,SW1*%
X83566000Y-122301000D02*
X97536000Y-122301000D01*
X83566000Y-136271000D02*
X83566000Y-122301000D01*
X97536000Y-122301000D02*
X97536000Y-136271000D01*
X97536000Y-136271000D02*
X83566000Y-136271000D01*
%TO.C,SW8*%
X112268000Y-103251000D02*
X126238000Y-103251000D01*
X112268000Y-117221000D02*
X112268000Y-103251000D01*
X126238000Y-103251000D02*
X126238000Y-117221000D01*
X126238000Y-117221000D02*
X112268000Y-117221000D01*
%TO.C,D1*%
X135630000Y-84755000D02*
X135630000Y-88755000D01*
X135630000Y-84755000D02*
X141230000Y-84755000D01*
X135630000Y-88755000D02*
X140630000Y-88755000D01*
X141230000Y-88155000D02*
X140630000Y-88755000D01*
X141230000Y-88155000D02*
X141230000Y-84755000D01*
%TO.C,C1*%
X140225000Y-101390000D02*
X141755000Y-101390000D01*
X141755000Y-103230000D02*
X140225000Y-103230000D01*
D14*
%TO.C,G\u002A\u002A\u002A*%
G36*
X162992968Y-98218085D02*
G01*
X162973579Y-98237474D01*
X162954189Y-98218085D01*
X162973579Y-98198695D01*
X162992968Y-98218085D01*
G37*
G36*
X163458312Y-98528314D02*
G01*
X163438922Y-98547703D01*
X163419533Y-98528314D01*
X163438922Y-98508924D01*
X163458312Y-98528314D01*
G37*
G36*
X165009457Y-97946634D02*
G01*
X164990067Y-97966024D01*
X164970678Y-97946634D01*
X164990067Y-97927245D01*
X165009457Y-97946634D01*
G37*
G36*
X166172815Y-98024191D02*
G01*
X166153426Y-98043581D01*
X166134037Y-98024191D01*
X166153426Y-98004802D01*
X166172815Y-98024191D01*
G37*
G36*
X169313884Y-94379001D02*
G01*
X169294495Y-94398390D01*
X169275105Y-94379001D01*
X169294495Y-94359611D01*
X169313884Y-94379001D01*
G37*
G36*
X168966286Y-96340102D02*
G01*
X169021980Y-96356580D01*
X169040609Y-96398958D01*
X169042434Y-96451369D01*
X169033584Y-96538061D01*
X169013350Y-96581732D01*
X168907161Y-96614385D01*
X168775353Y-96622955D01*
X168693630Y-96611935D01*
X168615497Y-96568276D01*
X168583786Y-96517957D01*
X168596309Y-96421939D01*
X168677081Y-96361670D01*
X168825222Y-96337740D01*
X168853289Y-96337321D01*
X168966286Y-96340102D01*
G37*
G36*
X166946168Y-94520371D02*
G01*
X167057740Y-94549886D01*
X167063194Y-94552686D01*
X167139341Y-94632388D01*
X167191365Y-94761236D01*
X167215827Y-94913631D01*
X167209289Y-95063972D01*
X167168315Y-95186657D01*
X167151579Y-95210888D01*
X167081087Y-95262613D01*
X166977391Y-95303004D01*
X166867823Y-95325786D01*
X166779717Y-95324682D01*
X166744175Y-95304425D01*
X166732041Y-95252884D01*
X166716966Y-95143686D01*
X166701497Y-94996537D01*
X166695420Y-94927248D01*
X166683710Y-94753637D01*
X166683840Y-94642258D01*
X166696775Y-94578551D01*
X166720462Y-94549751D01*
X166819274Y-94520202D01*
X166946168Y-94520371D01*
G37*
G36*
X163875393Y-94833360D02*
G01*
X163930562Y-94866780D01*
X163956136Y-94937523D01*
X163956144Y-95057895D01*
X163934617Y-95240204D01*
X163930936Y-95265745D01*
X163896096Y-95453910D01*
X163851603Y-95572737D01*
X163788866Y-95630438D01*
X163699294Y-95635224D01*
X163582619Y-95598682D01*
X163509522Y-95540400D01*
X163444198Y-95442919D01*
X163435233Y-95423174D01*
X163402728Y-95330392D01*
X163402148Y-95320002D01*
X163616324Y-95320002D01*
X163638933Y-95365194D01*
X163652205Y-95367856D01*
X163689891Y-95341912D01*
X163690983Y-95333924D01*
X163696878Y-95275258D01*
X163711220Y-95178228D01*
X163712721Y-95169115D01*
X163734458Y-95038237D01*
X163675316Y-95135184D01*
X163629187Y-95235928D01*
X163616324Y-95320002D01*
X163402148Y-95320002D01*
X163398259Y-95250402D01*
X163422352Y-95147981D01*
X163440195Y-95092574D01*
X163504029Y-94946335D01*
X163586734Y-94863162D01*
X163707066Y-94828566D01*
X163786598Y-94824955D01*
X163875393Y-94833360D01*
G37*
G36*
X165430719Y-95010940D02*
G01*
X165609484Y-95064024D01*
X165736300Y-95155728D01*
X165788566Y-95241432D01*
X165800821Y-95311200D01*
X165810443Y-95439992D01*
X165817467Y-95614239D01*
X165821930Y-95820369D01*
X165823870Y-96044811D01*
X165823323Y-96273996D01*
X165820326Y-96494351D01*
X165814917Y-96692308D01*
X165807132Y-96854294D01*
X165797008Y-96966739D01*
X165784581Y-97016073D01*
X165783735Y-97016747D01*
X165711978Y-97036898D01*
X165588335Y-97050806D01*
X165438272Y-97057856D01*
X165287257Y-97057436D01*
X165160754Y-97048931D01*
X165088090Y-97033513D01*
X164987641Y-96972871D01*
X164913586Y-96908361D01*
X164888121Y-96876564D01*
X164868584Y-96835951D01*
X164854009Y-96776204D01*
X164843430Y-96687002D01*
X164835881Y-96558026D01*
X164830397Y-96378955D01*
X164826012Y-96139471D01*
X164823918Y-95990638D01*
X165048235Y-95990638D01*
X165048555Y-96245548D01*
X165050340Y-96434119D01*
X165054824Y-96567567D01*
X165063245Y-96657109D01*
X165076839Y-96713962D01*
X165096841Y-96749342D01*
X165124488Y-96774467D01*
X165135487Y-96782411D01*
X165258815Y-96827735D01*
X165397243Y-96833083D01*
X165571747Y-96822054D01*
X165582634Y-96085260D01*
X165586073Y-95828770D01*
X165587046Y-95638573D01*
X165584546Y-95503419D01*
X165577562Y-95412059D01*
X165565087Y-95353241D01*
X165546111Y-95315717D01*
X165519625Y-95288236D01*
X165510475Y-95280604D01*
X165379340Y-95221893D01*
X165208553Y-95221557D01*
X165135487Y-95237183D01*
X165105082Y-95247361D01*
X165082715Y-95266329D01*
X165067151Y-95304738D01*
X165057158Y-95373243D01*
X165051501Y-95482497D01*
X165048947Y-95643153D01*
X165048262Y-95865866D01*
X165048235Y-95990638D01*
X164823918Y-95990638D01*
X164823247Y-95942968D01*
X164811541Y-95061896D01*
X164958972Y-95031184D01*
X165210412Y-94999114D01*
X165430719Y-95010940D01*
G37*
G36*
X167680395Y-96505937D02*
G01*
X167703297Y-96559969D01*
X167691439Y-96667385D01*
X167644531Y-96834209D01*
X167600780Y-96961593D01*
X167471899Y-97321182D01*
X167200449Y-97387817D01*
X166967168Y-97444973D01*
X166796675Y-97485277D01*
X166676346Y-97510000D01*
X166593559Y-97520414D01*
X166535691Y-97517789D01*
X166490120Y-97503397D01*
X166444223Y-97478510D01*
X166423256Y-97466084D01*
X166355112Y-97428544D01*
X166296964Y-97411216D01*
X166225807Y-97414003D01*
X166118636Y-97436807D01*
X166011027Y-97464327D01*
X165872548Y-97499191D01*
X165765694Y-97524031D01*
X165710375Y-97534264D01*
X165707472Y-97534210D01*
X165661284Y-97525463D01*
X165564590Y-97507426D01*
X165494189Y-97494357D01*
X165351053Y-97468641D01*
X165216955Y-97445831D01*
X165174266Y-97439017D01*
X165080207Y-97409397D01*
X165048499Y-97353839D01*
X165048235Y-97346097D01*
X165062152Y-97275527D01*
X165078248Y-97254037D01*
X165127770Y-97252438D01*
X165233344Y-97264406D01*
X165375140Y-97287488D01*
X165426024Y-97297034D01*
X165601653Y-97327357D01*
X165727352Y-97337926D01*
X165827983Y-97329505D01*
X165900396Y-97311659D01*
X166057003Y-97264738D01*
X165950100Y-97170125D01*
X165885075Y-97097143D01*
X165881507Y-97071753D01*
X166089499Y-97071753D01*
X166212661Y-97146652D01*
X166361643Y-97195248D01*
X166515463Y-97173246D01*
X166619519Y-97112272D01*
X166668971Y-97046092D01*
X166710690Y-96955528D01*
X166750460Y-96841443D01*
X166558584Y-96834980D01*
X166432014Y-96830517D01*
X166330615Y-96826596D01*
X166301019Y-96825286D01*
X166239900Y-96854005D01*
X166173618Y-96928929D01*
X166162415Y-96946903D01*
X166089499Y-97071753D01*
X165881507Y-97071753D01*
X165878370Y-97049426D01*
X165882196Y-97045729D01*
X165926748Y-96998533D01*
X165995806Y-96912334D01*
X166034274Y-96860833D01*
X166102768Y-96767312D01*
X166150937Y-96702345D01*
X166162839Y-96686806D01*
X166207726Y-96678107D01*
X166309269Y-96675085D01*
X166446841Y-96676869D01*
X166599818Y-96682590D01*
X166747574Y-96691377D01*
X166869483Y-96702359D01*
X166944921Y-96714665D01*
X166958178Y-96720371D01*
X166960329Y-96770902D01*
X166927725Y-96865070D01*
X166871006Y-96983629D01*
X166800815Y-97107334D01*
X166727793Y-97216939D01*
X166662581Y-97293198D01*
X166628859Y-97315957D01*
X166600175Y-97329241D01*
X166644185Y-97326362D01*
X166757827Y-97307785D01*
X166938042Y-97273979D01*
X167055504Y-97250844D01*
X167184906Y-97222333D01*
X167281522Y-97196000D01*
X167321517Y-97179256D01*
X167343546Y-97134202D01*
X167382535Y-97033727D01*
X167431515Y-96896182D01*
X167452659Y-96833954D01*
X167518713Y-96657427D01*
X167576747Y-96543598D01*
X167623022Y-96499264D01*
X167680395Y-96505937D01*
G37*
G36*
X168826483Y-93557629D02*
G01*
X168868540Y-93633594D01*
X168917161Y-93752738D01*
X168926234Y-93778326D01*
X169020227Y-94049382D01*
X169196140Y-94053975D01*
X169309887Y-94055415D01*
X169390469Y-94053665D01*
X169406922Y-94052046D01*
X169471631Y-94058733D01*
X169497554Y-94066923D01*
X169508286Y-94096840D01*
X169457638Y-94158182D01*
X169359328Y-94241661D01*
X169165340Y-94395000D01*
X169216449Y-94561504D01*
X169259293Y-94694069D01*
X169302015Y-94815823D01*
X169311195Y-94840028D01*
X169336696Y-94923291D01*
X169337786Y-94969054D01*
X169337403Y-94969477D01*
X169297732Y-94961371D01*
X169216857Y-94923138D01*
X169117879Y-94868008D01*
X169023899Y-94809212D01*
X168958018Y-94759980D01*
X168943216Y-94743723D01*
X168880283Y-94708318D01*
X168777485Y-94732975D01*
X168641094Y-94815409D01*
X168552187Y-94886121D01*
X168451346Y-94965787D01*
X168377585Y-95011693D01*
X168345153Y-95015184D01*
X168344715Y-95012152D01*
X168355607Y-94950313D01*
X168383754Y-94839523D01*
X168419632Y-94715292D01*
X168457038Y-94592283D01*
X168615869Y-94592283D01*
X168629099Y-94630053D01*
X168632970Y-94631062D01*
X168666078Y-94603888D01*
X168674037Y-94592283D01*
X168670962Y-94556549D01*
X168656936Y-94553504D01*
X168617447Y-94581654D01*
X168615869Y-94592283D01*
X168457038Y-94592283D01*
X168469813Y-94550273D01*
X168964876Y-94550273D01*
X168988236Y-94589570D01*
X169070252Y-94627983D01*
X169070301Y-94628000D01*
X169066417Y-94601381D01*
X169056457Y-94572894D01*
X169018693Y-94523933D01*
X168978355Y-94518837D01*
X168964876Y-94550273D01*
X168469813Y-94550273D01*
X168494253Y-94469905D01*
X168370517Y-94390628D01*
X168717655Y-94390628D01*
X168734262Y-94420258D01*
X168779097Y-94466066D01*
X168818876Y-94463981D01*
X168882694Y-94411011D01*
X168889970Y-94404243D01*
X168940509Y-94323922D01*
X168933624Y-94250243D01*
X168897212Y-94223886D01*
X169081212Y-94223886D01*
X169100602Y-94243275D01*
X169119991Y-94223886D01*
X169100602Y-94204497D01*
X169081212Y-94223886D01*
X168897212Y-94223886D01*
X168874715Y-94207602D01*
X168845756Y-94204497D01*
X168767816Y-94235708D01*
X168719674Y-94308282D01*
X168717655Y-94390628D01*
X168370517Y-94390628D01*
X168198790Y-94280603D01*
X168121591Y-94228118D01*
X168465514Y-94228118D01*
X168475141Y-94281749D01*
X168486607Y-94294980D01*
X168543366Y-94319682D01*
X168575790Y-94279320D01*
X168577090Y-94262665D01*
X168546049Y-94211253D01*
X168518922Y-94204497D01*
X168465514Y-94228118D01*
X168121591Y-94228118D01*
X168056671Y-94183981D01*
X167973158Y-94114461D01*
X167952673Y-94075910D01*
X167959063Y-94071107D01*
X168022642Y-94060263D01*
X168140635Y-94049802D01*
X168289913Y-94041673D01*
X168322837Y-94040453D01*
X168630875Y-94029993D01*
X168631833Y-94026761D01*
X168812823Y-94026761D01*
X168819953Y-94077058D01*
X168833191Y-94077658D01*
X168842448Y-94025757D01*
X168836252Y-94003333D01*
X168819033Y-93988644D01*
X168812823Y-94026761D01*
X168631833Y-94026761D01*
X168698546Y-93801643D01*
X168739561Y-93675292D01*
X168777274Y-93579312D01*
X168799229Y-93540281D01*
X168826483Y-93557629D01*
G37*
G36*
X167216379Y-93868998D02*
G01*
X167471897Y-93952898D01*
X167677863Y-94095611D01*
X167837053Y-94299255D01*
X167952243Y-94565948D01*
X167978524Y-94658132D01*
X168022261Y-94914700D01*
X168008946Y-95147591D01*
X167936934Y-95387245D01*
X167927798Y-95424459D01*
X167956999Y-95400232D01*
X167988294Y-95363080D01*
X168086159Y-95265597D01*
X168204258Y-95198806D01*
X168357832Y-95158079D01*
X168562128Y-95138792D01*
X168738065Y-95135563D01*
X169024127Y-95148549D01*
X169248870Y-95190280D01*
X169424832Y-95265823D01*
X169564549Y-95380244D01*
X169662499Y-95509207D01*
X169707182Y-95581658D01*
X169738701Y-95645026D01*
X169759352Y-95714462D01*
X169771435Y-95805120D01*
X169777244Y-95932152D01*
X169779079Y-96110711D01*
X169779228Y-96279138D01*
X169779228Y-96865008D01*
X169653197Y-96981027D01*
X169532176Y-97074652D01*
X169397188Y-97155160D01*
X169375556Y-97165463D01*
X169245886Y-97204411D01*
X169066217Y-97233587D01*
X168863724Y-97250929D01*
X168665581Y-97254378D01*
X168498963Y-97241871D01*
X168460129Y-97234902D01*
X168268144Y-97168682D01*
X168088450Y-97063021D01*
X167950277Y-96935997D01*
X167927205Y-96905311D01*
X167851520Y-96744003D01*
X167815995Y-96555716D01*
X167816438Y-96533759D01*
X168045310Y-96533759D01*
X168093502Y-96711739D01*
X168207258Y-96861191D01*
X168380827Y-96972199D01*
X168452663Y-96999494D01*
X168539861Y-97013852D01*
X168678450Y-97021738D01*
X168842444Y-97021909D01*
X168889383Y-97020405D01*
X169067740Y-97009438D01*
X169194022Y-96989555D01*
X169293652Y-96954793D01*
X169383810Y-96904429D01*
X169546556Y-96801692D01*
X169546556Y-96274955D01*
X169543645Y-96026126D01*
X169531768Y-95841023D01*
X169506210Y-95705935D01*
X169462254Y-95607146D01*
X169395184Y-95530945D01*
X169300285Y-95463617D01*
X169259209Y-95439373D01*
X169168383Y-95394134D01*
X169074026Y-95366656D01*
X168952869Y-95352830D01*
X168781645Y-95348542D01*
X168744736Y-95348466D01*
X168508847Y-95359701D01*
X168339905Y-95395802D01*
X168230272Y-95460362D01*
X168172313Y-95556977D01*
X168159812Y-95623751D01*
X168163449Y-95747248D01*
X168208521Y-95807755D01*
X168303849Y-95812647D01*
X168368138Y-95797941D01*
X168533165Y-95766614D01*
X168703573Y-95757517D01*
X168850510Y-95770759D01*
X168928647Y-95795785D01*
X168996432Y-95845977D01*
X168997222Y-95890575D01*
X168928137Y-95931685D01*
X168786295Y-95971413D01*
X168652306Y-95997742D01*
X168434740Y-96042269D01*
X168281032Y-96091072D01*
X168177569Y-96152064D01*
X168110736Y-96233159D01*
X168068433Y-96337164D01*
X168045310Y-96533759D01*
X167816438Y-96533759D01*
X167819876Y-96363524D01*
X167862410Y-96190500D01*
X167942841Y-96059716D01*
X167955238Y-96047743D01*
X168006487Y-95989286D01*
X167999581Y-95935976D01*
X167974791Y-95897231D01*
X167938749Y-95807391D01*
X167919082Y-95683711D01*
X167917854Y-95647091D01*
X167917854Y-95478241D01*
X167817850Y-95597088D01*
X167623448Y-95780324D01*
X167400031Y-95896707D01*
X167281719Y-95930768D01*
X167084113Y-95975758D01*
X167084113Y-96203471D01*
X167084113Y-96431184D01*
X166909609Y-96498479D01*
X166709063Y-96552005D01*
X166505379Y-96566068D01*
X166330236Y-96538887D01*
X166311083Y-96532181D01*
X166251245Y-96503144D01*
X166200002Y-96460464D01*
X166155618Y-96396977D01*
X166116361Y-96305516D01*
X166080495Y-96178918D01*
X166046287Y-96010017D01*
X166012003Y-95791648D01*
X165975909Y-95516646D01*
X165936270Y-95177848D01*
X165897140Y-94821804D01*
X165877634Y-94614367D01*
X165873869Y-94464890D01*
X165878826Y-94429769D01*
X166087837Y-94429769D01*
X166132474Y-94869728D01*
X166167957Y-95202150D01*
X166203799Y-95505951D01*
X166238745Y-95772450D01*
X166271538Y-95992964D01*
X166300923Y-96158809D01*
X166325643Y-96261304D01*
X166337766Y-96288848D01*
X166409284Y-96324713D01*
X166535311Y-96336328D01*
X166696326Y-96322557D01*
X166750658Y-96312882D01*
X166837247Y-96282392D01*
X166857238Y-96234452D01*
X166855257Y-96225631D01*
X166840303Y-96151847D01*
X166821972Y-96034490D01*
X166812629Y-95965051D01*
X166787597Y-95767284D01*
X167029525Y-95741997D01*
X167296769Y-95682713D01*
X167510176Y-95569474D01*
X167666025Y-95407354D01*
X167760593Y-95201426D01*
X167790159Y-94956764D01*
X167765087Y-94739320D01*
X167688922Y-94499242D01*
X167568571Y-94316522D01*
X167396604Y-94180221D01*
X167378076Y-94169710D01*
X167188317Y-94101010D01*
X166964198Y-94075420D01*
X166727938Y-94090152D01*
X166501758Y-94142418D01*
X166307877Y-94229430D01*
X166194756Y-94318170D01*
X166087837Y-94429769D01*
X165878826Y-94429769D01*
X165889415Y-94354734D01*
X165927840Y-94265263D01*
X165992716Y-94177840D01*
X166028123Y-94137893D01*
X166138999Y-94054130D01*
X166304327Y-93974900D01*
X166501069Y-93907952D01*
X166706186Y-93861033D01*
X166896640Y-93841892D01*
X166908533Y-93841793D01*
X167216379Y-93868998D01*
G37*
G36*
X164483883Y-93725089D02*
G01*
X164671823Y-93794804D01*
X164778357Y-93876552D01*
X164829800Y-93942922D01*
X164857626Y-94019702D01*
X164868214Y-94132178D01*
X164868884Y-94235313D01*
X164869810Y-94347296D01*
X164874309Y-94403651D01*
X164881451Y-94394164D01*
X164882656Y-94386682D01*
X164930756Y-94287142D01*
X165022555Y-94229869D01*
X165130537Y-94229023D01*
X165162966Y-94242416D01*
X165236402Y-94255850D01*
X165322373Y-94210580D01*
X165331352Y-94203643D01*
X165455649Y-94136721D01*
X165563768Y-94145382D01*
X165657691Y-94229804D01*
X165660360Y-94233581D01*
X165715945Y-94377299D01*
X165707439Y-94544008D01*
X165637188Y-94716683D01*
X165582869Y-94795871D01*
X165505258Y-94881841D01*
X165439110Y-94934029D01*
X165417608Y-94941291D01*
X165299786Y-94913805D01*
X165161542Y-94842824D01*
X165030723Y-94745562D01*
X164939541Y-94645752D01*
X164836291Y-94495337D01*
X164809566Y-94689230D01*
X164773862Y-94938047D01*
X164735592Y-95187270D01*
X164697006Y-95423923D01*
X164660354Y-95635026D01*
X164627883Y-95807602D01*
X164601845Y-95928671D01*
X164585129Y-95984133D01*
X164472115Y-96116462D01*
X164294423Y-96219172D01*
X164227337Y-96244038D01*
X164059380Y-96299546D01*
X164209837Y-96276953D01*
X164305962Y-96265387D01*
X164343766Y-96278703D01*
X164341545Y-96329734D01*
X164333518Y-96363703D01*
X164304786Y-96487955D01*
X164285488Y-96578412D01*
X164247235Y-96663744D01*
X164196432Y-96705297D01*
X164147411Y-96747945D01*
X164147639Y-96826256D01*
X164169483Y-96892609D01*
X164216727Y-96911772D01*
X164294220Y-96901763D01*
X164375153Y-96893839D01*
X164424633Y-96917230D01*
X164453017Y-96986334D01*
X164470664Y-97115550D01*
X164473975Y-97151672D01*
X164476891Y-97239584D01*
X164450867Y-97280428D01*
X164375175Y-97296222D01*
X164334527Y-97299791D01*
X164163384Y-97302444D01*
X164061516Y-97275815D01*
X164025941Y-97218791D01*
X164029867Y-97186198D01*
X164034506Y-97126872D01*
X163991822Y-97121980D01*
X163977806Y-97125800D01*
X163890547Y-97147109D01*
X163774072Y-97170566D01*
X163758846Y-97173310D01*
X163660279Y-97194730D01*
X163623527Y-97225145D01*
X163633739Y-97285258D01*
X163649177Y-97326176D01*
X163656289Y-97375023D01*
X163625355Y-97419212D01*
X163543256Y-97472332D01*
X163471350Y-97510375D01*
X163358247Y-97566890D01*
X163275506Y-97605553D01*
X163244890Y-97617016D01*
X163227870Y-97582778D01*
X163206604Y-97496589D01*
X163198321Y-97452207D01*
X163173214Y-97284639D01*
X163172044Y-97249615D01*
X163329403Y-97249615D01*
X163330740Y-97306787D01*
X163351886Y-97370759D01*
X163386817Y-97378359D01*
X163433302Y-97361746D01*
X163473090Y-97319211D01*
X163458762Y-97265831D01*
X163402253Y-97231411D01*
X163380236Y-97229230D01*
X163329403Y-97249615D01*
X163172044Y-97249615D01*
X163169636Y-97177497D01*
X163190976Y-97115801D01*
X163210336Y-97103622D01*
X164211924Y-97103622D01*
X164250042Y-97109832D01*
X164300338Y-97102703D01*
X164300939Y-97089465D01*
X164249038Y-97080208D01*
X164226613Y-97086404D01*
X164211924Y-97103622D01*
X163210336Y-97103622D01*
X163240624Y-97084568D01*
X163283808Y-97074495D01*
X163371525Y-97043341D01*
X163393351Y-97002488D01*
X163577502Y-97002488D01*
X163602607Y-97032612D01*
X163677098Y-97024514D01*
X163692969Y-97021367D01*
X163812162Y-97003332D01*
X163909113Y-96996558D01*
X163981033Y-96977921D01*
X164000623Y-96910184D01*
X164000619Y-96909306D01*
X163984534Y-96796776D01*
X163930176Y-96742074D01*
X163825439Y-96737001D01*
X163762385Y-96747935D01*
X163656658Y-96775697D01*
X163605062Y-96814017D01*
X163584873Y-96883848D01*
X163581481Y-96914726D01*
X163577502Y-97002488D01*
X163393351Y-97002488D01*
X163408079Y-96974922D01*
X163412718Y-96944748D01*
X163413483Y-96867546D01*
X163375592Y-96844189D01*
X163315772Y-96847985D01*
X163245172Y-96849765D01*
X163211531Y-96819406D01*
X163197770Y-96736713D01*
X163195450Y-96705718D01*
X163194493Y-96628161D01*
X163380754Y-96628161D01*
X163400144Y-96647550D01*
X163419533Y-96628161D01*
X163400144Y-96608772D01*
X163380754Y-96628161D01*
X163194493Y-96628161D01*
X163194246Y-96608112D01*
X163219689Y-96547310D01*
X163289177Y-96495298D01*
X163345597Y-96463984D01*
X163466431Y-96408497D01*
X163537607Y-96404167D01*
X163569713Y-96453311D01*
X163574647Y-96514114D01*
X163597830Y-96584724D01*
X163671883Y-96610303D01*
X163803565Y-96592637D01*
X163838378Y-96583814D01*
X163900613Y-96553103D01*
X163910948Y-96492436D01*
X164078770Y-96492436D01*
X164092958Y-96524355D01*
X164104622Y-96518288D01*
X164109263Y-96472267D01*
X164104622Y-96466583D01*
X164081568Y-96471906D01*
X164078770Y-96492436D01*
X163910948Y-96492436D01*
X163911074Y-96491695D01*
X163903883Y-96451915D01*
X163898060Y-96368195D01*
X163936517Y-96329989D01*
X163950382Y-96325728D01*
X163954108Y-96315556D01*
X163893675Y-96307235D01*
X163798439Y-96303041D01*
X163526816Y-96271872D01*
X163268522Y-96194811D01*
X163045666Y-96080066D01*
X162916235Y-95975391D01*
X162782373Y-95801862D01*
X162678075Y-95592923D01*
X162616541Y-95378989D01*
X162605897Y-95262553D01*
X162848750Y-95262553D01*
X162867848Y-95454729D01*
X162872470Y-95472734D01*
X162969774Y-95684900D01*
X163132409Y-95857775D01*
X163357816Y-95989572D01*
X163643440Y-96078503D01*
X163771768Y-96101352D01*
X163819363Y-96096102D01*
X163918218Y-96079097D01*
X164006592Y-96062032D01*
X164150237Y-96029197D01*
X164254181Y-95988940D01*
X164327563Y-95928289D01*
X164379524Y-95834275D01*
X164419204Y-95693927D01*
X164455743Y-95494274D01*
X164470047Y-95404371D01*
X164526793Y-95037656D01*
X164571204Y-94740768D01*
X164604100Y-94507098D01*
X164609220Y-94466253D01*
X165049469Y-94466253D01*
X165089901Y-94581507D01*
X165205495Y-94686998D01*
X165261518Y-94720185D01*
X165343373Y-94758500D01*
X165395343Y-94751058D01*
X165454160Y-94690560D01*
X165462755Y-94680196D01*
X165530037Y-94579097D01*
X165571654Y-94481901D01*
X165568814Y-94376813D01*
X165540460Y-94331094D01*
X165496005Y-94301827D01*
X165451467Y-94324044D01*
X165404616Y-94378434D01*
X165339913Y-94445746D01*
X165284258Y-94455416D01*
X165246817Y-94439678D01*
X165140854Y-94401737D01*
X165070703Y-94414385D01*
X165049469Y-94466253D01*
X164609220Y-94466253D01*
X164626297Y-94330037D01*
X164638613Y-94202980D01*
X164641865Y-94119316D01*
X164636872Y-94072438D01*
X164635399Y-94068003D01*
X164568717Y-93996234D01*
X164441821Y-93949401D01*
X164273524Y-93933046D01*
X164124320Y-93933046D01*
X164090309Y-94175413D01*
X164066076Y-94313450D01*
X164039326Y-94385704D01*
X164005379Y-94403918D01*
X163999671Y-94402794D01*
X163935053Y-94395293D01*
X163816878Y-94389350D01*
X163669145Y-94386118D01*
X163648834Y-94385956D01*
X163440171Y-94397291D01*
X163281720Y-94442008D01*
X163149286Y-94531607D01*
X163018674Y-94677590D01*
X163009115Y-94690033D01*
X162924864Y-94848814D01*
X162869582Y-95050118D01*
X162848750Y-95262553D01*
X162605897Y-95262553D01*
X162605642Y-95259760D01*
X162628052Y-95054185D01*
X162686683Y-94833309D01*
X162770419Y-94633953D01*
X162819184Y-94552466D01*
X162971836Y-94376013D01*
X163151553Y-94257654D01*
X163373828Y-94189282D01*
X163555032Y-94167349D01*
X163865035Y-94146329D01*
X163896680Y-93946653D01*
X163923489Y-93824935D01*
X163968030Y-93751602D01*
X164047752Y-93714641D01*
X164180103Y-93702037D01*
X164253273Y-93701120D01*
X164483883Y-93725089D01*
G37*
G36*
X168093841Y-92985162D02*
G01*
X168316725Y-93092685D01*
X168516200Y-93186307D01*
X168681811Y-93261335D01*
X168803102Y-93313076D01*
X168869617Y-93336834D01*
X168878558Y-93337443D01*
X168931744Y-93317889D01*
X169043897Y-93285106D01*
X169201468Y-93242432D01*
X169390913Y-93193204D01*
X169598686Y-93140763D01*
X169811239Y-93088447D01*
X170015026Y-93039594D01*
X170196502Y-92997545D01*
X170342120Y-92965636D01*
X170438333Y-92947207D01*
X170471430Y-92944842D01*
X170481058Y-92989113D01*
X170493901Y-93098323D01*
X170508808Y-93259976D01*
X170524627Y-93461575D01*
X170540207Y-93690626D01*
X170540351Y-93692904D01*
X170557774Y-93955606D01*
X170574449Y-94159238D01*
X170593460Y-94322190D01*
X170617890Y-94462853D01*
X170650824Y-94599620D01*
X170695346Y-94750881D01*
X170742401Y-94897822D01*
X170898715Y-95377864D01*
X170702369Y-95925455D01*
X170633338Y-96121639D01*
X170574880Y-96294765D01*
X170531671Y-96430426D01*
X170508391Y-96514212D01*
X170505663Y-96531214D01*
X170509306Y-96600627D01*
X170519643Y-96726572D01*
X170535113Y-96894082D01*
X170554158Y-97088185D01*
X170575216Y-97293914D01*
X170596730Y-97496297D01*
X170617138Y-97680366D01*
X170634882Y-97831150D01*
X170648401Y-97933681D01*
X170655840Y-97972647D01*
X170645499Y-98013939D01*
X170633467Y-98023506D01*
X170613494Y-98028370D01*
X170572186Y-98027868D01*
X170502591Y-98020912D01*
X170397755Y-98006411D01*
X170250724Y-97983277D01*
X170054546Y-97950418D01*
X169802266Y-97906748D01*
X169486933Y-97851174D01*
X169142154Y-97789846D01*
X168834700Y-97735007D01*
X168473580Y-97889294D01*
X168320661Y-97953954D01*
X168196259Y-98005286D01*
X168116295Y-98036794D01*
X168095420Y-98043581D01*
X168054252Y-98058497D01*
X167962256Y-98097688D01*
X167838972Y-98152818D01*
X167833307Y-98155401D01*
X167602267Y-98259775D01*
X167429394Y-98334899D01*
X167302980Y-98385181D01*
X167211320Y-98415031D01*
X167142708Y-98428858D01*
X167100575Y-98431367D01*
X166997025Y-98417483D01*
X166823634Y-98376274D01*
X166582894Y-98308402D01*
X166277295Y-98214531D01*
X166230983Y-98199832D01*
X166125051Y-98167795D01*
X165980981Y-98126437D01*
X165817389Y-98080826D01*
X165652892Y-98036029D01*
X165506107Y-97997111D01*
X165395651Y-97969140D01*
X165340139Y-97957182D01*
X165339075Y-97957091D01*
X165291702Y-97971924D01*
X165182906Y-98015541D01*
X165021595Y-98084034D01*
X164816676Y-98173496D01*
X164577058Y-98280019D01*
X164311647Y-98399694D01*
X164029351Y-98528614D01*
X163890834Y-98592463D01*
X163717695Y-98669736D01*
X163589785Y-98712028D01*
X163485218Y-98716691D01*
X163382106Y-98681078D01*
X163258564Y-98602543D01*
X163120066Y-98499246D01*
X162941800Y-98365236D01*
X162734367Y-98211568D01*
X162531874Y-98063439D01*
X162450758Y-98004802D01*
X162100307Y-97752741D01*
X162121554Y-97442512D01*
X162135979Y-97270882D01*
X162158010Y-97054441D01*
X162184246Y-96825149D01*
X162203132Y-96675340D01*
X162263464Y-96218396D01*
X162042426Y-95383803D01*
X161978874Y-95136714D01*
X161924353Y-94910899D01*
X161881495Y-94718434D01*
X161852928Y-94571397D01*
X161846750Y-94523892D01*
X161880488Y-94523892D01*
X161971438Y-94858622D01*
X162019065Y-95033005D01*
X162079392Y-95252577D01*
X162144292Y-95487819D01*
X162199367Y-95686632D01*
X162336346Y-96179912D01*
X162273056Y-96675487D01*
X162234188Y-96981822D01*
X162204721Y-97219964D01*
X162183812Y-97398598D01*
X162170624Y-97526410D01*
X162164316Y-97612085D01*
X162164048Y-97664308D01*
X162168981Y-97691765D01*
X162174010Y-97699885D01*
X162217813Y-97736309D01*
X162309657Y-97807213D01*
X162437458Y-97903694D01*
X162589132Y-98016850D01*
X162752595Y-98137778D01*
X162915764Y-98257578D01*
X163066555Y-98367345D01*
X163192884Y-98458180D01*
X163282667Y-98521178D01*
X163323821Y-98547439D01*
X163324841Y-98547703D01*
X163367355Y-98571853D01*
X163405683Y-98605871D01*
X163453478Y-98645031D01*
X163505985Y-98658309D01*
X163580507Y-98643023D01*
X163694345Y-98596489D01*
X163807319Y-98543586D01*
X163956177Y-98474597D01*
X164097801Y-98412464D01*
X164195105Y-98373126D01*
X164293590Y-98333238D01*
X164441110Y-98269326D01*
X164616757Y-98190873D01*
X164799622Y-98107362D01*
X164968793Y-98028275D01*
X165103363Y-97963096D01*
X165138630Y-97945215D01*
X165239731Y-97904404D01*
X165320584Y-97888466D01*
X165377905Y-97898779D01*
X165497779Y-97927636D01*
X165668292Y-97971912D01*
X165877528Y-98028484D01*
X166113571Y-98094229D01*
X166211589Y-98122043D01*
X166452534Y-98189093D01*
X166669311Y-98246225D01*
X166850564Y-98290707D01*
X166984935Y-98319805D01*
X167061068Y-98330787D01*
X167072955Y-98329334D01*
X167096837Y-98326727D01*
X167085248Y-98351973D01*
X167088673Y-98379001D01*
X167140703Y-98374716D01*
X167221560Y-98344399D01*
X167311469Y-98293332D01*
X167315719Y-98290418D01*
X167395132Y-98248538D01*
X167440689Y-98237474D01*
X167499653Y-98222471D01*
X167604451Y-98183436D01*
X167713206Y-98137234D01*
X167915781Y-98046853D01*
X168071539Y-97978221D01*
X168204323Y-97921113D01*
X168337972Y-97865299D01*
X168496328Y-97800552D01*
X168528184Y-97787611D01*
X168676485Y-97731380D01*
X168800378Y-97691713D01*
X168880552Y-97674493D01*
X168896581Y-97675383D01*
X168966645Y-97692105D01*
X169071399Y-97709286D01*
X169081212Y-97710596D01*
X169171905Y-97724044D01*
X169318757Y-97747590D01*
X169501534Y-97777925D01*
X169700006Y-97811743D01*
X169701670Y-97812030D01*
X169895383Y-97845066D01*
X170068878Y-97873892D01*
X170203713Y-97895495D01*
X170281447Y-97906860D01*
X170283350Y-97907088D01*
X170399347Y-97926474D01*
X170484229Y-97945755D01*
X170557461Y-97957423D01*
X170577507Y-97930587D01*
X170573770Y-97901685D01*
X170565330Y-97840647D01*
X170551061Y-97716780D01*
X170532520Y-97544460D01*
X170511264Y-97338064D01*
X170494625Y-97171062D01*
X170429872Y-96511825D01*
X170594388Y-96027092D01*
X170658687Y-95840246D01*
X170716904Y-95675838D01*
X170763179Y-95550092D01*
X170791652Y-95479233D01*
X170794046Y-95474301D01*
X170800609Y-95413499D01*
X170782054Y-95299268D01*
X170737019Y-95125412D01*
X170666332Y-94892622D01*
X170606224Y-94699376D01*
X170562069Y-94542698D01*
X170530538Y-94402496D01*
X170508302Y-94258679D01*
X170492030Y-94091153D01*
X170478394Y-93879829D01*
X170468966Y-93701603D01*
X170457154Y-93481239D01*
X170445760Y-93289529D01*
X170435629Y-93139153D01*
X170427607Y-93042791D01*
X170423077Y-93012825D01*
X170381136Y-93017446D01*
X170270765Y-93041592D01*
X170098174Y-93083712D01*
X169869574Y-93142259D01*
X169591174Y-93215684D01*
X169354379Y-93279328D01*
X169139363Y-93336252D01*
X168987546Y-93373183D01*
X168887891Y-93392593D01*
X168829364Y-93396952D01*
X168829151Y-93396940D01*
X168684410Y-93366963D01*
X168610086Y-93327436D01*
X168556808Y-93296399D01*
X168448276Y-93239852D01*
X168299391Y-93165354D01*
X168125053Y-93080466D01*
X168092357Y-93064780D01*
X167905541Y-92974777D01*
X167732111Y-92890170D01*
X167590369Y-92819957D01*
X167498615Y-92773133D01*
X167493055Y-92770170D01*
X167359097Y-92698294D01*
X166950154Y-92913713D01*
X166759462Y-93014477D01*
X166565874Y-93117300D01*
X166395535Y-93208269D01*
X166300078Y-93259638D01*
X166170871Y-93324985D01*
X166062147Y-93371800D01*
X165997058Y-93390138D01*
X165996349Y-93390146D01*
X165940483Y-93371247D01*
X165832621Y-93319798D01*
X165686955Y-93243671D01*
X165517681Y-93150739D01*
X165338992Y-93048874D01*
X165165081Y-92945948D01*
X165010143Y-92849834D01*
X164942630Y-92805726D01*
X164844744Y-92742548D01*
X164785853Y-92719141D01*
X164740535Y-92732083D01*
X164690569Y-92771788D01*
X164633591Y-92817776D01*
X164529395Y-92899427D01*
X164392562Y-93005538D01*
X164237673Y-93124909D01*
X164079307Y-93246339D01*
X163932046Y-93358625D01*
X163810470Y-93450568D01*
X163729159Y-93510965D01*
X163717286Y-93519501D01*
X163664658Y-93515975D01*
X163550061Y-93479818D01*
X163380596Y-93413675D01*
X163163362Y-93320193D01*
X163070525Y-93278399D01*
X162469457Y-93004888D01*
X162424229Y-93110265D01*
X162389442Y-93195673D01*
X162337328Y-93328657D01*
X162277688Y-93484132D01*
X162261883Y-93525871D01*
X162190246Y-93714887D01*
X162106612Y-93934462D01*
X162026908Y-94142798D01*
X162012627Y-94179996D01*
X161880488Y-94523892D01*
X161846750Y-94523892D01*
X161841285Y-94481865D01*
X161842123Y-94464106D01*
X161872986Y-94358721D01*
X161922777Y-94209681D01*
X161981474Y-94045283D01*
X162039056Y-93893824D01*
X162074420Y-93808167D01*
X162112638Y-93714842D01*
X162167701Y-93573004D01*
X162230184Y-93407113D01*
X162257901Y-93331978D01*
X162326294Y-93148416D01*
X162376629Y-93027570D01*
X162416619Y-92959006D01*
X162453975Y-92932289D01*
X162496412Y-92936985D01*
X162536536Y-92955005D01*
X162618036Y-92994181D01*
X162754119Y-93057778D01*
X162928652Y-93138371D01*
X163125503Y-93228529D01*
X163328540Y-93320825D01*
X163453471Y-93377222D01*
X163661913Y-93471018D01*
X163957593Y-93247860D01*
X164119908Y-93123266D01*
X164288961Y-92990125D01*
X164434407Y-92872415D01*
X164466556Y-92845666D01*
X164578276Y-92753400D01*
X164670010Y-92680380D01*
X164722712Y-92641747D01*
X164723992Y-92640983D01*
X164773350Y-92649373D01*
X164872759Y-92691956D01*
X165006740Y-92761441D01*
X165128391Y-92831483D01*
X165311689Y-92940601D01*
X165503533Y-93053397D01*
X165674154Y-93152422D01*
X165744014Y-93192344D01*
X165999391Y-93337057D01*
X166347859Y-93149845D01*
X166521718Y-93057013D01*
X166694489Y-92965726D01*
X166839075Y-92890266D01*
X166890220Y-92864006D01*
X167026950Y-92792473D01*
X167157497Y-92721021D01*
X167210694Y-92690457D01*
X167337275Y-92615534D01*
X168093841Y-92985162D01*
G37*
D13*
%TO.C,SW3*%
X102616000Y-122301000D02*
X116586000Y-122301000D01*
X102616000Y-136271000D02*
X102616000Y-122301000D01*
X116586000Y-122301000D02*
X116586000Y-136271000D01*
X116586000Y-136271000D02*
X102616000Y-136271000D01*
D15*
%TO.C,U1*%
X135890000Y-78359000D02*
X135890000Y-61214000D01*
X137795000Y-80264000D02*
X151765000Y-80264000D01*
X140285000Y-59309000D02*
X140288728Y-58398728D01*
X140788728Y-57899000D02*
X148784000Y-57899000D01*
X149284000Y-58399000D02*
X149284000Y-59309000D01*
D16*
X151765000Y-59309000D02*
X137795000Y-59309000D01*
D15*
X151765000Y-59309000D02*
X137795000Y-59309000D01*
X153670000Y-78359000D02*
X153670000Y-61214000D01*
X135890000Y-61214000D02*
G75*
G02*
X137795000Y-59309000I1905001J-1D01*
G01*
X137795000Y-80264000D02*
G75*
G02*
X135890000Y-78359000I1J1905001D01*
G01*
X140288728Y-58398728D02*
G75*
G02*
X140788728Y-57899001I500018J-291D01*
G01*
X148784000Y-57899000D02*
G75*
G02*
X149284000Y-58399000I0J-500000D01*
G01*
X151765000Y-59309000D02*
G75*
G02*
X153670000Y-61214000I0J-1905000D01*
G01*
X153670000Y-78359000D02*
G75*
G02*
X151765000Y-80264000I-1905000J0D01*
G01*
D17*
X136082000Y-59550000D02*
G75*
G02*
X135578000Y-59550000I-252000J0D01*
G01*
X135578000Y-59550000D02*
G75*
G02*
X136082000Y-59550000I252000J0D01*
G01*
X137225000Y-60430000D02*
G75*
G02*
X136721000Y-60430000I-252000J0D01*
G01*
X136721000Y-60430000D02*
G75*
G02*
X137225000Y-60430000I252000J0D01*
G01*
D13*
%TO.C,J1*%
X132401000Y-138256000D02*
X132401000Y-132506000D01*
X132451000Y-127956000D02*
X138401000Y-127956000D01*
X132451000Y-131156000D02*
X132451000Y-127956000D01*
X137291000Y-131826000D02*
X138301000Y-131826000D01*
X137291000Y-136906000D02*
X137291000Y-131826000D01*
X138301000Y-136906000D02*
X137291000Y-136906000D01*
X138401000Y-127956000D02*
X138401000Y-138256000D01*
X138401000Y-138256000D02*
X132401000Y-138256000D01*
%TO.C,R4*%
X146970000Y-108585000D02*
X147590000Y-108585000D01*
X146970000Y-108585000D02*
G75*
G02*
X145130000Y-108585000I-920000J0D01*
G01*
X145130000Y-108585000D02*
G75*
G02*
X146970000Y-108585000I920000J0D01*
G01*
%TO.C,C4*%
X140225000Y-110840000D02*
X141755000Y-110840000D01*
X141755000Y-112680000D02*
X140225000Y-112680000D01*
%TO.C,SW6*%
X112268000Y-84074000D02*
X126238000Y-84074000D01*
X112268000Y-98044000D02*
X112268000Y-84074000D01*
X126238000Y-84074000D02*
X126238000Y-98044000D01*
X126238000Y-98044000D02*
X112268000Y-98044000D01*
%TO.C,SW7*%
X74041000Y-103251000D02*
X88011000Y-103251000D01*
X74041000Y-117221000D02*
X74041000Y-103251000D01*
X88011000Y-103251000D02*
X88011000Y-117221000D01*
X88011000Y-117221000D02*
X74041000Y-117221000D01*
%TO.C,R2*%
X146970000Y-102235000D02*
X147590000Y-102235000D01*
X146970000Y-102235000D02*
G75*
G02*
X145130000Y-102235000I-920000J0D01*
G01*
X145130000Y-102235000D02*
G75*
G02*
X146970000Y-102235000I920000J0D01*
G01*
%TO.C,SW2*%
X93091000Y-65024000D02*
X107061000Y-65024000D01*
X93091000Y-78994000D02*
X93091000Y-65024000D01*
X107061000Y-65024000D02*
X107061000Y-78994000D01*
X107061000Y-78994000D02*
X93091000Y-78994000D01*
%TO.C,SW10*%
X74618000Y-69370000D02*
X74618000Y-65270000D01*
X74618000Y-77470000D02*
X74618000Y-73370000D01*
X77018000Y-77470000D02*
X74618000Y-77470000D01*
X80518000Y-70870000D02*
X80518000Y-71870000D01*
X81018000Y-71370000D02*
X80018000Y-71370000D01*
X81818000Y-77470000D02*
X79218000Y-77470000D01*
X84318000Y-63870000D02*
X84618000Y-63570000D01*
X84618000Y-63570000D02*
X84618000Y-64170000D01*
X84618000Y-64170000D02*
X84318000Y-63870000D01*
X86418000Y-65270000D02*
X74618000Y-65270000D01*
X86418000Y-69370000D02*
X86418000Y-65270000D01*
X86418000Y-73370000D02*
X86418000Y-77470000D01*
X86418000Y-77470000D02*
X84018000Y-77470000D01*
X83518000Y-71370000D02*
G75*
G02*
X77518000Y-71370000I-3000000J0D01*
G01*
X77518000Y-71370000D02*
G75*
G02*
X83518000Y-71370000I3000000J0D01*
G01*
%TO.C,C2*%
X140225000Y-104540000D02*
X141755000Y-104540000D01*
X141755000Y-106380000D02*
X140225000Y-106380000D01*
%TO.C,R3*%
X146970000Y-105410000D02*
X147590000Y-105410000D01*
X146970000Y-105410000D02*
G75*
G02*
X145130000Y-105410000I-920000J0D01*
G01*
X145130000Y-105410000D02*
G75*
G02*
X146970000Y-105410000I920000J0D01*
G01*
%TO.C,SW5*%
X93091000Y-84074000D02*
X107061000Y-84074000D01*
X93091000Y-98044000D02*
X93091000Y-84074000D01*
X107061000Y-84074000D02*
X107061000Y-98044000D01*
X107061000Y-98044000D02*
X93091000Y-98044000D01*
%TO.C,C3*%
X140225000Y-107690000D02*
X141755000Y-107690000D01*
X141755000Y-109530000D02*
X140225000Y-109530000D01*
%TO.C,R5*%
X146970000Y-111760000D02*
X147590000Y-111760000D01*
X146970000Y-111760000D02*
G75*
G02*
X145130000Y-111760000I-920000J0D01*
G01*
X145130000Y-111760000D02*
G75*
G02*
X146970000Y-111760000I920000J0D01*
G01*
%TO.C,SW11*%
X113988000Y-69370000D02*
X113988000Y-65270000D01*
X113988000Y-77470000D02*
X113988000Y-73370000D01*
X116388000Y-77470000D02*
X113988000Y-77470000D01*
X119888000Y-70870000D02*
X119888000Y-71870000D01*
X120388000Y-71370000D02*
X119388000Y-71370000D01*
X121188000Y-77470000D02*
X118588000Y-77470000D01*
X123688000Y-63870000D02*
X123988000Y-63570000D01*
X123988000Y-63570000D02*
X123988000Y-64170000D01*
X123988000Y-64170000D02*
X123688000Y-63870000D01*
X125788000Y-65270000D02*
X113988000Y-65270000D01*
X125788000Y-69370000D02*
X125788000Y-65270000D01*
X125788000Y-73370000D02*
X125788000Y-77470000D01*
X125788000Y-77470000D02*
X123388000Y-77470000D01*
X122888000Y-71370000D02*
G75*
G02*
X116888000Y-71370000I-3000000J0D01*
G01*
X116888000Y-71370000D02*
G75*
G02*
X122888000Y-71370000I3000000J0D01*
G01*
D14*
%TO.C,G\u002A\u002A\u002A*%
G36*
X149438184Y-117980292D02*
G01*
X149507748Y-118037262D01*
X149518098Y-118122042D01*
X149474079Y-118221458D01*
X149380539Y-118322340D01*
X149288722Y-118386466D01*
X149176358Y-118452280D01*
X149097072Y-118264615D01*
X149017786Y-118076950D01*
X149197969Y-118017103D01*
X149314887Y-117986457D01*
X149408820Y-117976068D01*
X149438184Y-117980292D01*
G37*
G36*
X149674268Y-118658128D02*
G01*
X149748535Y-118703607D01*
X149804791Y-118803179D01*
X149792090Y-118910966D01*
X149715528Y-119017875D01*
X149580201Y-119114809D01*
X149495512Y-119155272D01*
X149354882Y-119214031D01*
X149313154Y-119052521D01*
X149283317Y-118938487D01*
X149259364Y-118849395D01*
X149254393Y-118831647D01*
X149275311Y-118771398D01*
X149370567Y-118708763D01*
X149372018Y-118708069D01*
X149540421Y-118651672D01*
X149674268Y-118658128D01*
G37*
G36*
X139417655Y-117691337D02*
G01*
X139426384Y-117794112D01*
X139422179Y-117955250D01*
X139404926Y-118166440D01*
X139403320Y-118181990D01*
X139385172Y-118317183D01*
X139355317Y-118389873D01*
X139297043Y-118413443D01*
X139193643Y-118401274D01*
X139142569Y-118390808D01*
X139031132Y-118368056D01*
X138962387Y-118347464D01*
X138935875Y-118316196D01*
X138951137Y-118261414D01*
X139007713Y-118170282D01*
X139105145Y-118029962D01*
X139128464Y-117996354D01*
X139226815Y-117858140D01*
X139311226Y-117746816D01*
X139371609Y-117675243D01*
X139396106Y-117655233D01*
X139417655Y-117691337D01*
G37*
G36*
X137530129Y-115387067D02*
G01*
X138084375Y-115438665D01*
X138644967Y-115530233D01*
X138914425Y-115588738D01*
X139431459Y-115721274D01*
X139944837Y-115875875D01*
X140469294Y-116057786D01*
X141019565Y-116272247D01*
X141610388Y-116524503D01*
X141862209Y-116637543D01*
X142211108Y-116793957D01*
X142506891Y-116921167D01*
X142764114Y-117024666D01*
X142997335Y-117109946D01*
X143221107Y-117182501D01*
X143449988Y-117247824D01*
X143547367Y-117273451D01*
X144357253Y-117445008D01*
X145175487Y-117543795D01*
X146003938Y-117569701D01*
X146844473Y-117522614D01*
X147698961Y-117402423D01*
X148569268Y-117209017D01*
X149457263Y-116942283D01*
X149533871Y-116916139D01*
X149933185Y-116769437D01*
X150353565Y-116598704D01*
X150770336Y-116414765D01*
X151158822Y-116228447D01*
X151448785Y-116076058D01*
X151630798Y-115976754D01*
X151757006Y-115912510D01*
X151837129Y-115879787D01*
X151880887Y-115875048D01*
X151898001Y-115894754D01*
X151899605Y-115911942D01*
X151882765Y-115957016D01*
X151835563Y-116059277D01*
X151762975Y-116208575D01*
X151669978Y-116394759D01*
X151561548Y-116607679D01*
X151500353Y-116726298D01*
X151386103Y-116947721D01*
X151284607Y-117146209D01*
X151200805Y-117311953D01*
X151139636Y-117435147D01*
X151106040Y-117505983D01*
X151101102Y-117518990D01*
X151137391Y-117525176D01*
X151239323Y-117530698D01*
X151396495Y-117535302D01*
X151598501Y-117538733D01*
X151834939Y-117540740D01*
X152011432Y-117541161D01*
X152276249Y-117542573D01*
X152510148Y-117546562D01*
X152703257Y-117552758D01*
X152845702Y-117560787D01*
X152927607Y-117570280D01*
X152943422Y-117576206D01*
X152924722Y-117615269D01*
X152852401Y-117696150D01*
X152732460Y-117813457D01*
X152570899Y-117961797D01*
X152373719Y-118135779D01*
X152146918Y-118330011D01*
X151896498Y-118539102D01*
X151630651Y-118755892D01*
X150879256Y-119337064D01*
X150138158Y-119861564D01*
X149410992Y-120327308D01*
X148701398Y-120732212D01*
X148013012Y-121074192D01*
X147349474Y-121351162D01*
X146755051Y-121549393D01*
X146407221Y-121636808D01*
X146044094Y-121700211D01*
X145654418Y-121740345D01*
X145226938Y-121757950D01*
X144750400Y-121753768D01*
X144213551Y-121728540D01*
X144123706Y-121722760D01*
X143636760Y-121684807D01*
X143167501Y-121635850D01*
X142705375Y-121573746D01*
X142239832Y-121496353D01*
X141760320Y-121401529D01*
X141256285Y-121287133D01*
X140717177Y-121151023D01*
X140132442Y-120991057D01*
X139491530Y-120805094D01*
X139256641Y-120734869D01*
X138804572Y-120601544D01*
X138342424Y-120470291D01*
X137881199Y-120343931D01*
X137704954Y-120297390D01*
X141524561Y-120297390D01*
X141534443Y-120376002D01*
X141575608Y-120430571D01*
X141664242Y-120459182D01*
X141775439Y-120429058D01*
X141898134Y-120349674D01*
X142021262Y-120230503D01*
X142133757Y-120081021D01*
X142224555Y-119910701D01*
X142246071Y-119856514D01*
X142296542Y-119730051D01*
X142338005Y-119662485D01*
X142381368Y-119639321D01*
X142408905Y-119640097D01*
X142443285Y-119652684D01*
X142472096Y-119687330D01*
X142499556Y-119755890D01*
X142529886Y-119870218D01*
X142567303Y-120042170D01*
X142587881Y-120143011D01*
X142633357Y-120357203D01*
X142671758Y-120508772D01*
X142707232Y-120610311D01*
X142743929Y-120674413D01*
X142772707Y-120703865D01*
X142895528Y-120765384D01*
X143014518Y-120755190D01*
X143100673Y-120693063D01*
X143155285Y-120580241D01*
X143170953Y-120413430D01*
X143148221Y-120203634D01*
X143087634Y-119961854D01*
X143060378Y-119879634D01*
X143004992Y-119729807D01*
X142988485Y-119689514D01*
X144503946Y-119689514D01*
X144505456Y-119901763D01*
X144511499Y-120055832D01*
X144524349Y-120169555D01*
X144546276Y-120260766D01*
X144579552Y-120347299D01*
X144590952Y-120372556D01*
X144652848Y-120494421D01*
X144714685Y-120596907D01*
X144743048Y-120634662D01*
X144910449Y-120769963D01*
X145108207Y-120838736D01*
X145326521Y-120839028D01*
X145511921Y-120787636D01*
X145649025Y-120711380D01*
X145721303Y-120612004D01*
X145739724Y-120495173D01*
X145713758Y-120386909D01*
X145639642Y-120335881D01*
X145523048Y-120345601D01*
X145506701Y-120350937D01*
X145335384Y-120390271D01*
X145200310Y-120371209D01*
X145086439Y-120291513D01*
X145082896Y-120287852D01*
X144964879Y-120111829D01*
X144891541Y-119880139D01*
X144865216Y-119600281D01*
X144865174Y-119587785D01*
X144882712Y-119356119D01*
X144934191Y-119187219D01*
X145017910Y-119083131D01*
X145132165Y-119045901D01*
X145275255Y-119077575D01*
X145285892Y-119082238D01*
X145422829Y-119123496D01*
X145512385Y-119107184D01*
X145550141Y-119038478D01*
X145531679Y-118922557D01*
X145494512Y-118837733D01*
X145422093Y-118745569D01*
X145936367Y-118745569D01*
X145939441Y-118898966D01*
X145954504Y-119105772D01*
X145981936Y-119372286D01*
X146022118Y-119704810D01*
X146042226Y-119860622D01*
X146076962Y-120111803D01*
X146107169Y-120296246D01*
X146134798Y-120422981D01*
X146161801Y-120501042D01*
X146188711Y-120538387D01*
X146267340Y-120566919D01*
X146399405Y-120568231D01*
X146590012Y-120541818D01*
X146844265Y-120487174D01*
X146937479Y-120464253D01*
X147148502Y-120404863D01*
X147291726Y-120348306D01*
X147375040Y-120290021D01*
X147406335Y-120225445D01*
X147405602Y-120193488D01*
X147360032Y-120117793D01*
X147256771Y-120081340D01*
X147104239Y-120085787D01*
X146985297Y-120110692D01*
X146835521Y-120142378D01*
X146685160Y-120161673D01*
X146627330Y-120164362D01*
X146469277Y-120164813D01*
X146446380Y-119794080D01*
X146426292Y-119556021D01*
X146396437Y-119314415D01*
X146359541Y-119083574D01*
X146318328Y-118877812D01*
X146275521Y-118711444D01*
X146233845Y-118598784D01*
X146212482Y-118564999D01*
X146120038Y-118501268D01*
X146031186Y-118505976D01*
X145964667Y-118573789D01*
X145944902Y-118639277D01*
X145936367Y-118745569D01*
X145422093Y-118745569D01*
X145385000Y-118698363D01*
X145237060Y-118623912D01*
X145076001Y-118615036D01*
X144904399Y-118656139D01*
X144770375Y-118743433D01*
X144658472Y-118889022D01*
X144609479Y-118980304D01*
X144565790Y-119074188D01*
X144536150Y-119157748D01*
X144517855Y-119249167D01*
X144508198Y-119366626D01*
X144504473Y-119528306D01*
X144503946Y-119689514D01*
X142988485Y-119689514D01*
X142952257Y-119601083D01*
X142911492Y-119515846D01*
X142903435Y-119502738D01*
X142883590Y-119461251D01*
X142890599Y-119415682D01*
X142932298Y-119351449D01*
X143016522Y-119253967D01*
X143066115Y-119199977D01*
X143226784Y-119017626D01*
X143334818Y-118872191D01*
X143396890Y-118752986D01*
X143419675Y-118649326D01*
X143420121Y-118633156D01*
X143397857Y-118535865D01*
X143332755Y-118498237D01*
X143227863Y-118519288D01*
X143086229Y-118598036D01*
X142910904Y-118733501D01*
X142800100Y-118832871D01*
X142551818Y-119065127D01*
X142572979Y-118635448D01*
X142581518Y-118449094D01*
X142581628Y-118442482D01*
X147153828Y-118442482D01*
X147156573Y-118571457D01*
X147188896Y-118753590D01*
X147250377Y-118996169D01*
X147280973Y-119104583D01*
X147360719Y-119368561D01*
X147431777Y-119569315D01*
X147500378Y-119718193D01*
X147572755Y-119826542D01*
X147655138Y-119905707D01*
X147753760Y-119967037D01*
X147754994Y-119967673D01*
X147917255Y-120024540D01*
X148092694Y-120043837D01*
X148256149Y-120025956D01*
X148382462Y-119971289D01*
X148399241Y-119957636D01*
X148492029Y-119827534D01*
X148554193Y-119639902D01*
X148582571Y-119408124D01*
X148578698Y-119198273D01*
X148546609Y-118911877D01*
X148497952Y-118659023D01*
X148435910Y-118446014D01*
X148363666Y-118279158D01*
X148284405Y-118164761D01*
X148201311Y-118109128D01*
X148117568Y-118118565D01*
X148058931Y-118168863D01*
X148037314Y-118209040D01*
X148028127Y-118270816D01*
X148032268Y-118365586D01*
X148050632Y-118504747D01*
X148084116Y-118699692D01*
X148112752Y-118852987D01*
X148158703Y-119150272D01*
X148172236Y-119386333D01*
X148153587Y-119559217D01*
X148102990Y-119666971D01*
X148020677Y-119707643D01*
X148010318Y-119707944D01*
X147933059Y-119696739D01*
X147868392Y-119658311D01*
X147811612Y-119583672D01*
X147758014Y-119463836D01*
X147702891Y-119289814D01*
X147641539Y-119052620D01*
X147619907Y-118962264D01*
X147559978Y-118719096D01*
X147509329Y-118541524D01*
X147463857Y-118420286D01*
X147419456Y-118346116D01*
X147372025Y-118309750D01*
X147327263Y-118301640D01*
X147238753Y-118314860D01*
X147181082Y-118359379D01*
X147153828Y-118442482D01*
X142581628Y-118442482D01*
X142583642Y-118321856D01*
X142576838Y-118236903D01*
X142558596Y-118177404D01*
X142526404Y-118126526D01*
X142490499Y-118082596D01*
X142442114Y-118039072D01*
X148705593Y-118039072D01*
X148716062Y-118096056D01*
X148745261Y-118214013D01*
X148789883Y-118381133D01*
X148846615Y-118585607D01*
X148912150Y-118815625D01*
X148983176Y-119059375D01*
X149056384Y-119305049D01*
X149106859Y-119470876D01*
X149155318Y-119510135D01*
X149255307Y-119518300D01*
X149389917Y-119497437D01*
X149542240Y-119449615D01*
X149641925Y-119405461D01*
X149779797Y-119327403D01*
X149905462Y-119240864D01*
X149975547Y-119180207D01*
X150070395Y-119030858D01*
X150103577Y-118859229D01*
X150077714Y-118683671D01*
X149995425Y-118522534D01*
X149863757Y-118397092D01*
X149794621Y-118346866D01*
X149767537Y-118300988D01*
X149774932Y-118231092D01*
X149797587Y-118149178D01*
X149824278Y-117961911D01*
X149792368Y-117806122D01*
X149707541Y-117691407D01*
X149575487Y-117627364D01*
X149482343Y-117617209D01*
X149332141Y-117635861D01*
X149168226Y-117685789D01*
X149007249Y-117757949D01*
X148865863Y-117843296D01*
X148760721Y-117932786D01*
X148708475Y-118017375D01*
X148705593Y-118039072D01*
X142442114Y-118039072D01*
X142391048Y-117993136D01*
X142297255Y-117959432D01*
X142296053Y-117959424D01*
X142216551Y-117977596D01*
X142155488Y-118037661D01*
X142109510Y-118147939D01*
X142075263Y-118316755D01*
X142049392Y-118552429D01*
X142047438Y-118576220D01*
X142018369Y-118868089D01*
X141978963Y-119109195D01*
X141922392Y-119324740D01*
X141841827Y-119539930D01*
X141730441Y-119779967D01*
X141710431Y-119820115D01*
X141610311Y-120029608D01*
X141549103Y-120185312D01*
X141524561Y-120297390D01*
X137704954Y-120297390D01*
X137431902Y-120225285D01*
X137005539Y-120117172D01*
X136613114Y-120022415D01*
X136265631Y-119943833D01*
X135974094Y-119884247D01*
X135853497Y-119862586D01*
X135476007Y-119809213D01*
X135091637Y-119773516D01*
X134721237Y-119756538D01*
X134385658Y-119759324D01*
X134149542Y-119777270D01*
X134003029Y-119796237D01*
X133888267Y-119814144D01*
X133823997Y-119827952D01*
X133816976Y-119831175D01*
X133796863Y-119884841D01*
X133772634Y-120002915D01*
X133745520Y-120173944D01*
X133716749Y-120386475D01*
X133687553Y-120629056D01*
X133659161Y-120890236D01*
X133632803Y-121158561D01*
X133609709Y-121422579D01*
X133591109Y-121670837D01*
X133578232Y-121891884D01*
X133572310Y-122074267D01*
X133572060Y-122111636D01*
X133572060Y-122370203D01*
X133286880Y-122370203D01*
X133001701Y-122370203D01*
X133001701Y-122183571D01*
X133011441Y-121968845D01*
X133038985Y-121695185D01*
X133081818Y-121376941D01*
X133137424Y-121028463D01*
X133203288Y-120664101D01*
X133276893Y-120298203D01*
X133355726Y-119945120D01*
X133437270Y-119619200D01*
X133475560Y-119480382D01*
X133544428Y-119260701D01*
X138065890Y-119260701D01*
X138066199Y-119264637D01*
X138086891Y-119352418D01*
X138139829Y-119389942D01*
X138180270Y-119397142D01*
X138304102Y-119381830D01*
X138424086Y-119302829D01*
X138547523Y-119154947D01*
X138572209Y-119118265D01*
X138686281Y-118943929D01*
X138914194Y-118967938D01*
X139037105Y-118982794D01*
X139125276Y-118997039D01*
X139156053Y-119005892D01*
X139151944Y-119046110D01*
X139127670Y-119137875D01*
X139089742Y-119257494D01*
X139047560Y-119397290D01*
X139018492Y-119522093D01*
X139009485Y-119594233D01*
X139035463Y-119710112D01*
X139105542Y-119772106D01*
X139207939Y-119777909D01*
X139330873Y-119725214D01*
X139402231Y-119671113D01*
X139467274Y-119602915D01*
X139522458Y-119516169D01*
X139571198Y-119400337D01*
X139616911Y-119244881D01*
X139619864Y-119231709D01*
X140112392Y-119231709D01*
X140129561Y-119527646D01*
X140183053Y-119763015D01*
X140276528Y-119945925D01*
X140413645Y-120084483D01*
X140529301Y-120155307D01*
X140719766Y-120226532D01*
X140887018Y-120232053D01*
X141019240Y-120186677D01*
X141111658Y-120113774D01*
X141169622Y-120032408D01*
X141193561Y-119915340D01*
X141148327Y-119827452D01*
X141036500Y-119772721D01*
X140995774Y-119764236D01*
X140868798Y-119740711D01*
X140792422Y-119714909D01*
X140741937Y-119673996D01*
X140694260Y-119607623D01*
X140642910Y-119470673D01*
X140626854Y-119284458D01*
X140643235Y-119065499D01*
X140689195Y-118830315D01*
X140761876Y-118595427D01*
X140858419Y-118377356D01*
X140927332Y-118260365D01*
X141033247Y-118136428D01*
X141140346Y-118087235D01*
X141253708Y-118111582D01*
X141331184Y-118164604D01*
X141439624Y-118241203D01*
X141522022Y-118258231D01*
X141596268Y-118218195D01*
X141611410Y-118203864D01*
X141661550Y-118104858D01*
X141663510Y-117975847D01*
X141624449Y-117838985D01*
X141551527Y-117716425D01*
X141451903Y-117630324D01*
X141421513Y-117616261D01*
X141272381Y-117585230D01*
X141093297Y-117583375D01*
X140924109Y-117609691D01*
X140861931Y-117630408D01*
X140692592Y-117738608D01*
X140534201Y-117910087D01*
X140392657Y-118132242D01*
X140273859Y-118392471D01*
X140183705Y-118678174D01*
X140128095Y-118976747D01*
X140112392Y-119231709D01*
X139619864Y-119231709D01*
X139663014Y-119039261D01*
X139712923Y-118772940D01*
X139735262Y-118643855D01*
X139778106Y-118354378D01*
X139800046Y-118096391D01*
X139803941Y-117829147D01*
X139800980Y-117707240D01*
X139793460Y-117510234D01*
X139783923Y-117372503D01*
X139769008Y-117277288D01*
X139745354Y-117207827D01*
X139709602Y-117147360D01*
X139680897Y-117108362D01*
X139567042Y-117001935D01*
X139444901Y-116971052D01*
X139313582Y-117015622D01*
X139246319Y-117064384D01*
X139195369Y-117125905D01*
X139113816Y-117248202D01*
X139005783Y-117424400D01*
X138875395Y-117647619D01*
X138726776Y-117910981D01*
X138594801Y-118150959D01*
X138432363Y-118451411D01*
X138304423Y-118692889D01*
X138207659Y-118882393D01*
X138138747Y-119026925D01*
X138094363Y-119133486D01*
X138071185Y-119209078D01*
X138065890Y-119260701D01*
X133544428Y-119260701D01*
X133664808Y-118876703D01*
X133798708Y-118506813D01*
X135706716Y-118506813D01*
X135707854Y-118652321D01*
X135741637Y-118744388D01*
X135747030Y-118750322D01*
X135814997Y-118782351D01*
X135915194Y-118795947D01*
X135916815Y-118795951D01*
X136057931Y-118758894D01*
X136200790Y-118650976D01*
X136340292Y-118477074D01*
X136450025Y-118285825D01*
X136513975Y-118158749D01*
X136563476Y-118061653D01*
X136589907Y-118011408D01*
X136591927Y-118008112D01*
X136627014Y-118017308D01*
X136712984Y-118047125D01*
X136830058Y-118090070D01*
X136958458Y-118138654D01*
X137078403Y-118185385D01*
X137170116Y-118222774D01*
X137213818Y-118243328D01*
X137214524Y-118243902D01*
X137212082Y-118283033D01*
X137196637Y-118380441D01*
X137170928Y-118520001D01*
X137147982Y-118635656D01*
X137109651Y-118824714D01*
X137085947Y-118953930D01*
X137076915Y-119038095D01*
X137082599Y-119092004D01*
X137103043Y-119130451D01*
X137138291Y-119168227D01*
X137149606Y-119179486D01*
X137252576Y-119235963D01*
X137373024Y-119220512D01*
X137506461Y-119134011D01*
X137539419Y-119103271D01*
X137600445Y-119016307D01*
X137671277Y-118871659D01*
X137748589Y-118681028D01*
X137829054Y-118456115D01*
X137909346Y-118208621D01*
X137986137Y-117950247D01*
X138056102Y-117692693D01*
X138115914Y-117447661D01*
X138162245Y-117226850D01*
X138191770Y-117041962D01*
X138201162Y-116904698D01*
X138187095Y-116826759D01*
X138186784Y-116826253D01*
X138124438Y-116760274D01*
X138045624Y-116704634D01*
X137955287Y-116671448D01*
X137871069Y-116684182D01*
X137786075Y-116748845D01*
X137693410Y-116871446D01*
X137586179Y-117057995D01*
X137541791Y-117143718D01*
X137462526Y-117301247D01*
X137396001Y-117435972D01*
X137349907Y-117532155D01*
X137332531Y-117571872D01*
X137299471Y-117588394D01*
X137216148Y-117573013D01*
X137074414Y-117524118D01*
X137056890Y-117517391D01*
X136796618Y-117416806D01*
X136822090Y-117212937D01*
X136829870Y-116993468D01*
X136801302Y-116788168D01*
X136741845Y-116609809D01*
X136656957Y-116471159D01*
X136552098Y-116384989D01*
X136458500Y-116362418D01*
X136336662Y-116391811D01*
X136244855Y-116483081D01*
X136179288Y-116640868D01*
X136158331Y-116729750D01*
X136109543Y-116956076D01*
X136047285Y-117217240D01*
X135977599Y-117490110D01*
X135906526Y-117751555D01*
X135840111Y-117978441D01*
X135798136Y-118108674D01*
X135737163Y-118321163D01*
X135706716Y-118506813D01*
X133798708Y-118506813D01*
X133896945Y-118235442D01*
X134164331Y-117575854D01*
X134459325Y-116917191D01*
X134644863Y-116533526D01*
X134790726Y-116244123D01*
X134909441Y-116017608D01*
X135005068Y-115847523D01*
X135081673Y-115727408D01*
X135143317Y-115650805D01*
X135194063Y-115611254D01*
X135230834Y-115601939D01*
X135302621Y-115615718D01*
X135327499Y-115636800D01*
X135366671Y-115642343D01*
X135458702Y-115625199D01*
X135585113Y-115589029D01*
X135609664Y-115580925D01*
X136021996Y-115472367D01*
X136487286Y-115403890D01*
X136993882Y-115375466D01*
X137530129Y-115387067D01*
G37*
D13*
%TO.C,U2*%
X161180000Y-60900000D02*
X161180000Y-81340000D01*
X161180000Y-81340000D02*
X166480000Y-81340000D01*
X162830000Y-60900000D02*
X161180000Y-60900000D01*
X166480000Y-60900000D02*
X164830000Y-60900000D01*
X166480000Y-81340000D02*
X166480000Y-60900000D01*
X164830000Y-60900000D02*
G75*
G02*
X162830000Y-60900000I-1000000J0D01*
G01*
%TD*%
M02*
