%TF.GenerationSoftware,KiCad,Pcbnew,9.0.6*%
%TF.CreationDate,2026-02-03T18:20:43-05:00*%
%TF.ProjectId,hackpad,6861636b-7061-4642-9e6b-696361645f70,rev?*%
%TF.SameCoordinates,Original*%
%TF.FileFunction,Copper,L2,Bot*%
%TF.FilePolarity,Positive*%
%FSLAX46Y46*%
G04 Gerber Fmt 4.6, Leading zero omitted, Abs format (unit mm)*
G04 Created by KiCad (PCBNEW 9.0.6) date 2026-02-03 18:20:43*
%MOMM*%
%LPD*%
G01*
G04 APERTURE LIST*
G04 Aperture macros list*
%AMRoundRect*
0 Rectangle with rounded corners*
0 $1 Rounding radius*
0 $2 $3 $4 $5 $6 $7 $8 $9 X,Y pos of 4 corners*
0 Add a 4 corners polygon primitive as box body*
4,1,4,$2,$3,$4,$5,$6,$7,$8,$9,$2,$3,0*
0 Add four circle primitives for the rounded corners*
1,1,$1+$1,$2,$3*
1,1,$1+$1,$4,$5*
1,1,$1+$1,$6,$7*
1,1,$1+$1,$8,$9*
0 Add four rect primitives between the rounded corners*
20,1,$1+$1,$2,$3,$4,$5,0*
20,1,$1+$1,$4,$5,$6,$7,0*
20,1,$1+$1,$6,$7,$8,$9,0*
20,1,$1+$1,$8,$9,$2,$3,0*%
G04 Aperture macros list end*
%TA.AperFunction,ComponentPad*%
%ADD10C,2.200000*%
%TD*%
%TA.AperFunction,ComponentPad*%
%ADD11C,1.400000*%
%TD*%
%TA.AperFunction,ComponentPad*%
%ADD12C,1.600000*%
%TD*%
%TA.AperFunction,ComponentPad*%
%ADD13C,1.524000*%
%TD*%
%TA.AperFunction,ComponentPad*%
%ADD14R,2.030000X1.730000*%
%TD*%
%TA.AperFunction,ComponentPad*%
%ADD15O,2.030000X1.730000*%
%TD*%
%TA.AperFunction,ComponentPad*%
%ADD16R,2.000000X2.000000*%
%TD*%
%TA.AperFunction,ComponentPad*%
%ADD17C,2.000000*%
%TD*%
%TA.AperFunction,ComponentPad*%
%ADD18R,2.000000X3.200000*%
%TD*%
%TA.AperFunction,ComponentPad*%
%ADD19RoundRect,0.250000X-0.550000X-0.550000X0.550000X-0.550000X0.550000X0.550000X-0.550000X0.550000X0*%
%TD*%
%TA.AperFunction,ViaPad*%
%ADD20C,0.600000*%
%TD*%
%TA.AperFunction,Conductor*%
%ADD21C,0.200000*%
%TD*%
G04 APERTURE END LIST*
D10*
%TO.P,SW9,1,1*%
%TO.N,EC11SWA*%
X102616000Y-105156000D03*
%TO.P,SW9,2,2*%
%TO.N,SWitch 9*%
X96266000Y-107696000D03*
%TD*%
D11*
%TO.P,R1,1*%
%TO.N,WS2812B*%
X133350000Y-64770000D03*
%TO.P,R1,2*%
%TO.N,Net-(C4-Pad2)*%
X133350000Y-62230000D03*
%TD*%
D10*
%TO.P,SW4,1,1*%
%TO.N,EC11SWA*%
X83566000Y-85979000D03*
%TO.P,SW4,2,2*%
%TO.N,SWitch 4*%
X77216000Y-88519000D03*
%TD*%
%TO.P,SW1,1,1*%
%TO.N,EC11SWA*%
X93091000Y-124206000D03*
%TO.P,SW1,2,2*%
%TO.N,SWitch 1*%
X86741000Y-126746000D03*
%TD*%
%TO.P,SW8,1,1*%
%TO.N,EC11SWA*%
X121793000Y-105156000D03*
%TO.P,SW8,2,2*%
%TO.N,SWitch 8*%
X115443000Y-107696000D03*
%TD*%
D12*
%TO.P,C1,1*%
%TO.N,VDD*%
X139740000Y-102310000D03*
%TO.P,C1,2*%
%TO.N,Net-(U2-VDD)*%
X142240000Y-102310000D03*
%TD*%
D10*
%TO.P,SW3,1,1*%
%TO.N,EC11SWA*%
X112141000Y-124206000D03*
%TO.P,SW3,2,2*%
%TO.N,SWitch 3*%
X105791000Y-126746000D03*
%TD*%
D13*
%TO.P,U1,1,GPIO26/ADC0/A0*%
%TO.N,S1*%
X137160000Y-62230000D03*
%TO.P,U1,2,GPIO27/ADC1/A1*%
%TO.N,S2*%
X137160000Y-64770000D03*
%TO.P,U1,3,GPIO28/ADC2/A2*%
%TO.N,WS2812B*%
X137160000Y-67310000D03*
%TO.P,U1,4,GPIO29/ADC3/A3*%
%TO.N,SWitch 3*%
X137160000Y-69850000D03*
%TO.P,U1,5,GPIO6/SDA*%
%TO.N,Net-(U1-GPIO6{slash}SDA)*%
X137160000Y-72390000D03*
%TO.P,U1,6,GPIO7/SCL*%
%TO.N,Net-(U1-GPIO7{slash}SCL)*%
X137160000Y-74930000D03*
%TO.P,U1,7,GPIO0/TX*%
%TO.N,A*%
X137160000Y-77470000D03*
%TO.P,U1,8,GPIO1/RX*%
%TO.N,SWitch 1*%
X152400000Y-77470000D03*
%TO.P,U1,9,GPIO2/SCK*%
%TO.N,SWitch 2*%
X152400000Y-74930000D03*
%TO.P,U1,10,GPIO4/MISO*%
%TO.N,Col2*%
X152400000Y-72390000D03*
%TO.P,U1,11,GPIO3/MOSI*%
%TO.N,B*%
X152400000Y-69850000D03*
%TO.P,U1,12,3V3*%
%TO.N,3V3*%
X152400000Y-67310000D03*
%TO.P,U1,13,GND*%
%TO.N,EC11SWA*%
X152400000Y-64770000D03*
%TO.P,U1,14,VBUS*%
%TO.N,+5V*%
X152400000Y-62230000D03*
%TD*%
D14*
%TO.P,J1,1,Pin_1*%
%TO.N,SDA*%
X135001000Y-136906000D03*
D15*
%TO.P,J1,2,Pin_2*%
%TO.N,SCK*%
X135001000Y-134366000D03*
%TO.P,J1,3,Pin_3*%
%TO.N,3V3*%
X135001000Y-131826000D03*
%TO.P,J1,4,Pin_4*%
%TO.N,EC11SWA*%
X135001000Y-129286000D03*
%TD*%
D11*
%TO.P,R4,1*%
%TO.N,Net-(U2-SCL)*%
X146050000Y-108585000D03*
%TO.P,R4,2*%
%TO.N,SCK*%
X148590000Y-108585000D03*
%TD*%
D12*
%TO.P,C4,1*%
%TO.N,Net-(C4-Pad1)*%
X139740000Y-111760000D03*
%TO.P,C4,2*%
%TO.N,Net-(C4-Pad2)*%
X142240000Y-111760000D03*
%TD*%
D10*
%TO.P,SW6,1,1*%
%TO.N,EC11SWA*%
X121793000Y-85979000D03*
%TO.P,SW6,2,2*%
%TO.N,SWitch 6*%
X115443000Y-88519000D03*
%TD*%
%TO.P,SW7,1,1*%
%TO.N,EC11SWA*%
X83566000Y-105156000D03*
%TO.P,SW7,2,2*%
%TO.N,SWitch 7*%
X77216000Y-107696000D03*
%TD*%
D11*
%TO.P,R2,1*%
%TO.N,Net-(U1-GPIO6{slash}SDA)*%
X146050000Y-102235000D03*
%TO.P,R2,2*%
%TO.N,SDA*%
X148590000Y-102235000D03*
%TD*%
D10*
%TO.P,SW2,1,1*%
%TO.N,EC11SWA*%
X102616000Y-66929000D03*
%TO.P,SW2,2,2*%
%TO.N,SWitch 2*%
X96266000Y-69469000D03*
%TD*%
D16*
%TO.P,SW10,A,A*%
%TO.N,EC11A*%
X83018000Y-63870000D03*
D17*
%TO.P,SW10,B,B*%
%TO.N,EC11B*%
X78018000Y-63870000D03*
%TO.P,SW10,C,C*%
%TO.N,EC11SWA*%
X80518000Y-63870000D03*
D18*
%TO.P,SW10,MP*%
%TO.N,N/C*%
X86118000Y-71370000D03*
X74918000Y-71370000D03*
D17*
%TO.P,SW10,S1,S1*%
%TO.N,EC11SWA*%
X78018000Y-78370000D03*
%TO.P,SW10,S2,S2*%
%TO.N,Col2*%
X83018000Y-78370000D03*
%TD*%
D12*
%TO.P,C2,1*%
%TO.N,Net-(C2-Pad1)*%
X139740000Y-105460000D03*
%TO.P,C2,2*%
%TO.N,Net-(C2-Pad2)*%
X142240000Y-105460000D03*
%TD*%
D11*
%TO.P,R3,1*%
%TO.N,Net-(U1-GPIO7{slash}SCL)*%
X146050000Y-105410000D03*
%TO.P,R3,2*%
%TO.N,SCK*%
X148590000Y-105410000D03*
%TD*%
D10*
%TO.P,SW5,1,1*%
%TO.N,EC11SWA*%
X102616000Y-85979000D03*
%TO.P,SW5,2,2*%
%TO.N,SWitch 5*%
X96266000Y-88519000D03*
%TD*%
D12*
%TO.P,C3,1*%
%TO.N,Net-(C2-Pad1)*%
X139740000Y-108610000D03*
%TO.P,C3,2*%
%TO.N,+5V*%
X142240000Y-108610000D03*
%TD*%
D11*
%TO.P,R5,1*%
%TO.N,Net-(U2-SDA)*%
X146050000Y-111760000D03*
%TO.P,R5,2*%
%TO.N,SDA*%
X148590000Y-111760000D03*
%TD*%
D16*
%TO.P,SW11,A,A*%
%TO.N,A*%
X122388000Y-63870000D03*
D17*
%TO.P,SW11,B,B*%
%TO.N,B*%
X117388000Y-63870000D03*
%TO.P,SW11,C,C*%
%TO.N,unconnected-(SW11-PadC)*%
X119888000Y-63870000D03*
D18*
%TO.P,SW11,MP*%
%TO.N,N/C*%
X125488000Y-71370000D03*
X114288000Y-71370000D03*
D17*
%TO.P,SW11,S1,S1*%
%TO.N,S1*%
X117388000Y-78370000D03*
%TO.P,SW11,S2,S2*%
%TO.N,S2*%
X122388000Y-78370000D03*
%TD*%
D19*
%TO.P,U2,1,A0*%
%TO.N,unconnected-(U2-A0-Pad1)*%
X160020000Y-62230000D03*
D12*
%TO.P,U2,2,A1*%
%TO.N,unconnected-(U2-A1-Pad2)*%
X160020000Y-64770000D03*
%TO.P,U2,3,A2*%
%TO.N,unconnected-(U2-A2-Pad3)*%
X160020000Y-67310000D03*
%TO.P,U2,4,P0*%
%TO.N,SWitch 8*%
X160020000Y-69850000D03*
%TO.P,U2,5,P1*%
%TO.N,SWitch 9*%
X160020000Y-72390000D03*
%TO.P,U2,6,P2*%
%TO.N,SWitch 6*%
X160020000Y-74930000D03*
%TO.P,U2,7,P3*%
%TO.N,SWitch 7*%
X160020000Y-77470000D03*
%TO.P,U2,8,GND*%
%TO.N,EC11SWA*%
X160020000Y-80010000D03*
%TO.P,U2,9,P4*%
%TO.N,SWitch 5*%
X167640000Y-80010000D03*
%TO.P,U2,10,P5*%
%TO.N,SWitch 4*%
X167640000Y-77470000D03*
%TO.P,U2,11,P6*%
%TO.N,unconnected-(U2-P6-Pad11)*%
X167640000Y-74930000D03*
%TO.P,U2,12,P7*%
%TO.N,unconnected-(U2-P7-Pad12)*%
X167640000Y-72390000D03*
%TO.P,U2,13,~{INT}*%
%TO.N,unconnected-(U2-~{INT}-Pad13)*%
X167640000Y-69850000D03*
%TO.P,U2,14,SCL*%
%TO.N,Net-(U2-SCL)*%
X167640000Y-67310000D03*
%TO.P,U2,15,SDA*%
%TO.N,Net-(U2-SDA)*%
X167640000Y-64770000D03*
%TO.P,U2,16,VDD*%
%TO.N,Net-(U2-VDD)*%
X167640000Y-62230000D03*
%TD*%
D20*
%TO.N,Net-(D1-DOUT)*%
X134620000Y-83820000D03*
X137160000Y-83820000D03*
X134620000Y-86360000D03*
X138430000Y-88956000D03*
X154063000Y-85061528D03*
X157055735Y-86784265D03*
%TO.N,+5V*%
X157480000Y-85090000D03*
X154940000Y-86360000D03*
X138430000Y-87756000D03*
%TO.N,SDA*%
X158750000Y-110490000D03*
%TO.N,EC11SWA*%
X117983000Y-114803000D03*
X154960470Y-69215690D03*
X158319000Y-78462477D03*
X121539000Y-83439000D03*
X155540000Y-82728527D03*
X159519000Y-79301089D03*
X148590000Y-74930000D03*
X160521000Y-78980265D03*
X156092548Y-68462548D03*
X153670000Y-66040000D03*
X156210000Y-75530000D03*
X119570500Y-116776500D03*
X134098285Y-118350285D03*
X151017080Y-66152920D03*
X126619000Y-120015000D03*
%TO.N,3V3*%
X153543000Y-115570000D03*
%TO.N,WS2812B*%
X133350000Y-68580000D03*
%TO.N,SWitch 1*%
X129921000Y-121412000D03*
%TO.N,SWitch 2*%
X126746000Y-78740000D03*
X133350000Y-78740000D03*
X136720473Y-78732000D03*
%TO.N,SWitch 3*%
X123063000Y-118491000D03*
X158750000Y-87630000D03*
%TO.N,SWitch 4*%
X110363000Y-61087000D03*
X105156000Y-64643000D03*
%TO.N,SWitch 5*%
X119634000Y-86741000D03*
X154940000Y-85090000D03*
X146050000Y-83820000D03*
%TO.N,SWitch 6*%
X122292999Y-88519000D03*
X154063000Y-81280000D03*
X127381000Y-87249000D03*
%TO.N,SWitch 8*%
X142240000Y-92710000D03*
%TO.N,SWitch 9*%
X121408000Y-101727000D03*
X144780000Y-91440000D03*
%TO.N,Col2*%
X140970000Y-73660000D03*
X146050000Y-77470000D03*
%TO.N,S2*%
X128270000Y-69850000D03*
%TO.N,B*%
X149791000Y-72767552D03*
X152654000Y-73660000D03*
X133223000Y-77597000D03*
X149791000Y-75862265D03*
%TO.N,A*%
X131191000Y-80010000D03*
X134239000Y-77470000D03*
X134239000Y-79502000D03*
X130302000Y-76327000D03*
X126746000Y-77851000D03*
%TO.N,S1*%
X129032000Y-75819000D03*
%TO.N,Net-(U2-VDD)*%
X148590000Y-99060000D03*
X151130000Y-101600000D03*
%TO.N,Net-(C4-Pad2)*%
X132274715Y-74735285D03*
X134208162Y-74260000D03*
X142240000Y-114300000D03*
X135890000Y-111760000D03*
%TO.N,Net-(U1-GPIO6{slash}SDA)*%
X140716000Y-72136000D03*
X148844000Y-94713000D03*
X142240000Y-76200000D03*
%TD*%
D21*
%TO.N,Net-(D1-DOUT)*%
X157055735Y-86784265D02*
X158081000Y-85759000D01*
X133350000Y-87630000D02*
X134620000Y-86360000D01*
X153864000Y-85090000D02*
X154034528Y-85090000D01*
X138430000Y-88956000D02*
X134676000Y-88956000D01*
X158081000Y-84841057D02*
X157728943Y-84489000D01*
X157728943Y-84489000D02*
X156390943Y-84489000D01*
X154034528Y-85090000D02*
X154063000Y-85061528D01*
X158081000Y-85759000D02*
X158081000Y-84841057D01*
X134676000Y-88956000D02*
X133350000Y-87630000D01*
X154465000Y-85691000D02*
X153864000Y-85090000D01*
X155188943Y-85691000D02*
X154465000Y-85691000D01*
X134620000Y-83820000D02*
X137160000Y-83820000D01*
X156390943Y-84489000D02*
X155188943Y-85691000D01*
%TO.N,+5V*%
X145381000Y-95528000D02*
X143341000Y-97568000D01*
X143341000Y-107509000D02*
X142240000Y-108610000D01*
X157480000Y-85090000D02*
X156210000Y-86360000D01*
X143341000Y-97568000D02*
X143341000Y-107509000D01*
X138430000Y-87756000D02*
X141945943Y-87756000D01*
X145381000Y-91191057D02*
X145381000Y-95528000D01*
X141945943Y-87756000D02*
X145381000Y-91191057D01*
X156210000Y-86360000D02*
X154940000Y-86360000D01*
%TO.N,SDA*%
X161121000Y-110659000D02*
X161121000Y-110490000D01*
X158750000Y-110490000D02*
X161121000Y-110490000D01*
%TO.N,EC11SWA*%
X123190000Y-82550000D02*
X133751000Y-82550000D01*
X156210000Y-75530000D02*
X156210000Y-70465220D01*
X159519000Y-79301089D02*
X159157612Y-79301089D01*
X126619000Y-120015000D02*
X125984000Y-120650000D01*
X159157612Y-79301089D02*
X158319000Y-78462477D01*
X148590000Y-74930000D02*
X148590000Y-74061000D01*
X156092548Y-68462548D02*
X154773105Y-67143105D01*
X156210000Y-70465220D02*
X154960470Y-69215690D01*
X125984000Y-120650000D02*
X131798570Y-120650000D01*
X149346080Y-74061000D02*
X151017080Y-72390000D01*
X154773105Y-66206895D02*
X153836895Y-66206895D01*
X155540000Y-80960050D02*
X155540000Y-82728527D01*
X133751000Y-82550000D02*
X142240000Y-74061000D01*
X119570500Y-116390500D02*
X119570500Y-116776500D01*
X142240000Y-74061000D02*
X148590000Y-74061000D01*
X154773105Y-67143105D02*
X154773105Y-66206895D01*
X148590000Y-74061000D02*
X149346080Y-74061000D01*
X131798570Y-120650000D02*
X134098285Y-118350285D01*
X121539000Y-83439000D02*
X122301000Y-83439000D01*
X160521000Y-78980265D02*
X157519785Y-78980265D01*
X122301000Y-83439000D02*
X123190000Y-82550000D01*
X151017080Y-72390000D02*
X151017080Y-66152920D01*
X117983000Y-114803000D02*
X119570500Y-116390500D01*
X157519785Y-78980265D02*
X155540000Y-80960050D01*
X153836895Y-66206895D02*
X153670000Y-66040000D01*
%TO.N,3V3*%
X153463000Y-115490000D02*
X153463000Y-68373000D01*
X153463000Y-68373000D02*
X152400000Y-67310000D01*
X153543000Y-115570000D02*
X153463000Y-115490000D01*
%TO.N,WS2812B*%
X137160000Y-67310000D02*
X134620000Y-67310000D01*
X134620000Y-67310000D02*
X133350000Y-68580000D01*
%TO.N,SWitch 1*%
X134620000Y-121412000D02*
X138396100Y-117635900D01*
X149787973Y-114901000D02*
X152400000Y-112288973D01*
X138396100Y-114901000D02*
X149787973Y-114901000D01*
X152400000Y-112288973D02*
X152400000Y-77470000D01*
X138396100Y-117635900D02*
X138396100Y-114901000D01*
X129921000Y-121412000D02*
X134620000Y-121412000D01*
%TO.N,SWitch 2*%
X126746000Y-78740000D02*
X128270000Y-78740000D01*
X136712473Y-78740000D02*
X136720473Y-78732000D01*
X128270000Y-78740000D02*
X136712473Y-78740000D01*
X128270000Y-78740000D02*
X133350000Y-78740000D01*
%TO.N,SWitch 3*%
X158750000Y-108478973D02*
X158750000Y-87630000D01*
X145735970Y-124226973D02*
X158149000Y-111813943D01*
X128798973Y-124226973D02*
X145735970Y-124226973D01*
X158149000Y-109079973D02*
X158750000Y-108478973D01*
X158149000Y-111813943D02*
X158149000Y-109079973D01*
X123063000Y-118491000D02*
X128798973Y-124226973D01*
%TO.N,SWitch 4*%
X138624000Y-61623590D02*
X138624000Y-61976000D01*
X151959690Y-66247000D02*
X152840310Y-66247000D01*
X137766410Y-60766000D02*
X138624000Y-61623590D01*
X118912100Y-61087000D02*
X110363000Y-61087000D01*
X99102184Y-69658000D02*
X84182184Y-84578000D01*
X158919000Y-73184050D02*
X159563950Y-73829000D01*
X152840310Y-66247000D02*
X158919000Y-72325690D01*
X84182184Y-84578000D02*
X81157000Y-84578000D01*
X158919000Y-72325690D02*
X158919000Y-73184050D01*
X119801100Y-61976000D02*
X131436900Y-61976000D01*
X132646900Y-60766000D02*
X137766410Y-60766000D01*
X147688690Y-61976000D02*
X151959690Y-66247000D01*
X163999000Y-73829000D02*
X167640000Y-77470000D01*
X119801100Y-61976000D02*
X118912100Y-61087000D01*
X159563950Y-73829000D02*
X163999000Y-73829000D01*
X101868314Y-69658000D02*
X99102184Y-69658000D01*
X105156000Y-64643000D02*
X105156000Y-66370314D01*
X131436900Y-61976000D02*
X132646900Y-60766000D01*
X138624000Y-61976000D02*
X147688690Y-61976000D01*
X105156000Y-66370314D02*
X101868314Y-69658000D01*
X81157000Y-84578000D02*
X77216000Y-88519000D01*
%TO.N,SWitch 5*%
X159563950Y-76369000D02*
X154940000Y-80992950D01*
X167640000Y-80010000D02*
X163999000Y-76369000D01*
X120654000Y-84578000D02*
X120142000Y-85090000D01*
X120142000Y-85090000D02*
X120142000Y-86233000D01*
X154940000Y-80992950D02*
X154940000Y-85090000D01*
X120142000Y-86233000D02*
X119634000Y-86741000D01*
X163999000Y-76369000D02*
X159563950Y-76369000D01*
X146808000Y-84578000D02*
X120654000Y-84578000D01*
X146050000Y-83820000D02*
X146808000Y-84578000D01*
%TO.N,SWitch 6*%
X122292999Y-88519000D02*
X126111000Y-88519000D01*
X160020000Y-74930000D02*
X154063000Y-80887000D01*
X154063000Y-80887000D02*
X154063000Y-81280000D01*
X126111000Y-88519000D02*
X127381000Y-87249000D01*
%TO.N,SWitch 7*%
X98120314Y-107823000D02*
X111887000Y-107823000D01*
X138528000Y-134464000D02*
X162560000Y-110432000D01*
X135633973Y-133200000D02*
X136369000Y-133935027D01*
X94107000Y-107696000D02*
X95508000Y-109097000D01*
X136369000Y-133935027D02*
X136369000Y-134464000D01*
X132036027Y-133200000D02*
X135633973Y-133200000D01*
X111887000Y-107823000D02*
X111887000Y-113050973D01*
X96846314Y-109097000D02*
X98120314Y-107823000D01*
X111887000Y-113050973D02*
X132036027Y-133200000D01*
X162560000Y-80010000D02*
X160020000Y-77470000D01*
X77216000Y-107696000D02*
X94107000Y-107696000D01*
X162560000Y-110432000D02*
X162560000Y-80010000D01*
X136369000Y-134464000D02*
X138528000Y-134464000D01*
X95508000Y-109097000D02*
X96846314Y-109097000D01*
%TO.N,SWitch 8*%
X121320057Y-100965000D02*
X115443000Y-106842057D01*
X140970000Y-92710000D02*
X134620000Y-99060000D01*
X142240000Y-92710000D02*
X140970000Y-92710000D01*
X133985000Y-100965000D02*
X121320057Y-100965000D01*
X115443000Y-106842057D02*
X115443000Y-107696000D01*
X134620000Y-100330000D02*
X133985000Y-100965000D01*
X134620000Y-99060000D02*
X134620000Y-100330000D01*
%TO.N,SWitch 9*%
X122682000Y-103001000D02*
X121408000Y-101727000D01*
X122682000Y-103001000D02*
X133219000Y-103001000D01*
X133219000Y-103001000D02*
X144780000Y-91440000D01*
%TO.N,Col2*%
X146050000Y-77470000D02*
X147320000Y-77470000D01*
X119827000Y-62569000D02*
X123689000Y-62569000D01*
X119357000Y-62099000D02*
X119827000Y-62569000D01*
X140970000Y-73660000D02*
X130918000Y-73660000D01*
X147320000Y-77470000D02*
X152400000Y-72390000D01*
X119357000Y-62099000D02*
X99289000Y-62099000D01*
X123689000Y-62569000D02*
X123689000Y-66431000D01*
X99289000Y-62099000D02*
X83018000Y-78370000D01*
X123689000Y-66431000D02*
X130918000Y-73660000D01*
%TO.N,S2*%
X136159000Y-65771000D02*
X137160000Y-64770000D01*
X130131000Y-65771000D02*
X136159000Y-65771000D01*
X130131000Y-67989000D02*
X128270000Y-69850000D01*
X130131000Y-65771000D02*
X130131000Y-67989000D01*
%TO.N,B*%
X133223000Y-77597000D02*
X128897000Y-73271000D01*
X124187000Y-73271000D02*
X129961900Y-73271000D01*
X149816080Y-69977000D02*
X149791000Y-70002080D01*
X128897000Y-73271000D02*
X124187000Y-73271000D01*
X139486943Y-75993000D02*
X145502943Y-69977000D01*
X117388000Y-66472000D02*
X117388000Y-63870000D01*
X145502943Y-69977000D02*
X149816080Y-69977000D01*
X124187000Y-73271000D02*
X117388000Y-66472000D01*
X149791000Y-75862265D02*
X151993265Y-73660000D01*
X132683900Y-75993000D02*
X139486943Y-75993000D01*
X129961900Y-73271000D02*
X132683900Y-75993000D01*
X151993265Y-73660000D02*
X152654000Y-73660000D01*
X149791000Y-70002080D02*
X149791000Y-72767552D01*
%TO.N,A*%
X131191000Y-80010000D02*
X133731000Y-80010000D01*
X134239000Y-77470000D02*
X137160000Y-77470000D01*
X134160900Y-77470000D02*
X134239000Y-77470000D01*
X133731000Y-80010000D02*
X134239000Y-79502000D01*
X126746000Y-77851000D02*
X128778000Y-77851000D01*
X128778000Y-77851000D02*
X130302000Y-76327000D01*
%TO.N,S1*%
X129032000Y-75819000D02*
X127643000Y-77208000D01*
X137160000Y-62230000D02*
X136750000Y-62230000D01*
X127504000Y-77069000D02*
X118689000Y-77069000D01*
X127643000Y-77208000D02*
X127504000Y-77069000D01*
X118689000Y-77069000D02*
X117388000Y-78370000D01*
%TO.N,Net-(U2-VDD)*%
X148590000Y-99060000D02*
X151130000Y-101600000D01*
%TO.N,Net-(C4-Pad2)*%
X132750000Y-74260000D02*
X132274715Y-74735285D01*
X134208162Y-74260000D02*
X132750000Y-74260000D01*
X135890000Y-111760000D02*
X138430000Y-114300000D01*
X138430000Y-114300000D02*
X142240000Y-114300000D01*
%TO.N,Net-(U1-GPIO6{slash}SDA)*%
X140462000Y-72390000D02*
X137160000Y-72390000D01*
X148844000Y-82804000D02*
X142240000Y-76200000D01*
X148844000Y-94713000D02*
X148844000Y-82804000D01*
X140716000Y-72136000D02*
X140462000Y-72390000D01*
%TD*%
M02*
