%TF.GenerationSoftware,KiCad,Pcbnew,9.0.6*%
%TF.CreationDate,2026-02-03T18:20:42-05:00*%
%TF.ProjectId,hackpad,6861636b-7061-4642-9e6b-696361645f70,rev?*%
%TF.SameCoordinates,Original*%
%TF.FileFunction,Copper,L1,Top*%
%TF.FilePolarity,Positive*%
%FSLAX46Y46*%
G04 Gerber Fmt 4.6, Leading zero omitted, Abs format (unit mm)*
G04 Created by KiCad (PCBNEW 9.0.6) date 2026-02-03 18:20:42*
%MOMM*%
%LPD*%
G01*
G04 APERTURE LIST*
G04 Aperture macros list*
%AMRoundRect*
0 Rectangle with rounded corners*
0 $1 Rounding radius*
0 $2 $3 $4 $5 $6 $7 $8 $9 X,Y pos of 4 corners*
0 Add a 4 corners polygon primitive as box body*
4,1,4,$2,$3,$4,$5,$6,$7,$8,$9,$2,$3,0*
0 Add four circle primitives for the rounded corners*
1,1,$1+$1,$2,$3*
1,1,$1+$1,$4,$5*
1,1,$1+$1,$6,$7*
1,1,$1+$1,$8,$9*
0 Add four rect primitives between the rounded corners*
20,1,$1+$1,$2,$3,$4,$5,0*
20,1,$1+$1,$4,$5,$6,$7,0*
20,1,$1+$1,$6,$7,$8,$9,0*
20,1,$1+$1,$8,$9,$2,$3,0*%
G04 Aperture macros list end*
%TA.AperFunction,SMDPad,CuDef*%
%ADD10R,1.600000X0.850000*%
%TD*%
%TA.AperFunction,ComponentPad*%
%ADD11C,2.200000*%
%TD*%
%TA.AperFunction,ComponentPad*%
%ADD12C,1.400000*%
%TD*%
%TA.AperFunction,ComponentPad*%
%ADD13C,1.600000*%
%TD*%
%TA.AperFunction,SMDPad,CuDef*%
%ADD14RoundRect,0.152400X1.063600X0.609600X-1.063600X0.609600X-1.063600X-0.609600X1.063600X-0.609600X0*%
%TD*%
%TA.AperFunction,ComponentPad*%
%ADD15C,1.524000*%
%TD*%
%TA.AperFunction,SMDPad,CuDef*%
%ADD16RoundRect,0.152400X-1.063600X-0.609600X1.063600X-0.609600X1.063600X0.609600X-1.063600X0.609600X0*%
%TD*%
%TA.AperFunction,ComponentPad*%
%ADD17R,2.030000X1.730000*%
%TD*%
%TA.AperFunction,ComponentPad*%
%ADD18O,2.030000X1.730000*%
%TD*%
%TA.AperFunction,ComponentPad*%
%ADD19R,2.000000X2.000000*%
%TD*%
%TA.AperFunction,ComponentPad*%
%ADD20C,2.000000*%
%TD*%
%TA.AperFunction,ComponentPad*%
%ADD21R,2.000000X3.200000*%
%TD*%
%TA.AperFunction,ComponentPad*%
%ADD22RoundRect,0.250000X-0.550000X-0.550000X0.550000X-0.550000X0.550000X0.550000X-0.550000X0.550000X0*%
%TD*%
%TA.AperFunction,ViaPad*%
%ADD23C,0.600000*%
%TD*%
%TA.AperFunction,Conductor*%
%ADD24C,0.200000*%
%TD*%
G04 APERTURE END LIST*
D10*
%TO.P,D2,1,DOUT*%
%TO.N,unconnected-(D2-DOUT-Pad1)*%
X149380000Y-85880000D03*
%TO.P,D2,2,VSS*%
%TO.N,GND*%
X149380000Y-87630000D03*
%TO.P,D2,3,DIN*%
%TO.N,Net-(D1-DOUT)*%
X152880000Y-87630000D03*
%TO.P,D2,4,VDD*%
%TO.N,+5V*%
X152880000Y-85880000D03*
%TD*%
D11*
%TO.P,SW9,1,1*%
%TO.N,EC11SWA*%
X102616000Y-105156000D03*
%TO.P,SW9,2,2*%
%TO.N,SWitch 9*%
X96266000Y-107696000D03*
%TD*%
D12*
%TO.P,R1,1*%
%TO.N,WS2812B*%
X133350000Y-64770000D03*
%TO.P,R1,2*%
%TO.N,Net-(C4-Pad2)*%
X133350000Y-62230000D03*
%TD*%
D11*
%TO.P,SW4,1,1*%
%TO.N,EC11SWA*%
X83566000Y-85979000D03*
%TO.P,SW4,2,2*%
%TO.N,SWitch 4*%
X77216000Y-88519000D03*
%TD*%
%TO.P,SW1,1,1*%
%TO.N,EC11SWA*%
X93091000Y-124206000D03*
%TO.P,SW1,2,2*%
%TO.N,SWitch 1*%
X86741000Y-126746000D03*
%TD*%
%TO.P,SW8,1,1*%
%TO.N,EC11SWA*%
X121793000Y-105156000D03*
%TO.P,SW8,2,2*%
%TO.N,SWitch 8*%
X115443000Y-107696000D03*
%TD*%
D10*
%TO.P,D1,1,DOUT*%
%TO.N,Net-(D1-DOUT)*%
X136680000Y-85880000D03*
%TO.P,D1,2,VSS*%
%TO.N,GND*%
X136680000Y-87630000D03*
%TO.P,D1,3,DIN*%
%TO.N,Net-(D1-DIN)*%
X140180000Y-87630000D03*
%TO.P,D1,4,VDD*%
%TO.N,+5V*%
X140180000Y-85880000D03*
%TD*%
D13*
%TO.P,C1,1*%
%TO.N,VDD*%
X139740000Y-102310000D03*
%TO.P,C1,2*%
%TO.N,Net-(U2-VDD)*%
X142240000Y-102310000D03*
%TD*%
D11*
%TO.P,SW3,1,1*%
%TO.N,EC11SWA*%
X112141000Y-124206000D03*
%TO.P,SW3,2,2*%
%TO.N,SWitch 3*%
X105791000Y-126746000D03*
%TD*%
D14*
%TO.P,U1,1,GPIO26/ADC0/A0*%
%TO.N,S1*%
X136325000Y-62230000D03*
D15*
X137160000Y-62230000D03*
D14*
%TO.P,U1,2,GPIO27/ADC1/A1*%
%TO.N,S2*%
X136325000Y-64770000D03*
D15*
X137160000Y-64770000D03*
D14*
%TO.P,U1,3,GPIO28/ADC2/A2*%
%TO.N,WS2812B*%
X136325000Y-67310000D03*
D15*
X137160000Y-67310000D03*
D14*
%TO.P,U1,4,GPIO29/ADC3/A3*%
%TO.N,SWitch 3*%
X136325000Y-69850000D03*
D15*
X137160000Y-69850000D03*
D14*
%TO.P,U1,5,GPIO6/SDA*%
%TO.N,Net-(U1-GPIO6{slash}SDA)*%
X136325000Y-72390000D03*
D15*
X137160000Y-72390000D03*
D14*
%TO.P,U1,6,GPIO7/SCL*%
%TO.N,Net-(U1-GPIO7{slash}SCL)*%
X136325000Y-74930000D03*
D15*
X137160000Y-74930000D03*
D14*
%TO.P,U1,7,GPIO0/TX*%
%TO.N,A*%
X136325000Y-77470000D03*
D15*
X137160000Y-77470000D03*
%TO.P,U1,8,GPIO1/RX*%
%TO.N,SWitch 1*%
X152400000Y-77470000D03*
D16*
X153235000Y-77470000D03*
D15*
%TO.P,U1,9,GPIO2/SCK*%
%TO.N,SWitch 2*%
X152400000Y-74930000D03*
D16*
X153235000Y-74930000D03*
D15*
%TO.P,U1,10,GPIO4/MISO*%
%TO.N,Col2*%
X152400000Y-72390000D03*
D16*
X153235000Y-72390000D03*
D15*
%TO.P,U1,11,GPIO3/MOSI*%
%TO.N,B*%
X152400000Y-69850000D03*
D16*
X153235000Y-69850000D03*
D15*
%TO.P,U1,12,3V3*%
%TO.N,3V3*%
X152400000Y-67310000D03*
D16*
X153235000Y-67310000D03*
D15*
%TO.P,U1,13,GND*%
%TO.N,EC11SWA*%
X152400000Y-64770000D03*
D16*
X153235000Y-64770000D03*
D15*
%TO.P,U1,14,VBUS*%
%TO.N,+5V*%
X152400000Y-62230000D03*
D16*
X153235000Y-62230000D03*
%TD*%
D17*
%TO.P,J1,1,Pin_1*%
%TO.N,SDA*%
X135001000Y-136906000D03*
D18*
%TO.P,J1,2,Pin_2*%
%TO.N,SCK*%
X135001000Y-134366000D03*
%TO.P,J1,3,Pin_3*%
%TO.N,3V3*%
X135001000Y-131826000D03*
%TO.P,J1,4,Pin_4*%
%TO.N,EC11SWA*%
X135001000Y-129286000D03*
%TD*%
D12*
%TO.P,R4,1*%
%TO.N,Net-(U2-SCL)*%
X146050000Y-108585000D03*
%TO.P,R4,2*%
%TO.N,SCK*%
X148590000Y-108585000D03*
%TD*%
D13*
%TO.P,C4,1*%
%TO.N,Net-(C4-Pad1)*%
X139740000Y-111760000D03*
%TO.P,C4,2*%
%TO.N,Net-(C4-Pad2)*%
X142240000Y-111760000D03*
%TD*%
D11*
%TO.P,SW6,1,1*%
%TO.N,EC11SWA*%
X121793000Y-85979000D03*
%TO.P,SW6,2,2*%
%TO.N,SWitch 6*%
X115443000Y-88519000D03*
%TD*%
%TO.P,SW7,1,1*%
%TO.N,EC11SWA*%
X83566000Y-105156000D03*
%TO.P,SW7,2,2*%
%TO.N,SWitch 7*%
X77216000Y-107696000D03*
%TD*%
D12*
%TO.P,R2,1*%
%TO.N,Net-(U1-GPIO6{slash}SDA)*%
X146050000Y-102235000D03*
%TO.P,R2,2*%
%TO.N,SDA*%
X148590000Y-102235000D03*
%TD*%
D11*
%TO.P,SW2,1,1*%
%TO.N,EC11SWA*%
X102616000Y-66929000D03*
%TO.P,SW2,2,2*%
%TO.N,SWitch 2*%
X96266000Y-69469000D03*
%TD*%
D19*
%TO.P,SW10,A,A*%
%TO.N,EC11A*%
X83018000Y-63870000D03*
D20*
%TO.P,SW10,B,B*%
%TO.N,EC11B*%
X78018000Y-63870000D03*
%TO.P,SW10,C,C*%
%TO.N,EC11SWA*%
X80518000Y-63870000D03*
D21*
%TO.P,SW10,MP*%
%TO.N,N/C*%
X86118000Y-71370000D03*
X74918000Y-71370000D03*
D20*
%TO.P,SW10,S1,S1*%
%TO.N,EC11SWA*%
X78018000Y-78370000D03*
%TO.P,SW10,S2,S2*%
%TO.N,Col2*%
X83018000Y-78370000D03*
%TD*%
D13*
%TO.P,C2,1*%
%TO.N,Net-(C2-Pad1)*%
X139740000Y-105460000D03*
%TO.P,C2,2*%
%TO.N,Net-(C2-Pad2)*%
X142240000Y-105460000D03*
%TD*%
D12*
%TO.P,R3,1*%
%TO.N,Net-(U1-GPIO7{slash}SCL)*%
X146050000Y-105410000D03*
%TO.P,R3,2*%
%TO.N,SCK*%
X148590000Y-105410000D03*
%TD*%
D11*
%TO.P,SW5,1,1*%
%TO.N,EC11SWA*%
X102616000Y-85979000D03*
%TO.P,SW5,2,2*%
%TO.N,SWitch 5*%
X96266000Y-88519000D03*
%TD*%
D13*
%TO.P,C3,1*%
%TO.N,Net-(C2-Pad1)*%
X139740000Y-108610000D03*
%TO.P,C3,2*%
%TO.N,+5V*%
X142240000Y-108610000D03*
%TD*%
D12*
%TO.P,R5,1*%
%TO.N,Net-(U2-SDA)*%
X146050000Y-111760000D03*
%TO.P,R5,2*%
%TO.N,SDA*%
X148590000Y-111760000D03*
%TD*%
D19*
%TO.P,SW11,A,A*%
%TO.N,A*%
X122388000Y-63870000D03*
D20*
%TO.P,SW11,B,B*%
%TO.N,B*%
X117388000Y-63870000D03*
%TO.P,SW11,C,C*%
%TO.N,unconnected-(SW11-PadC)*%
X119888000Y-63870000D03*
D21*
%TO.P,SW11,MP*%
%TO.N,N/C*%
X125488000Y-71370000D03*
X114288000Y-71370000D03*
D20*
%TO.P,SW11,S1,S1*%
%TO.N,S1*%
X117388000Y-78370000D03*
%TO.P,SW11,S2,S2*%
%TO.N,S2*%
X122388000Y-78370000D03*
%TD*%
D22*
%TO.P,U2,1,A0*%
%TO.N,unconnected-(U2-A0-Pad1)*%
X160020000Y-62230000D03*
D13*
%TO.P,U2,2,A1*%
%TO.N,unconnected-(U2-A1-Pad2)*%
X160020000Y-64770000D03*
%TO.P,U2,3,A2*%
%TO.N,unconnected-(U2-A2-Pad3)*%
X160020000Y-67310000D03*
%TO.P,U2,4,P0*%
%TO.N,SWitch 8*%
X160020000Y-69850000D03*
%TO.P,U2,5,P1*%
%TO.N,SWitch 9*%
X160020000Y-72390000D03*
%TO.P,U2,6,P2*%
%TO.N,SWitch 6*%
X160020000Y-74930000D03*
%TO.P,U2,7,P3*%
%TO.N,SWitch 7*%
X160020000Y-77470000D03*
%TO.P,U2,8,GND*%
%TO.N,EC11SWA*%
X160020000Y-80010000D03*
%TO.P,U2,9,P4*%
%TO.N,SWitch 5*%
X167640000Y-80010000D03*
%TO.P,U2,10,P5*%
%TO.N,SWitch 4*%
X167640000Y-77470000D03*
%TO.P,U2,11,P6*%
%TO.N,unconnected-(U2-P6-Pad11)*%
X167640000Y-74930000D03*
%TO.P,U2,12,P7*%
%TO.N,unconnected-(U2-P7-Pad12)*%
X167640000Y-72390000D03*
%TO.P,U2,13,~{INT}*%
%TO.N,unconnected-(U2-~{INT}-Pad13)*%
X167640000Y-69850000D03*
%TO.P,U2,14,SCL*%
%TO.N,Net-(U2-SCL)*%
X167640000Y-67310000D03*
%TO.P,U2,15,SDA*%
%TO.N,Net-(U2-SDA)*%
X167640000Y-64770000D03*
%TO.P,U2,16,VDD*%
%TO.N,Net-(U2-VDD)*%
X167640000Y-62230000D03*
%TD*%
D23*
%TO.N,Net-(D1-DOUT)*%
X134620000Y-83820000D03*
X137160000Y-83820000D03*
X134620000Y-86360000D03*
X138430000Y-88956000D03*
X154063000Y-85061528D03*
X157055735Y-86784265D03*
%TO.N,+5V*%
X157480000Y-85090000D03*
X154940000Y-86360000D03*
X138430000Y-87756000D03*
%TO.N,SDA*%
X158750000Y-110490000D03*
%TO.N,EC11SWA*%
X117983000Y-114803000D03*
X154960470Y-69215690D03*
X158319000Y-78462477D03*
X121539000Y-83439000D03*
X155540000Y-82728527D03*
X159519000Y-79301089D03*
X148590000Y-74930000D03*
X160521000Y-78980265D03*
X156092548Y-68462548D03*
X153670000Y-66040000D03*
X156210000Y-75530000D03*
X119570500Y-116776500D03*
X134098285Y-118350285D03*
X151017080Y-66152920D03*
X126619000Y-120015000D03*
%TO.N,3V3*%
X153543000Y-115570000D03*
%TO.N,WS2812B*%
X133350000Y-68580000D03*
%TO.N,SWitch 1*%
X129921000Y-121412000D03*
%TO.N,SWitch 2*%
X126746000Y-78740000D03*
X133350000Y-78740000D03*
X136720473Y-78732000D03*
%TO.N,SWitch 3*%
X123063000Y-118491000D03*
X158750000Y-87630000D03*
%TO.N,SWitch 4*%
X110363000Y-61087000D03*
X105156000Y-64643000D03*
%TO.N,SWitch 5*%
X119634000Y-86741000D03*
X154940000Y-85090000D03*
X146050000Y-83820000D03*
%TO.N,SWitch 6*%
X122292999Y-88519000D03*
X154063000Y-81280000D03*
X127381000Y-87249000D03*
%TO.N,SWitch 8*%
X142240000Y-92710000D03*
%TO.N,SWitch 9*%
X121408000Y-101727000D03*
X144780000Y-91440000D03*
%TO.N,Col2*%
X140970000Y-73660000D03*
X146050000Y-77470000D03*
%TO.N,S2*%
X128270000Y-69850000D03*
%TO.N,B*%
X149791000Y-72767552D03*
X152654000Y-73660000D03*
X133223000Y-77597000D03*
X149791000Y-75862265D03*
%TO.N,A*%
X131191000Y-80010000D03*
X134239000Y-77470000D03*
X134239000Y-79502000D03*
X130302000Y-76327000D03*
X126746000Y-77851000D03*
%TO.N,S1*%
X129032000Y-75819000D03*
%TO.N,Net-(U2-VDD)*%
X148590000Y-99060000D03*
X151130000Y-101600000D03*
%TO.N,Net-(C4-Pad2)*%
X132274715Y-74735285D03*
X134208162Y-74260000D03*
X142240000Y-114300000D03*
X135890000Y-111760000D03*
%TO.N,Net-(U1-GPIO6{slash}SDA)*%
X140716000Y-72136000D03*
X148844000Y-94713000D03*
X142240000Y-76200000D03*
%TD*%
D24*
%TO.N,GND*%
X148654000Y-88356000D02*
X149380000Y-87630000D01*
X137406000Y-88356000D02*
X148654000Y-88356000D01*
X136680000Y-87630000D02*
X137406000Y-88356000D01*
%TO.N,Net-(D1-DOUT)*%
X134620000Y-86360000D02*
X134620000Y-83820000D01*
X137160000Y-83820000D02*
X137160000Y-85400000D01*
X153981000Y-85154000D02*
X153917000Y-85090000D01*
X151554000Y-88956000D02*
X138430000Y-88956000D01*
X156210000Y-87630000D02*
X157055735Y-86784265D01*
X152880000Y-87630000D02*
X151554000Y-88956000D01*
X137160000Y-85400000D02*
X136680000Y-85880000D01*
X152880000Y-87630000D02*
X156210000Y-87630000D01*
%TO.N,+5V*%
X154339000Y-80679000D02*
X157480000Y-83820000D01*
X150416080Y-77065980D02*
X154029100Y-80679000D01*
X154029100Y-80679000D02*
X154339000Y-80679000D01*
X140906000Y-86606000D02*
X152154000Y-86606000D01*
X154460000Y-85880000D02*
X152880000Y-85880000D01*
X150416080Y-64213920D02*
X150416080Y-77065980D01*
X142240000Y-108610000D02*
X142240000Y-108545130D01*
X152154000Y-86606000D02*
X152880000Y-85880000D01*
X154940000Y-86360000D02*
X154460000Y-85880000D01*
X157480000Y-83820000D02*
X157480000Y-85090000D01*
X138430000Y-87630000D02*
X138430000Y-87756000D01*
X152400000Y-62230000D02*
X150416080Y-64213920D01*
X140180000Y-85880000D02*
X138430000Y-87630000D01*
X140180000Y-85880000D02*
X140906000Y-86606000D01*
%TO.N,SCK*%
X148590000Y-107460628D02*
X146464628Y-109586000D01*
X148590000Y-105410000D02*
X148590000Y-107460628D01*
X141139000Y-109066050D02*
X141139000Y-108153950D01*
X146464628Y-109586000D02*
X144773050Y-109586000D01*
X135001000Y-134366000D02*
X134086000Y-134366000D01*
X139354172Y-110144172D02*
X140060878Y-110144172D01*
X130810000Y-118688343D02*
X139354172Y-110144172D01*
X130810000Y-131090000D02*
X130810000Y-118688343D01*
X144773050Y-109586000D02*
X142696050Y-107509000D01*
X140060878Y-110144172D02*
X141139000Y-109066050D01*
X134086000Y-134366000D02*
X130810000Y-131090000D01*
X148590000Y-108585000D02*
X148590000Y-105410000D01*
X142696050Y-107509000D02*
X141783950Y-107509000D01*
X141783950Y-107509000D02*
X141139000Y-108153950D01*
%TO.N,SDA*%
X151984943Y-113162000D02*
X146036372Y-113162000D01*
X155120000Y-106860000D02*
X158750000Y-110490000D01*
X155120000Y-106860000D02*
X153490000Y-106860000D01*
X154144000Y-115321057D02*
X151984943Y-113162000D01*
X155120000Y-106860000D02*
X153215000Y-106860000D01*
X145049000Y-111345372D02*
X145635372Y-110759000D01*
X145049000Y-112174628D02*
X145049000Y-111345372D01*
X135001000Y-136906000D02*
X154144000Y-117763000D01*
X145635372Y-110759000D02*
X147589000Y-110759000D01*
X153215000Y-106860000D02*
X148590000Y-102235000D01*
X153490000Y-106860000D02*
X148590000Y-111760000D01*
X146036372Y-113162000D02*
X145049000Y-112174628D01*
X154144000Y-117763000D02*
X154144000Y-115321057D01*
X147589000Y-110759000D02*
X148590000Y-111760000D01*
%TO.N,EC11SWA*%
X93091000Y-124206000D02*
X112141000Y-124206000D01*
X83566000Y-85979000D02*
X102616000Y-85979000D01*
X160020000Y-79802089D02*
X159519000Y-79301089D01*
X122408000Y-115804000D02*
X126619000Y-120015000D01*
X155339406Y-69215690D02*
X156092548Y-68462548D01*
X154960470Y-69215690D02*
X155339406Y-69215690D01*
X148590000Y-76902900D02*
X148590000Y-74930000D01*
X151017080Y-66152920D02*
X152400000Y-64770000D01*
X112263000Y-114803000D02*
X102616000Y-105156000D01*
X119570500Y-116776500D02*
X120543000Y-115804000D01*
X156210000Y-76353477D02*
X156210000Y-75530000D01*
X154415627Y-82728527D02*
X148590000Y-76902900D01*
X122892999Y-104056001D02*
X121793000Y-105156000D01*
X80518000Y-63870000D02*
X78018000Y-66370000D01*
X83566000Y-105156000D02*
X83566000Y-85979000D01*
X102616000Y-85979000D02*
X121793000Y-85979000D01*
X160020000Y-80010000D02*
X160020000Y-79802089D01*
X135001000Y-120650000D02*
X135001000Y-129286000D01*
X117983000Y-114803000D02*
X112263000Y-114803000D01*
X153670000Y-66040000D02*
X152400000Y-64770000D01*
X78018000Y-66370000D02*
X78018000Y-78370000D01*
X121793000Y-111020816D02*
X118010816Y-114803000D01*
X160020000Y-79481265D02*
X160521000Y-78980265D01*
X160020000Y-80010000D02*
X160020000Y-79481265D01*
X118010816Y-114803000D02*
X117983000Y-114803000D01*
X158319000Y-78462477D02*
X156210000Y-76353477D01*
X134098285Y-118350285D02*
X135128000Y-119380000D01*
X122892999Y-87078999D02*
X122892999Y-104056001D01*
X155540000Y-82728527D02*
X154415627Y-82728527D01*
X112141000Y-124206000D02*
X119570500Y-116776500D01*
X102616000Y-85979000D02*
X102616000Y-66929000D01*
X83566000Y-85979000D02*
X83566000Y-83918000D01*
X120543000Y-115804000D02*
X122408000Y-115804000D01*
X121793000Y-85979000D02*
X122892999Y-87078999D01*
X121793000Y-105156000D02*
X121793000Y-111020816D01*
X121793000Y-83693000D02*
X121539000Y-83439000D01*
X83566000Y-83918000D02*
X78018000Y-78370000D01*
X135128000Y-119380000D02*
X135128000Y-120523000D01*
X121793000Y-85979000D02*
X121793000Y-83693000D01*
X135128000Y-120523000D02*
X135001000Y-120650000D01*
%TO.N,3V3*%
X137287000Y-131826000D02*
X153543000Y-115570000D01*
X135001000Y-131826000D02*
X137287000Y-131826000D01*
X153235000Y-67310000D02*
X153670000Y-67310000D01*
%TO.N,WS2812B*%
X132510000Y-65610000D02*
X132510000Y-67740000D01*
X133350000Y-64770000D02*
X132510000Y-65610000D01*
X132510000Y-67740000D02*
X133350000Y-68580000D01*
%TO.N,SWitch 1*%
X129915943Y-121417057D02*
X129921000Y-121412000D01*
X128871000Y-121417057D02*
X122856943Y-115403000D01*
X122856943Y-115403000D02*
X98084000Y-115403000D01*
X98084000Y-115403000D02*
X86741000Y-126746000D01*
X128871000Y-121417057D02*
X129915943Y-121417057D01*
%TO.N,SWitch 2*%
X96266000Y-69469000D02*
X100207000Y-65528000D01*
X161522000Y-69794950D02*
X160476050Y-68749000D01*
X157480000Y-74930000D02*
X152400000Y-74930000D01*
X160476050Y-68749000D02*
X159194626Y-68749000D01*
X154652143Y-93712000D02*
X161522000Y-86842143D01*
X136720473Y-78732000D02*
X135579000Y-79873473D01*
X100207000Y-65528000D02*
X113534000Y-65528000D01*
X140935000Y-93712000D02*
X154652143Y-93712000D01*
X161522000Y-86842143D02*
X161522000Y-69794950D01*
X159194626Y-68749000D02*
X157480000Y-70463626D01*
X133350000Y-78740000D02*
X133350000Y-86127000D01*
X135579000Y-79873473D02*
X135579000Y-88356000D01*
X133350000Y-86127000D02*
X140935000Y-93712000D01*
X135579000Y-88356000D02*
X140935000Y-93712000D01*
X157480000Y-70463626D02*
X157480000Y-74930000D01*
X113534000Y-65528000D02*
X126746000Y-78740000D01*
%TO.N,SWitch 3*%
X121539000Y-116967000D02*
X121539000Y-116205000D01*
X123063000Y-117729000D02*
X123063000Y-118491000D01*
X158750000Y-87630000D02*
X140970000Y-69850000D01*
X121539000Y-116205000D02*
X123063000Y-117729000D01*
X105791000Y-126746000D02*
X111760000Y-126746000D01*
X111760000Y-126746000D02*
X121539000Y-116967000D01*
X140970000Y-69850000D02*
X136325000Y-69850000D01*
%TO.N,SWitch 4*%
X110363000Y-61087000D02*
X106807000Y-64643000D01*
X106807000Y-64643000D02*
X105156000Y-64643000D01*
%TO.N,SWitch 5*%
X153670000Y-83820000D02*
X148590000Y-83820000D01*
X115239686Y-86741000D02*
X119634000Y-86741000D01*
X96266000Y-88519000D02*
X113461686Y-88519000D01*
X154940000Y-85090000D02*
X153670000Y-83820000D01*
X113461686Y-88519000D02*
X115239686Y-86741000D01*
X148590000Y-83820000D02*
X146050000Y-83820000D01*
%TO.N,SWitch 6*%
X132769272Y-60828000D02*
X130663000Y-62934272D01*
X149191000Y-76408000D02*
X149191000Y-60711057D01*
X134747000Y-60452000D02*
X134371000Y-60828000D01*
X115443000Y-88519000D02*
X122292999Y-88519000D01*
X127381000Y-67818000D02*
X130663000Y-64536000D01*
X149191000Y-60711057D02*
X148931943Y-60452000D01*
X154063000Y-81280000D02*
X149191000Y-76408000D01*
X127381000Y-87249000D02*
X127381000Y-67818000D01*
X148931943Y-60452000D02*
X134747000Y-60452000D01*
X134371000Y-60828000D02*
X132769272Y-60828000D01*
X130663000Y-62934272D02*
X130663000Y-64536000D01*
%TO.N,SWitch 8*%
X159351000Y-87878943D02*
X159351000Y-80898050D01*
X159351000Y-80898050D02*
X158919000Y-80466050D01*
X158919000Y-70951000D02*
X160020000Y-69850000D01*
X148590000Y-92710000D02*
X146719000Y-90839000D01*
X148590000Y-92710000D02*
X154519943Y-92710000D01*
X146719000Y-90839000D02*
X144111000Y-90839000D01*
X144111000Y-90839000D02*
X142240000Y-92710000D01*
X158919000Y-80466050D02*
X158919000Y-70951000D01*
X154519943Y-92710000D02*
X159351000Y-87878943D01*
%TO.N,SWitch 9*%
X146651000Y-93311000D02*
X154486043Y-93311000D01*
X161121000Y-86676043D02*
X161121000Y-73491000D01*
X144780000Y-91440000D02*
X146651000Y-93311000D01*
X96266000Y-107696000D02*
X102235000Y-101727000D01*
X154486043Y-93311000D02*
X161121000Y-86676043D01*
X102235000Y-101727000D02*
X121408000Y-101727000D01*
X161121000Y-73491000D02*
X160020000Y-72390000D01*
%TO.N,Col2*%
X144780000Y-77470000D02*
X140970000Y-73660000D01*
X146050000Y-77470000D02*
X144780000Y-77470000D01*
%TO.N,S2*%
X128270000Y-69850000D02*
X128143000Y-69977000D01*
X127629943Y-87850000D02*
X128143000Y-87336943D01*
X122388000Y-83105943D02*
X127132057Y-87850000D01*
X122388000Y-78370000D02*
X122388000Y-83105943D01*
X127132057Y-87850000D02*
X127629943Y-87850000D01*
X128143000Y-69977000D02*
X128143000Y-80645000D01*
X128143000Y-87336943D02*
X128143000Y-80645000D01*
%TO.N,B*%
X154752000Y-71367000D02*
X153235000Y-69850000D01*
X157118630Y-66209000D02*
X153477630Y-69850000D01*
X161923000Y-87008243D02*
X161923000Y-67655950D01*
X152654000Y-73660000D02*
X154283626Y-73660000D01*
X132749000Y-78071000D02*
X133223000Y-77597000D01*
X160476050Y-66209000D02*
X157118630Y-66209000D01*
X132749000Y-78071000D02*
X132749000Y-86093100D01*
X132749000Y-86093100D02*
X140768900Y-94113000D01*
X140768900Y-94113000D02*
X154818243Y-94113000D01*
X154283626Y-73660000D02*
X154752000Y-73191626D01*
X161923000Y-67655950D02*
X160476050Y-66209000D01*
X149791000Y-72767552D02*
X149791000Y-75862265D01*
X154752000Y-73191626D02*
X154752000Y-71367000D01*
X154818243Y-94113000D02*
X161923000Y-87008243D01*
X153477630Y-69850000D02*
X152400000Y-69850000D01*
%TO.N,A*%
X131191000Y-77216000D02*
X131191000Y-80010000D01*
X134239000Y-79502000D02*
X134239000Y-77470000D01*
X122388000Y-63870000D02*
X122388000Y-73493000D01*
X122388000Y-73493000D02*
X126746000Y-77851000D01*
X130302000Y-76327000D02*
X131191000Y-77216000D01*
%TO.N,S1*%
X137160000Y-62230000D02*
X136159000Y-61229000D01*
X129032000Y-69948000D02*
X129032000Y-75819000D01*
X136159000Y-61229000D02*
X132935372Y-61229000D01*
X131064000Y-67916000D02*
X129170000Y-69810000D01*
X129170000Y-69810000D02*
X129032000Y-69948000D01*
X132935372Y-61229000D02*
X131064000Y-63100372D01*
X131064000Y-63100372D02*
X131064000Y-67916000D01*
%TO.N,Net-(U2-VDD)*%
X151130000Y-101600000D02*
X171450000Y-81280000D01*
X171450000Y-81280000D02*
X171450000Y-66040000D01*
X145490000Y-99060000D02*
X148590000Y-99060000D01*
X142240000Y-102310000D02*
X145490000Y-99060000D01*
X171450000Y-66040000D02*
X167640000Y-62230000D01*
%TO.N,Net-(C2-Pad1)*%
X139740000Y-108610000D02*
X139740000Y-105460000D01*
%TO.N,Net-(C4-Pad2)*%
X132274715Y-74735285D02*
X131947000Y-75063000D01*
X134208162Y-66923162D02*
X134208162Y-74260000D01*
X134351000Y-63231000D02*
X134351000Y-66780324D01*
X133350000Y-62230000D02*
X134351000Y-63231000D01*
X131947000Y-107817000D02*
X135890000Y-111760000D01*
X131947000Y-75063000D02*
X131947000Y-107817000D01*
X142240000Y-114300000D02*
X142240000Y-111760000D01*
X134351000Y-66780324D02*
X134208162Y-66923162D01*
%TO.N,Net-(U1-GPIO6{slash}SDA)*%
X146050000Y-102235000D02*
X146264943Y-102235000D01*
X142240000Y-76200000D02*
X140101000Y-74061000D01*
X140101000Y-74061000D02*
X140101000Y-72751000D01*
X149191000Y-99308943D02*
X149191000Y-95060000D01*
X146264943Y-102235000D02*
X149191000Y-99308943D01*
X140101000Y-72751000D02*
X140716000Y-72136000D01*
X149191000Y-95060000D02*
X148844000Y-94713000D01*
%TO.N,Net-(U1-GPIO7{slash}SCL)*%
X137766410Y-76394000D02*
X139700000Y-74460410D01*
X132348000Y-101868000D02*
X132348000Y-77622057D01*
X133576057Y-76394000D02*
X137766410Y-76394000D01*
X134808000Y-71588374D02*
X134808000Y-73655630D01*
X136082370Y-74930000D02*
X137160000Y-74930000D01*
X144999000Y-104359000D02*
X146050000Y-105410000D01*
X134808000Y-73655630D02*
X136082370Y-74930000D01*
X132348000Y-77622057D02*
X133576057Y-76394000D01*
X139700000Y-73285270D02*
X137741730Y-71327000D01*
X135069374Y-71327000D02*
X134808000Y-71588374D01*
X134839000Y-104359000D02*
X144999000Y-104359000D01*
X137741730Y-71327000D02*
X135069374Y-71327000D01*
X139700000Y-74460410D02*
X139700000Y-73285270D01*
X132348000Y-101868000D02*
X134839000Y-104359000D01*
%TO.N,Net-(U2-SCL)*%
X155408500Y-94514000D02*
X166539000Y-83383500D01*
X154575000Y-94514000D02*
X155408500Y-94514000D01*
X166539000Y-68411000D02*
X166539000Y-83383500D01*
X147589000Y-107046000D02*
X147589000Y-101500000D01*
X147589000Y-101500000D02*
X154575000Y-94514000D01*
X146050000Y-108585000D02*
X147589000Y-107046000D01*
X167640000Y-67310000D02*
X166539000Y-68411000D01*
%TO.N,Net-(U2-SDA)*%
X150529000Y-103606900D02*
X152716843Y-103606900D01*
X159351000Y-110241057D02*
X159351000Y-110738943D01*
X168910000Y-82676030D02*
X150529000Y-101057030D01*
X168910000Y-66040000D02*
X168910000Y-82676030D01*
X167640000Y-64770000D02*
X168910000Y-66040000D01*
X157328943Y-112761000D02*
X147051000Y-112761000D01*
X152716843Y-103606900D02*
X159351000Y-110241057D01*
X159351000Y-110738943D02*
X157328943Y-112761000D01*
X150529000Y-101057030D02*
X150529000Y-103606900D01*
X147051000Y-112761000D02*
X146050000Y-111760000D01*
%TD*%
M02*
