M48
; DRILL file {KiCad 9.0.6} date 2026-02-03T18:21:10-0500
; FORMAT={-:-/ absolute / metric / decimal}
; #@! TF.CreationDate,2026-02-03T18:21:10-05:00
; #@! TF.GenerationSoftware,Kicad,Pcbnew,9.0.6
; #@! TF.FileFunction,Plated,1,2,PTH
FMAT,2
METRIC
; #@! TA.AperFunction,Plated,PTH,ViaDrill
T1C0.300
; #@! TA.AperFunction,Plated,PTH,ComponentDrill
T2C0.700
; #@! TA.AperFunction,Plated,PTH,ComponentDrill
T3C0.800
; #@! TA.AperFunction,Plated,PTH,ComponentDrill
T4C0.889
; #@! TA.AperFunction,Plated,PTH,ComponentDrill
T5C1.000
; #@! TA.AperFunction,Plated,PTH,ComponentDrill
T6C1.020
; #@! TA.AperFunction,Plated,PTH,ComponentDrill
T7C1.500
%
G90
G05
T1
X105.156Y-64.643
X110.363Y-61.087
X117.983Y-114.803
X119.57Y-116.776
X119.634Y-86.741
X121.408Y-101.727
X121.539Y-83.439
X122.293Y-88.519
X123.063Y-118.491
X126.619Y-120.015
X126.746Y-77.851
X126.746Y-78.74
X127.381Y-87.249
X128.27Y-69.85
X129.032Y-75.819
X129.921Y-121.412
X130.302Y-76.327
X131.191Y-80.01
X132.275Y-74.735
X133.223Y-77.597
X133.35Y-68.58
X133.35Y-78.74
X134.098Y-118.35
X134.208Y-74.26
X134.239Y-77.47
X134.239Y-79.502
X134.62Y-83.82
X134.62Y-86.36
X135.89Y-111.76
X136.72Y-78.732
X137.16Y-83.82
X138.43Y-87.756
X138.43Y-88.956
X140.716Y-72.136
X140.97Y-73.66
X142.24Y-76.2
X142.24Y-92.71
X142.24Y-114.3
X144.78Y-91.44
X146.05Y-77.47
X146.05Y-83.82
X148.59Y-74.93
X148.59Y-99.06
X148.844Y-94.713
X149.791Y-72.768
X149.791Y-75.862
X151.017Y-66.153
X151.13Y-101.6
X152.654Y-73.66
X153.543Y-115.57
X153.67Y-66.04
X154.063Y-81.28
X154.063Y-85.062
X154.94Y-85.09
X154.94Y-86.36
X154.96Y-69.216
X155.54Y-82.729
X156.093Y-68.463
X156.21Y-75.53
X157.056Y-86.784
X157.48Y-85.09
X158.319Y-78.462
X158.75Y-87.63
X158.75Y-110.49
X159.519Y-79.301
X160.521Y-78.98
T2
X133.35Y-62.23
X133.35Y-64.77
X146.05Y-102.235
X146.05Y-105.41
X146.05Y-108.585
X146.05Y-111.76
X148.59Y-102.235
X148.59Y-105.41
X148.59Y-108.585
X148.59Y-111.76
T3
X139.74Y-102.31
X139.74Y-105.46
X139.74Y-108.61
X139.74Y-111.76
X142.24Y-102.31
X142.24Y-105.46
X142.24Y-108.61
X142.24Y-111.76
X160.02Y-62.23
X160.02Y-64.77
X160.02Y-67.31
X160.02Y-69.85
X160.02Y-72.39
X160.02Y-74.93
X160.02Y-77.47
X160.02Y-80.01
X167.64Y-62.23
X167.64Y-64.77
X167.64Y-67.31
X167.64Y-69.85
X167.64Y-72.39
X167.64Y-74.93
X167.64Y-77.47
X167.64Y-80.01
T4
X137.16Y-62.23
X137.16Y-64.77
X137.16Y-67.31
X137.16Y-69.85
X137.16Y-72.39
X137.16Y-74.93
X137.16Y-77.47
X152.4Y-62.23
X152.4Y-64.77
X152.4Y-67.31
X152.4Y-69.85
X152.4Y-72.39
X152.4Y-74.93
X152.4Y-77.47
T5
X78.018Y-63.87
X78.018Y-78.37
X80.518Y-63.87
X83.018Y-63.87
X83.018Y-78.37
X117.388Y-63.87
X117.388Y-78.37
X119.888Y-63.87
X122.388Y-63.87
X122.388Y-78.37
T6
X135.001Y-129.286
X135.001Y-131.826
X135.001Y-134.366
X135.001Y-136.906
T7
X77.216Y-88.519
X77.216Y-107.696
X83.566Y-85.979
X83.566Y-105.156
X86.741Y-126.746
X93.091Y-124.206
X96.266Y-69.469
X96.266Y-88.519
X96.266Y-107.696
X102.616Y-66.929
X102.616Y-85.979
X102.616Y-105.156
X105.791Y-126.746
X112.141Y-124.206
X115.443Y-88.519
X115.443Y-107.696
X121.793Y-85.979
X121.793Y-105.156
T7
G00X74.918Y-70.72
M15
G01X74.918Y-72.02
M16
G05
G00X86.118Y-70.72
M15
G01X86.118Y-72.02
M16
G05
G00X114.288Y-70.72
M15
G01X114.288Y-72.02
M16
G05
G00X125.488Y-70.72
M15
G01X125.488Y-72.02
M16
G05
M30
