M48
; DRILL file {KiCad 9.0.6} date 2026-02-03T18:21:10-0500
; FORMAT={-:-/ absolute / metric / decimal}
; #@! TF.CreationDate,2026-02-03T18:21:10-05:00
; #@! TF.GenerationSoftware,Kicad,Pcbnew,9.0.6
; #@! TF.FileFunction,NonPlated,1,2,NPTH
FMAT,2
METRIC
; #@! TA.AperFunction,NonPlated,NPTH,ComponentDrill
T1C1.100
; #@! TA.AperFunction,NonPlated,NPTH,ComponentDrill
T2C1.700
; #@! TA.AperFunction,NonPlated,NPTH,ComponentDrill
T3C4.000
%
G90
G05
T1
X132.841Y-131.826
T2
X75.946Y-91.059
X75.946Y-110.236
X85.471Y-129.286
X86.106Y-91.059
X86.106Y-110.236
X94.996Y-72.009
X94.996Y-91.059
X94.996Y-110.236
X95.631Y-129.286
X104.521Y-129.286
X105.156Y-72.009
X105.156Y-91.059
X105.156Y-110.236
X114.173Y-91.059
X114.173Y-110.236
X114.681Y-129.286
X124.333Y-91.059
X124.333Y-110.236
T3
X81.026Y-91.059
X81.026Y-110.236
X90.551Y-129.286
X100.076Y-72.009
X100.076Y-91.059
X100.076Y-110.236
X109.601Y-129.286
X119.253Y-91.059
X119.253Y-110.236
M30
