%TF.GenerationSoftware,KiCad,Pcbnew,9.0.6*%
%TF.CreationDate,2026-02-03T18:20:43-05:00*%
%TF.ProjectId,hackpad,6861636b-7061-4642-9e6b-696361645f70,rev?*%
%TF.SameCoordinates,Original*%
%TF.FileFunction,Soldermask,Bot*%
%TF.FilePolarity,Negative*%
%FSLAX46Y46*%
G04 Gerber Fmt 4.6, Leading zero omitted, Abs format (unit mm)*
G04 Created by KiCad (PCBNEW 9.0.6) date 2026-02-03 18:20:43*
%MOMM*%
%LPD*%
G01*
G04 APERTURE LIST*
G04 Aperture macros list*
%AMRoundRect*
0 Rectangle with rounded corners*
0 $1 Rounding radius*
0 $2 $3 $4 $5 $6 $7 $8 $9 X,Y pos of 4 corners*
0 Add a 4 corners polygon primitive as box body*
4,1,4,$2,$3,$4,$5,$6,$7,$8,$9,$2,$3,0*
0 Add four circle primitives for the rounded corners*
1,1,$1+$1,$2,$3*
1,1,$1+$1,$4,$5*
1,1,$1+$1,$6,$7*
1,1,$1+$1,$8,$9*
0 Add four rect primitives between the rounded corners*
20,1,$1+$1,$2,$3,$4,$5,0*
20,1,$1+$1,$4,$5,$6,$7,0*
20,1,$1+$1,$6,$7,$8,$9,0*
20,1,$1+$1,$8,$9,$2,$3,0*%
G04 Aperture macros list end*
%ADD10C,1.700000*%
%ADD11C,4.000000*%
%ADD12C,2.200000*%
%ADD13C,1.400000*%
%ADD14C,1.600000*%
%ADD15C,1.524000*%
%ADD16C,1.100000*%
%ADD17R,2.030000X1.730000*%
%ADD18O,2.030000X1.730000*%
%ADD19R,2.000000X2.000000*%
%ADD20C,2.000000*%
%ADD21R,2.000000X3.200000*%
%ADD22RoundRect,0.250000X-0.550000X-0.550000X0.550000X-0.550000X0.550000X0.550000X-0.550000X0.550000X0*%
G04 APERTURE END LIST*
D10*
%TO.C,SW9*%
X94996000Y-110236000D03*
D11*
X100076000Y-110236000D03*
D10*
X105156000Y-110236000D03*
D12*
X102616000Y-105156000D03*
X96266000Y-107696000D03*
%TD*%
D13*
%TO.C,R1*%
X133350000Y-64770000D03*
X133350000Y-62230000D03*
%TD*%
D10*
%TO.C,SW4*%
X75946000Y-91059000D03*
D11*
X81026000Y-91059000D03*
D10*
X86106000Y-91059000D03*
D12*
X83566000Y-85979000D03*
X77216000Y-88519000D03*
%TD*%
D10*
%TO.C,SW1*%
X85471000Y-129286000D03*
D11*
X90551000Y-129286000D03*
D10*
X95631000Y-129286000D03*
D12*
X93091000Y-124206000D03*
X86741000Y-126746000D03*
%TD*%
D10*
%TO.C,SW8*%
X114173000Y-110236000D03*
D11*
X119253000Y-110236000D03*
D10*
X124333000Y-110236000D03*
D12*
X121793000Y-105156000D03*
X115443000Y-107696000D03*
%TD*%
D14*
%TO.C,C1*%
X139740000Y-102310000D03*
X142240000Y-102310000D03*
%TD*%
D10*
%TO.C,SW3*%
X104521000Y-129286000D03*
D11*
X109601000Y-129286000D03*
D10*
X114681000Y-129286000D03*
D12*
X112141000Y-124206000D03*
X105791000Y-126746000D03*
%TD*%
D15*
%TO.C,U1*%
X137160000Y-62230000D03*
X137160000Y-64770000D03*
X137160000Y-67310000D03*
X137160000Y-69850000D03*
X137160000Y-72390000D03*
X137160000Y-74930000D03*
X137160000Y-77470000D03*
X152400000Y-77470000D03*
X152400000Y-74930000D03*
X152400000Y-72390000D03*
X152400000Y-69850000D03*
X152400000Y-67310000D03*
X152400000Y-64770000D03*
X152400000Y-62230000D03*
%TD*%
D16*
%TO.C,J1*%
X132841000Y-131826000D03*
D17*
X135001000Y-136906000D03*
D18*
X135001000Y-134366000D03*
X135001000Y-131826000D03*
X135001000Y-129286000D03*
%TD*%
D13*
%TO.C,R4*%
X146050000Y-108585000D03*
X148590000Y-108585000D03*
%TD*%
D14*
%TO.C,C4*%
X139740000Y-111760000D03*
X142240000Y-111760000D03*
%TD*%
D10*
%TO.C,SW6*%
X114173000Y-91059000D03*
D11*
X119253000Y-91059000D03*
D10*
X124333000Y-91059000D03*
D12*
X121793000Y-85979000D03*
X115443000Y-88519000D03*
%TD*%
D10*
%TO.C,SW7*%
X75946000Y-110236000D03*
D11*
X81026000Y-110236000D03*
D10*
X86106000Y-110236000D03*
D12*
X83566000Y-105156000D03*
X77216000Y-107696000D03*
%TD*%
D13*
%TO.C,R2*%
X146050000Y-102235000D03*
X148590000Y-102235000D03*
%TD*%
D10*
%TO.C,SW2*%
X94996000Y-72009000D03*
D11*
X100076000Y-72009000D03*
D10*
X105156000Y-72009000D03*
D12*
X102616000Y-66929000D03*
X96266000Y-69469000D03*
%TD*%
D19*
%TO.C,SW10*%
X83018000Y-63870000D03*
D20*
X78018000Y-63870000D03*
X80518000Y-63870000D03*
D21*
X86118000Y-71370000D03*
X74918000Y-71370000D03*
D20*
X78018000Y-78370000D03*
X83018000Y-78370000D03*
%TD*%
D14*
%TO.C,C2*%
X139740000Y-105460000D03*
X142240000Y-105460000D03*
%TD*%
D13*
%TO.C,R3*%
X146050000Y-105410000D03*
X148590000Y-105410000D03*
%TD*%
D10*
%TO.C,SW5*%
X94996000Y-91059000D03*
D11*
X100076000Y-91059000D03*
D10*
X105156000Y-91059000D03*
D12*
X102616000Y-85979000D03*
X96266000Y-88519000D03*
%TD*%
D14*
%TO.C,C3*%
X139740000Y-108610000D03*
X142240000Y-108610000D03*
%TD*%
D13*
%TO.C,R5*%
X146050000Y-111760000D03*
X148590000Y-111760000D03*
%TD*%
D19*
%TO.C,SW11*%
X122388000Y-63870000D03*
D20*
X117388000Y-63870000D03*
X119888000Y-63870000D03*
D21*
X125488000Y-71370000D03*
X114288000Y-71370000D03*
D20*
X117388000Y-78370000D03*
X122388000Y-78370000D03*
%TD*%
D22*
%TO.C,U2*%
X160020000Y-62230000D03*
D14*
X160020000Y-64770000D03*
X160020000Y-67310000D03*
X160020000Y-69850000D03*
X160020000Y-72390000D03*
X160020000Y-74930000D03*
X160020000Y-77470000D03*
X160020000Y-80010000D03*
X167640000Y-80010000D03*
X167640000Y-77470000D03*
X167640000Y-74930000D03*
X167640000Y-72390000D03*
X167640000Y-69850000D03*
X167640000Y-67310000D03*
X167640000Y-64770000D03*
X167640000Y-62230000D03*
%TD*%
M02*
