%TF.GenerationSoftware,KiCad,Pcbnew,9.0.6*%
%TF.CreationDate,2026-04-12T15:10:51-04:00*%
%TF.ProjectId,hackpad,6861636b-7061-4642-9e6b-696361645f70,rev?*%
%TF.SameCoordinates,Original*%
%TF.FileFunction,Paste,Top*%
%TF.FilePolarity,Positive*%
%FSLAX46Y46*%
G04 Gerber Fmt 4.6, Leading zero omitted, Abs format (unit mm)*
G04 Created by KiCad (PCBNEW 9.0.6) date 2026-04-12 15:10:51*
%MOMM*%
%LPD*%
G01*
G04 APERTURE LIST*
G04 Aperture macros list*
%AMRoundRect*
0 Rectangle with rounded corners*
0 $1 Rounding radius*
0 $2 $3 $4 $5 $6 $7 $8 $9 X,Y pos of 4 corners*
0 Add a 4 corners polygon primitive as box body*
4,1,4,$2,$3,$4,$5,$6,$7,$8,$9,$2,$3,0*
0 Add four circle primitives for the rounded corners*
1,1,$1+$1,$2,$3*
1,1,$1+$1,$4,$5*
1,1,$1+$1,$6,$7*
1,1,$1+$1,$8,$9*
0 Add four rect primitives between the rounded corners*
20,1,$1+$1,$2,$3,$4,$5,0*
20,1,$1+$1,$4,$5,$6,$7,0*
20,1,$1+$1,$6,$7,$8,$9,0*
20,1,$1+$1,$8,$9,$2,$3,0*%
G04 Aperture macros list end*
%ADD10R,1.600000X0.850000*%
%ADD11RoundRect,0.150000X-0.150000X0.875000X-0.150000X-0.875000X0.150000X-0.875000X0.150000X0.875000X0*%
G04 APERTURE END LIST*
D10*
%TO.C,D11*%
X137061000Y-81421000D03*
X137061000Y-83171000D03*
X140561000Y-83171000D03*
X140561000Y-81421000D03*
%TD*%
%TO.C,D17*%
X117630000Y-94629000D03*
X117630000Y-96379000D03*
X121130000Y-96379000D03*
X121130000Y-94629000D03*
%TD*%
%TO.C,D16*%
X89182000Y-132475000D03*
X89182000Y-134225000D03*
X92682000Y-134225000D03*
X92682000Y-132475000D03*
%TD*%
%TO.C,D15*%
X79558000Y-94375000D03*
X79558000Y-96125000D03*
X83058000Y-96125000D03*
X83058000Y-94375000D03*
%TD*%
%TO.C,D14*%
X79530000Y-113425000D03*
X79530000Y-115175000D03*
X83030000Y-115175000D03*
X83030000Y-113425000D03*
%TD*%
%TO.C,D13*%
X98580000Y-113538000D03*
X98580000Y-115288000D03*
X102080000Y-115288000D03*
X102080000Y-113538000D03*
%TD*%
%TO.C,D12*%
X108105000Y-132475000D03*
X108105000Y-134225000D03*
X111605000Y-134225000D03*
X111605000Y-132475000D03*
%TD*%
%TO.C,D10*%
X117630000Y-113552000D03*
X117630000Y-115302000D03*
X121130000Y-115302000D03*
X121130000Y-113552000D03*
%TD*%
D11*
%TO.C,U2*%
X147320000Y-99265000D03*
X146050000Y-99265000D03*
X144780000Y-99265000D03*
X143510000Y-99265000D03*
X142240000Y-99265000D03*
X140970000Y-99265000D03*
X139700000Y-99265000D03*
X138430000Y-99265000D03*
X137160000Y-99265000D03*
X135890000Y-99265000D03*
X134620000Y-99265000D03*
X133350000Y-99265000D03*
X132080000Y-99265000D03*
X130810000Y-99265000D03*
X130810000Y-89965000D03*
X132080000Y-89965000D03*
X133350000Y-89965000D03*
X134620000Y-89965000D03*
X135890000Y-89965000D03*
X137160000Y-89965000D03*
X138430000Y-89965000D03*
X139700000Y-89965000D03*
X140970000Y-89965000D03*
X142240000Y-89965000D03*
X143510000Y-89965000D03*
X144780000Y-89965000D03*
X146050000Y-89965000D03*
X147320000Y-89965000D03*
%TD*%
D10*
%TO.C,D11*%
X98834000Y-75325000D03*
X98834000Y-77075000D03*
X102334000Y-77075000D03*
X102334000Y-75325000D03*
%TD*%
%TO.C,D10*%
X98580000Y-94375000D03*
X98580000Y-96125000D03*
X102080000Y-96125000D03*
X102080000Y-94375000D03*
%TD*%
M02*
