%TF.GenerationSoftware,KiCad,Pcbnew,9.0.6*%
%TF.CreationDate,2026-04-12T11:59:25-04:00*%
%TF.ProjectId,hackpad,6861636b-7061-4642-9e6b-696361645f70,rev?*%
%TF.SameCoordinates,Original*%
%TF.FileFunction,Copper,L1,Top*%
%TF.FilePolarity,Positive*%
%FSLAX46Y46*%
G04 Gerber Fmt 4.6, Leading zero omitted, Abs format (unit mm)*
G04 Created by KiCad (PCBNEW 9.0.6) date 2026-04-12 11:59:25*
%MOMM*%
%LPD*%
G01*
G04 APERTURE LIST*
G04 Aperture macros list*
%AMRoundRect*
0 Rectangle with rounded corners*
0 $1 Rounding radius*
0 $2 $3 $4 $5 $6 $7 $8 $9 X,Y pos of 4 corners*
0 Add a 4 corners polygon primitive as box body*
4,1,4,$2,$3,$4,$5,$6,$7,$8,$9,$2,$3,0*
0 Add four circle primitives for the rounded corners*
1,1,$1+$1,$2,$3*
1,1,$1+$1,$4,$5*
1,1,$1+$1,$6,$7*
1,1,$1+$1,$8,$9*
0 Add four rect primitives between the rounded corners*
20,1,$1+$1,$2,$3,$4,$5,0*
20,1,$1+$1,$4,$5,$6,$7,0*
20,1,$1+$1,$6,$7,$8,$9,0*
20,1,$1+$1,$8,$9,$2,$3,0*%
G04 Aperture macros list end*
%TA.AperFunction,ComponentPad*%
%ADD10RoundRect,0.250001X-0.949999X-0.949999X0.949999X-0.949999X0.949999X0.949999X-0.949999X0.949999X0*%
%TD*%
%TA.AperFunction,ComponentPad*%
%ADD11C,2.400000*%
%TD*%
%TA.AperFunction,ComponentPad*%
%ADD12C,1.400000*%
%TD*%
%TA.AperFunction,ComponentPad*%
%ADD13C,2.200000*%
%TD*%
%TA.AperFunction,ComponentPad*%
%ADD14R,2.000000X2.000000*%
%TD*%
%TA.AperFunction,ComponentPad*%
%ADD15C,2.000000*%
%TD*%
%TA.AperFunction,ComponentPad*%
%ADD16R,2.000000X3.200000*%
%TD*%
%TA.AperFunction,ComponentPad*%
%ADD17C,1.600000*%
%TD*%
%TA.AperFunction,SMDPad,CuDef*%
%ADD18R,1.600000X0.850000*%
%TD*%
%TA.AperFunction,ComponentPad*%
%ADD19RoundRect,0.170000X0.680000X-0.680000X0.680000X0.680000X-0.680000X0.680000X-0.680000X-0.680000X0*%
%TD*%
%TA.AperFunction,ComponentPad*%
%ADD20C,1.700000*%
%TD*%
%TA.AperFunction,SMDPad,CuDef*%
%ADD21RoundRect,0.150000X-0.150000X0.875000X-0.150000X-0.875000X0.150000X-0.875000X0.150000X0.875000X0*%
%TD*%
%TA.AperFunction,SMDPad,CuDef*%
%ADD22RoundRect,0.152400X1.063600X0.609600X-1.063600X0.609600X-1.063600X-0.609600X1.063600X-0.609600X0*%
%TD*%
%TA.AperFunction,ComponentPad*%
%ADD23C,1.524000*%
%TD*%
%TA.AperFunction,SMDPad,CuDef*%
%ADD24RoundRect,0.152400X-1.063600X-0.609600X1.063600X-0.609600X1.063600X0.609600X-1.063600X0.609600X0*%
%TD*%
%TA.AperFunction,ViaPad*%
%ADD25C,0.600000*%
%TD*%
%TA.AperFunction,Conductor*%
%ADD26C,0.200000*%
%TD*%
G04 APERTURE END LIST*
D10*
%TO.P,D3,1,K*%
%TO.N,COL1*%
X151130000Y-72885000D03*
D11*
%TO.P,D3,2,A*%
%TO.N,Net-(D3-A)*%
X166370000Y-72885000D03*
%TD*%
D12*
%TO.P,R5,1*%
%TO.N,3V3*%
X158915000Y-117450000D03*
%TO.P,R5,2*%
%TO.N,Net-(U2-~{RESET})*%
X161455000Y-117450000D03*
%TD*%
D13*
%TO.P,SW9,1,1*%
%TO.N,ROW2*%
X112395000Y-123825000D03*
%TO.P,SW9,2,2*%
%TO.N,Net-(D9-A)*%
X106045000Y-126365000D03*
%TD*%
D10*
%TO.P,D6,1,K*%
%TO.N,COL2*%
X151130000Y-88335000D03*
D11*
%TO.P,D6,2,A*%
%TO.N,Net-(D6-A)*%
X166370000Y-88335000D03*
%TD*%
D14*
%TO.P,SW11,A,A*%
%TO.N,A*%
X122642000Y-63489000D03*
D15*
%TO.P,SW11,B,B*%
%TO.N,B*%
X117642000Y-63489000D03*
%TO.P,SW11,C,C*%
%TO.N,unconnected-(SW11-PadC)*%
X120142000Y-63489000D03*
D16*
%TO.P,SW11,MP*%
%TO.N,N/C*%
X125742000Y-70989000D03*
X114542000Y-70989000D03*
D15*
%TO.P,SW11,S1,S1*%
%TO.N,S1*%
X117642000Y-77989000D03*
%TO.P,SW11,S2,S2*%
%TO.N,S2*%
X122642000Y-77989000D03*
%TD*%
D13*
%TO.P,SW3,1,1*%
%TO.N,ROW2*%
X102870000Y-85725000D03*
%TO.P,SW3,2,2*%
%TO.N,Net-(D3-A)*%
X96520000Y-88265000D03*
%TD*%
D17*
%TO.P,C1,1*%
%TO.N,3V3*%
X164505000Y-108000000D03*
%TO.P,C1,2*%
%TO.N,Net-(U2-VDD)*%
X167005000Y-108000000D03*
%TD*%
D13*
%TO.P,SW8,1,1*%
%TO.N,ROW1*%
X93345000Y-123825000D03*
%TO.P,SW8,2,2*%
%TO.N,Net-(D8-A)*%
X86995000Y-126365000D03*
%TD*%
D18*
%TO.P,D1,1,DOUT*%
%TO.N,Net-(D1-DOUT)*%
X133505000Y-82945000D03*
%TO.P,D1,2,VSS*%
%TO.N,GND*%
X133505000Y-84695000D03*
%TO.P,D1,3,DIN*%
%TO.N,Net-(D1-DIN)*%
X137005000Y-84695000D03*
%TO.P,D1,4,VDD*%
%TO.N,+5V*%
X137005000Y-82945000D03*
%TD*%
D19*
%TO.P,J1,1,Pin_1*%
%TO.N,N/C*%
X127280000Y-133350000D03*
D20*
%TO.P,J1,2,Pin_2*%
X127280000Y-130810000D03*
%TO.P,J1,3,Pin_3*%
X127280000Y-128270000D03*
%TO.P,J1,4,Pin_4*%
X127280000Y-125730000D03*
%TD*%
D12*
%TO.P,R3,1*%
%TO.N,Net-(U1-GPIO7{slash}SCL)*%
X158915000Y-111150000D03*
%TO.P,R3,2*%
%TO.N,SCK*%
X161455000Y-111150000D03*
%TD*%
D17*
%TO.P,C4,1*%
%TO.N,Net-(C4-Pad1)*%
X164505000Y-117450000D03*
%TO.P,C4,2*%
%TO.N,Net-(C4-Pad2)*%
X167005000Y-117450000D03*
%TD*%
D13*
%TO.P,SW1,1,1*%
%TO.N,EC11SWA*%
X102870000Y-66675000D03*
%TO.P,SW1,2,2*%
%TO.N,Net-(D1-A)*%
X96520000Y-69215000D03*
%TD*%
D12*
%TO.P,R4,1*%
%TO.N,WS2812B*%
X158915000Y-114300000D03*
%TO.P,R4,2*%
%TO.N,Net-(U1-GPIO28{slash}ADC2{slash}A2)*%
X161455000Y-114300000D03*
%TD*%
D13*
%TO.P,SW7,1,1*%
%TO.N,EC11SWA*%
X121920000Y-104775000D03*
%TO.P,SW7,2,2*%
%TO.N,Net-(D7-A)*%
X115570000Y-107315000D03*
%TD*%
D10*
%TO.P,D1,1,K*%
%TO.N,COL1*%
X151130000Y-62585000D03*
D11*
%TO.P,D1,2,A*%
%TO.N,Net-(D1-A)*%
X166370000Y-62585000D03*
%TD*%
D21*
%TO.P,U2,1,GPB0*%
%TO.N,unconnected-(U2-GPB0-Pad1)*%
X147320000Y-89965000D03*
%TO.P,U2,2,GPB1*%
%TO.N,unconnected-(U2-GPB1-Pad2)*%
X146050000Y-89965000D03*
%TO.P,U2,3,GPB2*%
%TO.N,unconnected-(U2-GPB2-Pad3)*%
X144780000Y-89965000D03*
%TO.P,U2,4,GPB3*%
%TO.N,unconnected-(U2-GPB3-Pad4)*%
X143510000Y-89965000D03*
%TO.P,U2,5,GPB4*%
%TO.N,unconnected-(U2-GPB4-Pad5)*%
X142240000Y-89965000D03*
%TO.P,U2,6,GPB5*%
%TO.N,unconnected-(U2-GPB5-Pad6)*%
X140970000Y-89965000D03*
%TO.P,U2,7,GPB6*%
%TO.N,unconnected-(U2-GPB6-Pad7)*%
X139700000Y-89965000D03*
%TO.P,U2,8,GPB7*%
%TO.N,unconnected-(U2-GPB7-Pad8)*%
X138430000Y-89965000D03*
%TO.P,U2,9,VDD*%
%TO.N,Net-(U2-VDD)*%
X137160000Y-89965000D03*
%TO.P,U2,10,VSS*%
%TO.N,GND*%
X135890000Y-89965000D03*
%TO.P,U2,11,NC*%
%TO.N,unconnected-(U2-NC-Pad11)*%
X134620000Y-89965000D03*
%TO.P,U2,12,SCK*%
%TO.N,SCK*%
X133350000Y-89965000D03*
%TO.P,U2,13,SDA*%
%TO.N,SDA*%
X132080000Y-89965000D03*
%TO.P,U2,14,NC*%
%TO.N,unconnected-(U2-NC-Pad14)*%
X130810000Y-89965000D03*
%TO.P,U2,15,A0*%
%TO.N,GND*%
X130810000Y-99265000D03*
%TO.P,U2,16,A1*%
X132080000Y-99265000D03*
%TO.P,U2,17,A2*%
X133350000Y-99265000D03*
%TO.P,U2,18,~{RESET}*%
%TO.N,Net-(U2-~{RESET})*%
X134620000Y-99265000D03*
%TO.P,U2,19,INTB*%
%TO.N,unconnected-(U2-INTB-Pad19)*%
X135890000Y-99265000D03*
%TO.P,U2,20,INTA*%
%TO.N,unconnected-(U2-INTA-Pad20)*%
X137160000Y-99265000D03*
%TO.P,U2,21,GPA0*%
%TO.N,EC11SWA*%
X138430000Y-99265000D03*
%TO.P,U2,22,GPA1*%
%TO.N,ROW1*%
X139700000Y-99265000D03*
%TO.P,U2,23,GPA2*%
%TO.N,ROW2*%
X140970000Y-99265000D03*
%TO.P,U2,24,GPA3*%
%TO.N,COL1*%
X142240000Y-99265000D03*
%TO.P,U2,25,GPA4*%
%TO.N,COL2*%
X143510000Y-99265000D03*
%TO.P,U2,26,GPA5*%
%TO.N,COL3*%
X144780000Y-99265000D03*
%TO.P,U2,27,GPA6*%
%TO.N,unconnected-(U2-GPA6-Pad27)*%
X146050000Y-99265000D03*
%TO.P,U2,28,GPA7*%
%TO.N,unconnected-(U2-GPA7-Pad28)*%
X147320000Y-99265000D03*
%TD*%
D13*
%TO.P,SW5,1,1*%
%TO.N,ROW1*%
X83820000Y-104775000D03*
%TO.P,SW5,2,2*%
%TO.N,Net-(D5-A)*%
X77470000Y-107315000D03*
%TD*%
D12*
%TO.P,R2,1*%
%TO.N,Net-(U1-GPIO6{slash}SDA)*%
X158915000Y-108000000D03*
%TO.P,R2,2*%
%TO.N,SDA*%
X161455000Y-108000000D03*
%TD*%
D13*
%TO.P,SW2,1,1*%
%TO.N,ROW1*%
X83820000Y-85725000D03*
%TO.P,SW2,2,2*%
%TO.N,Net-(D2-A)*%
X77470000Y-88265000D03*
%TD*%
D22*
%TO.P,U1,1,GPIO26/ADC0/A0*%
%TO.N,S1*%
X129975000Y-62025000D03*
D23*
X130810000Y-62025000D03*
D22*
%TO.P,U1,2,GPIO27/ADC1/A1*%
%TO.N,S2*%
X129975000Y-64565000D03*
D23*
X130810000Y-64565000D03*
D22*
%TO.P,U1,3,GPIO28/ADC2/A2*%
%TO.N,Net-(U1-GPIO28{slash}ADC2{slash}A2)*%
X129975000Y-67105000D03*
D23*
X130810000Y-67105000D03*
D22*
%TO.P,U1,4,GPIO29/ADC3/A3*%
%TO.N,unconnected-(U1-GPIO29{slash}ADC3{slash}A3-Pad4)*%
X129975000Y-69645000D03*
D23*
X130810000Y-69645000D03*
D22*
%TO.P,U1,5,GPIO6/SDA*%
%TO.N,Net-(U1-GPIO6{slash}SDA)*%
X129975000Y-72185000D03*
D23*
X130810000Y-72185000D03*
D22*
%TO.P,U1,6,GPIO7/SCL*%
%TO.N,Net-(U1-GPIO7{slash}SCL)*%
X129975000Y-74725000D03*
D23*
X130810000Y-74725000D03*
D22*
%TO.P,U1,7,GPIO0/TX*%
%TO.N,A*%
X129975000Y-77265000D03*
D23*
X130810000Y-77265000D03*
%TO.P,U1,8,GPIO1/RX*%
%TO.N,unconnected-(U1-GPIO1{slash}RX-Pad8)*%
X146050000Y-77265000D03*
D24*
X146885000Y-77265000D03*
D23*
%TO.P,U1,9,GPIO2/SCK*%
%TO.N,unconnected-(U1-GPIO2{slash}SCK-Pad9)*%
X146050000Y-74725000D03*
D24*
X146885000Y-74725000D03*
D23*
%TO.P,U1,10,GPIO4/MISO*%
%TO.N,Col2*%
X146050000Y-72185000D03*
D24*
X146885000Y-72185000D03*
D23*
%TO.P,U1,11,GPIO3/MOSI*%
%TO.N,B*%
X146050000Y-69645000D03*
D24*
X146885000Y-69645000D03*
D23*
%TO.P,U1,12,3V3*%
%TO.N,3V3*%
X146050000Y-67105000D03*
D24*
X146885000Y-67105000D03*
D23*
%TO.P,U1,13,GND*%
%TO.N,GND*%
X146050000Y-64565000D03*
D24*
X146885000Y-64565000D03*
D23*
%TO.P,U1,14,VBUS*%
%TO.N,+5V*%
X146050000Y-62025000D03*
D24*
X146885000Y-62025000D03*
%TD*%
D10*
%TO.P,D2,1,K*%
%TO.N,COL1*%
X151130000Y-67735000D03*
D11*
%TO.P,D2,2,A*%
%TO.N,Net-(D2-A)*%
X166370000Y-67735000D03*
%TD*%
D10*
%TO.P,D5,1,K*%
%TO.N,COL2*%
X151130000Y-83185000D03*
D11*
%TO.P,D5,2,A*%
%TO.N,Net-(D5-A)*%
X166370000Y-83185000D03*
%TD*%
D10*
%TO.P,D8,1,K*%
%TO.N,COL3*%
X151130000Y-98635000D03*
D11*
%TO.P,D8,2,A*%
%TO.N,Net-(D8-A)*%
X166370000Y-98635000D03*
%TD*%
D12*
%TO.P,R1,1*%
%TO.N,WS2812B*%
X124510000Y-60325000D03*
%TO.P,R1,2*%
%TO.N,Net-(C4-Pad2)*%
X127050000Y-60325000D03*
%TD*%
D14*
%TO.P,SW10,A,A*%
%TO.N,EC11A*%
X83272000Y-63489000D03*
D15*
%TO.P,SW10,B,B*%
%TO.N,EC11B*%
X78272000Y-63489000D03*
%TO.P,SW10,C,C*%
%TO.N,GND*%
X80772000Y-63489000D03*
D16*
%TO.P,SW10,MP*%
%TO.N,N/C*%
X86372000Y-70989000D03*
X75172000Y-70989000D03*
D15*
%TO.P,SW10,S1,S1*%
%TO.N,EC11SWA*%
X78272000Y-77989000D03*
%TO.P,SW10,S2,S2*%
%TO.N,Col2*%
X83272000Y-77989000D03*
%TD*%
D13*
%TO.P,SW6,1,1*%
%TO.N,ROW2*%
X102870000Y-104775000D03*
%TO.P,SW6,2,2*%
%TO.N,Net-(D6-A)*%
X96520000Y-107315000D03*
%TD*%
D18*
%TO.P,D2,1,DOUT*%
%TO.N,unconnected-(D2-DOUT-Pad1)*%
X141760000Y-82945000D03*
%TO.P,D2,2,VSS*%
%TO.N,GND*%
X141760000Y-84695000D03*
%TO.P,D2,3,DIN*%
%TO.N,Net-(D1-DOUT)*%
X145260000Y-84695000D03*
%TO.P,D2,4,VDD*%
%TO.N,+5V*%
X145260000Y-82945000D03*
%TD*%
D17*
%TO.P,C2,1*%
%TO.N,Net-(C2-Pad1)*%
X164505000Y-111150000D03*
%TO.P,C2,2*%
%TO.N,Net-(C2-Pad2)*%
X167005000Y-111150000D03*
%TD*%
D13*
%TO.P,SW4,1,1*%
%TO.N,EC11SWA*%
X121920000Y-85725000D03*
%TO.P,SW4,2,2*%
%TO.N,Net-(D4-A)*%
X115570000Y-88265000D03*
%TD*%
D10*
%TO.P,D9,1,K*%
%TO.N,COL3*%
X151130000Y-103785000D03*
D11*
%TO.P,D9,2,A*%
%TO.N,Net-(D9-A)*%
X166370000Y-103785000D03*
%TD*%
D17*
%TO.P,C3,1*%
%TO.N,Net-(C2-Pad1)*%
X164505000Y-114300000D03*
%TO.P,C3,2*%
%TO.N,+5V*%
X167005000Y-114300000D03*
%TD*%
D10*
%TO.P,D4,1,K*%
%TO.N,COL2*%
X151130000Y-78035000D03*
D11*
%TO.P,D4,2,A*%
%TO.N,Net-(D4-A)*%
X166370000Y-78035000D03*
%TD*%
D10*
%TO.P,D7,1,K*%
%TO.N,COL3*%
X151130000Y-93485000D03*
D11*
%TO.P,D7,2,A*%
%TO.N,Net-(D7-A)*%
X166370000Y-93485000D03*
%TD*%
D25*
%TO.N,GND*%
X122555000Y-93345000D03*
X129467185Y-101037815D03*
X135420000Y-89240714D03*
X141760000Y-84695000D03*
X136360000Y-89239000D03*
X133505000Y-84695000D03*
%TO.N,+5V*%
X145260000Y-82945000D03*
X143403235Y-77576765D03*
X144145000Y-105886000D03*
X142875000Y-103505000D03*
X144145000Y-66675000D03*
X148795528Y-101592000D03*
X144323527Y-76800000D03*
%TO.N,SCK*%
X133985000Y-91440000D03*
%TO.N,SDA*%
X132715000Y-91440000D03*
%TO.N,EC11SWA*%
X118110000Y-81636000D03*
X121851392Y-86926392D03*
X85090000Y-78105000D03*
%TO.N,3V3*%
X159373235Y-116216765D03*
%TO.N,WS2812B*%
X133985000Y-111125000D03*
%TO.N,Col2*%
X143510000Y-60325000D03*
%TO.N,B*%
X135255000Y-71120000D03*
X124460000Y-62865000D03*
X127770842Y-62814598D03*
%TO.N,S1*%
X133350000Y-63701000D03*
%TO.N,Net-(U2-VDD)*%
X137795000Y-91440000D03*
%TO.N,Net-(C4-Pad2)*%
X137901765Y-106151765D03*
X134020000Y-101110496D03*
X140970000Y-95885000D03*
%TO.N,Net-(U1-GPIO6{slash}SDA)*%
X132090420Y-71130420D03*
X154305000Y-89535000D03*
X132313006Y-76416775D03*
%TO.N,ROW1*%
X132007185Y-103577815D03*
X83820000Y-102235000D03*
X92816765Y-121391765D03*
%TO.N,Net-(D2-A)*%
X126403157Y-64173157D03*
%TO.N,ROW2*%
X104775000Y-104140000D03*
X141179265Y-99055735D03*
X104775000Y-112806000D03*
%TO.N,Net-(D4-A)*%
X163195000Y-76200000D03*
X130347000Y-86360000D03*
%TO.N,Net-(D6-A)*%
X142875000Y-95250000D03*
X144660000Y-97155000D03*
%TO.N,Net-(U1-GPIO28{slash}ADC2{slash}A2)*%
X137795000Y-107950000D03*
%TO.N,COL3*%
X151130000Y-101600000D03*
%TO.N,COL2*%
X149225000Y-91440000D03*
%TO.N,Net-(U2-~{RESET})*%
X134620000Y-99265000D03*
X139700000Y-106045000D03*
%TO.N,COL1*%
X151130000Y-66675000D03*
X144145000Y-95250000D03*
X143510000Y-87630000D03*
X151130000Y-69850000D03*
%TD*%
D26*
%TO.N,GND*%
X135890000Y-89965000D02*
X135890000Y-89710714D01*
X146361000Y-79686000D02*
X142463000Y-75788000D01*
X141760000Y-84695000D02*
X142486000Y-85421000D01*
X85563686Y-79290000D02*
X82733108Y-79290000D01*
X130810000Y-99265000D02*
X132080000Y-99265000D01*
X135890000Y-89965000D02*
X135890000Y-89709000D01*
X130810000Y-99695000D02*
X130810000Y-99265000D01*
X122366000Y-93156000D02*
X122555000Y-93345000D01*
X128719374Y-71122000D02*
X131250310Y-71122000D01*
X142463000Y-75788000D02*
X128719374Y-75788000D01*
X120353816Y-93156000D02*
X122366000Y-93156000D01*
X133350000Y-99265000D02*
X133350000Y-98240001D01*
X135890000Y-89709000D02*
X136360000Y-89239000D01*
X118406184Y-93156000D02*
X112934870Y-87684686D01*
X131250310Y-71122000D02*
X137807310Y-64565000D01*
X128719374Y-75788000D02*
X128458000Y-75526626D01*
X99081628Y-87684686D02*
X97100314Y-89666000D01*
X135890000Y-89710714D02*
X135420000Y-89240714D01*
X80772000Y-77328892D02*
X80772000Y-63489000D01*
X95939686Y-89666000D02*
X85563686Y-79290000D01*
X133350000Y-99265000D02*
X132080000Y-99265000D01*
X142486000Y-85421000D02*
X146361000Y-85421000D01*
X135890000Y-95700001D02*
X135890000Y-89965000D01*
X137807310Y-64565000D02*
X146050000Y-64565000D01*
X82733108Y-79290000D02*
X80772000Y-77328892D01*
X133350000Y-98240001D02*
X135890000Y-95700001D01*
X120353816Y-93156000D02*
X118406184Y-93156000D01*
X128458000Y-75526626D02*
X128458000Y-71383374D01*
X112934870Y-87684686D02*
X99081628Y-87684686D01*
X129467185Y-101037815D02*
X130810000Y-99695000D01*
X128458000Y-71383374D02*
X128719374Y-71122000D01*
X97100314Y-89666000D02*
X95939686Y-89666000D01*
X146361000Y-85421000D02*
X146361000Y-79686000D01*
%TO.N,Net-(D1-DOUT)*%
X134529000Y-83969000D02*
X144534000Y-83969000D01*
X144534000Y-83969000D02*
X145260000Y-84695000D01*
X133505000Y-82945000D02*
X134529000Y-83969000D01*
%TO.N,+5V*%
X134654000Y-71368943D02*
X134654000Y-70871057D01*
X145260000Y-82945000D02*
X144230000Y-81915000D01*
X167005000Y-114300000D02*
X165606000Y-112901000D01*
X150510000Y-112251000D02*
X144145000Y-105886000D01*
X142875000Y-103505000D02*
X144788000Y-101592000D01*
X144788000Y-101592000D02*
X148795528Y-101592000D01*
X144323527Y-76800000D02*
X139244527Y-71721000D01*
X135006057Y-71721000D02*
X134654000Y-71368943D01*
X138035000Y-81915000D02*
X137005000Y-82945000D01*
X144230000Y-81915000D02*
X143403235Y-81088235D01*
X165606000Y-110693950D02*
X164961050Y-110049000D01*
X138850057Y-66675000D02*
X144145000Y-66675000D01*
X134654000Y-70871057D02*
X138850057Y-66675000D01*
X165606000Y-112901000D02*
X165606000Y-110693950D01*
X143403235Y-81088235D02*
X143403235Y-77576765D01*
X161846950Y-112251000D02*
X150510000Y-112251000D01*
X144230000Y-81915000D02*
X138035000Y-81915000D01*
X164048950Y-110049000D02*
X161846950Y-112251000D01*
X164961050Y-110049000D02*
X164048950Y-110049000D01*
X139244527Y-71721000D02*
X135006057Y-71721000D01*
%TO.N,SCK*%
X133350000Y-89965000D02*
X133350000Y-90805000D01*
X133350000Y-90805000D02*
X133985000Y-91440000D01*
%TO.N,SDA*%
X132080000Y-90805000D02*
X132715000Y-91440000D01*
X132080000Y-89965000D02*
X132080000Y-90805000D01*
%TO.N,EC11SWA*%
X96425892Y-66675000D02*
X85090000Y-78010892D01*
X121920000Y-86857784D02*
X121851392Y-86926392D01*
X121920000Y-85725000D02*
X121920000Y-86857784D01*
X133944999Y-104775000D02*
X138430000Y-100289999D01*
X85090000Y-78010892D02*
X85090000Y-78105000D01*
X102870000Y-66675000D02*
X117831000Y-81636000D01*
X121920000Y-104775000D02*
X133944999Y-104775000D01*
X102870000Y-66675000D02*
X96425892Y-66675000D01*
X117831000Y-81636000D02*
X118110000Y-81636000D01*
X138430000Y-100289999D02*
X138430000Y-99265000D01*
%TO.N,3V3*%
X158915000Y-117450000D02*
X158915000Y-116675000D01*
X149016000Y-69236000D02*
X146885000Y-67105000D01*
X164505000Y-108000000D02*
X167871000Y-104634000D01*
X154543735Y-69236000D02*
X149016000Y-69236000D01*
X167871000Y-104634000D02*
X167871000Y-82563265D01*
X158915000Y-116675000D02*
X159373235Y-116216765D01*
X167871000Y-82563265D02*
X154543735Y-69236000D01*
%TO.N,WS2812B*%
X141712000Y-118852000D02*
X133985000Y-111125000D01*
X161869628Y-113299000D02*
X162857000Y-114286372D01*
X162857000Y-118030728D02*
X162035728Y-118852000D01*
X162857000Y-114286372D02*
X162857000Y-118030728D01*
X162035728Y-118852000D02*
X141712000Y-118852000D01*
X159916000Y-113299000D02*
X161869628Y-113299000D01*
X158915000Y-114300000D02*
X159916000Y-113299000D01*
%TO.N,Col2*%
X100094000Y-61167000D02*
X83272000Y-77989000D01*
X100094000Y-61167000D02*
X100714000Y-61787000D01*
X128789274Y-60325000D02*
X143510000Y-60325000D01*
X100714000Y-61787000D02*
X127327274Y-61787000D01*
X127327274Y-61787000D02*
X128789274Y-60325000D01*
%TO.N,S2*%
X122642000Y-77989000D02*
X124155943Y-77989000D01*
X124155943Y-77989000D02*
X127043000Y-75101943D01*
X127043000Y-67497000D02*
X129975000Y-64565000D01*
X127043000Y-75101943D02*
X127043000Y-67497000D01*
%TO.N,B*%
X136730000Y-69645000D02*
X135255000Y-71120000D01*
X127770842Y-62814598D02*
X127720440Y-62865000D01*
X146050000Y-69645000D02*
X136730000Y-69645000D01*
X127720440Y-62865000D02*
X124460000Y-62865000D01*
%TO.N,A*%
X129975000Y-77265000D02*
X127549000Y-79691000D01*
X116341000Y-69790000D02*
X116341000Y-78527892D01*
X122642000Y-63489000D02*
X116341000Y-69790000D01*
X116341000Y-78527892D02*
X117504108Y-79691000D01*
X127549000Y-79691000D02*
X117504108Y-79691000D01*
%TO.N,S1*%
X126692374Y-79290000D02*
X122103108Y-79290000D01*
X117642000Y-77989000D02*
X118943000Y-79290000D01*
X128719374Y-63502000D02*
X133151000Y-63502000D01*
X121341000Y-70880374D02*
X128719374Y-63502000D01*
X121341000Y-78527892D02*
X121341000Y-70880374D01*
X118943000Y-79290000D02*
X126692374Y-79290000D01*
X122103108Y-79290000D02*
X121341000Y-78527892D01*
X133151000Y-63502000D02*
X133350000Y-63701000D01*
%TO.N,Net-(U2-VDD)*%
X137160000Y-89965000D02*
X137160000Y-90805000D01*
X137160000Y-90805000D02*
X137795000Y-91440000D01*
%TO.N,Net-(C2-Pad1)*%
X164505000Y-114300000D02*
X164505000Y-111150000D01*
%TO.N,Net-(C4-Pad2)*%
X167005000Y-117450000D02*
X165202000Y-119253000D01*
X134441472Y-101110496D02*
X135221000Y-100330968D01*
X135221000Y-98225000D02*
X137561000Y-95885000D01*
X133384000Y-111373943D02*
X133384000Y-110669530D01*
X134020000Y-101110496D02*
X134441472Y-101110496D01*
X137561000Y-95885000D02*
X140970000Y-95885000D01*
X165202000Y-119253000D02*
X141263057Y-119253000D01*
X133384000Y-110669530D02*
X137901765Y-106151765D01*
X135221000Y-100330968D02*
X135221000Y-98225000D01*
X141263057Y-119253000D02*
X133384000Y-111373943D01*
%TO.N,Net-(U1-GPIO6{slash}SDA)*%
X135221000Y-88238000D02*
X147827068Y-88238000D01*
X129975000Y-72185000D02*
X131035840Y-72185000D01*
X154004000Y-89836000D02*
X154305000Y-89535000D01*
X149425068Y-89836000D02*
X154004000Y-89836000D01*
X132313006Y-76416775D02*
X132313006Y-85330006D01*
X147827068Y-88238000D02*
X149425068Y-89836000D01*
X131035840Y-72185000D02*
X132090420Y-71130420D01*
X132313006Y-85330006D02*
X135221000Y-88238000D01*
%TO.N,Net-(U1-GPIO7{slash}SCL)*%
X138658000Y-66042000D02*
X129975000Y-74725000D01*
X152123160Y-66042000D02*
X138658000Y-66042000D01*
X168272000Y-104800100D02*
X168272000Y-82190840D01*
X165606000Y-108456050D02*
X165606000Y-107466100D01*
X164961050Y-109101000D02*
X165606000Y-108456050D01*
X168272000Y-82190840D02*
X152123160Y-66042000D01*
X165606000Y-107466100D02*
X168272000Y-104800100D01*
X160964000Y-109101000D02*
X164961050Y-109101000D01*
X158915000Y-111150000D02*
X160964000Y-109101000D01*
%TO.N,Net-(D1-A)*%
X128719374Y-60962000D02*
X127493374Y-62188000D01*
X127493374Y-62188000D02*
X109338314Y-62188000D01*
X118358943Y-81035000D02*
X118711000Y-81387057D01*
X96520000Y-71326530D02*
X96520000Y-69215000D01*
X117861057Y-81035000D02*
X118358943Y-81035000D01*
X166370000Y-62585000D02*
X164747000Y-60962000D01*
X118711000Y-81387057D02*
X118711000Y-81884943D01*
X118358943Y-82237000D02*
X107430470Y-82237000D01*
X109338314Y-72512257D02*
X117861057Y-81035000D01*
X118711000Y-81884943D02*
X118358943Y-82237000D01*
X109338314Y-62188000D02*
X109338314Y-72512257D01*
X164747000Y-60962000D02*
X128719374Y-60962000D01*
X107430470Y-82237000D02*
X96520000Y-71326530D01*
%TO.N,ROW1*%
X93345000Y-121920000D02*
X92816765Y-121391765D01*
X137829000Y-100296000D02*
X137829000Y-98199032D01*
X93345000Y-123825000D02*
X93345000Y-121920000D01*
X138089032Y-97939000D02*
X138770968Y-97939000D01*
X137829000Y-98199032D02*
X138089032Y-97939000D01*
X83820000Y-85725000D02*
X83820000Y-102235000D01*
X132007185Y-103577815D02*
X134547185Y-103577815D01*
X134547185Y-103577815D02*
X137829000Y-100296000D01*
X138770968Y-97939000D02*
X139700000Y-98868032D01*
X139700000Y-98868032D02*
X139700000Y-99265000D01*
%TO.N,Net-(D2-A)*%
X127262226Y-64173157D02*
X126403157Y-64173157D01*
X128334383Y-63101000D02*
X127262226Y-64173157D01*
X163600626Y-64965626D02*
X150171352Y-64965626D01*
X166370000Y-67735000D02*
X163600626Y-64965626D01*
X148306726Y-63101000D02*
X128334383Y-63101000D01*
X150171352Y-64965626D02*
X148306726Y-63101000D01*
%TO.N,ROW2*%
X102870000Y-104775000D02*
X104140000Y-104775000D01*
X112395000Y-123825000D02*
X112395000Y-120426000D01*
X104140000Y-104775000D02*
X104775000Y-104140000D01*
X112395000Y-120426000D02*
X104775000Y-112806000D01*
%TO.N,Net-(D3-A)*%
X166370000Y-72885000D02*
X158851626Y-65366626D01*
X131250310Y-76202000D02*
X131873000Y-76824690D01*
X125758310Y-83820000D02*
X100965000Y-83820000D01*
X128719374Y-68582000D02*
X128057000Y-69244374D01*
X100965000Y-83820000D02*
X96520000Y-88265000D01*
X128057000Y-69244374D02*
X128057000Y-75692726D01*
X128566274Y-76202000D02*
X131250310Y-76202000D01*
X128057000Y-75692726D02*
X128566274Y-76202000D01*
X131250310Y-68582000D02*
X128719374Y-68582000D01*
X131873000Y-77705310D02*
X125758310Y-83820000D01*
X136330310Y-63502000D02*
X131250310Y-68582000D01*
X148140626Y-63502000D02*
X136330310Y-63502000D01*
X131873000Y-76824690D02*
X131873000Y-77705310D01*
X158851626Y-65366626D02*
X150005252Y-65366626D01*
X150005252Y-65366626D02*
X148140626Y-63502000D01*
%TO.N,Net-(D4-A)*%
X166370000Y-78035000D02*
X164535000Y-76200000D01*
X123266314Y-86360000D02*
X121361314Y-88265000D01*
X130347000Y-86360000D02*
X123266314Y-86360000D01*
X121361314Y-88265000D02*
X115570000Y-88265000D01*
X164535000Y-76200000D02*
X163195000Y-76200000D01*
%TO.N,Net-(D5-A)*%
X128324470Y-88639000D02*
X147660968Y-88639000D01*
X158750000Y-90805000D02*
X166370000Y-83185000D01*
X149826968Y-90805000D02*
X158750000Y-90805000D01*
X147660968Y-88639000D02*
X149826968Y-90805000D01*
X113990470Y-102973000D02*
X128324470Y-88639000D01*
X77470000Y-107315000D02*
X81812000Y-102973000D01*
X81812000Y-102973000D02*
X113990470Y-102973000D01*
%TO.N,Net-(D6-A)*%
X100461000Y-103374000D02*
X96520000Y-107315000D01*
X136907101Y-95250000D02*
X133951000Y-98206101D01*
X133951000Y-100330968D02*
X130907968Y-103374000D01*
X142875000Y-95250000D02*
X136907101Y-95250000D01*
X166370000Y-88335000D02*
X163016057Y-91688943D01*
X163016057Y-91688943D02*
X150126057Y-91688943D01*
X130907968Y-103374000D02*
X100461000Y-103374000D01*
X133951000Y-98206101D02*
X133951000Y-100330968D01*
X150126057Y-91688943D02*
X144660000Y-97155000D01*
%TO.N,Net-(D7-A)*%
X115570000Y-107315000D02*
X134586968Y-107315000D01*
X159264000Y-100591000D02*
X166370000Y-93485000D01*
X134586968Y-107315000D02*
X141310968Y-100591000D01*
X141310968Y-100591000D02*
X159264000Y-100591000D01*
%TO.N,Net-(D8-A)*%
X101154000Y-112206000D02*
X130263068Y-112206000D01*
X130263068Y-112206000D02*
X141477068Y-100992000D01*
X164013000Y-100992000D02*
X166370000Y-98635000D01*
X101154000Y-112206000D02*
X86995000Y-126365000D01*
X141477068Y-100992000D02*
X164013000Y-100992000D01*
%TO.N,Net-(D9-A)*%
X116840000Y-126365000D02*
X137919000Y-105286000D01*
X164869000Y-105286000D02*
X166370000Y-103785000D01*
X106045000Y-126365000D02*
X116840000Y-126365000D01*
X137919000Y-105286000D02*
X164869000Y-105286000D01*
%TO.N,Net-(U1-GPIO28{slash}ADC2{slash}A2)*%
X161455000Y-114300000D02*
X162456000Y-115301000D01*
X161869628Y-118451000D02*
X148296000Y-118451000D01*
X148296000Y-118451000D02*
X137795000Y-107950000D01*
X162456000Y-115301000D02*
X162456000Y-117864628D01*
X162456000Y-117864628D02*
X161869628Y-118451000D01*
%TO.N,COL3*%
X144780000Y-98240001D02*
X144780000Y-99265000D01*
X145081001Y-97939000D02*
X144780000Y-98240001D01*
X151130000Y-103785000D02*
X151130000Y-101600000D01*
X150434000Y-97939000D02*
X145081001Y-97939000D01*
X151130000Y-93485000D02*
X151130000Y-98635000D01*
X151130000Y-98635000D02*
X150434000Y-97939000D01*
%TO.N,COL2*%
X151130000Y-78035000D02*
X151130000Y-83185000D01*
X143510000Y-99265000D02*
X143510000Y-97155000D01*
X151130000Y-88335000D02*
X151130000Y-83185000D01*
X143510000Y-97155000D02*
X149225000Y-91440000D01*
%TO.N,Net-(U2-~{RESET})*%
X148956000Y-115301000D02*
X139700000Y-106045000D01*
X161455000Y-117450000D02*
X159306000Y-115301000D01*
X159306000Y-115301000D02*
X148956000Y-115301000D01*
%TO.N,COL1*%
X149629000Y-84686000D02*
X146685000Y-87630000D01*
X151130000Y-72885000D02*
X151130000Y-69850000D01*
X149629000Y-74386000D02*
X149629000Y-84686000D01*
X142240000Y-97155000D02*
X142240000Y-99265000D01*
X151130000Y-67735000D02*
X151130000Y-66675000D01*
X151130000Y-72885000D02*
X149629000Y-74386000D01*
X146685000Y-87630000D02*
X143510000Y-87630000D01*
X144145000Y-95250000D02*
X142240000Y-97155000D01*
%TD*%
M02*
