%TF.GenerationSoftware,KiCad,Pcbnew,9.0.6*%
%TF.CreationDate,2026-04-12T15:10:51-04:00*%
%TF.ProjectId,hackpad,6861636b-7061-4642-9e6b-696361645f70,rev?*%
%TF.SameCoordinates,Original*%
%TF.FileFunction,Soldermask,Bot*%
%TF.FilePolarity,Negative*%
%FSLAX46Y46*%
G04 Gerber Fmt 4.6, Leading zero omitted, Abs format (unit mm)*
G04 Created by KiCad (PCBNEW 9.0.6) date 2026-04-12 15:10:51*
%MOMM*%
%LPD*%
G01*
G04 APERTURE LIST*
G04 Aperture macros list*
%AMRoundRect*
0 Rectangle with rounded corners*
0 $1 Rounding radius*
0 $2 $3 $4 $5 $6 $7 $8 $9 X,Y pos of 4 corners*
0 Add a 4 corners polygon primitive as box body*
4,1,4,$2,$3,$4,$5,$6,$7,$8,$9,$2,$3,0*
0 Add four circle primitives for the rounded corners*
1,1,$1+$1,$2,$3*
1,1,$1+$1,$4,$5*
1,1,$1+$1,$6,$7*
1,1,$1+$1,$8,$9*
0 Add four rect primitives between the rounded corners*
20,1,$1+$1,$2,$3,$4,$5,0*
20,1,$1+$1,$4,$5,$6,$7,0*
20,1,$1+$1,$6,$7,$8,$9,0*
20,1,$1+$1,$8,$9,$2,$3,0*%
G04 Aperture macros list end*
%ADD10C,2.200000*%
%ADD11C,1.700000*%
%ADD12C,4.000000*%
%ADD13C,2.000000*%
%ADD14R,2.000000X3.200000*%
%ADD15R,2.000000X2.000000*%
%ADD16C,1.600000*%
%ADD17C,2.400000*%
%ADD18RoundRect,0.250001X-0.949999X-0.949999X0.949999X-0.949999X0.949999X0.949999X-0.949999X0.949999X0*%
%ADD19RoundRect,0.170000X0.680000X-0.680000X0.680000X0.680000X-0.680000X0.680000X-0.680000X-0.680000X0*%
%ADD20C,1.400000*%
%ADD21C,1.524000*%
G04 APERTURE END LIST*
D10*
%TO.C,SW1*%
X96520000Y-69215000D03*
X102870000Y-66675000D03*
D11*
X105410000Y-71755000D03*
D12*
X100330000Y-71755000D03*
D11*
X95250000Y-71755000D03*
%TD*%
D10*
%TO.C,SW2*%
X77470000Y-88265000D03*
X83820000Y-85725000D03*
D11*
X86360000Y-90805000D03*
D12*
X81280000Y-90805000D03*
D11*
X76200000Y-90805000D03*
%TD*%
D10*
%TO.C,SW3*%
X96520000Y-88265000D03*
X102870000Y-85725000D03*
D11*
X105410000Y-90805000D03*
D12*
X100330000Y-90805000D03*
D11*
X95250000Y-90805000D03*
%TD*%
D10*
%TO.C,SW4*%
X115570000Y-88265000D03*
X121920000Y-85725000D03*
D11*
X124460000Y-90805000D03*
D12*
X119380000Y-90805000D03*
D11*
X114300000Y-90805000D03*
%TD*%
D10*
%TO.C,SW5*%
X77470000Y-107315000D03*
X83820000Y-104775000D03*
D11*
X86360000Y-109855000D03*
D12*
X81280000Y-109855000D03*
D11*
X76200000Y-109855000D03*
%TD*%
D10*
%TO.C,SW6*%
X96520000Y-107315000D03*
X102870000Y-104775000D03*
D11*
X105410000Y-109855000D03*
D12*
X100330000Y-109855000D03*
D11*
X95250000Y-109855000D03*
%TD*%
D10*
%TO.C,SW7*%
X115570000Y-107315000D03*
X121920000Y-104775000D03*
D11*
X124460000Y-109855000D03*
D12*
X119380000Y-109855000D03*
D11*
X114300000Y-109855000D03*
%TD*%
D10*
%TO.C,SW8*%
X86995000Y-126365000D03*
X93345000Y-123825000D03*
D11*
X95885000Y-128905000D03*
D12*
X90805000Y-128905000D03*
D11*
X85725000Y-128905000D03*
%TD*%
D10*
%TO.C,SW9*%
X106045000Y-126365000D03*
X112395000Y-123825000D03*
D11*
X114935000Y-128905000D03*
D12*
X109855000Y-128905000D03*
D11*
X104775000Y-128905000D03*
%TD*%
D13*
%TO.C,SW10*%
X83272000Y-77989000D03*
X78272000Y-77989000D03*
D14*
X75172000Y-70989000D03*
X86372000Y-70989000D03*
D13*
X80772000Y-63489000D03*
X78272000Y-63489000D03*
D15*
X83272000Y-63489000D03*
%TD*%
D13*
%TO.C,SW11*%
X122642000Y-77989000D03*
X117642000Y-77989000D03*
D14*
X114542000Y-70989000D03*
X125742000Y-70989000D03*
D13*
X120142000Y-63489000D03*
X117642000Y-63489000D03*
D15*
X122642000Y-63489000D03*
%TD*%
D16*
%TO.C,C2*%
X167005000Y-111150000D03*
X164505000Y-111150000D03*
%TD*%
%TO.C,C3*%
X167005000Y-114300000D03*
X164505000Y-114300000D03*
%TD*%
%TO.C,C4*%
X167005000Y-117450000D03*
X164505000Y-117450000D03*
%TD*%
D17*
%TO.C,D1*%
X166370000Y-62585000D03*
D18*
X151130000Y-62585000D03*
%TD*%
D17*
%TO.C,D2*%
X166370000Y-67735000D03*
D18*
X151130000Y-67735000D03*
%TD*%
D17*
%TO.C,D3*%
X166370000Y-72885000D03*
D18*
X151130000Y-72885000D03*
%TD*%
D17*
%TO.C,D4*%
X166370000Y-78035000D03*
D18*
X151130000Y-78035000D03*
%TD*%
D17*
%TO.C,D5*%
X166370000Y-83185000D03*
D18*
X151130000Y-83185000D03*
%TD*%
D17*
%TO.C,D6*%
X166370000Y-88335000D03*
D18*
X151130000Y-88335000D03*
%TD*%
D17*
%TO.C,D7*%
X166370000Y-93485000D03*
D18*
X151130000Y-93485000D03*
%TD*%
D17*
%TO.C,D8*%
X166370000Y-98635000D03*
D18*
X151130000Y-98635000D03*
%TD*%
D17*
%TO.C,D9*%
X166370000Y-103785000D03*
D18*
X151130000Y-103785000D03*
%TD*%
D11*
%TO.C,J1*%
X127280000Y-125730000D03*
X127280000Y-128270000D03*
X127280000Y-130810000D03*
D19*
X127280000Y-133350000D03*
%TD*%
D20*
%TO.C,R1*%
X127050000Y-60325000D03*
X124510000Y-60325000D03*
%TD*%
%TO.C,R2*%
X161455000Y-108000000D03*
X158915000Y-108000000D03*
%TD*%
%TO.C,R3*%
X161455000Y-111150000D03*
X158915000Y-111150000D03*
%TD*%
%TO.C,R4*%
X161455000Y-114300000D03*
X158915000Y-114300000D03*
%TD*%
D21*
%TO.C,U1*%
X146050000Y-62025000D03*
X146050000Y-64565000D03*
X146050000Y-67105000D03*
X146050000Y-69645000D03*
X146050000Y-72185000D03*
X146050000Y-74725000D03*
X146050000Y-77265000D03*
X130810000Y-77265000D03*
X130810000Y-74725000D03*
X130810000Y-72185000D03*
X130810000Y-69645000D03*
X130810000Y-67105000D03*
X130810000Y-64565000D03*
X130810000Y-62025000D03*
%TD*%
D20*
%TO.C,R5*%
X158915000Y-117450000D03*
X161455000Y-117450000D03*
%TD*%
D16*
%TO.C,C1*%
X164505000Y-108000000D03*
X167005000Y-108000000D03*
%TD*%
M02*
