M48
; DRILL file {KiCad 9.0.6} date 2026-04-12T15:10:46-0400
; FORMAT={-:-/ absolute / metric / decimal}
; #@! TF.CreationDate,2026-04-12T15:10:46-04:00
; #@! TF.GenerationSoftware,Kicad,Pcbnew,9.0.6
; #@! TF.FileFunction,Plated,1,2,PTH
FMAT,2
METRIC
; #@! TA.AperFunction,Plated,PTH,ViaDrill
T1C0.300
; #@! TA.AperFunction,Plated,PTH,ComponentDrill
T2C0.700
; #@! TA.AperFunction,Plated,PTH,ComponentDrill
T3C0.800
; #@! TA.AperFunction,Plated,PTH,ComponentDrill
T4C0.889
; #@! TA.AperFunction,Plated,PTH,ComponentDrill
T5C1.000
; #@! TA.AperFunction,Plated,PTH,ComponentDrill
T6C1.200
; #@! TA.AperFunction,Plated,PTH,ComponentDrill
T7C1.500
%
G90
G05
T1
X77.987Y-110.735
X78.613Y-124.968
X79.53Y-115.175
X83.03Y-115.175
X83.058Y-96.125
X83.82Y-102.235
X84.836Y-115.189
X85.09Y-78.105
X92.817Y-121.392
X94.234Y-83.693
X94.869Y-87.503
X95.631Y-79.756
X96.52Y-84.963
X97.79Y-83.693
X98.58Y-115.288
X98.834Y-75.325
X99.441Y-78.289
X101.6Y-88.392
X102.08Y-94.375
X102.08Y-113.538
X102.68Y-117.602
X104.775Y-104.14
X104.775Y-112.806
X107.315Y-80.772
X108.077Y-135.636
X108.105Y-134.225
X108.458Y-102.235
X110.109Y-134.351
X110.304Y-125.226
X111.252Y-80.645
X115.062Y-112.806
X118.11Y-81.636
X118.491Y-122.428
X119.253Y-124.968
X121.03Y-106.715
X121.281Y-96.53
X121.851Y-86.926
X122.555Y-93.345
X122.809Y-112.806
X124.46Y-62.865
X124.46Y-78.613
X124.841Y-81.915
X125.349Y-115.443
X125.476Y-118.872
X126.238Y-84.201
X126.403Y-64.173
X127.771Y-62.815
X127.808Y-77.47
X128.397Y-80.264
X129.032Y-105.41
X129.058Y-73.447
X129.147Y-81.28
X129.467Y-101.038
X130.347Y-73.447
X130.347Y-86.36
X131.318Y-81.026
X131.713Y-79.121
X131.857Y-73.691
X132.007Y-103.578
X132.09Y-71.13
X132.285Y-76.388
X132.715Y-91.44
X133.35Y-63.701
X133.477Y-79.756
X133.985Y-91.44
X133.985Y-111.125
X134.02Y-101.11
X134.62Y-99.265
X135.255Y-71.12
X136.36Y-89.239
X137.795Y-91.44
X137.795Y-107.95
X137.902Y-106.152
X139.7Y-106.045
X140.97Y-95.885
X141.179Y-99.056
X141.76Y-84.695
X142.875Y-95.25
X142.875Y-103.505
X143.403Y-77.577
X143.51Y-60.325
X143.51Y-87.63
X144.145Y-66.675
X144.145Y-95.25
X144.145Y-105.886
X144.324Y-76.8
X144.66Y-97.155
X145.26Y-82.945
X146.177Y-78.613
X148.796Y-101.592
X149.225Y-91.44
X151.13Y-66.675
X151.13Y-69.85
X151.13Y-101.6
X154.305Y-89.535
X159.373Y-116.217
X163.195Y-76.2
T2
X124.51Y-60.325
X127.05Y-60.325
X158.915Y-108.0
X158.915Y-111.15
X158.915Y-114.3
X158.915Y-117.45
X161.455Y-108.0
X161.455Y-111.15
X161.455Y-114.3
X161.455Y-117.45
T3
X164.505Y-108.0
X164.505Y-111.15
X164.505Y-114.3
X164.505Y-117.45
X167.005Y-108.0
X167.005Y-111.15
X167.005Y-114.3
X167.005Y-117.45
T4
X130.81Y-62.025
X130.81Y-64.565
X130.81Y-67.105
X130.81Y-69.645
X130.81Y-72.185
X130.81Y-74.725
X130.81Y-77.265
X146.05Y-62.025
X146.05Y-64.565
X146.05Y-67.105
X146.05Y-69.645
X146.05Y-72.185
X146.05Y-74.725
X146.05Y-77.265
T5
X78.272Y-63.489
X78.272Y-77.989
X80.772Y-63.489
X83.272Y-63.489
X83.272Y-77.989
X117.642Y-63.489
X117.642Y-77.989
X120.142Y-63.489
X122.642Y-63.489
X122.642Y-77.989
X127.28Y-125.73
X127.28Y-128.27
X127.28Y-130.81
X127.28Y-133.35
T6
X151.13Y-62.585
X151.13Y-67.735
X151.13Y-72.885
X151.13Y-78.035
X151.13Y-83.185
X151.13Y-88.335
X151.13Y-93.485
X151.13Y-98.635
X151.13Y-103.785
X166.37Y-62.585
X166.37Y-67.735
X166.37Y-72.885
X166.37Y-78.035
X166.37Y-83.185
X166.37Y-88.335
X166.37Y-93.485
X166.37Y-98.635
X166.37Y-103.785
T7
X77.47Y-88.265
X77.47Y-107.315
X83.82Y-85.725
X83.82Y-104.775
X86.995Y-126.365
X93.345Y-123.825
X96.52Y-69.215
X96.52Y-88.265
X96.52Y-107.315
X102.87Y-66.675
X102.87Y-85.725
X102.87Y-104.775
X106.045Y-126.365
X112.395Y-123.825
X115.57Y-88.265
X115.57Y-107.315
X121.92Y-85.725
X121.92Y-104.775
T7
G00X75.172Y-70.339
M15
G01X75.172Y-71.639
M16
G05
G00X86.372Y-70.339
M15
G01X86.372Y-71.639
M16
G05
G00X114.542Y-70.339
M15
G01X114.542Y-71.639
M16
G05
G00X125.742Y-70.339
M15
G01X125.742Y-71.639
M16
G05
M30
