%TF.GenerationSoftware,KiCad,Pcbnew,9.0.6*%
%TF.CreationDate,2026-04-12T11:59:25-04:00*%
%TF.ProjectId,hackpad,6861636b-7061-4642-9e6b-696361645f70,rev?*%
%TF.SameCoordinates,Original*%
%TF.FileFunction,Legend,Top*%
%TF.FilePolarity,Positive*%
%FSLAX46Y46*%
G04 Gerber Fmt 4.6, Leading zero omitted, Abs format (unit mm)*
G04 Created by KiCad (PCBNEW 9.0.6) date 2026-04-12 11:59:25*
%MOMM*%
%LPD*%
G01*
G04 APERTURE LIST*
%ADD10C,0.150000*%
%ADD11C,0.120000*%
%ADD12C,0.127000*%
%ADD13C,0.100000*%
%ADD14C,0.504000*%
%ADD15C,0.000000*%
G04 APERTURE END LIST*
D10*
X158011905Y-70419819D02*
X158011905Y-69419819D01*
X158011905Y-69419819D02*
X158250000Y-69419819D01*
X158250000Y-69419819D02*
X158392857Y-69467438D01*
X158392857Y-69467438D02*
X158488095Y-69562676D01*
X158488095Y-69562676D02*
X158535714Y-69657914D01*
X158535714Y-69657914D02*
X158583333Y-69848390D01*
X158583333Y-69848390D02*
X158583333Y-69991247D01*
X158583333Y-69991247D02*
X158535714Y-70181723D01*
X158535714Y-70181723D02*
X158488095Y-70276961D01*
X158488095Y-70276961D02*
X158392857Y-70372200D01*
X158392857Y-70372200D02*
X158250000Y-70419819D01*
X158250000Y-70419819D02*
X158011905Y-70419819D01*
X158916667Y-69419819D02*
X159535714Y-69419819D01*
X159535714Y-69419819D02*
X159202381Y-69800771D01*
X159202381Y-69800771D02*
X159345238Y-69800771D01*
X159345238Y-69800771D02*
X159440476Y-69848390D01*
X159440476Y-69848390D02*
X159488095Y-69896009D01*
X159488095Y-69896009D02*
X159535714Y-69991247D01*
X159535714Y-69991247D02*
X159535714Y-70229342D01*
X159535714Y-70229342D02*
X159488095Y-70324580D01*
X159488095Y-70324580D02*
X159440476Y-70372200D01*
X159440476Y-70372200D02*
X159345238Y-70419819D01*
X159345238Y-70419819D02*
X159059524Y-70419819D01*
X159059524Y-70419819D02*
X158964286Y-70372200D01*
X158964286Y-70372200D02*
X158916667Y-70324580D01*
X150868095Y-71139819D02*
X150868095Y-70139819D01*
X151439523Y-71139819D02*
X151010952Y-70568390D01*
X151439523Y-70139819D02*
X150868095Y-70711247D01*
X160018333Y-115984819D02*
X159685000Y-115508628D01*
X159446905Y-115984819D02*
X159446905Y-114984819D01*
X159446905Y-114984819D02*
X159827857Y-114984819D01*
X159827857Y-114984819D02*
X159923095Y-115032438D01*
X159923095Y-115032438D02*
X159970714Y-115080057D01*
X159970714Y-115080057D02*
X160018333Y-115175295D01*
X160018333Y-115175295D02*
X160018333Y-115318152D01*
X160018333Y-115318152D02*
X159970714Y-115413390D01*
X159970714Y-115413390D02*
X159923095Y-115461009D01*
X159923095Y-115461009D02*
X159827857Y-115508628D01*
X159827857Y-115508628D02*
X159446905Y-115508628D01*
X160923095Y-114984819D02*
X160446905Y-114984819D01*
X160446905Y-114984819D02*
X160399286Y-115461009D01*
X160399286Y-115461009D02*
X160446905Y-115413390D01*
X160446905Y-115413390D02*
X160542143Y-115365771D01*
X160542143Y-115365771D02*
X160780238Y-115365771D01*
X160780238Y-115365771D02*
X160875476Y-115413390D01*
X160875476Y-115413390D02*
X160923095Y-115461009D01*
X160923095Y-115461009D02*
X160970714Y-115556247D01*
X160970714Y-115556247D02*
X160970714Y-115794342D01*
X160970714Y-115794342D02*
X160923095Y-115889580D01*
X160923095Y-115889580D02*
X160875476Y-115937200D01*
X160875476Y-115937200D02*
X160780238Y-115984819D01*
X160780238Y-115984819D02*
X160542143Y-115984819D01*
X160542143Y-115984819D02*
X160446905Y-115937200D01*
X160446905Y-115937200D02*
X160399286Y-115889580D01*
X108521667Y-121438200D02*
X108664524Y-121485819D01*
X108664524Y-121485819D02*
X108902619Y-121485819D01*
X108902619Y-121485819D02*
X108997857Y-121438200D01*
X108997857Y-121438200D02*
X109045476Y-121390580D01*
X109045476Y-121390580D02*
X109093095Y-121295342D01*
X109093095Y-121295342D02*
X109093095Y-121200104D01*
X109093095Y-121200104D02*
X109045476Y-121104866D01*
X109045476Y-121104866D02*
X108997857Y-121057247D01*
X108997857Y-121057247D02*
X108902619Y-121009628D01*
X108902619Y-121009628D02*
X108712143Y-120962009D01*
X108712143Y-120962009D02*
X108616905Y-120914390D01*
X108616905Y-120914390D02*
X108569286Y-120866771D01*
X108569286Y-120866771D02*
X108521667Y-120771533D01*
X108521667Y-120771533D02*
X108521667Y-120676295D01*
X108521667Y-120676295D02*
X108569286Y-120581057D01*
X108569286Y-120581057D02*
X108616905Y-120533438D01*
X108616905Y-120533438D02*
X108712143Y-120485819D01*
X108712143Y-120485819D02*
X108950238Y-120485819D01*
X108950238Y-120485819D02*
X109093095Y-120533438D01*
X109426429Y-120485819D02*
X109664524Y-121485819D01*
X109664524Y-121485819D02*
X109855000Y-120771533D01*
X109855000Y-120771533D02*
X110045476Y-121485819D01*
X110045476Y-121485819D02*
X110283572Y-120485819D01*
X110712143Y-121485819D02*
X110902619Y-121485819D01*
X110902619Y-121485819D02*
X110997857Y-121438200D01*
X110997857Y-121438200D02*
X111045476Y-121390580D01*
X111045476Y-121390580D02*
X111140714Y-121247723D01*
X111140714Y-121247723D02*
X111188333Y-121057247D01*
X111188333Y-121057247D02*
X111188333Y-120676295D01*
X111188333Y-120676295D02*
X111140714Y-120581057D01*
X111140714Y-120581057D02*
X111093095Y-120533438D01*
X111093095Y-120533438D02*
X110997857Y-120485819D01*
X110997857Y-120485819D02*
X110807381Y-120485819D01*
X110807381Y-120485819D02*
X110712143Y-120533438D01*
X110712143Y-120533438D02*
X110664524Y-120581057D01*
X110664524Y-120581057D02*
X110616905Y-120676295D01*
X110616905Y-120676295D02*
X110616905Y-120914390D01*
X110616905Y-120914390D02*
X110664524Y-121009628D01*
X110664524Y-121009628D02*
X110712143Y-121057247D01*
X110712143Y-121057247D02*
X110807381Y-121104866D01*
X110807381Y-121104866D02*
X110997857Y-121104866D01*
X110997857Y-121104866D02*
X111093095Y-121057247D01*
X111093095Y-121057247D02*
X111140714Y-121009628D01*
X111140714Y-121009628D02*
X111188333Y-120914390D01*
X158011905Y-85869819D02*
X158011905Y-84869819D01*
X158011905Y-84869819D02*
X158250000Y-84869819D01*
X158250000Y-84869819D02*
X158392857Y-84917438D01*
X158392857Y-84917438D02*
X158488095Y-85012676D01*
X158488095Y-85012676D02*
X158535714Y-85107914D01*
X158535714Y-85107914D02*
X158583333Y-85298390D01*
X158583333Y-85298390D02*
X158583333Y-85441247D01*
X158583333Y-85441247D02*
X158535714Y-85631723D01*
X158535714Y-85631723D02*
X158488095Y-85726961D01*
X158488095Y-85726961D02*
X158392857Y-85822200D01*
X158392857Y-85822200D02*
X158250000Y-85869819D01*
X158250000Y-85869819D02*
X158011905Y-85869819D01*
X159440476Y-84869819D02*
X159250000Y-84869819D01*
X159250000Y-84869819D02*
X159154762Y-84917438D01*
X159154762Y-84917438D02*
X159107143Y-84965057D01*
X159107143Y-84965057D02*
X159011905Y-85107914D01*
X159011905Y-85107914D02*
X158964286Y-85298390D01*
X158964286Y-85298390D02*
X158964286Y-85679342D01*
X158964286Y-85679342D02*
X159011905Y-85774580D01*
X159011905Y-85774580D02*
X159059524Y-85822200D01*
X159059524Y-85822200D02*
X159154762Y-85869819D01*
X159154762Y-85869819D02*
X159345238Y-85869819D01*
X159345238Y-85869819D02*
X159440476Y-85822200D01*
X159440476Y-85822200D02*
X159488095Y-85774580D01*
X159488095Y-85774580D02*
X159535714Y-85679342D01*
X159535714Y-85679342D02*
X159535714Y-85441247D01*
X159535714Y-85441247D02*
X159488095Y-85346009D01*
X159488095Y-85346009D02*
X159440476Y-85298390D01*
X159440476Y-85298390D02*
X159345238Y-85250771D01*
X159345238Y-85250771D02*
X159154762Y-85250771D01*
X159154762Y-85250771D02*
X159059524Y-85298390D01*
X159059524Y-85298390D02*
X159011905Y-85346009D01*
X159011905Y-85346009D02*
X158964286Y-85441247D01*
X98996667Y-83338200D02*
X99139524Y-83385819D01*
X99139524Y-83385819D02*
X99377619Y-83385819D01*
X99377619Y-83385819D02*
X99472857Y-83338200D01*
X99472857Y-83338200D02*
X99520476Y-83290580D01*
X99520476Y-83290580D02*
X99568095Y-83195342D01*
X99568095Y-83195342D02*
X99568095Y-83100104D01*
X99568095Y-83100104D02*
X99520476Y-83004866D01*
X99520476Y-83004866D02*
X99472857Y-82957247D01*
X99472857Y-82957247D02*
X99377619Y-82909628D01*
X99377619Y-82909628D02*
X99187143Y-82862009D01*
X99187143Y-82862009D02*
X99091905Y-82814390D01*
X99091905Y-82814390D02*
X99044286Y-82766771D01*
X99044286Y-82766771D02*
X98996667Y-82671533D01*
X98996667Y-82671533D02*
X98996667Y-82576295D01*
X98996667Y-82576295D02*
X99044286Y-82481057D01*
X99044286Y-82481057D02*
X99091905Y-82433438D01*
X99091905Y-82433438D02*
X99187143Y-82385819D01*
X99187143Y-82385819D02*
X99425238Y-82385819D01*
X99425238Y-82385819D02*
X99568095Y-82433438D01*
X99901429Y-82385819D02*
X100139524Y-83385819D01*
X100139524Y-83385819D02*
X100330000Y-82671533D01*
X100330000Y-82671533D02*
X100520476Y-83385819D01*
X100520476Y-83385819D02*
X100758572Y-82385819D01*
X101044286Y-82385819D02*
X101663333Y-82385819D01*
X101663333Y-82385819D02*
X101330000Y-82766771D01*
X101330000Y-82766771D02*
X101472857Y-82766771D01*
X101472857Y-82766771D02*
X101568095Y-82814390D01*
X101568095Y-82814390D02*
X101615714Y-82862009D01*
X101615714Y-82862009D02*
X101663333Y-82957247D01*
X101663333Y-82957247D02*
X101663333Y-83195342D01*
X101663333Y-83195342D02*
X101615714Y-83290580D01*
X101615714Y-83290580D02*
X101568095Y-83338200D01*
X101568095Y-83338200D02*
X101472857Y-83385819D01*
X101472857Y-83385819D02*
X101187143Y-83385819D01*
X101187143Y-83385819D02*
X101091905Y-83338200D01*
X101091905Y-83338200D02*
X101044286Y-83290580D01*
X165588333Y-106309580D02*
X165540714Y-106357200D01*
X165540714Y-106357200D02*
X165397857Y-106404819D01*
X165397857Y-106404819D02*
X165302619Y-106404819D01*
X165302619Y-106404819D02*
X165159762Y-106357200D01*
X165159762Y-106357200D02*
X165064524Y-106261961D01*
X165064524Y-106261961D02*
X165016905Y-106166723D01*
X165016905Y-106166723D02*
X164969286Y-105976247D01*
X164969286Y-105976247D02*
X164969286Y-105833390D01*
X164969286Y-105833390D02*
X165016905Y-105642914D01*
X165016905Y-105642914D02*
X165064524Y-105547676D01*
X165064524Y-105547676D02*
X165159762Y-105452438D01*
X165159762Y-105452438D02*
X165302619Y-105404819D01*
X165302619Y-105404819D02*
X165397857Y-105404819D01*
X165397857Y-105404819D02*
X165540714Y-105452438D01*
X165540714Y-105452438D02*
X165588333Y-105500057D01*
X166540714Y-106404819D02*
X165969286Y-106404819D01*
X166255000Y-106404819D02*
X166255000Y-105404819D01*
X166255000Y-105404819D02*
X166159762Y-105547676D01*
X166159762Y-105547676D02*
X166064524Y-105642914D01*
X166064524Y-105642914D02*
X165969286Y-105690533D01*
X89471667Y-121438200D02*
X89614524Y-121485819D01*
X89614524Y-121485819D02*
X89852619Y-121485819D01*
X89852619Y-121485819D02*
X89947857Y-121438200D01*
X89947857Y-121438200D02*
X89995476Y-121390580D01*
X89995476Y-121390580D02*
X90043095Y-121295342D01*
X90043095Y-121295342D02*
X90043095Y-121200104D01*
X90043095Y-121200104D02*
X89995476Y-121104866D01*
X89995476Y-121104866D02*
X89947857Y-121057247D01*
X89947857Y-121057247D02*
X89852619Y-121009628D01*
X89852619Y-121009628D02*
X89662143Y-120962009D01*
X89662143Y-120962009D02*
X89566905Y-120914390D01*
X89566905Y-120914390D02*
X89519286Y-120866771D01*
X89519286Y-120866771D02*
X89471667Y-120771533D01*
X89471667Y-120771533D02*
X89471667Y-120676295D01*
X89471667Y-120676295D02*
X89519286Y-120581057D01*
X89519286Y-120581057D02*
X89566905Y-120533438D01*
X89566905Y-120533438D02*
X89662143Y-120485819D01*
X89662143Y-120485819D02*
X89900238Y-120485819D01*
X89900238Y-120485819D02*
X90043095Y-120533438D01*
X90376429Y-120485819D02*
X90614524Y-121485819D01*
X90614524Y-121485819D02*
X90805000Y-120771533D01*
X90805000Y-120771533D02*
X90995476Y-121485819D01*
X90995476Y-121485819D02*
X91233572Y-120485819D01*
X91757381Y-120914390D02*
X91662143Y-120866771D01*
X91662143Y-120866771D02*
X91614524Y-120819152D01*
X91614524Y-120819152D02*
X91566905Y-120723914D01*
X91566905Y-120723914D02*
X91566905Y-120676295D01*
X91566905Y-120676295D02*
X91614524Y-120581057D01*
X91614524Y-120581057D02*
X91662143Y-120533438D01*
X91662143Y-120533438D02*
X91757381Y-120485819D01*
X91757381Y-120485819D02*
X91947857Y-120485819D01*
X91947857Y-120485819D02*
X92043095Y-120533438D01*
X92043095Y-120533438D02*
X92090714Y-120581057D01*
X92090714Y-120581057D02*
X92138333Y-120676295D01*
X92138333Y-120676295D02*
X92138333Y-120723914D01*
X92138333Y-120723914D02*
X92090714Y-120819152D01*
X92090714Y-120819152D02*
X92043095Y-120866771D01*
X92043095Y-120866771D02*
X91947857Y-120914390D01*
X91947857Y-120914390D02*
X91757381Y-120914390D01*
X91757381Y-120914390D02*
X91662143Y-120962009D01*
X91662143Y-120962009D02*
X91614524Y-121009628D01*
X91614524Y-121009628D02*
X91566905Y-121104866D01*
X91566905Y-121104866D02*
X91566905Y-121295342D01*
X91566905Y-121295342D02*
X91614524Y-121390580D01*
X91614524Y-121390580D02*
X91662143Y-121438200D01*
X91662143Y-121438200D02*
X91757381Y-121485819D01*
X91757381Y-121485819D02*
X91947857Y-121485819D01*
X91947857Y-121485819D02*
X92043095Y-121438200D01*
X92043095Y-121438200D02*
X92090714Y-121390580D01*
X92090714Y-121390580D02*
X92138333Y-121295342D01*
X92138333Y-121295342D02*
X92138333Y-121104866D01*
X92138333Y-121104866D02*
X92090714Y-121009628D01*
X92090714Y-121009628D02*
X92043095Y-120962009D01*
X92043095Y-120962009D02*
X91947857Y-120914390D01*
X130706905Y-85544819D02*
X130706905Y-84544819D01*
X130706905Y-84544819D02*
X130945000Y-84544819D01*
X130945000Y-84544819D02*
X131087857Y-84592438D01*
X131087857Y-84592438D02*
X131183095Y-84687676D01*
X131183095Y-84687676D02*
X131230714Y-84782914D01*
X131230714Y-84782914D02*
X131278333Y-84973390D01*
X131278333Y-84973390D02*
X131278333Y-85116247D01*
X131278333Y-85116247D02*
X131230714Y-85306723D01*
X131230714Y-85306723D02*
X131183095Y-85401961D01*
X131183095Y-85401961D02*
X131087857Y-85497200D01*
X131087857Y-85497200D02*
X130945000Y-85544819D01*
X130945000Y-85544819D02*
X130706905Y-85544819D01*
X132230714Y-85544819D02*
X131659286Y-85544819D01*
X131945000Y-85544819D02*
X131945000Y-84544819D01*
X131945000Y-84544819D02*
X131849762Y-84687676D01*
X131849762Y-84687676D02*
X131754524Y-84782914D01*
X131754524Y-84782914D02*
X131659286Y-84830533D01*
X124234819Y-129683333D02*
X124949104Y-129683333D01*
X124949104Y-129683333D02*
X125091961Y-129730952D01*
X125091961Y-129730952D02*
X125187200Y-129826190D01*
X125187200Y-129826190D02*
X125234819Y-129969047D01*
X125234819Y-129969047D02*
X125234819Y-130064285D01*
X125234819Y-128683333D02*
X125234819Y-129254761D01*
X125234819Y-128969047D02*
X124234819Y-128969047D01*
X124234819Y-128969047D02*
X124377676Y-129064285D01*
X124377676Y-129064285D02*
X124472914Y-129159523D01*
X124472914Y-129159523D02*
X124520533Y-129254761D01*
X160018333Y-109684819D02*
X159685000Y-109208628D01*
X159446905Y-109684819D02*
X159446905Y-108684819D01*
X159446905Y-108684819D02*
X159827857Y-108684819D01*
X159827857Y-108684819D02*
X159923095Y-108732438D01*
X159923095Y-108732438D02*
X159970714Y-108780057D01*
X159970714Y-108780057D02*
X160018333Y-108875295D01*
X160018333Y-108875295D02*
X160018333Y-109018152D01*
X160018333Y-109018152D02*
X159970714Y-109113390D01*
X159970714Y-109113390D02*
X159923095Y-109161009D01*
X159923095Y-109161009D02*
X159827857Y-109208628D01*
X159827857Y-109208628D02*
X159446905Y-109208628D01*
X160351667Y-108684819D02*
X160970714Y-108684819D01*
X160970714Y-108684819D02*
X160637381Y-109065771D01*
X160637381Y-109065771D02*
X160780238Y-109065771D01*
X160780238Y-109065771D02*
X160875476Y-109113390D01*
X160875476Y-109113390D02*
X160923095Y-109161009D01*
X160923095Y-109161009D02*
X160970714Y-109256247D01*
X160970714Y-109256247D02*
X160970714Y-109494342D01*
X160970714Y-109494342D02*
X160923095Y-109589580D01*
X160923095Y-109589580D02*
X160875476Y-109637200D01*
X160875476Y-109637200D02*
X160780238Y-109684819D01*
X160780238Y-109684819D02*
X160494524Y-109684819D01*
X160494524Y-109684819D02*
X160399286Y-109637200D01*
X160399286Y-109637200D02*
X160351667Y-109589580D01*
X165588333Y-115759580D02*
X165540714Y-115807200D01*
X165540714Y-115807200D02*
X165397857Y-115854819D01*
X165397857Y-115854819D02*
X165302619Y-115854819D01*
X165302619Y-115854819D02*
X165159762Y-115807200D01*
X165159762Y-115807200D02*
X165064524Y-115711961D01*
X165064524Y-115711961D02*
X165016905Y-115616723D01*
X165016905Y-115616723D02*
X164969286Y-115426247D01*
X164969286Y-115426247D02*
X164969286Y-115283390D01*
X164969286Y-115283390D02*
X165016905Y-115092914D01*
X165016905Y-115092914D02*
X165064524Y-114997676D01*
X165064524Y-114997676D02*
X165159762Y-114902438D01*
X165159762Y-114902438D02*
X165302619Y-114854819D01*
X165302619Y-114854819D02*
X165397857Y-114854819D01*
X165397857Y-114854819D02*
X165540714Y-114902438D01*
X165540714Y-114902438D02*
X165588333Y-114950057D01*
X166445476Y-115188152D02*
X166445476Y-115854819D01*
X166207381Y-114807200D02*
X165969286Y-115521485D01*
X165969286Y-115521485D02*
X166588333Y-115521485D01*
X98996667Y-64288200D02*
X99139524Y-64335819D01*
X99139524Y-64335819D02*
X99377619Y-64335819D01*
X99377619Y-64335819D02*
X99472857Y-64288200D01*
X99472857Y-64288200D02*
X99520476Y-64240580D01*
X99520476Y-64240580D02*
X99568095Y-64145342D01*
X99568095Y-64145342D02*
X99568095Y-64050104D01*
X99568095Y-64050104D02*
X99520476Y-63954866D01*
X99520476Y-63954866D02*
X99472857Y-63907247D01*
X99472857Y-63907247D02*
X99377619Y-63859628D01*
X99377619Y-63859628D02*
X99187143Y-63812009D01*
X99187143Y-63812009D02*
X99091905Y-63764390D01*
X99091905Y-63764390D02*
X99044286Y-63716771D01*
X99044286Y-63716771D02*
X98996667Y-63621533D01*
X98996667Y-63621533D02*
X98996667Y-63526295D01*
X98996667Y-63526295D02*
X99044286Y-63431057D01*
X99044286Y-63431057D02*
X99091905Y-63383438D01*
X99091905Y-63383438D02*
X99187143Y-63335819D01*
X99187143Y-63335819D02*
X99425238Y-63335819D01*
X99425238Y-63335819D02*
X99568095Y-63383438D01*
X99901429Y-63335819D02*
X100139524Y-64335819D01*
X100139524Y-64335819D02*
X100330000Y-63621533D01*
X100330000Y-63621533D02*
X100520476Y-64335819D01*
X100520476Y-64335819D02*
X100758572Y-63335819D01*
X101663333Y-64335819D02*
X101091905Y-64335819D01*
X101377619Y-64335819D02*
X101377619Y-63335819D01*
X101377619Y-63335819D02*
X101282381Y-63478676D01*
X101282381Y-63478676D02*
X101187143Y-63573914D01*
X101187143Y-63573914D02*
X101091905Y-63621533D01*
X160018333Y-112834819D02*
X159685000Y-112358628D01*
X159446905Y-112834819D02*
X159446905Y-111834819D01*
X159446905Y-111834819D02*
X159827857Y-111834819D01*
X159827857Y-111834819D02*
X159923095Y-111882438D01*
X159923095Y-111882438D02*
X159970714Y-111930057D01*
X159970714Y-111930057D02*
X160018333Y-112025295D01*
X160018333Y-112025295D02*
X160018333Y-112168152D01*
X160018333Y-112168152D02*
X159970714Y-112263390D01*
X159970714Y-112263390D02*
X159923095Y-112311009D01*
X159923095Y-112311009D02*
X159827857Y-112358628D01*
X159827857Y-112358628D02*
X159446905Y-112358628D01*
X160875476Y-112168152D02*
X160875476Y-112834819D01*
X160637381Y-111787200D02*
X160399286Y-112501485D01*
X160399286Y-112501485D02*
X161018333Y-112501485D01*
X118046667Y-102388200D02*
X118189524Y-102435819D01*
X118189524Y-102435819D02*
X118427619Y-102435819D01*
X118427619Y-102435819D02*
X118522857Y-102388200D01*
X118522857Y-102388200D02*
X118570476Y-102340580D01*
X118570476Y-102340580D02*
X118618095Y-102245342D01*
X118618095Y-102245342D02*
X118618095Y-102150104D01*
X118618095Y-102150104D02*
X118570476Y-102054866D01*
X118570476Y-102054866D02*
X118522857Y-102007247D01*
X118522857Y-102007247D02*
X118427619Y-101959628D01*
X118427619Y-101959628D02*
X118237143Y-101912009D01*
X118237143Y-101912009D02*
X118141905Y-101864390D01*
X118141905Y-101864390D02*
X118094286Y-101816771D01*
X118094286Y-101816771D02*
X118046667Y-101721533D01*
X118046667Y-101721533D02*
X118046667Y-101626295D01*
X118046667Y-101626295D02*
X118094286Y-101531057D01*
X118094286Y-101531057D02*
X118141905Y-101483438D01*
X118141905Y-101483438D02*
X118237143Y-101435819D01*
X118237143Y-101435819D02*
X118475238Y-101435819D01*
X118475238Y-101435819D02*
X118618095Y-101483438D01*
X118951429Y-101435819D02*
X119189524Y-102435819D01*
X119189524Y-102435819D02*
X119380000Y-101721533D01*
X119380000Y-101721533D02*
X119570476Y-102435819D01*
X119570476Y-102435819D02*
X119808572Y-101435819D01*
X120094286Y-101435819D02*
X120760952Y-101435819D01*
X120760952Y-101435819D02*
X120332381Y-102435819D01*
X158011905Y-60119819D02*
X158011905Y-59119819D01*
X158011905Y-59119819D02*
X158250000Y-59119819D01*
X158250000Y-59119819D02*
X158392857Y-59167438D01*
X158392857Y-59167438D02*
X158488095Y-59262676D01*
X158488095Y-59262676D02*
X158535714Y-59357914D01*
X158535714Y-59357914D02*
X158583333Y-59548390D01*
X158583333Y-59548390D02*
X158583333Y-59691247D01*
X158583333Y-59691247D02*
X158535714Y-59881723D01*
X158535714Y-59881723D02*
X158488095Y-59976961D01*
X158488095Y-59976961D02*
X158392857Y-60072200D01*
X158392857Y-60072200D02*
X158250000Y-60119819D01*
X158250000Y-60119819D02*
X158011905Y-60119819D01*
X159535714Y-60119819D02*
X158964286Y-60119819D01*
X159250000Y-60119819D02*
X159250000Y-59119819D01*
X159250000Y-59119819D02*
X159154762Y-59262676D01*
X159154762Y-59262676D02*
X159059524Y-59357914D01*
X159059524Y-59357914D02*
X158964286Y-59405533D01*
X150868095Y-60839819D02*
X150868095Y-59839819D01*
X151439523Y-60839819D02*
X151010952Y-60268390D01*
X151439523Y-59839819D02*
X150868095Y-60411247D01*
X148419819Y-95376904D02*
X149229342Y-95376904D01*
X149229342Y-95376904D02*
X149324580Y-95329285D01*
X149324580Y-95329285D02*
X149372200Y-95281666D01*
X149372200Y-95281666D02*
X149419819Y-95186428D01*
X149419819Y-95186428D02*
X149419819Y-94995952D01*
X149419819Y-94995952D02*
X149372200Y-94900714D01*
X149372200Y-94900714D02*
X149324580Y-94853095D01*
X149324580Y-94853095D02*
X149229342Y-94805476D01*
X149229342Y-94805476D02*
X148419819Y-94805476D01*
X148515057Y-94376904D02*
X148467438Y-94329285D01*
X148467438Y-94329285D02*
X148419819Y-94234047D01*
X148419819Y-94234047D02*
X148419819Y-93995952D01*
X148419819Y-93995952D02*
X148467438Y-93900714D01*
X148467438Y-93900714D02*
X148515057Y-93853095D01*
X148515057Y-93853095D02*
X148610295Y-93805476D01*
X148610295Y-93805476D02*
X148705533Y-93805476D01*
X148705533Y-93805476D02*
X148848390Y-93853095D01*
X148848390Y-93853095D02*
X149419819Y-94424523D01*
X149419819Y-94424523D02*
X149419819Y-93805476D01*
X79946667Y-102388200D02*
X80089524Y-102435819D01*
X80089524Y-102435819D02*
X80327619Y-102435819D01*
X80327619Y-102435819D02*
X80422857Y-102388200D01*
X80422857Y-102388200D02*
X80470476Y-102340580D01*
X80470476Y-102340580D02*
X80518095Y-102245342D01*
X80518095Y-102245342D02*
X80518095Y-102150104D01*
X80518095Y-102150104D02*
X80470476Y-102054866D01*
X80470476Y-102054866D02*
X80422857Y-102007247D01*
X80422857Y-102007247D02*
X80327619Y-101959628D01*
X80327619Y-101959628D02*
X80137143Y-101912009D01*
X80137143Y-101912009D02*
X80041905Y-101864390D01*
X80041905Y-101864390D02*
X79994286Y-101816771D01*
X79994286Y-101816771D02*
X79946667Y-101721533D01*
X79946667Y-101721533D02*
X79946667Y-101626295D01*
X79946667Y-101626295D02*
X79994286Y-101531057D01*
X79994286Y-101531057D02*
X80041905Y-101483438D01*
X80041905Y-101483438D02*
X80137143Y-101435819D01*
X80137143Y-101435819D02*
X80375238Y-101435819D01*
X80375238Y-101435819D02*
X80518095Y-101483438D01*
X80851429Y-101435819D02*
X81089524Y-102435819D01*
X81089524Y-102435819D02*
X81280000Y-101721533D01*
X81280000Y-101721533D02*
X81470476Y-102435819D01*
X81470476Y-102435819D02*
X81708572Y-101435819D01*
X82565714Y-101435819D02*
X82089524Y-101435819D01*
X82089524Y-101435819D02*
X82041905Y-101912009D01*
X82041905Y-101912009D02*
X82089524Y-101864390D01*
X82089524Y-101864390D02*
X82184762Y-101816771D01*
X82184762Y-101816771D02*
X82422857Y-101816771D01*
X82422857Y-101816771D02*
X82518095Y-101864390D01*
X82518095Y-101864390D02*
X82565714Y-101912009D01*
X82565714Y-101912009D02*
X82613333Y-102007247D01*
X82613333Y-102007247D02*
X82613333Y-102245342D01*
X82613333Y-102245342D02*
X82565714Y-102340580D01*
X82565714Y-102340580D02*
X82518095Y-102388200D01*
X82518095Y-102388200D02*
X82422857Y-102435819D01*
X82422857Y-102435819D02*
X82184762Y-102435819D01*
X82184762Y-102435819D02*
X82089524Y-102388200D01*
X82089524Y-102388200D02*
X82041905Y-102340580D01*
X160018333Y-106534819D02*
X159685000Y-106058628D01*
X159446905Y-106534819D02*
X159446905Y-105534819D01*
X159446905Y-105534819D02*
X159827857Y-105534819D01*
X159827857Y-105534819D02*
X159923095Y-105582438D01*
X159923095Y-105582438D02*
X159970714Y-105630057D01*
X159970714Y-105630057D02*
X160018333Y-105725295D01*
X160018333Y-105725295D02*
X160018333Y-105868152D01*
X160018333Y-105868152D02*
X159970714Y-105963390D01*
X159970714Y-105963390D02*
X159923095Y-106011009D01*
X159923095Y-106011009D02*
X159827857Y-106058628D01*
X159827857Y-106058628D02*
X159446905Y-106058628D01*
X160399286Y-105630057D02*
X160446905Y-105582438D01*
X160446905Y-105582438D02*
X160542143Y-105534819D01*
X160542143Y-105534819D02*
X160780238Y-105534819D01*
X160780238Y-105534819D02*
X160875476Y-105582438D01*
X160875476Y-105582438D02*
X160923095Y-105630057D01*
X160923095Y-105630057D02*
X160970714Y-105725295D01*
X160970714Y-105725295D02*
X160970714Y-105820533D01*
X160970714Y-105820533D02*
X160923095Y-105963390D01*
X160923095Y-105963390D02*
X160351667Y-106534819D01*
X160351667Y-106534819D02*
X160970714Y-106534819D01*
X79946667Y-83338200D02*
X80089524Y-83385819D01*
X80089524Y-83385819D02*
X80327619Y-83385819D01*
X80327619Y-83385819D02*
X80422857Y-83338200D01*
X80422857Y-83338200D02*
X80470476Y-83290580D01*
X80470476Y-83290580D02*
X80518095Y-83195342D01*
X80518095Y-83195342D02*
X80518095Y-83100104D01*
X80518095Y-83100104D02*
X80470476Y-83004866D01*
X80470476Y-83004866D02*
X80422857Y-82957247D01*
X80422857Y-82957247D02*
X80327619Y-82909628D01*
X80327619Y-82909628D02*
X80137143Y-82862009D01*
X80137143Y-82862009D02*
X80041905Y-82814390D01*
X80041905Y-82814390D02*
X79994286Y-82766771D01*
X79994286Y-82766771D02*
X79946667Y-82671533D01*
X79946667Y-82671533D02*
X79946667Y-82576295D01*
X79946667Y-82576295D02*
X79994286Y-82481057D01*
X79994286Y-82481057D02*
X80041905Y-82433438D01*
X80041905Y-82433438D02*
X80137143Y-82385819D01*
X80137143Y-82385819D02*
X80375238Y-82385819D01*
X80375238Y-82385819D02*
X80518095Y-82433438D01*
X80851429Y-82385819D02*
X81089524Y-83385819D01*
X81089524Y-83385819D02*
X81280000Y-82671533D01*
X81280000Y-82671533D02*
X81470476Y-83385819D01*
X81470476Y-83385819D02*
X81708572Y-82385819D01*
X82041905Y-82481057D02*
X82089524Y-82433438D01*
X82089524Y-82433438D02*
X82184762Y-82385819D01*
X82184762Y-82385819D02*
X82422857Y-82385819D01*
X82422857Y-82385819D02*
X82518095Y-82433438D01*
X82518095Y-82433438D02*
X82565714Y-82481057D01*
X82565714Y-82481057D02*
X82613333Y-82576295D01*
X82613333Y-82576295D02*
X82613333Y-82671533D01*
X82613333Y-82671533D02*
X82565714Y-82814390D01*
X82565714Y-82814390D02*
X81994286Y-83385819D01*
X81994286Y-83385819D02*
X82613333Y-83385819D01*
X158011905Y-65269819D02*
X158011905Y-64269819D01*
X158011905Y-64269819D02*
X158250000Y-64269819D01*
X158250000Y-64269819D02*
X158392857Y-64317438D01*
X158392857Y-64317438D02*
X158488095Y-64412676D01*
X158488095Y-64412676D02*
X158535714Y-64507914D01*
X158535714Y-64507914D02*
X158583333Y-64698390D01*
X158583333Y-64698390D02*
X158583333Y-64841247D01*
X158583333Y-64841247D02*
X158535714Y-65031723D01*
X158535714Y-65031723D02*
X158488095Y-65126961D01*
X158488095Y-65126961D02*
X158392857Y-65222200D01*
X158392857Y-65222200D02*
X158250000Y-65269819D01*
X158250000Y-65269819D02*
X158011905Y-65269819D01*
X158964286Y-64365057D02*
X159011905Y-64317438D01*
X159011905Y-64317438D02*
X159107143Y-64269819D01*
X159107143Y-64269819D02*
X159345238Y-64269819D01*
X159345238Y-64269819D02*
X159440476Y-64317438D01*
X159440476Y-64317438D02*
X159488095Y-64365057D01*
X159488095Y-64365057D02*
X159535714Y-64460295D01*
X159535714Y-64460295D02*
X159535714Y-64555533D01*
X159535714Y-64555533D02*
X159488095Y-64698390D01*
X159488095Y-64698390D02*
X158916667Y-65269819D01*
X158916667Y-65269819D02*
X159535714Y-65269819D01*
X150868095Y-65989819D02*
X150868095Y-64989819D01*
X151439523Y-65989819D02*
X151010952Y-65418390D01*
X151439523Y-64989819D02*
X150868095Y-65561247D01*
X158011905Y-80719819D02*
X158011905Y-79719819D01*
X158011905Y-79719819D02*
X158250000Y-79719819D01*
X158250000Y-79719819D02*
X158392857Y-79767438D01*
X158392857Y-79767438D02*
X158488095Y-79862676D01*
X158488095Y-79862676D02*
X158535714Y-79957914D01*
X158535714Y-79957914D02*
X158583333Y-80148390D01*
X158583333Y-80148390D02*
X158583333Y-80291247D01*
X158583333Y-80291247D02*
X158535714Y-80481723D01*
X158535714Y-80481723D02*
X158488095Y-80576961D01*
X158488095Y-80576961D02*
X158392857Y-80672200D01*
X158392857Y-80672200D02*
X158250000Y-80719819D01*
X158250000Y-80719819D02*
X158011905Y-80719819D01*
X159488095Y-79719819D02*
X159011905Y-79719819D01*
X159011905Y-79719819D02*
X158964286Y-80196009D01*
X158964286Y-80196009D02*
X159011905Y-80148390D01*
X159011905Y-80148390D02*
X159107143Y-80100771D01*
X159107143Y-80100771D02*
X159345238Y-80100771D01*
X159345238Y-80100771D02*
X159440476Y-80148390D01*
X159440476Y-80148390D02*
X159488095Y-80196009D01*
X159488095Y-80196009D02*
X159535714Y-80291247D01*
X159535714Y-80291247D02*
X159535714Y-80529342D01*
X159535714Y-80529342D02*
X159488095Y-80624580D01*
X159488095Y-80624580D02*
X159440476Y-80672200D01*
X159440476Y-80672200D02*
X159345238Y-80719819D01*
X159345238Y-80719819D02*
X159107143Y-80719819D01*
X159107143Y-80719819D02*
X159011905Y-80672200D01*
X159011905Y-80672200D02*
X158964286Y-80624580D01*
X158011905Y-96169819D02*
X158011905Y-95169819D01*
X158011905Y-95169819D02*
X158250000Y-95169819D01*
X158250000Y-95169819D02*
X158392857Y-95217438D01*
X158392857Y-95217438D02*
X158488095Y-95312676D01*
X158488095Y-95312676D02*
X158535714Y-95407914D01*
X158535714Y-95407914D02*
X158583333Y-95598390D01*
X158583333Y-95598390D02*
X158583333Y-95741247D01*
X158583333Y-95741247D02*
X158535714Y-95931723D01*
X158535714Y-95931723D02*
X158488095Y-96026961D01*
X158488095Y-96026961D02*
X158392857Y-96122200D01*
X158392857Y-96122200D02*
X158250000Y-96169819D01*
X158250000Y-96169819D02*
X158011905Y-96169819D01*
X159154762Y-95598390D02*
X159059524Y-95550771D01*
X159059524Y-95550771D02*
X159011905Y-95503152D01*
X159011905Y-95503152D02*
X158964286Y-95407914D01*
X158964286Y-95407914D02*
X158964286Y-95360295D01*
X158964286Y-95360295D02*
X159011905Y-95265057D01*
X159011905Y-95265057D02*
X159059524Y-95217438D01*
X159059524Y-95217438D02*
X159154762Y-95169819D01*
X159154762Y-95169819D02*
X159345238Y-95169819D01*
X159345238Y-95169819D02*
X159440476Y-95217438D01*
X159440476Y-95217438D02*
X159488095Y-95265057D01*
X159488095Y-95265057D02*
X159535714Y-95360295D01*
X159535714Y-95360295D02*
X159535714Y-95407914D01*
X159535714Y-95407914D02*
X159488095Y-95503152D01*
X159488095Y-95503152D02*
X159440476Y-95550771D01*
X159440476Y-95550771D02*
X159345238Y-95598390D01*
X159345238Y-95598390D02*
X159154762Y-95598390D01*
X159154762Y-95598390D02*
X159059524Y-95646009D01*
X159059524Y-95646009D02*
X159011905Y-95693628D01*
X159011905Y-95693628D02*
X158964286Y-95788866D01*
X158964286Y-95788866D02*
X158964286Y-95979342D01*
X158964286Y-95979342D02*
X159011905Y-96074580D01*
X159011905Y-96074580D02*
X159059524Y-96122200D01*
X159059524Y-96122200D02*
X159154762Y-96169819D01*
X159154762Y-96169819D02*
X159345238Y-96169819D01*
X159345238Y-96169819D02*
X159440476Y-96122200D01*
X159440476Y-96122200D02*
X159488095Y-96074580D01*
X159488095Y-96074580D02*
X159535714Y-95979342D01*
X159535714Y-95979342D02*
X159535714Y-95788866D01*
X159535714Y-95788866D02*
X159488095Y-95693628D01*
X159488095Y-95693628D02*
X159440476Y-95646009D01*
X159440476Y-95646009D02*
X159345238Y-95598390D01*
X88379200Y-68098523D02*
X88426819Y-67955666D01*
X88426819Y-67955666D02*
X88426819Y-67717571D01*
X88426819Y-67717571D02*
X88379200Y-67622333D01*
X88379200Y-67622333D02*
X88331580Y-67574714D01*
X88331580Y-67574714D02*
X88236342Y-67527095D01*
X88236342Y-67527095D02*
X88141104Y-67527095D01*
X88141104Y-67527095D02*
X88045866Y-67574714D01*
X88045866Y-67574714D02*
X87998247Y-67622333D01*
X87998247Y-67622333D02*
X87950628Y-67717571D01*
X87950628Y-67717571D02*
X87903009Y-67908047D01*
X87903009Y-67908047D02*
X87855390Y-68003285D01*
X87855390Y-68003285D02*
X87807771Y-68050904D01*
X87807771Y-68050904D02*
X87712533Y-68098523D01*
X87712533Y-68098523D02*
X87617295Y-68098523D01*
X87617295Y-68098523D02*
X87522057Y-68050904D01*
X87522057Y-68050904D02*
X87474438Y-68003285D01*
X87474438Y-68003285D02*
X87426819Y-67908047D01*
X87426819Y-67908047D02*
X87426819Y-67669952D01*
X87426819Y-67669952D02*
X87474438Y-67527095D01*
X87426819Y-67193761D02*
X88426819Y-66955666D01*
X88426819Y-66955666D02*
X87712533Y-66765190D01*
X87712533Y-66765190D02*
X88426819Y-66574714D01*
X88426819Y-66574714D02*
X87426819Y-66336619D01*
X88426819Y-65431857D02*
X88426819Y-66003285D01*
X88426819Y-65717571D02*
X87426819Y-65717571D01*
X87426819Y-65717571D02*
X87569676Y-65812809D01*
X87569676Y-65812809D02*
X87664914Y-65908047D01*
X87664914Y-65908047D02*
X87712533Y-66003285D01*
X87426819Y-64812809D02*
X87426819Y-64717571D01*
X87426819Y-64717571D02*
X87474438Y-64622333D01*
X87474438Y-64622333D02*
X87522057Y-64574714D01*
X87522057Y-64574714D02*
X87617295Y-64527095D01*
X87617295Y-64527095D02*
X87807771Y-64479476D01*
X87807771Y-64479476D02*
X88045866Y-64479476D01*
X88045866Y-64479476D02*
X88236342Y-64527095D01*
X88236342Y-64527095D02*
X88331580Y-64574714D01*
X88331580Y-64574714D02*
X88379200Y-64622333D01*
X88379200Y-64622333D02*
X88426819Y-64717571D01*
X88426819Y-64717571D02*
X88426819Y-64812809D01*
X88426819Y-64812809D02*
X88379200Y-64908047D01*
X88379200Y-64908047D02*
X88331580Y-64955666D01*
X88331580Y-64955666D02*
X88236342Y-65003285D01*
X88236342Y-65003285D02*
X88045866Y-65050904D01*
X88045866Y-65050904D02*
X87807771Y-65050904D01*
X87807771Y-65050904D02*
X87617295Y-65003285D01*
X87617295Y-65003285D02*
X87522057Y-64955666D01*
X87522057Y-64955666D02*
X87474438Y-64908047D01*
X87474438Y-64908047D02*
X87426819Y-64812809D01*
X98996667Y-102388200D02*
X99139524Y-102435819D01*
X99139524Y-102435819D02*
X99377619Y-102435819D01*
X99377619Y-102435819D02*
X99472857Y-102388200D01*
X99472857Y-102388200D02*
X99520476Y-102340580D01*
X99520476Y-102340580D02*
X99568095Y-102245342D01*
X99568095Y-102245342D02*
X99568095Y-102150104D01*
X99568095Y-102150104D02*
X99520476Y-102054866D01*
X99520476Y-102054866D02*
X99472857Y-102007247D01*
X99472857Y-102007247D02*
X99377619Y-101959628D01*
X99377619Y-101959628D02*
X99187143Y-101912009D01*
X99187143Y-101912009D02*
X99091905Y-101864390D01*
X99091905Y-101864390D02*
X99044286Y-101816771D01*
X99044286Y-101816771D02*
X98996667Y-101721533D01*
X98996667Y-101721533D02*
X98996667Y-101626295D01*
X98996667Y-101626295D02*
X99044286Y-101531057D01*
X99044286Y-101531057D02*
X99091905Y-101483438D01*
X99091905Y-101483438D02*
X99187143Y-101435819D01*
X99187143Y-101435819D02*
X99425238Y-101435819D01*
X99425238Y-101435819D02*
X99568095Y-101483438D01*
X99901429Y-101435819D02*
X100139524Y-102435819D01*
X100139524Y-102435819D02*
X100330000Y-101721533D01*
X100330000Y-101721533D02*
X100520476Y-102435819D01*
X100520476Y-102435819D02*
X100758572Y-101435819D01*
X101568095Y-101435819D02*
X101377619Y-101435819D01*
X101377619Y-101435819D02*
X101282381Y-101483438D01*
X101282381Y-101483438D02*
X101234762Y-101531057D01*
X101234762Y-101531057D02*
X101139524Y-101673914D01*
X101139524Y-101673914D02*
X101091905Y-101864390D01*
X101091905Y-101864390D02*
X101091905Y-102245342D01*
X101091905Y-102245342D02*
X101139524Y-102340580D01*
X101139524Y-102340580D02*
X101187143Y-102388200D01*
X101187143Y-102388200D02*
X101282381Y-102435819D01*
X101282381Y-102435819D02*
X101472857Y-102435819D01*
X101472857Y-102435819D02*
X101568095Y-102388200D01*
X101568095Y-102388200D02*
X101615714Y-102340580D01*
X101615714Y-102340580D02*
X101663333Y-102245342D01*
X101663333Y-102245342D02*
X101663333Y-102007247D01*
X101663333Y-102007247D02*
X101615714Y-101912009D01*
X101615714Y-101912009D02*
X101568095Y-101864390D01*
X101568095Y-101864390D02*
X101472857Y-101816771D01*
X101472857Y-101816771D02*
X101282381Y-101816771D01*
X101282381Y-101816771D02*
X101187143Y-101864390D01*
X101187143Y-101864390D02*
X101139524Y-101912009D01*
X101139524Y-101912009D02*
X101091905Y-102007247D01*
X138961905Y-85544819D02*
X138961905Y-84544819D01*
X138961905Y-84544819D02*
X139200000Y-84544819D01*
X139200000Y-84544819D02*
X139342857Y-84592438D01*
X139342857Y-84592438D02*
X139438095Y-84687676D01*
X139438095Y-84687676D02*
X139485714Y-84782914D01*
X139485714Y-84782914D02*
X139533333Y-84973390D01*
X139533333Y-84973390D02*
X139533333Y-85116247D01*
X139533333Y-85116247D02*
X139485714Y-85306723D01*
X139485714Y-85306723D02*
X139438095Y-85401961D01*
X139438095Y-85401961D02*
X139342857Y-85497200D01*
X139342857Y-85497200D02*
X139200000Y-85544819D01*
X139200000Y-85544819D02*
X138961905Y-85544819D01*
X139914286Y-84640057D02*
X139961905Y-84592438D01*
X139961905Y-84592438D02*
X140057143Y-84544819D01*
X140057143Y-84544819D02*
X140295238Y-84544819D01*
X140295238Y-84544819D02*
X140390476Y-84592438D01*
X140390476Y-84592438D02*
X140438095Y-84640057D01*
X140438095Y-84640057D02*
X140485714Y-84735295D01*
X140485714Y-84735295D02*
X140485714Y-84830533D01*
X140485714Y-84830533D02*
X140438095Y-84973390D01*
X140438095Y-84973390D02*
X139866667Y-85544819D01*
X139866667Y-85544819D02*
X140485714Y-85544819D01*
X165588333Y-109459580D02*
X165540714Y-109507200D01*
X165540714Y-109507200D02*
X165397857Y-109554819D01*
X165397857Y-109554819D02*
X165302619Y-109554819D01*
X165302619Y-109554819D02*
X165159762Y-109507200D01*
X165159762Y-109507200D02*
X165064524Y-109411961D01*
X165064524Y-109411961D02*
X165016905Y-109316723D01*
X165016905Y-109316723D02*
X164969286Y-109126247D01*
X164969286Y-109126247D02*
X164969286Y-108983390D01*
X164969286Y-108983390D02*
X165016905Y-108792914D01*
X165016905Y-108792914D02*
X165064524Y-108697676D01*
X165064524Y-108697676D02*
X165159762Y-108602438D01*
X165159762Y-108602438D02*
X165302619Y-108554819D01*
X165302619Y-108554819D02*
X165397857Y-108554819D01*
X165397857Y-108554819D02*
X165540714Y-108602438D01*
X165540714Y-108602438D02*
X165588333Y-108650057D01*
X165969286Y-108650057D02*
X166016905Y-108602438D01*
X166016905Y-108602438D02*
X166112143Y-108554819D01*
X166112143Y-108554819D02*
X166350238Y-108554819D01*
X166350238Y-108554819D02*
X166445476Y-108602438D01*
X166445476Y-108602438D02*
X166493095Y-108650057D01*
X166493095Y-108650057D02*
X166540714Y-108745295D01*
X166540714Y-108745295D02*
X166540714Y-108840533D01*
X166540714Y-108840533D02*
X166493095Y-108983390D01*
X166493095Y-108983390D02*
X165921667Y-109554819D01*
X165921667Y-109554819D02*
X166540714Y-109554819D01*
X118046667Y-83338200D02*
X118189524Y-83385819D01*
X118189524Y-83385819D02*
X118427619Y-83385819D01*
X118427619Y-83385819D02*
X118522857Y-83338200D01*
X118522857Y-83338200D02*
X118570476Y-83290580D01*
X118570476Y-83290580D02*
X118618095Y-83195342D01*
X118618095Y-83195342D02*
X118618095Y-83100104D01*
X118618095Y-83100104D02*
X118570476Y-83004866D01*
X118570476Y-83004866D02*
X118522857Y-82957247D01*
X118522857Y-82957247D02*
X118427619Y-82909628D01*
X118427619Y-82909628D02*
X118237143Y-82862009D01*
X118237143Y-82862009D02*
X118141905Y-82814390D01*
X118141905Y-82814390D02*
X118094286Y-82766771D01*
X118094286Y-82766771D02*
X118046667Y-82671533D01*
X118046667Y-82671533D02*
X118046667Y-82576295D01*
X118046667Y-82576295D02*
X118094286Y-82481057D01*
X118094286Y-82481057D02*
X118141905Y-82433438D01*
X118141905Y-82433438D02*
X118237143Y-82385819D01*
X118237143Y-82385819D02*
X118475238Y-82385819D01*
X118475238Y-82385819D02*
X118618095Y-82433438D01*
X118951429Y-82385819D02*
X119189524Y-83385819D01*
X119189524Y-83385819D02*
X119380000Y-82671533D01*
X119380000Y-82671533D02*
X119570476Y-83385819D01*
X119570476Y-83385819D02*
X119808572Y-82385819D01*
X120618095Y-82719152D02*
X120618095Y-83385819D01*
X120380000Y-82338200D02*
X120141905Y-83052485D01*
X120141905Y-83052485D02*
X120760952Y-83052485D01*
X158011905Y-101319819D02*
X158011905Y-100319819D01*
X158011905Y-100319819D02*
X158250000Y-100319819D01*
X158250000Y-100319819D02*
X158392857Y-100367438D01*
X158392857Y-100367438D02*
X158488095Y-100462676D01*
X158488095Y-100462676D02*
X158535714Y-100557914D01*
X158535714Y-100557914D02*
X158583333Y-100748390D01*
X158583333Y-100748390D02*
X158583333Y-100891247D01*
X158583333Y-100891247D02*
X158535714Y-101081723D01*
X158535714Y-101081723D02*
X158488095Y-101176961D01*
X158488095Y-101176961D02*
X158392857Y-101272200D01*
X158392857Y-101272200D02*
X158250000Y-101319819D01*
X158250000Y-101319819D02*
X158011905Y-101319819D01*
X159059524Y-101319819D02*
X159250000Y-101319819D01*
X159250000Y-101319819D02*
X159345238Y-101272200D01*
X159345238Y-101272200D02*
X159392857Y-101224580D01*
X159392857Y-101224580D02*
X159488095Y-101081723D01*
X159488095Y-101081723D02*
X159535714Y-100891247D01*
X159535714Y-100891247D02*
X159535714Y-100510295D01*
X159535714Y-100510295D02*
X159488095Y-100415057D01*
X159488095Y-100415057D02*
X159440476Y-100367438D01*
X159440476Y-100367438D02*
X159345238Y-100319819D01*
X159345238Y-100319819D02*
X159154762Y-100319819D01*
X159154762Y-100319819D02*
X159059524Y-100367438D01*
X159059524Y-100367438D02*
X159011905Y-100415057D01*
X159011905Y-100415057D02*
X158964286Y-100510295D01*
X158964286Y-100510295D02*
X158964286Y-100748390D01*
X158964286Y-100748390D02*
X159011905Y-100843628D01*
X159011905Y-100843628D02*
X159059524Y-100891247D01*
X159059524Y-100891247D02*
X159154762Y-100938866D01*
X159154762Y-100938866D02*
X159345238Y-100938866D01*
X159345238Y-100938866D02*
X159440476Y-100891247D01*
X159440476Y-100891247D02*
X159488095Y-100843628D01*
X159488095Y-100843628D02*
X159535714Y-100748390D01*
X165588333Y-112609580D02*
X165540714Y-112657200D01*
X165540714Y-112657200D02*
X165397857Y-112704819D01*
X165397857Y-112704819D02*
X165302619Y-112704819D01*
X165302619Y-112704819D02*
X165159762Y-112657200D01*
X165159762Y-112657200D02*
X165064524Y-112561961D01*
X165064524Y-112561961D02*
X165016905Y-112466723D01*
X165016905Y-112466723D02*
X164969286Y-112276247D01*
X164969286Y-112276247D02*
X164969286Y-112133390D01*
X164969286Y-112133390D02*
X165016905Y-111942914D01*
X165016905Y-111942914D02*
X165064524Y-111847676D01*
X165064524Y-111847676D02*
X165159762Y-111752438D01*
X165159762Y-111752438D02*
X165302619Y-111704819D01*
X165302619Y-111704819D02*
X165397857Y-111704819D01*
X165397857Y-111704819D02*
X165540714Y-111752438D01*
X165540714Y-111752438D02*
X165588333Y-111800057D01*
X165921667Y-111704819D02*
X166540714Y-111704819D01*
X166540714Y-111704819D02*
X166207381Y-112085771D01*
X166207381Y-112085771D02*
X166350238Y-112085771D01*
X166350238Y-112085771D02*
X166445476Y-112133390D01*
X166445476Y-112133390D02*
X166493095Y-112181009D01*
X166493095Y-112181009D02*
X166540714Y-112276247D01*
X166540714Y-112276247D02*
X166540714Y-112514342D01*
X166540714Y-112514342D02*
X166493095Y-112609580D01*
X166493095Y-112609580D02*
X166445476Y-112657200D01*
X166445476Y-112657200D02*
X166350238Y-112704819D01*
X166350238Y-112704819D02*
X166064524Y-112704819D01*
X166064524Y-112704819D02*
X165969286Y-112657200D01*
X165969286Y-112657200D02*
X165921667Y-112609580D01*
X158011905Y-75569819D02*
X158011905Y-74569819D01*
X158011905Y-74569819D02*
X158250000Y-74569819D01*
X158250000Y-74569819D02*
X158392857Y-74617438D01*
X158392857Y-74617438D02*
X158488095Y-74712676D01*
X158488095Y-74712676D02*
X158535714Y-74807914D01*
X158535714Y-74807914D02*
X158583333Y-74998390D01*
X158583333Y-74998390D02*
X158583333Y-75141247D01*
X158583333Y-75141247D02*
X158535714Y-75331723D01*
X158535714Y-75331723D02*
X158488095Y-75426961D01*
X158488095Y-75426961D02*
X158392857Y-75522200D01*
X158392857Y-75522200D02*
X158250000Y-75569819D01*
X158250000Y-75569819D02*
X158011905Y-75569819D01*
X159440476Y-74903152D02*
X159440476Y-75569819D01*
X159202381Y-74522200D02*
X158964286Y-75236485D01*
X158964286Y-75236485D02*
X159583333Y-75236485D01*
X150868095Y-76289819D02*
X150868095Y-75289819D01*
X151439523Y-76289819D02*
X151010952Y-75718390D01*
X151439523Y-75289819D02*
X150868095Y-75861247D01*
X158011905Y-91019819D02*
X158011905Y-90019819D01*
X158011905Y-90019819D02*
X158250000Y-90019819D01*
X158250000Y-90019819D02*
X158392857Y-90067438D01*
X158392857Y-90067438D02*
X158488095Y-90162676D01*
X158488095Y-90162676D02*
X158535714Y-90257914D01*
X158535714Y-90257914D02*
X158583333Y-90448390D01*
X158583333Y-90448390D02*
X158583333Y-90591247D01*
X158583333Y-90591247D02*
X158535714Y-90781723D01*
X158535714Y-90781723D02*
X158488095Y-90876961D01*
X158488095Y-90876961D02*
X158392857Y-90972200D01*
X158392857Y-90972200D02*
X158250000Y-91019819D01*
X158250000Y-91019819D02*
X158011905Y-91019819D01*
X158916667Y-90019819D02*
X159583333Y-90019819D01*
X159583333Y-90019819D02*
X159154762Y-91019819D01*
D11*
%TO.C,D3*%
X152570000Y-72885000D02*
X154830000Y-72885000D01*
X155970000Y-70965000D02*
X155970000Y-74805000D01*
X156090000Y-70965000D02*
X156090000Y-74805000D01*
X156210000Y-70965000D02*
X156210000Y-74805000D01*
X164930000Y-72885000D02*
X162670000Y-72885000D01*
X154830000Y-70965000D02*
X162670000Y-70965000D01*
X162670000Y-74805000D01*
X154830000Y-74805000D01*
X154830000Y-70965000D01*
%TO.C,R5*%
X159835000Y-117450000D02*
X160455000Y-117450000D01*
X159835000Y-117450000D02*
G75*
G02*
X157995000Y-117450000I-920000J0D01*
G01*
X157995000Y-117450000D02*
G75*
G02*
X159835000Y-117450000I920000J0D01*
G01*
%TO.C,SW9*%
X102870000Y-121920000D02*
X116840000Y-121920000D01*
X102870000Y-135890000D02*
X102870000Y-121920000D01*
X116840000Y-121920000D02*
X116840000Y-135890000D01*
X116840000Y-135890000D02*
X102870000Y-135890000D01*
%TO.C,D6*%
X152570000Y-88335000D02*
X154830000Y-88335000D01*
X155970000Y-86415000D02*
X155970000Y-90255000D01*
X156090000Y-86415000D02*
X156090000Y-90255000D01*
X156210000Y-86415000D02*
X156210000Y-90255000D01*
X164930000Y-88335000D02*
X162670000Y-88335000D01*
X154830000Y-86415000D02*
X162670000Y-86415000D01*
X162670000Y-90255000D01*
X154830000Y-90255000D01*
X154830000Y-86415000D01*
%TO.C,SW11*%
X114242000Y-68989000D02*
X114242000Y-64889000D01*
X114242000Y-77089000D02*
X114242000Y-72989000D01*
X116642000Y-77089000D02*
X114242000Y-77089000D01*
X120142000Y-70489000D02*
X120142000Y-71489000D01*
X120642000Y-70989000D02*
X119642000Y-70989000D01*
X121442000Y-77089000D02*
X118842000Y-77089000D01*
X123942000Y-63489000D02*
X124242000Y-63189000D01*
X124242000Y-63189000D02*
X124242000Y-63789000D01*
X124242000Y-63789000D02*
X123942000Y-63489000D01*
X126042000Y-64889000D02*
X114242000Y-64889000D01*
X126042000Y-68989000D02*
X126042000Y-64889000D01*
X126042000Y-72989000D02*
X126042000Y-77089000D01*
X126042000Y-77089000D02*
X123642000Y-77089000D01*
X123142000Y-70989000D02*
G75*
G02*
X117142000Y-70989000I-3000000J0D01*
G01*
X117142000Y-70989000D02*
G75*
G02*
X123142000Y-70989000I3000000J0D01*
G01*
%TO.C,SW3*%
X93345000Y-83820000D02*
X107315000Y-83820000D01*
X93345000Y-97790000D02*
X93345000Y-83820000D01*
X107315000Y-83820000D02*
X107315000Y-97790000D01*
X107315000Y-97790000D02*
X93345000Y-97790000D01*
%TO.C,C1*%
X164990000Y-107080000D02*
X166520000Y-107080000D01*
X166520000Y-108920000D02*
X164990000Y-108920000D01*
%TO.C,SW8*%
X83820000Y-121920000D02*
X97790000Y-121920000D01*
X83820000Y-135890000D02*
X83820000Y-121920000D01*
X97790000Y-121920000D02*
X97790000Y-135890000D01*
X97790000Y-135890000D02*
X83820000Y-135890000D01*
%TO.C,D1*%
X132455000Y-81820000D02*
X132455000Y-85820000D01*
X132455000Y-81820000D02*
X138055000Y-81820000D01*
X132455000Y-85820000D02*
X137455000Y-85820000D01*
X138055000Y-85220000D02*
X137455000Y-85820000D01*
X138055000Y-85220000D02*
X138055000Y-81820000D01*
%TO.C,J1*%
X127280000Y-134730000D02*
X128660000Y-134730000D01*
X128660000Y-133350000D02*
X128660000Y-134730000D01*
X125780000Y-135540000D02*
X163780000Y-135540000D01*
X163780000Y-123540000D01*
X125780000Y-123540000D01*
X125780000Y-135540000D01*
%TO.C,R3*%
X159835000Y-111150000D02*
X160455000Y-111150000D01*
X159835000Y-111150000D02*
G75*
G02*
X157995000Y-111150000I-920000J0D01*
G01*
X157995000Y-111150000D02*
G75*
G02*
X159835000Y-111150000I920000J0D01*
G01*
%TO.C,C4*%
X164990000Y-116530000D02*
X166520000Y-116530000D01*
X166520000Y-118370000D02*
X164990000Y-118370000D01*
%TO.C,SW1*%
X93345000Y-64770000D02*
X107315000Y-64770000D01*
X93345000Y-78740000D02*
X93345000Y-64770000D01*
X107315000Y-64770000D02*
X107315000Y-78740000D01*
X107315000Y-78740000D02*
X93345000Y-78740000D01*
%TO.C,R4*%
X159835000Y-114300000D02*
X160455000Y-114300000D01*
X159835000Y-114300000D02*
G75*
G02*
X157995000Y-114300000I-920000J0D01*
G01*
X157995000Y-114300000D02*
G75*
G02*
X159835000Y-114300000I920000J0D01*
G01*
%TO.C,SW7*%
X112395000Y-102870000D02*
X126365000Y-102870000D01*
X112395000Y-116840000D02*
X112395000Y-102870000D01*
X126365000Y-102870000D02*
X126365000Y-116840000D01*
X126365000Y-116840000D02*
X112395000Y-116840000D01*
%TO.C,D1*%
X152570000Y-62585000D02*
X154830000Y-62585000D01*
X155970000Y-60665000D02*
X155970000Y-64505000D01*
X156090000Y-60665000D02*
X156090000Y-64505000D01*
X156210000Y-60665000D02*
X156210000Y-64505000D01*
X164930000Y-62585000D02*
X162670000Y-62585000D01*
X154830000Y-60665000D02*
X162670000Y-60665000D01*
X162670000Y-64505000D01*
X154830000Y-64505000D01*
X154830000Y-60665000D01*
%TO.C,U2*%
X130005000Y-90755000D02*
X130250000Y-90755000D01*
X130005000Y-98475000D02*
X130005000Y-90755000D01*
X130250000Y-98475000D02*
X130005000Y-98475000D01*
X147880000Y-90755000D02*
X148125000Y-90755000D01*
X148125000Y-90755000D02*
X148125000Y-98475000D01*
X148125000Y-98475000D02*
X147880000Y-98475000D01*
X148355000Y-90305000D02*
X147885000Y-89965000D01*
X148355000Y-89625000D01*
X148355000Y-90305000D01*
G36*
X148355000Y-90305000D02*
G01*
X147885000Y-89965000D01*
X148355000Y-89625000D01*
X148355000Y-90305000D01*
G37*
%TO.C,SW5*%
X74295000Y-102870000D02*
X88265000Y-102870000D01*
X74295000Y-116840000D02*
X74295000Y-102870000D01*
X88265000Y-102870000D02*
X88265000Y-116840000D01*
X88265000Y-116840000D02*
X74295000Y-116840000D01*
%TO.C,R2*%
X159835000Y-108000000D02*
X160455000Y-108000000D01*
X159835000Y-108000000D02*
G75*
G02*
X157995000Y-108000000I-920000J0D01*
G01*
X157995000Y-108000000D02*
G75*
G02*
X159835000Y-108000000I920000J0D01*
G01*
%TO.C,SW2*%
X74295000Y-83820000D02*
X88265000Y-83820000D01*
X74295000Y-97790000D02*
X74295000Y-83820000D01*
X88265000Y-83820000D02*
X88265000Y-97790000D01*
X88265000Y-97790000D02*
X74295000Y-97790000D01*
D12*
%TO.C,U1*%
X129540000Y-78154000D02*
X129540000Y-61009000D01*
X131445000Y-80059000D02*
X145415000Y-80059000D01*
X133935000Y-59104000D02*
X133938728Y-58193728D01*
X134438728Y-57694000D02*
X142434000Y-57694000D01*
X142934000Y-58194000D02*
X142934000Y-59104000D01*
D13*
X145415000Y-59104000D02*
X131445000Y-59104000D01*
D12*
X145415000Y-59104000D02*
X131445000Y-59104000D01*
X147320000Y-78154000D02*
X147320000Y-61009000D01*
X129540000Y-61009000D02*
G75*
G02*
X131445000Y-59104000I1905001J-1D01*
G01*
X131445000Y-80059000D02*
G75*
G02*
X129540000Y-78154000I1J1905001D01*
G01*
X133938728Y-58193728D02*
G75*
G02*
X134438728Y-57694001I500018J-291D01*
G01*
X142434000Y-57694000D02*
G75*
G02*
X142934000Y-58194000I0J-500000D01*
G01*
X145415000Y-59104000D02*
G75*
G02*
X147320000Y-61009000I0J-1905000D01*
G01*
X147320000Y-78154000D02*
G75*
G02*
X145415000Y-80059000I-1905000J0D01*
G01*
D14*
X129732000Y-59345000D02*
G75*
G02*
X129228000Y-59345000I-252000J0D01*
G01*
X129228000Y-59345000D02*
G75*
G02*
X129732000Y-59345000I252000J0D01*
G01*
X130875000Y-60225000D02*
G75*
G02*
X130371000Y-60225000I-252000J0D01*
G01*
X130371000Y-60225000D02*
G75*
G02*
X130875000Y-60225000I252000J0D01*
G01*
D11*
%TO.C,D2*%
X152570000Y-67735000D02*
X154830000Y-67735000D01*
X155970000Y-65815000D02*
X155970000Y-69655000D01*
X156090000Y-65815000D02*
X156090000Y-69655000D01*
X156210000Y-65815000D02*
X156210000Y-69655000D01*
X164930000Y-67735000D02*
X162670000Y-67735000D01*
X154830000Y-65815000D02*
X162670000Y-65815000D01*
X162670000Y-69655000D01*
X154830000Y-69655000D01*
X154830000Y-65815000D01*
D15*
%TO.C,G\u002A\u002A\u002A*%
G36*
X135805609Y-112690388D02*
G01*
X135805609Y-113090913D01*
X135405609Y-113090913D01*
X135005609Y-113090913D01*
X135005609Y-112690388D01*
X135005609Y-112289862D01*
X135405609Y-112289862D01*
X135805609Y-112289862D01*
X135805609Y-112690388D01*
G37*
G36*
X134517927Y-111091544D02*
G01*
X134526489Y-111167547D01*
X134533370Y-111291688D01*
X134537762Y-111445354D01*
X134538943Y-111576426D01*
X134538943Y-111956091D01*
X134071230Y-111956091D01*
X133872842Y-111954469D01*
X133733082Y-111949128D01*
X133643980Y-111939351D01*
X133597563Y-111924423D01*
X133586851Y-111912604D01*
X133581270Y-111864244D01*
X133577971Y-111763292D01*
X133577171Y-111623878D01*
X133579087Y-111460132D01*
X133579564Y-111436980D01*
X133588943Y-111004842D01*
X134042927Y-110995584D01*
X134496911Y-110986327D01*
X134517927Y-111091544D01*
G37*
G36*
X137556609Y-111300102D02*
G01*
X137621800Y-111328322D01*
X137656847Y-111380871D01*
X137670875Y-111464329D01*
X137673006Y-111585279D01*
X137672276Y-111716381D01*
X137672276Y-112109566D01*
X137561576Y-112149648D01*
X137484747Y-112165634D01*
X137364447Y-112177616D01*
X137217552Y-112185366D01*
X137060937Y-112188658D01*
X136911479Y-112187262D01*
X136786053Y-112180952D01*
X136701534Y-112169499D01*
X136679537Y-112161553D01*
X136660693Y-112130197D01*
X136649121Y-112059353D01*
X136644187Y-111940603D01*
X136645254Y-111765529D01*
X136646204Y-111719818D01*
X136655609Y-111305236D01*
X137088943Y-111295607D01*
X137299304Y-111290326D01*
X137452151Y-111289630D01*
X137556609Y-111300102D01*
G37*
G36*
X132805609Y-112082282D02*
G01*
X132805609Y-112475490D01*
X132705609Y-112513285D01*
X132627499Y-112570121D01*
X132606097Y-112660523D01*
X132641406Y-112785045D01*
X132705609Y-112901963D01*
X132748883Y-112973657D01*
X132777452Y-113036637D01*
X132794361Y-113107365D01*
X132802656Y-113202302D01*
X132805381Y-113337909D01*
X132805609Y-113442532D01*
X132805609Y-113825210D01*
X132406082Y-113825210D01*
X132006555Y-113825210D01*
X131918402Y-113691826D01*
X131859531Y-113580151D01*
X131806612Y-113442388D01*
X131785116Y-113366399D01*
X131767704Y-113254710D01*
X131754409Y-113095186D01*
X131745331Y-112903019D01*
X131740568Y-112693402D01*
X131740220Y-112481526D01*
X131744387Y-112282584D01*
X131753168Y-112111769D01*
X131766662Y-111984273D01*
X131775775Y-111939402D01*
X131804485Y-111844399D01*
X131837716Y-111777079D01*
X131886592Y-111732681D01*
X131962237Y-111706446D01*
X132075775Y-111693612D01*
X132238330Y-111689421D01*
X132360775Y-111689073D01*
X132805609Y-111689073D01*
X132805609Y-112082282D01*
G37*
G36*
X138997025Y-113164950D02*
G01*
X138984525Y-113410796D01*
X138966138Y-113599378D01*
X138940757Y-113740017D01*
X138920562Y-113808522D01*
X138830230Y-114012539D01*
X138716076Y-114194638D01*
X138589180Y-114339528D01*
X138473398Y-114425397D01*
X138419591Y-114437369D01*
X138317313Y-114446934D01*
X138181869Y-114453902D01*
X138028563Y-114458083D01*
X137872702Y-114459287D01*
X137729590Y-114457325D01*
X137614534Y-114452006D01*
X137542840Y-114443142D01*
X137527831Y-114437124D01*
X137519147Y-114396837D01*
X137512052Y-114303782D01*
X137507292Y-114171943D01*
X137505609Y-114019910D01*
X137505609Y-113624947D01*
X137613943Y-113623893D01*
X137728811Y-113596256D01*
X137841221Y-113512572D01*
X137957056Y-113368231D01*
X137975339Y-113340681D01*
X138050763Y-113199233D01*
X138118554Y-113028394D01*
X138166312Y-112861700D01*
X138178787Y-112790519D01*
X138184859Y-112755772D01*
X138200547Y-112732043D01*
X138237057Y-112716870D01*
X138305595Y-112707793D01*
X138417366Y-112702350D01*
X138583578Y-112698080D01*
X138601506Y-112697670D01*
X139014070Y-112688265D01*
X138997025Y-113164950D01*
G37*
G36*
X133894091Y-103412701D02*
G01*
X134046007Y-103416679D01*
X134176041Y-103424119D01*
X134269449Y-103435017D01*
X134306244Y-103445261D01*
X134370861Y-103502448D01*
X134450945Y-103606432D01*
X134536899Y-103742156D01*
X134619127Y-103894559D01*
X134683505Y-104037224D01*
X134728349Y-104156947D01*
X134767381Y-104281950D01*
X134800983Y-104417497D01*
X134829536Y-104568849D01*
X134853421Y-104741268D01*
X134873020Y-104940017D01*
X134888714Y-105170357D01*
X134900883Y-105437551D01*
X134909909Y-105746860D01*
X134916174Y-106103548D01*
X134920058Y-106512876D01*
X134921942Y-106980105D01*
X134922276Y-107333357D01*
X134922276Y-109235854D01*
X134832443Y-109427773D01*
X134742611Y-109619691D01*
X134324206Y-109619691D01*
X133905801Y-109619691D01*
X133774718Y-109501109D01*
X133610929Y-109327344D01*
X133499899Y-109143070D01*
X133431534Y-108928596D01*
X133407785Y-108785263D01*
X133381456Y-108555288D01*
X133353161Y-108273671D01*
X133323528Y-107949509D01*
X133293187Y-107591895D01*
X133262768Y-107209925D01*
X133232898Y-106812695D01*
X133204207Y-106409299D01*
X133177324Y-106008833D01*
X133152878Y-105620392D01*
X133131498Y-105253071D01*
X133113814Y-104915965D01*
X133100453Y-104618171D01*
X133092046Y-104368782D01*
X133089220Y-104179218D01*
X133090719Y-103943268D01*
X133095936Y-103765997D01*
X133106382Y-103639368D01*
X133123568Y-103555342D01*
X133149003Y-103505882D01*
X133184199Y-103482948D01*
X133220944Y-103478298D01*
X133291272Y-103465899D01*
X133322276Y-103444921D01*
X133362460Y-103431512D01*
X133454477Y-103421591D01*
X133583583Y-103415152D01*
X133735035Y-103412190D01*
X133894091Y-103412701D01*
G37*
G36*
X139077104Y-103919490D02*
G01*
X139488943Y-103928889D01*
X139487219Y-104479612D01*
X139486293Y-104632073D01*
X139483670Y-104764853D01*
X139478030Y-104887099D01*
X139468054Y-105007957D01*
X139452423Y-105136573D01*
X139429818Y-105282094D01*
X139398918Y-105453665D01*
X139358404Y-105660432D01*
X139306958Y-105911542D01*
X139243259Y-106216141D01*
X139222397Y-106315355D01*
X139191196Y-106465281D01*
X139155348Y-106639900D01*
X139126405Y-106782635D01*
X139062631Y-107091994D01*
X139004654Y-107353513D01*
X138947765Y-107585271D01*
X138887258Y-107805350D01*
X138818424Y-108031828D01*
X138736556Y-108282787D01*
X138733089Y-108293155D01*
X138667311Y-108487051D01*
X138605426Y-108664553D01*
X138551730Y-108813713D01*
X138510518Y-108922583D01*
X138487065Y-108977386D01*
X138453281Y-109049002D01*
X138439148Y-109092362D01*
X138425530Y-109130445D01*
X138388895Y-109214960D01*
X138335298Y-109332266D01*
X138288277Y-109432167D01*
X138208564Y-109593607D01*
X138137806Y-109711485D01*
X138063580Y-109792637D01*
X137973468Y-109843898D01*
X137855048Y-109872105D01*
X137695902Y-109884094D01*
X137483607Y-109886700D01*
X137462427Y-109886708D01*
X137281021Y-109886319D01*
X137154210Y-109883793D01*
X137069925Y-109877094D01*
X137016095Y-109864184D01*
X136980650Y-109843026D01*
X136951519Y-109811582D01*
X136941362Y-109798764D01*
X136916047Y-109761937D01*
X136897796Y-109718621D01*
X136885482Y-109657966D01*
X136877978Y-109569122D01*
X136874156Y-109441239D01*
X136872890Y-109263466D01*
X136872876Y-109139566D01*
X136874333Y-108914380D01*
X136879227Y-108738867D01*
X136889145Y-108595974D01*
X136905678Y-108468644D01*
X136930412Y-108339823D01*
X136958721Y-108217851D01*
X136986780Y-108101903D01*
X137013722Y-107988980D01*
X137041659Y-107869841D01*
X137072702Y-107735243D01*
X137108962Y-107575945D01*
X137152552Y-107382705D01*
X137205582Y-107146280D01*
X137270164Y-106857429D01*
X137298045Y-106732569D01*
X137379353Y-106411815D01*
X137485973Y-106056506D01*
X137609998Y-105689960D01*
X137743519Y-105335499D01*
X137878626Y-105016441D01*
X137884149Y-105004313D01*
X137929824Y-104901732D01*
X137961674Y-104825231D01*
X137972276Y-104793567D01*
X137990966Y-104725095D01*
X138040454Y-104620545D01*
X138110864Y-104496729D01*
X138192318Y-104370460D01*
X138274942Y-104258551D01*
X138312369Y-104214594D01*
X138423476Y-104095076D01*
X138513720Y-104011867D01*
X138599227Y-103958742D01*
X138696123Y-103929479D01*
X138820537Y-103917855D01*
X138988593Y-103917646D01*
X139077104Y-103919490D01*
G37*
G36*
X141146389Y-111423499D02*
G01*
X141111111Y-111458777D01*
X141075833Y-111423499D01*
X141111111Y-111388221D01*
X141146389Y-111423499D01*
G37*
G36*
X141569722Y-108036832D02*
G01*
X141534444Y-108072110D01*
X141499167Y-108036832D01*
X141534444Y-108001555D01*
X141569722Y-108036832D01*
G37*
G36*
X141569722Y-108248499D02*
G01*
X141534444Y-108283777D01*
X141499167Y-108248499D01*
X141534444Y-108213221D01*
X141569722Y-108248499D01*
G37*
G36*
X141640278Y-107613499D02*
G01*
X141605000Y-107648777D01*
X141569722Y-107613499D01*
X141605000Y-107578221D01*
X141640278Y-107613499D01*
G37*
G36*
X141640278Y-115939055D02*
G01*
X141605000Y-115974332D01*
X141569722Y-115939055D01*
X141605000Y-115903777D01*
X141640278Y-115939055D01*
G37*
G36*
X142063611Y-112693499D02*
G01*
X142028333Y-112728777D01*
X141993056Y-112693499D01*
X142028333Y-112658221D01*
X142063611Y-112693499D01*
G37*
G36*
X142134167Y-116291832D02*
G01*
X142098889Y-116327110D01*
X142063611Y-116291832D01*
X142098889Y-116256555D01*
X142134167Y-116291832D01*
G37*
G36*
X142557500Y-107895721D02*
G01*
X142522222Y-107930999D01*
X142486944Y-107895721D01*
X142522222Y-107860443D01*
X142557500Y-107895721D01*
G37*
G36*
X142557500Y-116856277D02*
G01*
X142522222Y-116891555D01*
X142486944Y-116856277D01*
X142522222Y-116820999D01*
X142557500Y-116856277D01*
G37*
G36*
X142769167Y-116926832D02*
G01*
X142733889Y-116962110D01*
X142698611Y-116926832D01*
X142733889Y-116891555D01*
X142769167Y-116926832D01*
G37*
G36*
X142839722Y-117138499D02*
G01*
X142804444Y-117173777D01*
X142769167Y-117138499D01*
X142804444Y-117103221D01*
X142839722Y-117138499D01*
G37*
G36*
X142980833Y-109447943D02*
G01*
X142945556Y-109483221D01*
X142910278Y-109447943D01*
X142945556Y-109412666D01*
X142980833Y-109447943D01*
G37*
G36*
X143404167Y-117420721D02*
G01*
X143368889Y-117455999D01*
X143333611Y-117420721D01*
X143368889Y-117385443D01*
X143404167Y-117420721D01*
G37*
G36*
X145097500Y-113751832D02*
G01*
X145062222Y-113787110D01*
X145026944Y-113751832D01*
X145062222Y-113716555D01*
X145097500Y-113751832D01*
G37*
G36*
X145379722Y-107331277D02*
G01*
X145344444Y-107366555D01*
X145309167Y-107331277D01*
X145344444Y-107295999D01*
X145379722Y-107331277D01*
G37*
G36*
X145379722Y-107542943D02*
G01*
X145344444Y-107578221D01*
X145309167Y-107542943D01*
X145344444Y-107507666D01*
X145379722Y-107542943D01*
G37*
G36*
X145591389Y-107613499D02*
G01*
X145556111Y-107648777D01*
X145520833Y-107613499D01*
X145556111Y-107578221D01*
X145591389Y-107613499D01*
G37*
G36*
X146014722Y-107119610D02*
G01*
X145979444Y-107154888D01*
X145944167Y-107119610D01*
X145979444Y-107084332D01*
X146014722Y-107119610D01*
G37*
G36*
X146014722Y-116432943D02*
G01*
X145979444Y-116468221D01*
X145944167Y-116432943D01*
X145979444Y-116397666D01*
X146014722Y-116432943D01*
G37*
G36*
X147849167Y-111352943D02*
G01*
X147813889Y-111388221D01*
X147778611Y-111352943D01*
X147813889Y-111317666D01*
X147849167Y-111352943D01*
G37*
G36*
X147849167Y-116362388D02*
G01*
X147813889Y-116397666D01*
X147778611Y-116362388D01*
X147813889Y-116327110D01*
X147849167Y-116362388D01*
G37*
G36*
X148343056Y-116503499D02*
G01*
X148307778Y-116538777D01*
X148272500Y-116503499D01*
X148307778Y-116468221D01*
X148343056Y-116503499D01*
G37*
G36*
X150106944Y-116856277D02*
G01*
X150071667Y-116891555D01*
X150036389Y-116856277D01*
X150071667Y-116820999D01*
X150106944Y-116856277D01*
G37*
G36*
X150389167Y-115445166D02*
G01*
X150353889Y-115480443D01*
X150318611Y-115445166D01*
X150353889Y-115409888D01*
X150389167Y-115445166D01*
G37*
G36*
X150530278Y-106907943D02*
G01*
X150495000Y-106943221D01*
X150459722Y-106907943D01*
X150495000Y-106872666D01*
X150530278Y-106907943D01*
G37*
G36*
X151094722Y-109165721D02*
G01*
X151059444Y-109200999D01*
X151024167Y-109165721D01*
X151059444Y-109130443D01*
X151094722Y-109165721D01*
G37*
G36*
X151518056Y-107472388D02*
G01*
X151482778Y-107507666D01*
X151447500Y-107472388D01*
X151482778Y-107437110D01*
X151518056Y-107472388D01*
G37*
G36*
X151729722Y-109659610D02*
G01*
X151694444Y-109694888D01*
X151659167Y-109659610D01*
X151694444Y-109624332D01*
X151729722Y-109659610D01*
G37*
G36*
X152576389Y-109024610D02*
G01*
X152541111Y-109059888D01*
X152505833Y-109024610D01*
X152541111Y-108989332D01*
X152576389Y-109024610D01*
G37*
G36*
X152646944Y-115868499D02*
G01*
X152611667Y-115903777D01*
X152576389Y-115868499D01*
X152611667Y-115833221D01*
X152646944Y-115868499D01*
G37*
G36*
X152717500Y-108107388D02*
G01*
X152682222Y-108142666D01*
X152646944Y-108107388D01*
X152682222Y-108072110D01*
X152717500Y-108107388D01*
G37*
G36*
X153987500Y-115868499D02*
G01*
X153952222Y-115903777D01*
X153916944Y-115868499D01*
X153952222Y-115833221D01*
X153987500Y-115868499D01*
G37*
G36*
X154058056Y-109871277D02*
G01*
X154022778Y-109906555D01*
X153987500Y-109871277D01*
X154022778Y-109835999D01*
X154058056Y-109871277D01*
G37*
G36*
X154128611Y-110224055D02*
G01*
X154093333Y-110259332D01*
X154058056Y-110224055D01*
X154093333Y-110188777D01*
X154128611Y-110224055D01*
G37*
G36*
X155821944Y-107542943D02*
G01*
X155786667Y-107578221D01*
X155751389Y-107542943D01*
X155786667Y-107507666D01*
X155821944Y-107542943D01*
G37*
G36*
X156033611Y-109871277D02*
G01*
X155998333Y-109906555D01*
X155963056Y-109871277D01*
X155998333Y-109835999D01*
X156033611Y-109871277D01*
G37*
G36*
X156033611Y-113751832D02*
G01*
X155998333Y-113787110D01*
X155963056Y-113751832D01*
X155998333Y-113716555D01*
X156033611Y-113751832D01*
G37*
G36*
X156104167Y-116221277D02*
G01*
X156068889Y-116256555D01*
X156033611Y-116221277D01*
X156068889Y-116185999D01*
X156104167Y-116221277D01*
G37*
G36*
X153470093Y-115786184D02*
G01*
X153460407Y-115828129D01*
X153423056Y-115833221D01*
X153364980Y-115807406D01*
X153376018Y-115786184D01*
X153459751Y-115777740D01*
X153470093Y-115786184D01*
G37*
G36*
X141064932Y-111205095D02*
G01*
X141140676Y-111276137D01*
X141125139Y-111316979D01*
X141115275Y-111317666D01*
X141055598Y-111267551D01*
X141033818Y-111236209D01*
X141025502Y-111187928D01*
X141064932Y-111205095D01*
G37*
G36*
X146144932Y-116285095D02*
G01*
X146220082Y-116350682D01*
X146226389Y-116366552D01*
X146192905Y-116395551D01*
X146123192Y-116330571D01*
X146113818Y-116316209D01*
X146105502Y-116267928D01*
X146144932Y-116285095D01*
G37*
G36*
X145922031Y-106988796D02*
G01*
X145908889Y-107013777D01*
X145842410Y-107081157D01*
X145830005Y-107084332D01*
X145825191Y-107038757D01*
X145838333Y-107013777D01*
X145904812Y-106946396D01*
X145917217Y-106943221D01*
X145922031Y-106988796D01*
G37*
G36*
X150367031Y-116866574D02*
G01*
X150353889Y-116891555D01*
X150287410Y-116958935D01*
X150275005Y-116962110D01*
X150270191Y-116916535D01*
X150283333Y-116891555D01*
X150349812Y-116824174D01*
X150362217Y-116820999D01*
X150367031Y-116866574D01*
G37*
G36*
X153425621Y-113439392D02*
G01*
X153526953Y-113469372D01*
X153560847Y-113546477D01*
X153564167Y-113641835D01*
X153548066Y-113799568D01*
X153511250Y-113879025D01*
X153318045Y-113938434D01*
X153078228Y-113954027D01*
X152929537Y-113933977D01*
X152787380Y-113854542D01*
X152729683Y-113762988D01*
X152752468Y-113588289D01*
X152899428Y-113478633D01*
X153168962Y-113435094D01*
X153220028Y-113434332D01*
X153425621Y-113439392D01*
G37*
G36*
X149750127Y-110128493D02*
G01*
X149953126Y-110182192D01*
X149963050Y-110187287D01*
X150101596Y-110332300D01*
X150196249Y-110566733D01*
X150240757Y-110844008D01*
X150228863Y-111117544D01*
X150154312Y-111340762D01*
X150123862Y-111384849D01*
X149995605Y-111478961D01*
X149806936Y-111552450D01*
X149607584Y-111593899D01*
X149447279Y-111591892D01*
X149382612Y-111555034D01*
X149360535Y-111461258D01*
X149333107Y-111262579D01*
X149304962Y-110994849D01*
X149293905Y-110868783D01*
X149272600Y-110552908D01*
X149272836Y-110350259D01*
X149296371Y-110234348D01*
X149339468Y-110181947D01*
X149519252Y-110128186D01*
X149750127Y-110128493D01*
G37*
G36*
X144016134Y-110695724D02*
G01*
X144189781Y-110719317D01*
X144269902Y-110780887D01*
X144297994Y-110924460D01*
X144303089Y-111000166D01*
X144297571Y-111230102D01*
X144265221Y-111518808D01*
X144232533Y-111705721D01*
X144176992Y-111942635D01*
X144121656Y-112072960D01*
X144046595Y-112129775D01*
X143968611Y-112143780D01*
X143758656Y-112128106D01*
X143630337Y-112091977D01*
X143449056Y-111946372D01*
X143338718Y-111708106D01*
X143314236Y-111448633D01*
X143721483Y-111448633D01*
X143726068Y-111588083D01*
X143768939Y-111651880D01*
X143808717Y-111594385D01*
X143830179Y-111529332D01*
X143874298Y-111335297D01*
X143888198Y-111211832D01*
X143879378Y-111138089D01*
X143835893Y-111180310D01*
X143784087Y-111270583D01*
X143721483Y-111448633D01*
X143314236Y-111448633D01*
X143310826Y-111412497D01*
X143342162Y-111207105D01*
X143460957Y-110917743D01*
X143647560Y-110748982D01*
X143913669Y-110691945D01*
X144016134Y-110695724D01*
G37*
G36*
X147211920Y-111062379D02*
G01*
X147480567Y-111209084D01*
X147563161Y-111293604D01*
X147609931Y-111360580D01*
X147645410Y-111439686D01*
X147671148Y-111550067D01*
X147688697Y-111710872D01*
X147699609Y-111941245D01*
X147705434Y-112260334D01*
X147707724Y-112687284D01*
X147708056Y-113081838D01*
X147708056Y-114685869D01*
X147443472Y-114729602D01*
X147127915Y-114763953D01*
X146809061Y-114769303D01*
X146532756Y-114747175D01*
X146344845Y-114699093D01*
X146332222Y-114692663D01*
X146184296Y-114583988D01*
X146032361Y-114436890D01*
X145980807Y-114374265D01*
X145941822Y-114304415D01*
X145913652Y-114208036D01*
X145894541Y-114065824D01*
X145882736Y-113858475D01*
X145876483Y-113566683D01*
X145874026Y-113171146D01*
X145873709Y-112803560D01*
X146296944Y-112803560D01*
X146297527Y-113267357D01*
X146300773Y-113610451D01*
X146308933Y-113853252D01*
X146324255Y-114016169D01*
X146348987Y-114119609D01*
X146385380Y-114183981D01*
X146435682Y-114229695D01*
X146455694Y-114244148D01*
X146680082Y-114326612D01*
X146931944Y-114336343D01*
X147249444Y-114316277D01*
X147269253Y-112975721D01*
X147275510Y-112509051D01*
X147277281Y-112162998D01*
X147272732Y-111917094D01*
X147260026Y-111750869D01*
X147237327Y-111643854D01*
X147202801Y-111575580D01*
X147154611Y-111525579D01*
X147137965Y-111511693D01*
X146899370Y-111404873D01*
X146588634Y-111404261D01*
X146455694Y-111432691D01*
X146400374Y-111451211D01*
X146359678Y-111485721D01*
X146331361Y-111555604D01*
X146313178Y-111680245D01*
X146302886Y-111879027D01*
X146298239Y-112171333D01*
X146296994Y-112576546D01*
X146296944Y-112803560D01*
X145873709Y-112803560D01*
X145873611Y-112690073D01*
X145875247Y-112159425D01*
X145880752Y-111754639D01*
X145891026Y-111460501D01*
X145906967Y-111261792D01*
X145929473Y-111143297D01*
X145959442Y-111089799D01*
X145968383Y-111084729D01*
X146088516Y-111055949D01*
X146294621Y-111021300D01*
X146448548Y-111000210D01*
X146858375Y-110990243D01*
X147211920Y-111062379D01*
G37*
G36*
X151135904Y-113746825D02*
G01*
X151165278Y-113841900D01*
X151142779Y-113957794D01*
X151083962Y-114162698D01*
X151001848Y-114418596D01*
X150909458Y-114687470D01*
X150819813Y-114931303D01*
X150745934Y-115112080D01*
X150703768Y-115189360D01*
X150604099Y-115240007D01*
X150412311Y-115306721D01*
X150174371Y-115376525D01*
X149936251Y-115436438D01*
X149743918Y-115473482D01*
X149676501Y-115479404D01*
X149475099Y-115504172D01*
X149270735Y-115557926D01*
X149095099Y-115597549D01*
X148938400Y-115562677D01*
X148809298Y-115494295D01*
X148679187Y-115422483D01*
X148570730Y-115390427D01*
X148439597Y-115397577D01*
X148241459Y-115443383D01*
X148086175Y-115485313D01*
X147807552Y-115558749D01*
X147612017Y-115596521D01*
X147446899Y-115601456D01*
X147259525Y-115576376D01*
X147073056Y-115539641D01*
X146812309Y-115486174D01*
X146560756Y-115434419D01*
X146508611Y-115423658D01*
X146340955Y-115371175D01*
X146283170Y-115292119D01*
X146286013Y-115232514D01*
X146313490Y-115109627D01*
X146327743Y-115074177D01*
X146399842Y-115078567D01*
X146577831Y-115105774D01*
X146829295Y-115150610D01*
X146953455Y-115174312D01*
X147278548Y-115231566D01*
X147510239Y-115254148D01*
X147691502Y-115243639D01*
X147847063Y-115207187D01*
X148132341Y-115121716D01*
X147944349Y-114960012D01*
X147756357Y-114798308D01*
X147777285Y-114770589D01*
X148191465Y-114770589D01*
X148415553Y-114906865D01*
X148682905Y-114995398D01*
X148948475Y-114955094D01*
X149174006Y-114793221D01*
X149203318Y-114757190D01*
X149336031Y-114555080D01*
X149357128Y-114429850D01*
X149259806Y-114363902D01*
X149042006Y-114339795D01*
X148812466Y-114331638D01*
X148628746Y-114324488D01*
X148576316Y-114322156D01*
X148465112Y-114374409D01*
X148344517Y-114510729D01*
X148324132Y-114543433D01*
X148191465Y-114770589D01*
X147777285Y-114770589D01*
X148053732Y-114404438D01*
X148351108Y-114010567D01*
X149034998Y-114048732D01*
X149334352Y-114070303D01*
X149580190Y-114097101D01*
X149738659Y-114124960D01*
X149777314Y-114140068D01*
X149778188Y-114226483D01*
X149718715Y-114393738D01*
X149618242Y-114606220D01*
X149496115Y-114828315D01*
X149371682Y-115024412D01*
X149264289Y-115158898D01*
X149202464Y-115198221D01*
X149130047Y-115218346D01*
X149135726Y-115238299D01*
X149219902Y-115241946D01*
X149394415Y-115209000D01*
X149548347Y-115167743D01*
X149794494Y-115104208D01*
X150013249Y-115063675D01*
X150102111Y-115056030D01*
X150252091Y-115041732D01*
X150365263Y-114985068D01*
X150460473Y-114862260D01*
X150556563Y-114649529D01*
X150664536Y-114346295D01*
X150772683Y-114046698D01*
X150859781Y-113859823D01*
X150939511Y-113761620D01*
X151015542Y-113729286D01*
X151135904Y-113746825D01*
G37*
G36*
X153237200Y-108409934D02*
G01*
X153255724Y-108474919D01*
X153314519Y-108665220D01*
X153402261Y-108900446D01*
X153431674Y-108971693D01*
X153559152Y-109271555D01*
X153980829Y-109271555D01*
X154211031Y-109280550D01*
X154378414Y-109303884D01*
X154438427Y-109329677D01*
X154405538Y-109398452D01*
X154284100Y-109519836D01*
X154123841Y-109649479D01*
X153931345Y-109801886D01*
X153837965Y-109906608D01*
X153823844Y-109991844D01*
X153845138Y-110045329D01*
X153906131Y-110230336D01*
X153916944Y-110329413D01*
X153938008Y-110433799D01*
X153972381Y-110445065D01*
X154023073Y-110471312D01*
X154036090Y-110529096D01*
X154064379Y-110694139D01*
X154092868Y-110799071D01*
X154107868Y-110909961D01*
X154028664Y-110941842D01*
X153964513Y-110940182D01*
X153836180Y-110916701D01*
X153799382Y-110883556D01*
X153753990Y-110815444D01*
X153625595Y-110712071D01*
X153457284Y-110601526D01*
X153292144Y-110511903D01*
X153173263Y-110471291D01*
X153166592Y-110470999D01*
X153061408Y-110514498D01*
X152888566Y-110628790D01*
X152684654Y-110789561D01*
X152675836Y-110797070D01*
X152490783Y-110943094D01*
X152355575Y-111026675D01*
X152295643Y-111032512D01*
X152294706Y-111026375D01*
X152314552Y-110911967D01*
X152365796Y-110709138D01*
X152430008Y-110486459D01*
X152499078Y-110259332D01*
X152788056Y-110259332D01*
X152812128Y-110328053D01*
X152819169Y-110329888D01*
X152879407Y-110280447D01*
X152893889Y-110259332D01*
X152888295Y-110194316D01*
X152862775Y-110188777D01*
X152790927Y-110239994D01*
X152788056Y-110259332D01*
X152499078Y-110259332D01*
X152522322Y-110182897D01*
X153423056Y-110182897D01*
X153465556Y-110254396D01*
X153614780Y-110324285D01*
X153614869Y-110324318D01*
X153607804Y-110275885D01*
X153589681Y-110224055D01*
X153520971Y-110134974D01*
X153447579Y-110125702D01*
X153423056Y-110182897D01*
X152522322Y-110182897D01*
X152564772Y-110043307D01*
X152397294Y-109933572D01*
X152300639Y-109892432D01*
X152973250Y-109892432D01*
X153003465Y-109946342D01*
X153085041Y-110029687D01*
X153157416Y-110025894D01*
X153273529Y-109929519D01*
X153286767Y-109917205D01*
X153378720Y-109771064D01*
X153366194Y-109637009D01*
X153299944Y-109589055D01*
X153634722Y-109589055D01*
X153670000Y-109624332D01*
X153705278Y-109589055D01*
X153670000Y-109553777D01*
X153634722Y-109589055D01*
X153299944Y-109589055D01*
X153259012Y-109559427D01*
X153206323Y-109553777D01*
X153064515Y-109610564D01*
X152976924Y-109742607D01*
X152973250Y-109892432D01*
X152300639Y-109892432D01*
X152248221Y-109870121D01*
X152145257Y-109876097D01*
X152093632Y-109887495D01*
X152109826Y-109848866D01*
X152083802Y-109766460D01*
X151949622Y-109645002D01*
X151858757Y-109583670D01*
X152511089Y-109583670D01*
X152519818Y-109652807D01*
X152624665Y-109730374D01*
X152699861Y-109759873D01*
X152715504Y-109707739D01*
X152717500Y-109659610D01*
X152661023Y-109566070D01*
X152611667Y-109553777D01*
X152511089Y-109583670D01*
X151858757Y-109583670D01*
X151837013Y-109568993D01*
X151667721Y-109450506D01*
X151571620Y-109356898D01*
X151563601Y-109320083D01*
X151652253Y-109297670D01*
X151845364Y-109280738D01*
X152106305Y-109272105D01*
X152194340Y-109271555D01*
X152776551Y-109271555D01*
X152790247Y-109230397D01*
X153146403Y-109230397D01*
X153159376Y-109321909D01*
X153183461Y-109323001D01*
X153200303Y-109228570D01*
X153189031Y-109187770D01*
X153157702Y-109161045D01*
X153146403Y-109230397D01*
X152790247Y-109230397D01*
X152928912Y-108813710D01*
X153035657Y-108520111D01*
X153118899Y-108358806D01*
X153184219Y-108324009D01*
X153237200Y-108409934D01*
G37*
G36*
X150249434Y-108929172D02*
G01*
X150600833Y-109039611D01*
X150995110Y-109288610D01*
X151315854Y-109636617D01*
X151551516Y-110055869D01*
X151690548Y-110518606D01*
X151721401Y-110997066D01*
X151632528Y-111463488D01*
X151621854Y-111494055D01*
X151548091Y-111706330D01*
X151525746Y-111799187D01*
X151554940Y-111784661D01*
X151623836Y-111691929D01*
X151786697Y-111505547D01*
X151987835Y-111376367D01*
X152254198Y-111295279D01*
X152612735Y-111253179D01*
X152955971Y-111241737D01*
X153303283Y-111240688D01*
X153550039Y-111251535D01*
X153736698Y-111280995D01*
X153903720Y-111335785D01*
X154091565Y-111422621D01*
X154114547Y-111434073D01*
X154407208Y-111609490D01*
X154614839Y-111814337D01*
X154715862Y-111962239D01*
X154797961Y-112103855D01*
X154853647Y-112231230D01*
X154887953Y-112375880D01*
X154905908Y-112569321D01*
X154912544Y-112843066D01*
X154912968Y-113196961D01*
X154911942Y-113552707D01*
X154910653Y-113866838D01*
X154909259Y-114107195D01*
X154907918Y-114241617D01*
X154907801Y-114247636D01*
X154843564Y-114429304D01*
X154679479Y-114628166D01*
X154447997Y-114812325D01*
X154201095Y-114942273D01*
X153952736Y-115010911D01*
X153618187Y-115063338D01*
X153246646Y-115096033D01*
X152887312Y-115105472D01*
X152589383Y-115088133D01*
X152470556Y-115066183D01*
X152035014Y-114893921D01*
X151687333Y-114640502D01*
X151444607Y-114321727D01*
X151334567Y-114016195D01*
X151322561Y-113818389D01*
X151759677Y-113818389D01*
X151852619Y-114143359D01*
X152066948Y-114409847D01*
X152394454Y-114603797D01*
X152491113Y-114638678D01*
X152652611Y-114665803D01*
X152905040Y-114681166D01*
X153198508Y-114682016D01*
X153249557Y-114680496D01*
X153592513Y-114657246D01*
X153847073Y-114608238D01*
X154065220Y-114522079D01*
X154131501Y-114487192D01*
X154446111Y-114313763D01*
X154467831Y-113362520D01*
X154472181Y-112900113D01*
X154455820Y-112553765D01*
X154410839Y-112299009D01*
X154329330Y-112111375D01*
X154203383Y-111966394D01*
X154025089Y-111839598D01*
X153963962Y-111803592D01*
X153797253Y-111719996D01*
X153626594Y-111669177D01*
X153409356Y-111643508D01*
X153102908Y-111635363D01*
X153022523Y-111635166D01*
X152593336Y-111655607D01*
X152285954Y-111721290D01*
X152086484Y-111838754D01*
X151981031Y-112014539D01*
X151958286Y-112136030D01*
X151964903Y-112360727D01*
X152046908Y-112470815D01*
X152220353Y-112479717D01*
X152337323Y-112452959D01*
X152637581Y-112395962D01*
X152947628Y-112379410D01*
X153214973Y-112403504D01*
X153357138Y-112449037D01*
X153480469Y-112540358D01*
X153481907Y-112621502D01*
X153356211Y-112696299D01*
X153098137Y-112768582D01*
X152854351Y-112816487D01*
X152459962Y-112896769D01*
X152181913Y-112984067D01*
X151995643Y-113093065D01*
X151876590Y-113238447D01*
X151800192Y-113434896D01*
X151796329Y-113448995D01*
X151759677Y-113818389D01*
X151322561Y-113818389D01*
X151315115Y-113695712D01*
X151365960Y-113360480D01*
X151474953Y-113070088D01*
X151550578Y-112956585D01*
X151654688Y-112815259D01*
X151668937Y-112717554D01*
X151616861Y-112625264D01*
X151555766Y-112472610D01*
X151521057Y-112251924D01*
X151518056Y-112169479D01*
X151518056Y-111848819D01*
X151364224Y-112065353D01*
X151074145Y-112361024D01*
X150687344Y-112586366D01*
X150353889Y-112696048D01*
X150001111Y-112777858D01*
X150019211Y-113174601D01*
X150024510Y-113403288D01*
X150001991Y-113536007D01*
X149933940Y-113617542D01*
X149817244Y-113685144D01*
X149524510Y-113786370D01*
X149170554Y-113838239D01*
X148822729Y-113834857D01*
X148603073Y-113791424D01*
X148465015Y-113734603D01*
X148354166Y-113654082D01*
X148264978Y-113532787D01*
X148191904Y-113353644D01*
X148129399Y-113099579D01*
X148071914Y-112753518D01*
X148013904Y-112298387D01*
X147959883Y-111811555D01*
X147937975Y-111607727D01*
X147905749Y-111309003D01*
X147868104Y-110960777D01*
X147840818Y-110708775D01*
X147805135Y-110362307D01*
X147788309Y-110123680D01*
X147791963Y-109963647D01*
X148188442Y-109963647D01*
X148269656Y-110764129D01*
X148334215Y-111368950D01*
X148399429Y-111921700D01*
X148463011Y-112406581D01*
X148522676Y-112807793D01*
X148576140Y-113109540D01*
X148621116Y-113296023D01*
X148643175Y-113346138D01*
X148773296Y-113411392D01*
X149002596Y-113432525D01*
X149295553Y-113407469D01*
X149394408Y-113389867D01*
X149551953Y-113334392D01*
X149588325Y-113247168D01*
X149584720Y-113231117D01*
X149557513Y-113096873D01*
X149524159Y-112883347D01*
X149507162Y-112757006D01*
X149461616Y-112397181D01*
X149901790Y-112351173D01*
X150385060Y-112242738D01*
X150772192Y-112034699D01*
X151055853Y-111737113D01*
X151228713Y-111360036D01*
X151283441Y-110913526D01*
X151238234Y-110517840D01*
X151097870Y-110081266D01*
X150873700Y-109748142D01*
X150553189Y-109500125D01*
X150536182Y-109490607D01*
X150187036Y-109363786D01*
X149776541Y-109316735D01*
X149345034Y-109344395D01*
X148932851Y-109441710D01*
X148580329Y-109603620D01*
X148382976Y-109760598D01*
X148188442Y-109963647D01*
X147791963Y-109963647D01*
X147792031Y-109960674D01*
X147817991Y-109841068D01*
X147867877Y-109732641D01*
X147894456Y-109685959D01*
X148129543Y-109412192D01*
X148468611Y-109187684D01*
X148880897Y-109019780D01*
X149335638Y-108915830D01*
X149802071Y-108883178D01*
X150249434Y-108929172D01*
G37*
G36*
X144909106Y-108673618D02*
G01*
X145207320Y-108677038D01*
X145402915Y-108692171D01*
X145534380Y-108729491D01*
X145640202Y-108799473D01*
X145748309Y-108902022D01*
X145879419Y-109048459D01*
X145946241Y-109186064D01*
X145968689Y-109371957D01*
X145969075Y-109535236D01*
X145972153Y-109752522D01*
X145990070Y-109832609D01*
X146019681Y-109789287D01*
X146142500Y-109634262D01*
X146329518Y-109577139D01*
X146498405Y-109618870D01*
X146630167Y-109649463D01*
X146775950Y-109579557D01*
X146812060Y-109552224D01*
X147041283Y-109436571D01*
X147247813Y-109446345D01*
X147410150Y-109565868D01*
X147506788Y-109779461D01*
X147516886Y-110066142D01*
X147449295Y-110311341D01*
X147321862Y-110555876D01*
X147163061Y-110757423D01*
X147001369Y-110873664D01*
X146966640Y-110883908D01*
X146845538Y-110869159D01*
X146664291Y-110809056D01*
X146469577Y-110724314D01*
X146308072Y-110635651D01*
X146226455Y-110563782D01*
X146223851Y-110554244D01*
X146180267Y-110474745D01*
X146075086Y-110336694D01*
X146039719Y-110294610D01*
X145936242Y-110180123D01*
X145892237Y-110144216D01*
X145895820Y-110155784D01*
X145899442Y-110251671D01*
X145879693Y-110453796D01*
X145840376Y-110729924D01*
X145800155Y-110967173D01*
X145733111Y-111345920D01*
X145665399Y-111740889D01*
X145607638Y-112089677D01*
X145586435Y-112223197D01*
X145524577Y-112539681D01*
X145444221Y-112763658D01*
X145326658Y-112943730D01*
X145294480Y-112981669D01*
X145141873Y-113128306D01*
X145006222Y-113214374D01*
X144966719Y-113223746D01*
X144890517Y-113235447D01*
X144944982Y-113284498D01*
X144954317Y-113290448D01*
X145017007Y-113358327D01*
X145011622Y-113471017D01*
X144971956Y-113594238D01*
X144913319Y-113787008D01*
X144886075Y-113936906D01*
X144885833Y-113946115D01*
X144827239Y-114059337D01*
X144754803Y-114101410D01*
X144657622Y-114182458D01*
X144655886Y-114310981D01*
X144695014Y-114420478D01*
X144784592Y-114458463D01*
X144948781Y-114449005D01*
X145120381Y-114437512D01*
X145196783Y-114481458D01*
X145222684Y-114617798D01*
X145227077Y-114679097D01*
X145246764Y-114863828D01*
X145272572Y-114982319D01*
X145277107Y-114991762D01*
X145284876Y-115097529D01*
X145273048Y-115139691D01*
X145208506Y-115194212D01*
X145054607Y-115211364D01*
X144831847Y-115198975D01*
X144603603Y-115173161D01*
X144485182Y-115137953D01*
X144445411Y-115078280D01*
X144447753Y-115013300D01*
X144450712Y-114928735D01*
X144407453Y-114893153D01*
X144285691Y-114899053D01*
X144094976Y-114931329D01*
X143883939Y-114972260D01*
X143739823Y-115005262D01*
X143702054Y-115018271D01*
X143709725Y-115090055D01*
X143751799Y-115219966D01*
X143786004Y-115357716D01*
X143730644Y-115425890D01*
X143665579Y-115449763D01*
X143490593Y-115528008D01*
X143404167Y-115586277D01*
X143248684Y-115680561D01*
X143141934Y-115723051D01*
X143014705Y-115731483D01*
X142952356Y-115631082D01*
X142946369Y-115607924D01*
X142917936Y-115434175D01*
X142895295Y-115201616D01*
X142891103Y-115133408D01*
X142890532Y-115089160D01*
X143172737Y-115089160D01*
X143172811Y-115201106D01*
X143242145Y-115307025D01*
X143331228Y-115294500D01*
X143391701Y-115174736D01*
X143361113Y-115076631D01*
X143274834Y-115057110D01*
X143172737Y-115089160D01*
X142890532Y-115089160D01*
X142888581Y-114937952D01*
X142925426Y-114836492D01*
X142940504Y-114828575D01*
X144775323Y-114828575D01*
X144844676Y-114839873D01*
X144936187Y-114826901D01*
X144937280Y-114802816D01*
X144842849Y-114785973D01*
X144802049Y-114797246D01*
X144775323Y-114828575D01*
X142940504Y-114828575D01*
X143028281Y-114782487D01*
X143104306Y-114760974D01*
X143267496Y-114694322D01*
X143295865Y-114644567D01*
X143621027Y-114644567D01*
X143666704Y-114699374D01*
X143802236Y-114684642D01*
X143831114Y-114678915D01*
X144047978Y-114646102D01*
X144224375Y-114633777D01*
X144355229Y-114599868D01*
X144390872Y-114476624D01*
X144390864Y-114475027D01*
X144361600Y-114270284D01*
X144262697Y-114170757D01*
X144072135Y-114161528D01*
X143957412Y-114181421D01*
X143765047Y-114231932D01*
X143671172Y-114301653D01*
X143634439Y-114428707D01*
X143628266Y-114484887D01*
X143621027Y-114644567D01*
X143295865Y-114644567D01*
X143328804Y-114586797D01*
X143333611Y-114517107D01*
X143318550Y-114392107D01*
X143244532Y-114358425D01*
X143121944Y-114376249D01*
X142989091Y-114395164D01*
X142928246Y-114358051D01*
X142911442Y-114231027D01*
X142910821Y-114120485D01*
X142921111Y-113963499D01*
X143263056Y-113963499D01*
X143298333Y-113998777D01*
X143333611Y-113963499D01*
X143298333Y-113928221D01*
X143263056Y-113963499D01*
X142921111Y-113963499D01*
X142923506Y-113926965D01*
X142984025Y-113805884D01*
X143127437Y-113699745D01*
X143189383Y-113663638D01*
X143410668Y-113548042D01*
X143540061Y-113517491D01*
X143600727Y-113575339D01*
X143615833Y-113724940D01*
X143615833Y-113725374D01*
X143626976Y-113875014D01*
X143689561Y-113921410D01*
X143836319Y-113901763D01*
X144023291Y-113870294D01*
X144155164Y-113857666D01*
X144220279Y-113815215D01*
X144211265Y-113716555D01*
X144533056Y-113716555D01*
X144558871Y-113774630D01*
X144580093Y-113763592D01*
X144588537Y-113679859D01*
X144580093Y-113669517D01*
X144538147Y-113679203D01*
X144533056Y-113716555D01*
X144211265Y-113716555D01*
X144207350Y-113673704D01*
X144201137Y-113504027D01*
X144247827Y-113436190D01*
X144234065Y-113405668D01*
X144108401Y-113382475D01*
X143957515Y-113373657D01*
X143510634Y-113316740D01*
X144556574Y-113316740D01*
X144566259Y-113358685D01*
X144603611Y-113363777D01*
X144661686Y-113337962D01*
X144650648Y-113316740D01*
X144566915Y-113308296D01*
X144556574Y-113316740D01*
X143510634Y-113316740D01*
X143391943Y-113301623D01*
X142899960Y-113122554D01*
X142491800Y-112849183D01*
X142177695Y-112494243D01*
X141967880Y-112070468D01*
X141877394Y-111614800D01*
X142301564Y-111614800D01*
X142392267Y-112035283D01*
X142603214Y-112382257D01*
X142934844Y-112656353D01*
X143387596Y-112858200D01*
X143580556Y-112913358D01*
X144064303Y-112969380D01*
X144546914Y-112889513D01*
X144790464Y-112799456D01*
X144909764Y-112746419D01*
X144997226Y-112692067D01*
X145061728Y-112613738D01*
X145112147Y-112488768D01*
X145157363Y-112294493D01*
X145206252Y-112008250D01*
X145267693Y-111607375D01*
X145274186Y-111564610D01*
X145368361Y-110939298D01*
X145441580Y-110439273D01*
X145495525Y-110050536D01*
X145498083Y-110030027D01*
X146299188Y-110030027D01*
X146372753Y-110239726D01*
X146583070Y-110431661D01*
X146685000Y-110492042D01*
X146834378Y-110561913D01*
X146928934Y-110548115D01*
X147036003Y-110437624D01*
X147049324Y-110421561D01*
X147166779Y-110242019D01*
X147233552Y-110071870D01*
X147225054Y-109893508D01*
X147181188Y-109791933D01*
X147114596Y-109727102D01*
X147044517Y-109755071D01*
X146947936Y-109866972D01*
X146829479Y-109991136D01*
X146728878Y-110010873D01*
X146658254Y-109981676D01*
X146465460Y-109912644D01*
X146337823Y-109935657D01*
X146299188Y-110030027D01*
X145498083Y-110030027D01*
X145531880Y-109759092D01*
X145552328Y-109550944D01*
X145558551Y-109412094D01*
X145552232Y-109328545D01*
X145545811Y-109305433D01*
X145424487Y-109174854D01*
X145193608Y-109089645D01*
X144887400Y-109059888D01*
X144615931Y-109059888D01*
X144554050Y-109500860D01*
X144510292Y-109751097D01*
X144462252Y-109881917D01*
X144401265Y-109914946D01*
X144389140Y-109912435D01*
X144271601Y-109898084D01*
X144056586Y-109887369D01*
X143787721Y-109882352D01*
X143750213Y-109882225D01*
X143448716Y-109889520D01*
X143242714Y-109918756D01*
X143087154Y-109979306D01*
X142991579Y-110040014D01*
X142657559Y-110347972D01*
X142438466Y-110722916D01*
X142330667Y-111120181D01*
X142301564Y-111614800D01*
X141877394Y-111614800D01*
X141872587Y-111590591D01*
X141902051Y-111067346D01*
X141945386Y-110869984D01*
X142142464Y-110361674D01*
X142441086Y-109951190D01*
X142715885Y-109718195D01*
X142892579Y-109610566D01*
X143070912Y-109545536D01*
X143300516Y-109509842D01*
X143557421Y-109493365D01*
X143835096Y-109478155D01*
X144003078Y-109456252D01*
X144092716Y-109416512D01*
X144135359Y-109347791D01*
X144152861Y-109281698D01*
X144202168Y-109067749D01*
X144245724Y-108883499D01*
X144296522Y-108671832D01*
X144909106Y-108673618D01*
G37*
G36*
X151839956Y-107334324D02*
G01*
X152245064Y-107530364D01*
X152607617Y-107701042D01*
X152908592Y-107837792D01*
X153128965Y-107932048D01*
X153249713Y-107975247D01*
X153265844Y-107976318D01*
X153362641Y-107940724D01*
X153566719Y-107881060D01*
X153853431Y-107803399D01*
X154198131Y-107713818D01*
X154576174Y-107618392D01*
X154962914Y-107523195D01*
X155333704Y-107434302D01*
X155663899Y-107357790D01*
X155928852Y-107299732D01*
X156103918Y-107266203D01*
X156164146Y-107261905D01*
X156181664Y-107342454D01*
X156205031Y-107541155D01*
X156232153Y-107835273D01*
X156260935Y-108202072D01*
X156289283Y-108618817D01*
X156289544Y-108622961D01*
X156321244Y-109100934D01*
X156351583Y-109471431D01*
X156386172Y-109767913D01*
X156430622Y-110023842D01*
X156490544Y-110272681D01*
X156571549Y-110547892D01*
X156657162Y-110815243D01*
X156941568Y-111688653D01*
X156584326Y-112684965D01*
X156458729Y-113041911D01*
X156352367Y-113356904D01*
X156273751Y-113603731D01*
X156231395Y-113756175D01*
X156226431Y-113787110D01*
X156233060Y-113913402D01*
X156251867Y-114142553D01*
X156280014Y-114447327D01*
X156314664Y-114800488D01*
X156352979Y-115174799D01*
X156392122Y-115543024D01*
X156429254Y-115877927D01*
X156461537Y-116152271D01*
X156486136Y-116338820D01*
X156499670Y-116409717D01*
X156480855Y-116484845D01*
X156458964Y-116502251D01*
X156423044Y-116511128D01*
X156348984Y-116510373D01*
X156224087Y-116497997D01*
X156035656Y-116472012D01*
X155770992Y-116430428D01*
X155417399Y-116371258D01*
X154962177Y-116292513D01*
X154392631Y-116192203D01*
X153750715Y-116078085D01*
X153469302Y-116030782D01*
X153275009Y-116013735D01*
X153116252Y-116031244D01*
X152941447Y-116087607D01*
X152762937Y-116160405D01*
X152456592Y-116288381D01*
X152130146Y-116424708D01*
X151941389Y-116503509D01*
X151701404Y-116604888D01*
X151384739Y-116740308D01*
X151043986Y-116887231D01*
X150888038Y-116954905D01*
X150586476Y-117077979D01*
X150313149Y-117175038D01*
X150106070Y-117233300D01*
X150027375Y-117244332D01*
X149867912Y-117223319D01*
X149622646Y-117167682D01*
X149339270Y-117088530D01*
X149281559Y-117070647D01*
X149005671Y-116985919D01*
X148668834Y-116885999D01*
X148297541Y-116778333D01*
X147918285Y-116670368D01*
X147557561Y-116569552D01*
X147241861Y-116483329D01*
X146997679Y-116419148D01*
X146851509Y-116384454D01*
X146826111Y-116380485D01*
X146740042Y-116407755D01*
X146542472Y-116487210D01*
X146249890Y-116611612D01*
X145878783Y-116773721D01*
X145445640Y-116966298D01*
X144966948Y-117182103D01*
X144459195Y-117413897D01*
X144191117Y-117537437D01*
X143880169Y-117676443D01*
X143649440Y-117753612D01*
X143460279Y-117763978D01*
X143274038Y-117702577D01*
X143052069Y-117564445D01*
X142769167Y-117354798D01*
X142435482Y-117102222D01*
X142052656Y-116812525D01*
X141684103Y-116533694D01*
X141543939Y-116427676D01*
X140918434Y-115954593D01*
X140962803Y-115452935D01*
X140990051Y-115176772D01*
X141030024Y-114811381D01*
X141077018Y-114407437D01*
X141118513Y-114069332D01*
X141229854Y-113187388D01*
X140830842Y-111705721D01*
X140714481Y-111260152D01*
X140614625Y-110851653D01*
X140536272Y-110502900D01*
X140484421Y-110236570D01*
X140470453Y-110125913D01*
X140554770Y-110125913D01*
X140754301Y-110931714D01*
X140835318Y-111242934D01*
X140908162Y-111493654D01*
X140964827Y-111658186D01*
X140997194Y-111710916D01*
X141030010Y-111751788D01*
X141047979Y-111887274D01*
X141074179Y-112066185D01*
X141133908Y-112313732D01*
X141189090Y-112497699D01*
X141255506Y-112744037D01*
X141294600Y-113010813D01*
X141306116Y-113321104D01*
X141289802Y-113697989D01*
X141245402Y-114164544D01*
X141172665Y-114743848D01*
X141163645Y-114810166D01*
X141116740Y-115170868D01*
X141080735Y-115482896D01*
X141058434Y-115718972D01*
X141052639Y-115851819D01*
X141054880Y-115868499D01*
X141124785Y-115950260D01*
X141268366Y-116070494D01*
X141329429Y-116115443D01*
X141489697Y-116231656D01*
X141726756Y-116406384D01*
X142004774Y-116613121D01*
X142211750Y-116768082D01*
X142467918Y-116958266D01*
X142681062Y-117112347D01*
X142827119Y-117213203D01*
X142881048Y-117244332D01*
X142959338Y-117283167D01*
X143001450Y-117314913D01*
X143219476Y-117491397D01*
X143367764Y-117589957D01*
X143484162Y-117623978D01*
X143606521Y-117606846D01*
X143721667Y-117569623D01*
X143856673Y-117513531D01*
X144068862Y-117415634D01*
X144286111Y-117310030D01*
X144521509Y-117201914D01*
X144720509Y-117126585D01*
X144832917Y-117101229D01*
X144937665Y-117076779D01*
X144956389Y-117047865D01*
X145017372Y-116997561D01*
X145177643Y-116917809D01*
X145403181Y-116825437D01*
X145415000Y-116820999D01*
X145642803Y-116728445D01*
X145806963Y-116647708D01*
X145873460Y-116595616D01*
X145873611Y-116594133D01*
X145931152Y-116545325D01*
X145982255Y-116538777D01*
X146109689Y-116508146D01*
X146298152Y-116431430D01*
X146367500Y-116397666D01*
X146722059Y-116274555D01*
X147066317Y-116283273D01*
X147293745Y-116355648D01*
X147522410Y-116435100D01*
X147741117Y-116488167D01*
X147743333Y-116488524D01*
X147922285Y-116528607D01*
X148174836Y-116598879D01*
X148404415Y-116670599D01*
X148640150Y-116740848D01*
X148822664Y-116781336D01*
X148911067Y-116783516D01*
X148993441Y-116798367D01*
X149015595Y-116824658D01*
X149112611Y-116872110D01*
X149161581Y-116863301D01*
X149247984Y-116865557D01*
X149260278Y-116893769D01*
X149300603Y-116950359D01*
X149313194Y-116949273D01*
X149408961Y-116959430D01*
X149582637Y-117000508D01*
X149641712Y-117017183D01*
X149827519Y-117060642D01*
X149953076Y-117070049D01*
X149970825Y-117064859D01*
X150039160Y-117082717D01*
X150048002Y-117100819D01*
X150119222Y-117115679D01*
X150273059Y-117070217D01*
X150353889Y-117034613D01*
X150571641Y-116935451D01*
X150853730Y-116813748D01*
X151094722Y-116713967D01*
X151378613Y-116596664D01*
X151655343Y-116478208D01*
X151835556Y-116397671D01*
X152264811Y-116200250D01*
X152591704Y-116056815D01*
X152841230Y-115960588D01*
X153038382Y-115904790D01*
X153208157Y-115882642D01*
X153375548Y-115887365D01*
X153565550Y-115912180D01*
X153603522Y-115918169D01*
X153881855Y-115959124D01*
X154130474Y-115989769D01*
X154287361Y-116002962D01*
X154428325Y-116024440D01*
X154481389Y-116062527D01*
X154543157Y-116099028D01*
X154693578Y-116116892D01*
X154710694Y-116117168D01*
X154937321Y-116134537D01*
X155190703Y-116174800D01*
X155222222Y-116181512D01*
X155493495Y-116234581D01*
X155773142Y-116279306D01*
X155793581Y-116282046D01*
X156001252Y-116311191D01*
X156157388Y-116336419D01*
X156181636Y-116341174D01*
X156234075Y-116314885D01*
X156265824Y-116202150D01*
X156276870Y-115992552D01*
X156267201Y-115675675D01*
X156236800Y-115241105D01*
X156185656Y-114678426D01*
X156179342Y-114614129D01*
X156140029Y-114169856D01*
X156122778Y-113846642D01*
X156127280Y-113626219D01*
X156153224Y-113490319D01*
X156159968Y-113473815D01*
X156227342Y-113307288D01*
X156318441Y-113058037D01*
X156420512Y-112764052D01*
X156520801Y-112463321D01*
X156606552Y-112193833D01*
X156665012Y-111993579D01*
X156682512Y-111917388D01*
X156730151Y-111778124D01*
X156769908Y-111728737D01*
X156786746Y-111643235D01*
X156743629Y-111569987D01*
X156687967Y-111481523D01*
X156696197Y-111458777D01*
X156700999Y-111401928D01*
X156657357Y-111260561D01*
X156637880Y-111211832D01*
X156579274Y-111054355D01*
X156561733Y-110969591D01*
X156565807Y-110964888D01*
X156563363Y-110906682D01*
X156519581Y-110761133D01*
X156497579Y-110700304D01*
X156355880Y-110261764D01*
X156249002Y-109783497D01*
X156173901Y-109242020D01*
X156127532Y-108613851D01*
X156106850Y-107875504D01*
X156105354Y-107675525D01*
X156104167Y-107384773D01*
X155795351Y-107442466D01*
X155587533Y-107487509D01*
X155294333Y-107558909D01*
X154966044Y-107644224D01*
X154825213Y-107682476D01*
X154477035Y-107777754D01*
X154122859Y-107873503D01*
X153822921Y-107953474D01*
X153740556Y-107975080D01*
X153492370Y-108045267D01*
X153285232Y-108113550D01*
X153186367Y-108154502D01*
X153095427Y-108188526D01*
X153102336Y-108147874D01*
X153111066Y-108075324D01*
X153092081Y-108066712D01*
X152863407Y-108024990D01*
X152732271Y-107958099D01*
X152724563Y-107948463D01*
X152624091Y-107866565D01*
X152448181Y-107772535D01*
X152244285Y-107686107D01*
X152059853Y-107627012D01*
X151942335Y-107614984D01*
X151932420Y-107619042D01*
X151881028Y-107629650D01*
X151891299Y-107602188D01*
X151848771Y-107546566D01*
X151701511Y-107446551D01*
X151473036Y-107316605D01*
X151203690Y-107179339D01*
X150877821Y-107024795D01*
X150651033Y-106928747D01*
X150497898Y-106883279D01*
X150392990Y-106880478D01*
X150323444Y-106905357D01*
X150229116Y-106986863D01*
X150228204Y-107046394D01*
X150234589Y-107075697D01*
X150203676Y-107061479D01*
X150111326Y-107072870D01*
X149932955Y-107138278D01*
X149704351Y-107240484D01*
X149461303Y-107362266D01*
X149239598Y-107486406D01*
X149075025Y-107595682D01*
X149048611Y-107617256D01*
X148926440Y-107702375D01*
X148872222Y-107725275D01*
X148701447Y-107780131D01*
X148531435Y-107858184D01*
X148406600Y-107936019D01*
X148370930Y-107989576D01*
X148332599Y-108029294D01*
X148195034Y-108057404D01*
X148160340Y-108060326D01*
X148017914Y-108049807D01*
X147838577Y-107993641D01*
X147598037Y-107881598D01*
X147272002Y-107703447D01*
X147159482Y-107638819D01*
X146848679Y-107460015D01*
X146565407Y-107298994D01*
X146341376Y-107173659D01*
X146210153Y-107102856D01*
X146059791Y-107012582D01*
X145976683Y-106938753D01*
X145866641Y-106876015D01*
X145701998Y-106927230D01*
X145623378Y-106981277D01*
X145506512Y-107071065D01*
X145310597Y-107219282D01*
X145069800Y-107400128D01*
X144956389Y-107484917D01*
X144680472Y-107693267D01*
X144409368Y-107901974D01*
X144189908Y-108074870D01*
X144137733Y-108117138D01*
X143958973Y-108261422D01*
X143845252Y-108331228D01*
X143750503Y-108339070D01*
X143628661Y-108297463D01*
X143567510Y-108272050D01*
X143416291Y-108211663D01*
X143333611Y-108182775D01*
X143249563Y-108143443D01*
X143210139Y-108119782D01*
X143077209Y-108098779D01*
X143033750Y-108114536D01*
X142984887Y-108128553D01*
X143000486Y-108104927D01*
X142970725Y-108049734D01*
X142843570Y-107962511D01*
X142654115Y-107859796D01*
X142437454Y-107758131D01*
X142228683Y-107674053D01*
X142062895Y-107624104D01*
X141977786Y-107622936D01*
X141931969Y-107628629D01*
X141942501Y-107602940D01*
X141914668Y-107534912D01*
X141790200Y-107462136D01*
X141780080Y-107458213D01*
X141644335Y-107417455D01*
X141570153Y-107450367D01*
X141513969Y-107584715D01*
X141497318Y-107638424D01*
X141425963Y-107860474D01*
X141349034Y-108067024D01*
X141242018Y-108322860D01*
X141213125Y-108389610D01*
X141146668Y-108545278D01*
X141110734Y-108634495D01*
X141110052Y-108636555D01*
X141077284Y-108725777D01*
X141057075Y-108777666D01*
X141015074Y-108887878D01*
X140937570Y-109094586D01*
X140837982Y-109361926D01*
X140784998Y-109504706D01*
X140554770Y-110125913D01*
X140470453Y-110125913D01*
X140464069Y-110075338D01*
X140465363Y-110047666D01*
X140506266Y-109896461D01*
X140583522Y-109657300D01*
X140681863Y-109373558D01*
X140786020Y-109088608D01*
X140880724Y-108845824D01*
X140924867Y-108742388D01*
X140978661Y-108609903D01*
X141062834Y-108388198D01*
X141160797Y-108121121D01*
X141178437Y-108072110D01*
X141310282Y-107706717D01*
X141406870Y-107456507D01*
X141481306Y-107304099D01*
X141546695Y-107232112D01*
X141616142Y-107223163D01*
X141702750Y-107259871D01*
X141764707Y-107294498D01*
X141899767Y-107362697D01*
X142155174Y-107483475D01*
X142522048Y-107652725D01*
X142991512Y-107866342D01*
X143395359Y-108048596D01*
X143774607Y-108219253D01*
X144312581Y-107813229D01*
X144607905Y-107586537D01*
X144915487Y-107344294D01*
X145180118Y-107130128D01*
X145238611Y-107081460D01*
X145441880Y-106913588D01*
X145608785Y-106780730D01*
X145704673Y-106710440D01*
X145707002Y-106709051D01*
X145796806Y-106724316D01*
X145977675Y-106801793D01*
X146221447Y-106928217D01*
X146442783Y-107055654D01*
X146777059Y-107254634D01*
X147127633Y-107460728D01*
X147439980Y-107641977D01*
X147567408Y-107714789D01*
X148036586Y-107980655D01*
X148666071Y-107636862D01*
X148981008Y-107466294D01*
X149294318Y-107299019D01*
X149556643Y-107161299D01*
X149648333Y-107114226D01*
X149897739Y-106984079D01*
X150136328Y-106853689D01*
X150233278Y-106798025D01*
X150465446Y-106660668D01*
X151839956Y-107334324D01*
G37*
D11*
%TO.C,D5*%
X152570000Y-83185000D02*
X154830000Y-83185000D01*
X155970000Y-81265000D02*
X155970000Y-85105000D01*
X156090000Y-81265000D02*
X156090000Y-85105000D01*
X156210000Y-81265000D02*
X156210000Y-85105000D01*
X164930000Y-83185000D02*
X162670000Y-83185000D01*
X154830000Y-81265000D02*
X162670000Y-81265000D01*
X162670000Y-85105000D01*
X154830000Y-85105000D01*
X154830000Y-81265000D01*
%TO.C,D8*%
X152570000Y-98635000D02*
X154830000Y-98635000D01*
X155970000Y-96715000D02*
X155970000Y-100555000D01*
X156090000Y-96715000D02*
X156090000Y-100555000D01*
X156210000Y-96715000D02*
X156210000Y-100555000D01*
X164930000Y-98635000D02*
X162670000Y-98635000D01*
X154830000Y-96715000D02*
X162670000Y-96715000D01*
X162670000Y-100555000D01*
X154830000Y-100555000D01*
X154830000Y-96715000D01*
%TO.C,R1*%
X125430000Y-60325000D02*
X126050000Y-60325000D01*
X125430000Y-60325000D02*
G75*
G02*
X123590000Y-60325000I-920000J0D01*
G01*
X123590000Y-60325000D02*
G75*
G02*
X125430000Y-60325000I920000J0D01*
G01*
%TO.C,SW10*%
X74872000Y-68989000D02*
X74872000Y-64889000D01*
X74872000Y-77089000D02*
X74872000Y-72989000D01*
X77272000Y-77089000D02*
X74872000Y-77089000D01*
X80772000Y-70489000D02*
X80772000Y-71489000D01*
X81272000Y-70989000D02*
X80272000Y-70989000D01*
X82072000Y-77089000D02*
X79472000Y-77089000D01*
X84572000Y-63489000D02*
X84872000Y-63189000D01*
X84872000Y-63189000D02*
X84872000Y-63789000D01*
X84872000Y-63789000D02*
X84572000Y-63489000D01*
X86672000Y-64889000D02*
X74872000Y-64889000D01*
X86672000Y-68989000D02*
X86672000Y-64889000D01*
X86672000Y-72989000D02*
X86672000Y-77089000D01*
X86672000Y-77089000D02*
X84272000Y-77089000D01*
X83772000Y-70989000D02*
G75*
G02*
X77772000Y-70989000I-3000000J0D01*
G01*
X77772000Y-70989000D02*
G75*
G02*
X83772000Y-70989000I3000000J0D01*
G01*
%TO.C,SW6*%
X93345000Y-102870000D02*
X107315000Y-102870000D01*
X93345000Y-116840000D02*
X93345000Y-102870000D01*
X107315000Y-102870000D02*
X107315000Y-116840000D01*
X107315000Y-116840000D02*
X93345000Y-116840000D01*
%TO.C,D2*%
X140710000Y-81820000D02*
X140710000Y-85820000D01*
X140710000Y-81820000D02*
X146310000Y-81820000D01*
X140710000Y-85820000D02*
X145710000Y-85820000D01*
X146310000Y-85220000D02*
X145710000Y-85820000D01*
X146310000Y-85220000D02*
X146310000Y-81820000D01*
%TO.C,C2*%
X164990000Y-110230000D02*
X166520000Y-110230000D01*
X166520000Y-112070000D02*
X164990000Y-112070000D01*
%TO.C,SW4*%
X112395000Y-83820000D02*
X126365000Y-83820000D01*
X112395000Y-97790000D02*
X112395000Y-83820000D01*
X126365000Y-83820000D02*
X126365000Y-97790000D01*
X126365000Y-97790000D02*
X112395000Y-97790000D01*
%TO.C,D9*%
X152570000Y-103785000D02*
X154830000Y-103785000D01*
X155970000Y-101865000D02*
X155970000Y-105705000D01*
X156090000Y-101865000D02*
X156090000Y-105705000D01*
X156210000Y-101865000D02*
X156210000Y-105705000D01*
X164930000Y-103785000D02*
X162670000Y-103785000D01*
X154830000Y-101865000D02*
X162670000Y-101865000D01*
X162670000Y-105705000D01*
X154830000Y-105705000D01*
X154830000Y-101865000D01*
D15*
%TO.C,G\u002A\u002A\u002A*%
G36*
X138744490Y-117040180D02*
G01*
X138758561Y-117066487D01*
X138770080Y-117097765D01*
X138766823Y-117122705D01*
X138743915Y-117151752D01*
X138699756Y-117192442D01*
X138653117Y-117232027D01*
X138617818Y-117258686D01*
X138604222Y-117265868D01*
X138590412Y-117249867D01*
X138568351Y-117208648D01*
X138550870Y-117169866D01*
X138510310Y-117073865D01*
X138561355Y-117054126D01*
X138619040Y-117036210D01*
X138673513Y-117024171D01*
X138718607Y-117021754D01*
X138744490Y-117040180D01*
G37*
G36*
X133709434Y-116884245D02*
G01*
X133715264Y-116932302D01*
X133715624Y-117003541D01*
X133710354Y-117090717D01*
X133704497Y-117147043D01*
X133694486Y-117207427D01*
X133676772Y-117238149D01*
X133641976Y-117245500D01*
X133580721Y-117235768D01*
X133574227Y-117234404D01*
X133518820Y-117223090D01*
X133484702Y-117212800D01*
X133471570Y-117197043D01*
X133479119Y-117169329D01*
X133507046Y-117123169D01*
X133555047Y-117052072D01*
X133565000Y-117037309D01*
X133613325Y-116967837D01*
X133655246Y-116911986D01*
X133685664Y-116876283D01*
X133698295Y-116866616D01*
X133709434Y-116884245D01*
G37*
G36*
X138840331Y-117364593D02*
G01*
X138880843Y-117380639D01*
X138884272Y-117383742D01*
X138902008Y-117422183D01*
X138906052Y-117474497D01*
X138895090Y-117518606D01*
X138892536Y-117522529D01*
X138859667Y-117554086D01*
X138811319Y-117586410D01*
X138758007Y-117614280D01*
X138710248Y-117632476D01*
X138678557Y-117635775D01*
X138672689Y-117631678D01*
X138663722Y-117604977D01*
X138652677Y-117558154D01*
X138651241Y-117551047D01*
X138639550Y-117495903D01*
X138629102Y-117452694D01*
X138628590Y-117450850D01*
X138637049Y-117420616D01*
X138672987Y-117394108D01*
X138725869Y-117374092D01*
X138785162Y-117363332D01*
X138840331Y-117364593D01*
G37*
G36*
X132725121Y-115733400D02*
G01*
X133004014Y-115755573D01*
X133292177Y-115799850D01*
X133592589Y-115866993D01*
X133908228Y-115957764D01*
X134242072Y-116072926D01*
X134597099Y-116213240D01*
X134971607Y-116377330D01*
X135097617Y-116433084D01*
X135233101Y-116489930D01*
X135366177Y-116543083D01*
X135484961Y-116587758D01*
X135551472Y-116610840D01*
X135926751Y-116714782D01*
X136315362Y-116784301D01*
X136714998Y-116819635D01*
X137123350Y-116821020D01*
X137538110Y-116788691D01*
X137956970Y-116722885D01*
X138377621Y-116623837D01*
X138797756Y-116491785D01*
X139215065Y-116326965D01*
X139467939Y-116210098D01*
X139571241Y-116159164D01*
X139669766Y-116109708D01*
X139755259Y-116065934D01*
X139819464Y-116032052D01*
X139843407Y-116018756D01*
X139895538Y-115992448D01*
X139934460Y-115979686D01*
X139947973Y-115981010D01*
X139943653Y-116001215D01*
X139923805Y-116050164D01*
X139890686Y-116122991D01*
X139846552Y-116214832D01*
X139793662Y-116320821D01*
X139757872Y-116390714D01*
X139700085Y-116502985D01*
X139648633Y-116603869D01*
X139605952Y-116688516D01*
X139574475Y-116752077D01*
X139556637Y-116789701D01*
X139553493Y-116797834D01*
X139571638Y-116801112D01*
X139622604Y-116804037D01*
X139701189Y-116806476D01*
X139802192Y-116808294D01*
X139920411Y-116809357D01*
X140008658Y-116809580D01*
X140142720Y-116810293D01*
X140260422Y-116812311D01*
X140356988Y-116815453D01*
X140427643Y-116819538D01*
X140467608Y-116824385D01*
X140474731Y-116827229D01*
X140464622Y-116846032D01*
X140426607Y-116887102D01*
X140362398Y-116948864D01*
X140273710Y-117029742D01*
X140162255Y-117128159D01*
X140029745Y-117242540D01*
X139943239Y-117316151D01*
X139802390Y-117431029D01*
X139636978Y-117558624D01*
X139454431Y-117693729D01*
X139262181Y-117831137D01*
X139067655Y-117965642D01*
X138878283Y-118092038D01*
X138701495Y-118205118D01*
X138544720Y-118299676D01*
X138517340Y-118315384D01*
X138178862Y-118494980D01*
X137849853Y-118644098D01*
X137532381Y-118761975D01*
X137228511Y-118847849D01*
X136940309Y-118900957D01*
X136924144Y-118903013D01*
X136823131Y-118911173D01*
X136691548Y-118915130D01*
X136536595Y-118915080D01*
X136365469Y-118911216D01*
X136185371Y-118903733D01*
X136003499Y-118892827D01*
X135827052Y-118878691D01*
X135751098Y-118871303D01*
X135526920Y-118845522D01*
X135308412Y-118814656D01*
X135089947Y-118777480D01*
X134865899Y-118732770D01*
X134630644Y-118679299D01*
X134378556Y-118615842D01*
X134104008Y-118541176D01*
X133801375Y-118454074D01*
X133707310Y-118426240D01*
X133372960Y-118327896D01*
X133071559Y-118241750D01*
X132929240Y-118202637D01*
X134765584Y-118202637D01*
X134776110Y-118234689D01*
X134800720Y-118254609D01*
X134853101Y-118262513D01*
X134913788Y-118239623D01*
X134977629Y-118190705D01*
X135039472Y-118120527D01*
X135094165Y-118033855D01*
X135132231Y-117947883D01*
X135156433Y-117890668D01*
X135179975Y-117862528D01*
X135208519Y-117855239D01*
X135226589Y-117857733D01*
X135240749Y-117869187D01*
X135253169Y-117895561D01*
X135266020Y-117942813D01*
X135281472Y-118016902D01*
X135296817Y-118097642D01*
X135319000Y-118208553D01*
X135338634Y-118287787D01*
X135357582Y-118341431D01*
X135377709Y-118375574D01*
X135384154Y-118382821D01*
X135439667Y-118418361D01*
X135497813Y-118421196D01*
X135548463Y-118390889D01*
X135549338Y-118389932D01*
X135580148Y-118338483D01*
X135591188Y-118270580D01*
X135582507Y-118180930D01*
X135554154Y-118064240D01*
X135552408Y-118058242D01*
X135525837Y-117973438D01*
X135501295Y-117903544D01*
X136246901Y-117903544D01*
X136257545Y-118044306D01*
X136283562Y-118173437D01*
X136321407Y-118273035D01*
X136387591Y-118365927D01*
X136472725Y-118429649D01*
X136570809Y-118461721D01*
X136675843Y-118459665D01*
X136733730Y-118443344D01*
X136804972Y-118403771D01*
X136853852Y-118351118D01*
X136872778Y-118293673D01*
X136872804Y-118291528D01*
X136865145Y-118242503D01*
X136838494Y-118217058D01*
X136787343Y-118212585D01*
X136726194Y-118222123D01*
X136644029Y-118231527D01*
X136582067Y-118217319D01*
X136532093Y-118175021D01*
X136485894Y-118100158D01*
X136479743Y-118087813D01*
X136449188Y-118014407D01*
X136433508Y-117942349D01*
X136428628Y-117852587D01*
X136428602Y-117848748D01*
X136435479Y-117735684D01*
X136458806Y-117652829D01*
X136500443Y-117595280D01*
X136533653Y-117571599D01*
X136570730Y-117554940D01*
X136603057Y-117556706D01*
X136648787Y-117577998D01*
X136649995Y-117578648D01*
X136713756Y-117601856D01*
X136756834Y-117594995D01*
X136776433Y-117561548D01*
X136769759Y-117505003D01*
X136748905Y-117455365D01*
X136728373Y-117429253D01*
X136970020Y-117429253D01*
X136971515Y-117494101D01*
X136979525Y-117582445D01*
X136994045Y-117699828D01*
X137004165Y-117774177D01*
X137018955Y-117883576D01*
X137033010Y-117992483D01*
X137044817Y-118088866D01*
X137052864Y-118160694D01*
X137053338Y-118165404D01*
X137061700Y-118228960D01*
X137075537Y-118275081D01*
X137099641Y-118304968D01*
X137138804Y-118319822D01*
X137197817Y-118320843D01*
X137281472Y-118309232D01*
X137394561Y-118286190D01*
X137468999Y-118269542D01*
X137581228Y-118238594D01*
X137657353Y-118204421D01*
X137699234Y-118165954D01*
X137709331Y-118131275D01*
X137692291Y-118104126D01*
X137645433Y-118089548D01*
X137575153Y-118088514D01*
X137499999Y-118099377D01*
X137423756Y-118112127D01*
X137348258Y-118120081D01*
X137315202Y-118121406D01*
X137237058Y-118121406D01*
X137226294Y-117993076D01*
X137207734Y-117796071D01*
X137187911Y-117634864D01*
X137166348Y-117507238D01*
X137142566Y-117410974D01*
X137116087Y-117343854D01*
X137102790Y-117325832D01*
X137581983Y-117325832D01*
X137583015Y-117333935D01*
X137597449Y-117410958D01*
X137621137Y-117507359D01*
X137650930Y-117612855D01*
X137683684Y-117717168D01*
X137716252Y-117810015D01*
X137745488Y-117881117D01*
X137757862Y-117905282D01*
X137820843Y-117980077D01*
X137905096Y-118033104D01*
X138000467Y-118060895D01*
X138096801Y-118059977D01*
X138156743Y-118041612D01*
X138217166Y-117993717D01*
X138260228Y-117915086D01*
X138285230Y-117809163D01*
X138291475Y-117679390D01*
X138278262Y-117529211D01*
X138270493Y-117481217D01*
X138240106Y-117335273D01*
X138206923Y-117225485D01*
X138170077Y-117150034D01*
X138128700Y-117107101D01*
X138086217Y-117094760D01*
X138050208Y-117104983D01*
X138029321Y-117137877D01*
X138023136Y-117196780D01*
X138031228Y-117285029D01*
X138049256Y-117386790D01*
X138072144Y-117520093D01*
X138085350Y-117641077D01*
X138088591Y-117743260D01*
X138081580Y-117820161D01*
X138069890Y-117856489D01*
X138035472Y-117885426D01*
X137985493Y-117892258D01*
X137942966Y-117878046D01*
X137920462Y-117853039D01*
X137896124Y-117803720D01*
X137868736Y-117726717D01*
X137837084Y-117618659D01*
X137804056Y-117492499D01*
X137772460Y-117374914D01*
X137744588Y-117290393D01*
X137718180Y-117234450D01*
X137690977Y-117202597D01*
X137660722Y-117190348D01*
X137651677Y-117189820D01*
X137606515Y-117205426D01*
X137583049Y-117251256D01*
X137581983Y-117325832D01*
X137102790Y-117325832D01*
X137086433Y-117303662D01*
X137075992Y-117296003D01*
X137045995Y-117287065D01*
X137017486Y-117305636D01*
X137004697Y-117320257D01*
X136986605Y-117347874D01*
X136975048Y-117382358D01*
X136970020Y-117429253D01*
X136728373Y-117429253D01*
X136696680Y-117388948D01*
X136628893Y-117352351D01*
X136552153Y-117344505D01*
X136473066Y-117364338D01*
X136398241Y-117410779D01*
X136334286Y-117482758D01*
X136309110Y-117526635D01*
X136272494Y-117633193D01*
X136251821Y-117762668D01*
X136246901Y-117903544D01*
X135501295Y-117903544D01*
X135497850Y-117893732D01*
X135473284Y-117832630D01*
X135466562Y-117818477D01*
X135429813Y-117746443D01*
X135488456Y-117691522D01*
X135552007Y-117625104D01*
X135612005Y-117550319D01*
X135662678Y-117475730D01*
X135698256Y-117409898D01*
X135712970Y-117361384D01*
X135713074Y-117358239D01*
X135702392Y-117307057D01*
X135670552Y-117287154D01*
X135617863Y-117298425D01*
X135544634Y-117340765D01*
X135451175Y-117414069D01*
X135390989Y-117467798D01*
X135334393Y-117517982D01*
X135291508Y-117551851D01*
X135267267Y-117565789D01*
X135264453Y-117560553D01*
X135271836Y-117525828D01*
X135279524Y-117463422D01*
X135286380Y-117383654D01*
X135289603Y-117332091D01*
X135293814Y-117244995D01*
X135294216Y-117186610D01*
X135289287Y-117147692D01*
X135277502Y-117118996D01*
X135257339Y-117091277D01*
X135248095Y-117080182D01*
X135218135Y-117053251D01*
X138357130Y-117053251D01*
X138363099Y-117093489D01*
X138377268Y-117148243D01*
X138391385Y-117198936D01*
X138412671Y-117274319D01*
X138438694Y-117365891D01*
X138467025Y-117465154D01*
X138495231Y-117563609D01*
X138520881Y-117652756D01*
X138541544Y-117724096D01*
X138554788Y-117769130D01*
X138556396Y-117774438D01*
X138580775Y-117793532D01*
X138632805Y-117796280D01*
X138706026Y-117783137D01*
X138783842Y-117758421D01*
X138870733Y-117715852D01*
X138949701Y-117659134D01*
X139011738Y-117596138D01*
X139047838Y-117534739D01*
X139050723Y-117525127D01*
X139052846Y-117453575D01*
X139031289Y-117373915D01*
X138992016Y-117297975D01*
X138940992Y-117237579D01*
X138889918Y-117206278D01*
X138873547Y-117192199D01*
X138882736Y-117161879D01*
X138885348Y-117156890D01*
X138905212Y-117088505D01*
X138905297Y-117007913D01*
X138886908Y-116932741D01*
X138866028Y-116895595D01*
X138837849Y-116864935D01*
X138807572Y-116850925D01*
X138761120Y-116849158D01*
X138725618Y-116851638D01*
X138646385Y-116867134D01*
X138557340Y-116898061D01*
X138472018Y-116938449D01*
X138403957Y-116982326D01*
X138380470Y-117003885D01*
X138362833Y-117027338D01*
X138357130Y-117053251D01*
X135218135Y-117053251D01*
X135198428Y-117035537D01*
X135151549Y-117018715D01*
X135150969Y-117018712D01*
X135113023Y-117026730D01*
X135083784Y-117053702D01*
X135061566Y-117104003D01*
X135044681Y-117182010D01*
X135031440Y-117292098D01*
X135027328Y-117339350D01*
X135007484Y-117513476D01*
X134976089Y-117664821D01*
X134929102Y-117807880D01*
X134862483Y-117957145D01*
X134845967Y-117989960D01*
X134799603Y-118085596D01*
X134773112Y-118154714D01*
X134765584Y-118202637D01*
X132929240Y-118202637D01*
X132800257Y-118167189D01*
X132556202Y-118103599D01*
X132336544Y-118050364D01*
X132138432Y-118006870D01*
X131959015Y-117972503D01*
X131795443Y-117946649D01*
X131644864Y-117928692D01*
X131504428Y-117918020D01*
X131371285Y-117914016D01*
X131330813Y-117914035D01*
X131224098Y-117916514D01*
X131122352Y-117921864D01*
X131033018Y-117929397D01*
X130963537Y-117938425D01*
X130921352Y-117948258D01*
X130913339Y-117952679D01*
X130900846Y-117982126D01*
X130886632Y-118043929D01*
X130871374Y-118132496D01*
X130855751Y-118242234D01*
X130840441Y-118367552D01*
X130826124Y-118502857D01*
X130813477Y-118642557D01*
X130803179Y-118781060D01*
X130795909Y-118912773D01*
X130795403Y-118924662D01*
X130783027Y-119224101D01*
X130643410Y-119224101D01*
X130503793Y-119224101D01*
X130503793Y-119152239D01*
X130506888Y-119089364D01*
X130515481Y-118997122D01*
X130528535Y-118883602D01*
X130545011Y-118756896D01*
X130563871Y-118625093D01*
X130584076Y-118496283D01*
X130599475Y-118406586D01*
X130671349Y-118059955D01*
X130762879Y-117714727D01*
X130875968Y-117365412D01*
X130900037Y-117302153D01*
X131856763Y-117302153D01*
X131860369Y-117373293D01*
X131884748Y-117417361D01*
X131930065Y-117436056D01*
X131946560Y-117436975D01*
X132022327Y-117418327D01*
X132097440Y-117362228D01*
X132172163Y-117268448D01*
X132208804Y-117208513D01*
X132246138Y-117142182D01*
X132275850Y-117088295D01*
X132293184Y-117055524D01*
X132295507Y-117050489D01*
X132313587Y-117051464D01*
X132357092Y-117063215D01*
X132416191Y-117082279D01*
X132481054Y-117105191D01*
X132541850Y-117128485D01*
X132588746Y-117148697D01*
X132611412Y-117161829D01*
X132610529Y-117182028D01*
X132602742Y-117231176D01*
X132589454Y-117301117D01*
X132577748Y-117357531D01*
X132557944Y-117460039D01*
X132549380Y-117532264D01*
X132551505Y-117580070D01*
X132555464Y-117594312D01*
X132586789Y-117644902D01*
X132631119Y-117661628D01*
X132688345Y-117645840D01*
X133032385Y-117645840D01*
X133043965Y-117706787D01*
X133075582Y-117738262D01*
X133122549Y-117739683D01*
X133180182Y-117710468D01*
X133225905Y-117669872D01*
X133270634Y-117619019D01*
X133306555Y-117571140D01*
X133317323Y-117553302D01*
X133333066Y-117528518D01*
X133354550Y-117516464D01*
X133392501Y-117514569D01*
X133455868Y-117520075D01*
X133517843Y-117527589D01*
X133562625Y-117534964D01*
X133578787Y-117539764D01*
X133577491Y-117560328D01*
X133566982Y-117607463D01*
X133549460Y-117671472D01*
X133547056Y-117679607D01*
X133522036Y-117770181D01*
X133510389Y-117832660D01*
X133511586Y-117874341D01*
X133525099Y-117902522D01*
X133530499Y-117908472D01*
X133576650Y-117929964D01*
X133635335Y-117919184D01*
X133700911Y-117877262D01*
X133705146Y-117873601D01*
X133735659Y-117843623D01*
X133758739Y-117810230D01*
X133778150Y-117764771D01*
X133797656Y-117698593D01*
X133807889Y-117656915D01*
X134059313Y-117656915D01*
X134070860Y-117810332D01*
X134105686Y-117937209D01*
X134163027Y-118036019D01*
X134242116Y-118105234D01*
X134296682Y-118130874D01*
X134381440Y-118154032D01*
X134448347Y-118154126D01*
X134509976Y-118130899D01*
X134517922Y-118126351D01*
X134571223Y-118075924D01*
X134591025Y-118010107D01*
X134588231Y-117976574D01*
X134566550Y-117949490D01*
X134511120Y-117928087D01*
X134488698Y-117922787D01*
X134411315Y-117897495D01*
X134359591Y-117856955D01*
X134329549Y-117795078D01*
X134317212Y-117705775D01*
X134316353Y-117658904D01*
X134333507Y-117499821D01*
X134380534Y-117339176D01*
X134453005Y-117191813D01*
X134458168Y-117183558D01*
X134511177Y-117115487D01*
X134562578Y-117084029D01*
X134615940Y-117088129D01*
X134668534Y-117121302D01*
X134722754Y-117159601D01*
X134763953Y-117168115D01*
X134801076Y-117148097D01*
X134808647Y-117140932D01*
X134835118Y-117089990D01*
X134836158Y-117024955D01*
X134814982Y-116956737D01*
X134774807Y-116896246D01*
X134725074Y-116857432D01*
X134649995Y-116834805D01*
X134559203Y-116830294D01*
X134470363Y-116843801D01*
X134428333Y-116859064D01*
X134340272Y-116919876D01*
X134259163Y-117012113D01*
X134187960Y-117129388D01*
X134129617Y-117265313D01*
X134087088Y-117413501D01*
X134063329Y-117567564D01*
X134059313Y-117656915D01*
X133807889Y-117656915D01*
X133818871Y-117612186D01*
X133864044Y-117397770D01*
X133892390Y-117206004D01*
X133905319Y-117026176D01*
X133906483Y-116946041D01*
X133899731Y-116796071D01*
X133880030Y-116680656D01*
X133846831Y-116598403D01*
X133799585Y-116547924D01*
X133741357Y-116528147D01*
X133679386Y-116537811D01*
X133617984Y-116580532D01*
X133555413Y-116657940D01*
X133497622Y-116756775D01*
X133465944Y-116816483D01*
X133420037Y-116901858D01*
X133364033Y-117005270D01*
X133302066Y-117119089D01*
X133238270Y-117235686D01*
X133228824Y-117252896D01*
X133170626Y-117360475D01*
X133119276Y-117458429D01*
X133077486Y-117541335D01*
X133047967Y-117603767D01*
X133033432Y-117640302D01*
X133032385Y-117645840D01*
X132688345Y-117645840D01*
X132691219Y-117645047D01*
X132722408Y-117627932D01*
X132771722Y-117590633D01*
X132809467Y-117550046D01*
X132811377Y-117547202D01*
X132827615Y-117512154D01*
X132851990Y-117446882D01*
X132882473Y-117357804D01*
X132917036Y-117251336D01*
X132953653Y-117133894D01*
X132990294Y-117011896D01*
X133024933Y-116891759D01*
X133055541Y-116779899D01*
X133063584Y-116749111D01*
X133090320Y-116634612D01*
X133102702Y-116549291D01*
X133100432Y-116486993D01*
X133083209Y-116441567D01*
X133050735Y-116406857D01*
X133046800Y-116403860D01*
X133010194Y-116379788D01*
X132980935Y-116375868D01*
X132940538Y-116390985D01*
X132928394Y-116396720D01*
X132896887Y-116415538D01*
X132868644Y-116443386D01*
X132838983Y-116486996D01*
X132803226Y-116553099D01*
X132763961Y-116633212D01*
X132725536Y-116713135D01*
X132693412Y-116779416D01*
X132670942Y-116825170D01*
X132661483Y-116843512D01*
X132661477Y-116843520D01*
X132642658Y-116840743D01*
X132599953Y-116827247D01*
X132544458Y-116807214D01*
X132487269Y-116784825D01*
X132439482Y-116764261D01*
X132412194Y-116749704D01*
X132411887Y-116749467D01*
X132399828Y-116721920D01*
X132404982Y-116667814D01*
X132408129Y-116652934D01*
X132416062Y-116569423D01*
X132407700Y-116477504D01*
X132385926Y-116387574D01*
X132353619Y-116310032D01*
X132313662Y-116255279D01*
X132293956Y-116240847D01*
X132229802Y-116220392D01*
X132175849Y-116234053D01*
X132131205Y-116282701D01*
X132094980Y-116367207D01*
X132072142Y-116457864D01*
X132001933Y-116762468D01*
X131916977Y-117054078D01*
X131911213Y-117071870D01*
X131873766Y-117202245D01*
X131856763Y-117302153D01*
X130900037Y-117302153D01*
X131012519Y-117006517D01*
X131174433Y-116632551D01*
X131320583Y-116324775D01*
X131393761Y-116177341D01*
X131453259Y-116061390D01*
X131501212Y-115973822D01*
X131539751Y-115911540D01*
X131571010Y-115871445D01*
X131597122Y-115850440D01*
X131620219Y-115845425D01*
X131642434Y-115853304D01*
X131644351Y-115854469D01*
X131673235Y-115864802D01*
X131713377Y-115861576D01*
X131775356Y-115843629D01*
X131790630Y-115838405D01*
X131909557Y-115800930D01*
X132026077Y-115773206D01*
X132150410Y-115753597D01*
X132292776Y-115740470D01*
X132452520Y-115732569D01*
X132725121Y-115733400D01*
G37*
D11*
%TO.C,C3*%
X164990000Y-113380000D02*
X166520000Y-113380000D01*
X166520000Y-115220000D02*
X164990000Y-115220000D01*
%TO.C,D4*%
X152570000Y-78035000D02*
X154830000Y-78035000D01*
X155970000Y-76115000D02*
X155970000Y-79955000D01*
X156090000Y-76115000D02*
X156090000Y-79955000D01*
X156210000Y-76115000D02*
X156210000Y-79955000D01*
X164930000Y-78035000D02*
X162670000Y-78035000D01*
X154830000Y-76115000D02*
X162670000Y-76115000D01*
X162670000Y-79955000D01*
X154830000Y-79955000D01*
X154830000Y-76115000D01*
%TO.C,D7*%
X152570000Y-93485000D02*
X154830000Y-93485000D01*
X155970000Y-91565000D02*
X155970000Y-95405000D01*
X156090000Y-91565000D02*
X156090000Y-95405000D01*
X156210000Y-91565000D02*
X156210000Y-95405000D01*
X164930000Y-93485000D02*
X162670000Y-93485000D01*
X154830000Y-91565000D02*
X162670000Y-91565000D01*
X162670000Y-95405000D01*
X154830000Y-95405000D01*
X154830000Y-91565000D01*
%TD*%
M02*
