M48
; DRILL file {KiCad 9.0.6} date 2026-04-12T11:59:28-0400
; FORMAT={-:-/ absolute / metric / decimal}
; #@! TF.CreationDate,2026-04-12T11:59:28-04:00
; #@! TF.GenerationSoftware,Kicad,Pcbnew,9.0.6
; #@! TF.FileFunction,NonPlated,1,2,NPTH
FMAT,2
METRIC
; #@! TA.AperFunction,NonPlated,NPTH,ComponentDrill
T1C1.700
; #@! TA.AperFunction,NonPlated,NPTH,ComponentDrill
T2C4.000
%
G90
G05
T1
X76.2Y-90.805
X76.2Y-109.855
X85.725Y-128.905
X86.36Y-90.805
X86.36Y-109.855
X95.25Y-71.755
X95.25Y-90.805
X95.25Y-109.855
X95.885Y-128.905
X104.775Y-128.905
X105.41Y-71.755
X105.41Y-90.805
X105.41Y-109.855
X114.3Y-90.805
X114.3Y-109.855
X114.935Y-128.905
X124.46Y-90.805
X124.46Y-109.855
T2
X81.28Y-90.805
X81.28Y-109.855
X90.805Y-128.905
X100.33Y-71.755
X100.33Y-90.805
X100.33Y-109.855
X109.855Y-128.905
X119.38Y-90.805
X119.38Y-109.855
M30
